<svg id="Group_679" data-name="Group 679" xmlns="http://www.w3.org/2000/svg" width="152.511" height="44.043" viewBox="0 0 152.511 44.043">
  <path id="Path_1354" data-name="Path 1354" d="M0,99.123A9.742,9.742,0,0,1,.064,97.9l.582-.065c2.454-.258,3.81-4.521,3.81-10.4,0-8.008-.646-9.558-3.81-11.3L.064,75.81A2.97,2.97,0,0,1,0,75.163l11.689-4.779H13.5v4.456c1.679-2.324,5.748-4.779,10.978-4.779,3.746,0,5.748,2.066,6.523,5.619,2.26-2.39,7.491-5.619,12.269-5.619,5.1,0,6.975,3.875,6.975,9.945v7.879c0,5.748,1.42,9.688,3.746,9.946l.646.065v1.937H36.616V97.9l.776-.065c2.324-.194,3.745-4.2,3.745-9.946V80.977c0-3.165-1.807-6.588-4.521-6.588-1.549,0-3.358,1.034-5.231,3.876a15.525,15.525,0,0,1,.065,1.743v7.879c0,5.748,1.42,9.752,3.745,9.946l.84.065v1.937h-17.5V97.9l.323-.065c2.325-.453,3.488-4.2,3.488-9.946V80.977c0-3.23-1.615-6.911-4.262-6.911-1.292,0-2.842.969-4.585,3.423v10.4c0,5.748,1.485,9.688,3.809,9.946l.646.065v1.937H0Z" transform="translate(0 -56.565)" fill="#f5f5f5"/>
  <path id="Path_1355" data-name="Path 1355" d="M78.687,83.249V78.212c0-3.294-.9-5.425-2.325-5.425-2.842,0-4.2,3.1-3.616,7.62a17.629,17.629,0,0,1-4.521.711,19.916,19.916,0,0,1-4.649-.711C62.736,74.337,69,69.881,78.429,70.2c6.006.194,9.88,3.94,9.88,10.139V91.514c0,2.778.517,4.586,2.519,4.586a2.715,2.715,0,0,0,2.712-1.357l.969,1.227c-1.549,2.842-4.133,4.65-9.88,4.65-2.583,0-4.584-1.162-5.3-3.164a17.166,17.166,0,0,1-8.913,2.842,7.788,7.788,0,0,1-8.008-7.749c0-7.556,10.591-9.042,16.274-9.3M76.04,95.712a4.776,4.776,0,0,0,2.712-.84l-.065-9.816c-3.552,0-7.168,1.678-7.168,6.006a4.443,4.443,0,0,0,4.521,4.65" transform="translate(-6.485 -56.578)" fill="#f5f5f5"/>
  <path id="Path_1357" data-name="Path 1357" d="M152.447,70.062c8.072,0,13.239,5.941,13.239,15.112l-19.374.323c.839,5.748,4,10.268,11.818,9.687,1.679-.129,4.2-1.615,6.329-4.779l1.033.9a16.637,16.637,0,0,1-14.4,8.847c-8.912,0-14.66-5.3-14.66-13.562,0-10.074,6.2-16.532,16.016-16.532M146.119,83.43h7.491c6.458-.258,4.779-10.72-1.679-10.72-3.616,0-5.941,4.326-5.811,10.72" transform="translate(-13.175 -56.565)" fill="#f5f5f5"/>
  <path id="Path_644" data-name="Path 644" d="M547.82,44.423v-.711a9.755,9.755,0,0,1,.064-1.227l.582-.065c2.324-.258,3.81-4.2,3.81-9.945V18.268c0-8.072-.646-9.622-3.81-11.366l-.582-.323a3.838,3.838,0,0,1-.064-.646l11.753-4.779h1.808V28.213l1.485-1.291c6.523-5.683,9.946-9.623,9.106-9.946-.323-.128-.259-.258-.259-1.291v-.71H582.3v1.937l-.774.064c-2.132.194-6.587,2.778-11.948,6.781l7.492,10.01c3.939,5.037,7.814,8.46,10.14,8.654l.774.065v1.937H569.131v-.711a9.618,9.618,0,0,1,.065-1.227l.323-.065c1.357-.258-.516-4.262-4.908-9.945-1.1-1.421-2.132-2.842-3.229-4.263v4.263c0,5.748,1.485,9.687,3.745,9.945l.646.065a9.627,9.627,0,0,1,.065,1.227v.711Z" transform="translate(-460.634 -1.154)" fill="#f5f5f5"/>
</svg>
