<svg xmlns="http://www.w3.org/2000/svg" width="307.999" height="57.349" viewBox="0 0 307.999 57.349">
  <g id="Group_680" data-name="Group 680" transform="translate(0)">
    <path id="Path_1358" data-name="Path 1358" d="M183.782,73.13V72.1c3.1-.646,7.685-4.972,11.56-11.044h1.486v8.4h8.589V73.13h-8.589s-.065,12.722-.065,18.341c0,2.842.71,3.552,3.229,3.552,1.163,0,3.552-.711,5.554-3.617l.646.84c-3.359,6.006-8.46,6.974-10.656,6.974-6.2,0-8.007-1.937-8.007-9.363V73.13Z" transform="translate(-183.782 -55.11)" fill="#f5f5f5"/>
    <path id="Path_1359" data-name="Path 1359" d="M220.409,55h1.808V72.952c1.807-2.26,5.748-4.456,10.72-4.456,5.1,0,6.974,3.876,6.974,9.946V86.32c0,5.748,1.421,9.687,3.746,9.946l.645.065a9.473,9.473,0,0,1,.065,1.227v.711H208.849V96.331l.581-.065c2.325-.259,3.746-4.2,3.746-9.946V72.048c0-8.008-.646-9.558-3.81-11.3l-.581-.323a2.892,2.892,0,0,1-.065-.646Zm6.135,17.566c-1.227,0-2.712.84-4.326,3.035V86.32c0,5.748,1.485,9.687,3.746,9.946l.581.065h.194l.323-.065c2.324-.453,3.746-4.2,3.746-9.946v-6.91c0-3.164-1.615-6.845-4.263-6.845" transform="translate(-186.374 -54.481)" fill="#f5f5f5"/>
    <path id="Path_1360" data-name="Path 1360" d="M266.392,70.062c8.072,0,13.239,5.941,13.239,15.112l-19.374.323c.839,5.748,4,10.268,11.818,9.687,1.679-.129,4.2-1.615,6.329-4.779l1.033.9a16.636,16.636,0,0,1-14.4,8.847c-8.912,0-14.66-5.3-14.66-13.562,0-10.074,6.2-16.532,16.016-16.532M260.065,83.43h7.49c6.458-.258,4.779-10.72-1.679-10.72-3.616,0-5.941,4.326-5.81,10.72" transform="translate(-190.701 -56.046)" fill="#f5f5f5"/>
    <path id="Path_1361" data-name="Path 1361" d="M325.691,80.976c0-3.1-1.678-6.523-4.2-6.523-1.55,0-3.359,1.227-5.36,4.392v9.041c0,5.748,1.421,9.751,3.747,9.946l.839.064v1.937h-17.5V97.895l.323-.064c2.325-.453,3.488-4.2,3.488-9.946v-6.91c0-3.23-1.615-6.91-4.263-6.91-1.29,0-2.842.969-4.584,3.422v10.4c0,5.748,1.485,9.751,3.745,9.946l.711.064v1.937H284.683v-.711a9.5,9.5,0,0,1,.065-1.227l.581-.064c2.454-.259,3.81-4.521,3.81-10.4,0-8.008-.646-9.558-3.81-11.3l-.581-.324a2.889,2.889,0,0,1-.065-.645l11.69-4.779h1.808V74.84c1.679-2.324,5.748-4.779,10.978-4.779,3.81,0,5.812,2.132,6.587,5.748,2.324-3.293,7.3-5.748,12.077-5.748,5.1,0,6.974,3.876,6.974,9.946V91.76c0,5.49.129,7.1.129,7.749,0,2.066.194,8.137,2.777,8.976,3.293,1.1,5.425-2.2,6.974-3.875a3.515,3.515,0,0,1,2.648-1.1,3.848,3.848,0,0,1,3.939,3.035c.516,3.423-1.679,5.49-4.972,6.329a18.914,18.914,0,0,1-4.327.517,14.966,14.966,0,0,1-8.266-2.2c-1.744-1.163-8.008-4.392-8.008-14.208Z" transform="translate(-194.266 -56.046)" fill="#f5f5f5"/>
    <path id="Path_1362" data-name="Path 1362" d="M346.737,89.748c.194,0,.388.065.775.065,1.292,3.552,4.714,8.46,9.429,8.46,3.1,0,5.1-1.744,5.1-4.456,0-1.808-2.131-3.81-5.425-5.1C350.806,86.455,347,82.45,347,79.092c0-5.554,5.166-9.751,13.562-9.751,2.648,0,7.039.969,9.041,3.229l-.258,7.1h-.969c-1.678-3.293-3.746-8.008-7.556-8.2s-6.2,2.131-6.264,4.391c-.065,2.2,3.487,3.681,8.976,5.877,4.068,1.615,6.587,5.167,6.587,8.655,0,6.135-5.36,10.009-13.821,10.009A15.285,15.285,0,0,1,347.06,97.5Z" transform="translate(-200.713 -55.971)" fill="#f5f5f5"/>
    <path id="Path_1363" data-name="Path 1363" d="M391.078,70.062c8.072,0,13.239,5.941,13.239,15.112l-19.374.323c.839,5.748,4,10.268,11.818,9.687,1.679-.129,4.2-1.615,6.329-4.779l1.033.9a16.637,16.637,0,0,1-14.4,8.847c-8.912,0-14.66-5.3-14.66-13.562,0-10.074,6.2-16.532,16.016-16.532M384.75,83.43h7.49c6.458-.258,4.779-10.72-1.679-10.72-3.616,0-5.941,4.326-5.811,10.72" transform="translate(-203.657 -56.046)" fill="#f5f5f5"/>
    <path id="Path_1364" data-name="Path 1364" d="M421.121,55h1.809V86.321c0,5.748,1.485,9.687,3.745,9.945l.646.065a9.614,9.614,0,0,1,.064,1.227v.711H409.368v-.711a9.61,9.61,0,0,1,.065-1.227l.581-.065c2.325-.258,3.81-4.2,3.81-9.945V72.114c0-8.073-.645-9.622-3.81-11.366l-.581-.323a3.789,3.789,0,0,1-.065-.646Z" transform="translate(-207.221 -54.481)" fill="#f5f5f5"/>
    <path id="Path_1365" data-name="Path 1365" d="M425.081,68.759h19.438v.711a9.605,9.605,0,0,1-.065,1.227l-.646.065c-2.2.194-1.679,4.2,1.486,9.946,1.356,2.454,2.324,4.584,3.681,7.1l3.164-6.07c1.744-4.133,11.366-27.059,24.153-27.318,2.971-.065,6.071,1.357,6.071,4.585,0,2.906-2.067,5.683-4.521,4.972a13.686,13.686,0,0,0-3.81-.581c-9.3,0-15.241,10.009-18.793,17.307l-8.912,18.146h-1.743l-9.816-18.146c-.646-1.357-2.649-4.134-3.359-5.3-2.066-2.906-4.584-4.521-6.328-4.714Z" transform="translate(-208.853 -54.421)" fill="#f5f5f5"/>
    <path id="Path_1366" data-name="Path 1366" d="M482.393,70.062c8.072,0,13.24,5.941,13.24,15.112l-19.375.323c.839,5.748,4,10.268,11.818,9.687,1.679-.129,4.2-1.615,6.329-4.779l1.034.9a16.638,16.638,0,0,1-14.4,8.847c-8.912,0-14.659-5.3-14.659-13.562,0-10.074,6.2-16.532,16.015-16.532M476.066,83.43h7.49c6.458-.258,4.779-10.72-1.679-10.72-3.616,0-5.941,4.326-5.81,10.72" transform="translate(-213.144 -56.046)" fill="#f5f5f5"/>
    <path id="Path_1367" data-name="Path 1367" d="M501.4,89.748c.194,0,.388.065.775.065,1.292,3.552,4.714,8.46,9.429,8.46,3.1,0,5.1-1.744,5.1-4.456,0-1.808-2.131-3.81-5.425-5.1-5.811-2.26-9.621-6.265-9.621-9.622,0-5.554,5.166-9.751,13.562-9.751,2.648,0,7.039.969,9.041,3.229l-.258,7.1h-.969c-1.678-3.293-3.746-8.008-7.556-8.2s-6.2,2.131-6.264,4.391c-.065,2.2,3.487,3.681,8.976,5.877,4.068,1.615,6.587,5.167,6.587,8.655,0,6.135-5.36,10.009-13.821,10.009a15.285,15.285,0,0,1-9.235-2.906Z" transform="translate(-216.784 -55.971)" fill="#f5f5f5"/>
  </g>
</svg>
