<svg xmlns="http://www.w3.org/2000/svg" width="21.593" height="21.482" viewBox="0 0 21.593 21.482"><g><path d="M7.67 7.138h4.262v2c.221-.291.382-.521.562-.736a4.38 4.38 0 0 1 2.919-1.583 7.6 7.6 0 0 1 2.492.117 4.09 4.09 0 0 1 3.252 3.037 11.5 11.5 0 0 1 .395 3.266c0 2.692.027 5.385.042 8.077 0 .045-.006.091-.01.154h-4.443v-.317c0-2.358.014-4.716-.009-7.074a6.1 6.1 0 0 0-.306-2.1 1.79 1.79 0 0 0-1.614-1.254 3.3 3.3 0 0 0-1.595.156 2.16 2.16 0 0 0-1.306 1.625 7.7 7.7 0 0 0-.18 1.567c-.019 2.348-.008 4.7-.008 7.045v.352H7.671Z"/><path d="M.379 7.139h4.432v14.343H.379z"/><path d="M2.572.011a2.515 2.515 0 0 1 2.584 2.755 2.583 2.583 0 0 1-5.153-.352 2.53 2.53 0 0 1 2.569-2.4"/></g></svg>