<svg xmlns="http://www.w3.org/2000/svg" width="21.53" height="21.57" viewBox="0 0 21.53 21.57"><path d="M7.618 21.118a.3.3 0 0 1 .021-.145c.117-.341.551-.931.734-1.313a23.6 23.6 0 0 0 1.2-3.921l.358.427a4.13 4.13 0 0 0 4.75.04c2.439-1.467 3.487-5.087 2.712-7.74-1.786-6.108-11.59-5.895-13.272.227-.509 1.853-.2 4.355 1.356 5.642.184.152.785.617.941.273a11 11 0 0 0 .322-1.37 7 7 0 0 0-.462-.8C4.263 8.222 9.234 4.26 13.157 6.511c2.665 1.529 2.654 6.117.487 7.99-1.3 1.122-3.727.917-3.432-1.146.176-1.23 1.892-4.484.073-5.115-2.185-.757-3 2.707-2.165 4.17-.376 2.281-1.467 4.8-1.407 7.115a8 8 0 0 1 .073 1.26 10.2 10.2 0 0 1-2.807-1.621 10.733 10.733 0 1 1 3.641 1.953"/></svg>