<svg xmlns="http://www.w3.org/2000/svg" width="20" height="20" viewBox="0 0 20 20"><path d="m18.444 20-7-7a6.6 6.6 0 0 1-1.917 1.056 6.8 6.8 0 0 1-2.306.389 6.97 6.97 0 0 1-5.125-2.1 6.97 6.97 0 0 1-2.1-5.125 6.97 6.97 0 0 1 2.1-5.125 6.97 6.97 0 0 1 5.125-2.1 6.97 6.97 0 0 1 5.125 2.1 6.97 6.97 0 0 1 2.1 5.125 6.8 6.8 0 0 1-.389 2.306A6.6 6.6 0 0 1 13 11.445l7 7ZM7.222 12.222a4.82 4.82 0 0 0 3.542-1.458 4.82 4.82 0 0 0 1.458-3.542 4.82 4.82 0 0 0-1.458-3.542 4.82 4.82 0 0 0-3.542-1.458A4.82 4.82 0 0 0 3.68 3.68a4.82 4.82 0 0 0-1.458 3.542 4.82 4.82 0 0 0 1.458 3.542 4.82 4.82 0 0 0 3.542 1.458"/></svg>