<svg xmlns="http://www.w3.org/2000/svg" width="289.227" height="178.009" viewBox="0 0 289.227 178.009">
  <g id="Group_743" data-name="Group 743" transform="translate(7618.685 -3301.719)">
    <g id="Group_740" data-name="Group 740" transform="translate(-682.888 -83.507)">
      <path id="Path_1393" data-name="Path 1393" d="M19.263,10.019v.711a9.618,9.618,0,0,1-.065,1.228l-.647.065c-2.2.194-2.133,4.2.195,9.955,2.133,5.494,4.46,11.053,6.658,16.613L35.618,9.372h2.521L51.39,37.1l5.172-16.031C59.276,12.734,65.029,0,78.024,0,81,0,84.1,1.357,84.1,4.589c0,2.909-2.068,5.689-4.524,4.978a15.716,15.716,0,0,0-4.4-.647c-10.73,0-15.966,12.863-18.747,21.2L49.064,52.36H46.606L32.58,25.081l-9.5,27.279H20.556L7.757,21.978C5.3,16.224,2.586,12.217.647,12.023L0,11.958V10.019Z" transform="translate(-6893.84 3385.226)" fill="#f5f5f5"/>
      <path id="Path_1394" data-name="Path 1394" d="M85.579,24.07c8.08,0,13.252,5.947,13.252,15.126l-19.392.323c.84,5.753,4.008,10.278,11.829,9.7,1.681-.129,4.2-1.616,6.335-4.784l1.034.905a16.653,16.653,0,0,1-14.415,8.856c-8.92,0-14.674-5.3-14.674-13.575,0-10.084,6.206-16.548,16.031-16.548M79.245,37.451h7.5c6.464-.258,4.784-10.73-1.681-10.73-3.619,0-5.947,4.331-5.817,10.73" transform="translate(-6901.006 3382.746)" fill="#f5f5f5"/>
      <path id="Path_1395" data-name="Path 1395" d="M129.747,9.008h1.811V40.36c0,5.753,1.486,9.7,3.748,9.955l.647.065a9.621,9.621,0,0,1,.065,1.228v.711H117.982v-.711a9.618,9.618,0,0,1,.065-1.228l.581-.065c2.328-.258,3.814-4.2,3.814-9.955V26.138c0-8.081-.646-9.632-3.814-11.377l-.581-.323a3.793,3.793,0,0,1-.065-.647Z" transform="translate(-6905.997 3384.298)" fill="#f5f5f5"/>
      <path id="Path_1396" data-name="Path 1396" d="M139.242,51.489a9.489,9.489,0,0,1,.065-1.228l.581-.065c2.457-.259,3.814-4.525,3.814-10.343,0-8.081-.647-9.632-3.814-11.377l-.581-.323a3.743,3.743,0,0,1-.065-.647l11.765-4.784h1.81V40.241c0,5.753,1.486,9.7,3.749,9.955l.647.065a9.617,9.617,0,0,1,.065,1.228V52.2H139.242Zm3.491-38.462c0-3.167,1.939-5.171,5.043-5.171,3.038,0,4.977,2,4.977,5.171s-1.939,5.172-4.977,5.172c-3.1,0-5.043-2-5.043-5.172" transform="translate(-6908.187 3384.417)" fill="#f5f5f5"/>
      <path id="Path_1397" data-name="Path 1397" d="M154.955,22.782h19.457v.711a9.619,9.619,0,0,1-.065,1.228l-.647.065c-2.2.194-1.681,4.2,1.487,9.955,1.357,2.456,2.327,4.589,3.685,7.11l3.167-6.076c1.745-4.137,11.377-27.085,24.176-27.344,2.974-.065,6.077,1.358,6.077,4.59,0,2.909-2.069,5.689-4.525,4.977a13.7,13.7,0,0,0-3.814-.581c-9.309,0-15.256,10.019-18.811,17.324l-8.92,18.164h-1.745l-9.825-18.164c-.647-1.358-2.651-4.138-3.363-5.3-2.068-2.909-4.589-4.525-6.334-4.719Z" transform="translate(-6909.806 3384.357)" fill="#f5f5f5"/>
      <path id="Path_1398" data-name="Path 1398" d="M212.283,24.07c8.08,0,13.252,5.947,13.252,15.126l-19.392.323c.84,5.753,4.008,10.278,11.829,9.7,1.681-.129,4.2-1.616,6.335-4.784l1.034.905a16.652,16.652,0,0,1-14.415,8.856c-8.92,0-14.674-5.3-14.674-13.575,0-10.084,6.206-16.548,16.031-16.548m-6.333,13.381h7.5c6.464-.258,4.784-10.73-1.681-10.73-3.619,0-5.947,4.331-5.816,10.73" transform="translate(-6914.061 3382.746)" fill="#f5f5f5"/>
    </g>
    <g id="Group_741" data-name="Group 741" transform="translate(-945.611 -34.003)">
      <path id="Path_1399" data-name="Path 1399" d="M261.057,9.008l.776,1.358c-5.3,3.1-8.6,9.308-8.6,25.533s3.3,22.5,8.6,25.6l-.776,1.357c-9.114-5.43-14.932-12.605-14.932-26.956,0-14.286,5.818-21.461,14.932-26.891" transform="translate(-6919.199 3384.298)" fill="#f5f5f5"/>
      <path id="Path_1400" data-name="Path 1400" d="M279.425,37.27V32.228c0-3.3-.9-5.43-2.328-5.43-2.844,0-4.2,3.1-3.619,7.628a17.647,17.647,0,0,1-4.525.711,19.934,19.934,0,0,1-4.653-.711c-.841-6.076,5.43-10.537,14.867-10.214,6.011.195,9.89,3.944,9.89,10.149V45.544c0,2.781.517,4.591,2.521,4.591a2.717,2.717,0,0,0,2.714-1.358l.97,1.228c-1.551,2.844-4.137,4.654-9.89,4.654-2.585,0-4.589-1.163-5.3-3.167a17.182,17.182,0,0,1-8.921,2.844,7.8,7.8,0,0,1-8.015-7.757c0-7.563,10.6-9.05,16.29-9.309m-2.65,12.476a4.781,4.781,0,0,0,2.714-.84l-.065-9.825c-3.555,0-7.175,1.68-7.175,6.011a4.447,4.447,0,0,0,4.525,4.654" transform="translate(-6920.952 3382.733)" fill="#f5f5f5"/>
      <path id="Path_1401" data-name="Path 1401" d="M321.248,35c0-3.233-1.615-6.917-4.266-6.917-1.293,0-2.844.97-4.59,3.426V41.912c0,5.753,1.423,9.7,3.685,9.955l.582.064V53.87H298.882v-.711a9.5,9.5,0,0,1,.066-1.228l.581-.064c2.456-.259,3.814-4.525,3.814-10.408,0-8.016-.647-9.567-3.814-11.313l-.581-.324a2.89,2.89,0,0,1-.066-.646l11.7-4.784h1.81v4.46c1.681-2.327,5.753-4.784,10.99-4.784,5.106,0,6.981,3.879,6.981,9.955V45.79c0,5.495.129,7.11.129,7.757,0,2.068.194,8.145,2.78,8.985,3.3,1.1,5.43-2.2,6.981-3.878a3.52,3.52,0,0,1,2.651-1.1,3.851,3.851,0,0,1,3.943,3.038c.453,3.426-1.681,5.495-4.977,6.335a18.934,18.934,0,0,1-4.331.518,15.383,15.383,0,0,1-8.274-2.2c-1.745-1.164-8.016-4.4-8.016-14.221Z" transform="translate(-6924.635 3382.746)" fill="#f5f5f5"/>
      <path id="Path_1402" data-name="Path 1402" d="M339.171,39.649c0-10.473,6.076-17.13,15.579-17.13a8.339,8.339,0,0,1,4.912,1.681c-.128-6.4-.84-7.952-3.748-9.438l-.647-.324a2.927,2.927,0,0,1-.065-.646l11.7-4.784h1.809V35.253c0,8.015.647,9.567,3.814,11.313l.582.323a2.943,2.943,0,0,1,.065.647l-11.7,4.784h-1.811v-4.4c-2.521,2.909-5.623,4.719-8.4,4.719-7.434,0-12.088-5.042-12.088-12.993m17.065,7.239a7.053,7.053,0,0,0,3.426-.776V28.078A6.409,6.409,0,0,0,354.3,25.1c-3.426,0-5.624,4.267-5.624,10.99,0,6.594,2.974,10.8,7.563,10.8" transform="translate(-6928.786 3384.298)" fill="#f5f5f5"/>
      <path id="Path_1403" data-name="Path 1403" d="M392.5,43.777c.195,0,.388.065.776.065,1.293,3.556,4.719,8.468,9.438,8.468,3.1,0,5.106-1.746,5.106-4.461,0-1.81-2.133-3.814-5.43-5.106-5.817-2.262-9.631-6.271-9.631-9.632,0-5.559,5.171-9.761,13.575-9.761,2.651,0,7.046.97,9.049,3.232l-.258,7.11h-.97c-1.68-3.3-3.749-8.015-7.563-8.209s-6.205,2.133-6.27,4.4c-.065,2.2,3.49,3.685,8.985,5.882,4.072,1.616,6.594,5.172,6.594,8.663,0,6.141-5.366,10.019-13.834,10.019a15.3,15.3,0,0,1-9.244-2.909Z" transform="translate(-6934.281 3382.82)" fill="#f5f5f5"/>
      <path id="Path_1404" data-name="Path 1404" d="M431.8,9.008h1.811V40.36c0,5.753,1.486,9.7,3.748,9.955l.647.065a9.623,9.623,0,0,1,.065,1.228v.711H420.035v-.711a9.61,9.61,0,0,1,.065-1.228l.581-.065c2.328-.258,3.814-4.2,3.814-9.955V26.138c0-8.081-.646-9.632-3.814-11.377l-.581-.323a3.79,3.79,0,0,1-.065-.647Z" transform="translate(-6937.118 3384.298)" fill="#f5f5f5"/>
      <path id="Path_1405" data-name="Path 1405" d="M458.121,24.07c8.08,0,13.252,5.947,13.252,15.126l-19.392.323c.84,5.753,4.008,10.278,11.829,9.7,1.681-.129,4.2-1.616,6.335-4.784l1.034.905a16.653,16.653,0,0,1-14.415,8.856c-8.92,0-14.674-5.3-14.674-13.575,0-10.084,6.206-16.548,16.031-16.548m-6.334,13.381h7.5c6.464-.258,4.783-10.73-1.681-10.73-3.619,0-5.947,4.331-5.817,10.73" transform="translate(-6939.39 3382.746)" fill="#f5f5f5"/>
      <path id="Path_1406" data-name="Path 1406" d="M493.22,24.07c8.08,0,13.252,5.947,13.252,15.126l-19.392.323c.84,5.753,4.008,10.278,11.829,9.7,1.681-.129,4.2-1.616,6.335-4.784l1.034.905a16.653,16.653,0,0,1-14.415,8.856c-8.92,0-14.674-5.3-14.674-13.575,0-10.084,6.206-16.548,16.031-16.548m-6.334,13.381h7.5c6.464-.258,4.784-10.73-1.681-10.73-3.619,0-5.947,4.331-5.817,10.73" transform="translate(-6943.006 3382.746)" fill="#f5f5f5"/>
      <path id="Path_1407" data-name="Path 1407" d="M511.927,69.32a9.478,9.478,0,0,1,.066-1.228l.581-.065c2.328-.259,3.749-4.2,3.749-9.955V41.46c0-8.016-.582-9.567-3.749-11.313l-.581-.323a2.892,2.892,0,0,1-.066-.647l11.7-4.784h1.811v2.973c1.357-1.745,5.171-3.3,9.7-3.3,7.3,0,13.057,6.981,12.67,16.937-.388,9.179-8.533,13.832-15.514,13.832a11.443,11.443,0,0,1-6.852-2v4.2c0,5.752,1.422,10.73,3.749,10.989l.646.065a9.486,9.486,0,0,1,.065,1.228v.711H511.927Zm13.511-39.432V44.562a7.439,7.439,0,0,0,.065,1.229v2.2a5.651,5.651,0,0,0,4.654,3.685c4.525.129,7.434-3.233,7.434-9.05,0-8.339-4.4-15.32-9.567-14.286a4.132,4.132,0,0,0-2.586,1.552" transform="translate(-6946.585 3382.746)" fill="#f5f5f5"/>
      <path id="Path_1408" data-name="Path 1408" d="M551.911,9.008c9.05,5.43,14.867,12.605,14.867,26.956,0,14.286-5.818,21.461-14.867,26.891l-.776-1.357c5.237-3.1,8.6-9.309,8.6-25.534s-3.361-22.5-8.6-25.6Z" transform="translate(-6950.625 3384.298)" fill="#f5f5f5"/>
    </g>
    <g id="Group_742" data-name="Group 742" transform="translate(-1140.227 25.917)">
      <path id="Path_1409" data-name="Path 1409" d="M583.855,13.792,595.62,9.008h1.81V25.3c1.1-1.681,4.59-2.78,9.438-2.78,7.24,0,11.894,6.011,11.894,15.385,0,8.986-6.334,14.738-16.29,14.738-3.814,0-6.4-2.391-9.244-2.391a4.934,4.934,0,0,0-3.942,2.068h-.97V26.138c0-8.081-.647-9.632-3.814-11.377l-.582-.323a3.79,3.79,0,0,1-.065-.647m18.617,36.2c3.75,0,6.141-3.749,6.141-9.567,0-8.339-3.426-13.7-8.791-13.7-1.358,0-2.263.387-2.392.97V40.683c0,5.689,1.939,9.309,5.042,9.309" transform="translate(-6953.997 3384.298)" fill="#f5f5f5"/>
      <path id="Path_1410" data-name="Path 1410" d="M606.141,60.049a4.321,4.321,0,0,1,3.943-2.456,6.727,6.727,0,0,1,3.748,1.293c4.525,3.1,8.211,4.913,11.572,4.913,4.46,0,8.209-3.168,12.346-10.666L628.7,36.39c-3.1-5.689-6.657-9.7-9.115-9.955l-.646-.065V24.431h18.229v.711c0,1.228.129,1.228-.517,1.293-1.552.324-.582,4.2,2.585,9.955,1.357,2.456,2.78,5.042,4.072,7.563l3.426-7.563c2.586-5.754,3.232-9.632,1.551-9.955-.646-.065-.516-.065-.516-1.293v-.711h10.924V26.37l-.71.065c-2.457.194-5.883,4.267-8.792,9.955L640.789,53c-4.784,10.86-12.476,18.1-21.655,18.1a21.212,21.212,0,0,1-9.761-2.585c-3.491-1.81-4.461-6.141-3.232-8.468" transform="translate(-6956.24 3382.709)" fill="#f5f5f5"/>
    </g>
  </g>
</svg>
