<svg id="Group_710" data-name="Group 710" xmlns="http://www.w3.org/2000/svg" xmlns:xlink="http://www.w3.org/1999/xlink" width="103.935" height="103.937" viewBox="0 0 103.935 103.937">
  <defs>
    <clipPath id="clip-path">
      <rect id="Rectangle_840" data-name="Rectangle 840" width="103.935" height="103.937" fill="none"/>
    </clipPath>
  </defs>
  <g id="Group_465" data-name="Group 465" transform="translate(0 0)" clip-path="url(#clip-path)">
    <path id="Path_1097" data-name="Path 1097" d="M51.968,103.937A51.968,51.968,0,1,0,0,51.969a51.968,51.968,0,0,0,51.968,51.968" transform="translate(0 0)" fill="#251163"/>
    <path id="Path_1098" data-name="Path 1098" d="M78.8,47.061c-.77-2.423-3.527-3.636-6.266-2.766L58.566,48.59a5.249,5.249,0,0,0-4.331-4.162L46.4,42.96a44.107,44.107,0,0,1-6.918-2.113c-.428-.224-5.514-2.763-10.751-.5a.983.983,0,0,0-.124.066l-9.974,6.235-.5-1.085a.935.935,0,0,0-1.24-.46l-5.889,2.7a.936.936,0,0,0-.46,1.24L17.69,64.646a.933.933,0,0,0,.851.545.934.934,0,0,0,.389-.085l5.889-2.7a.934.934,0,0,0,.46-1.24l-.517-1.13a13.436,13.436,0,0,1,5.29-2.526l20,3.192a.984.984,0,0,0,.148.012h.057l1.189-.072a.964.964,0,0,0,.227-.042l23.646-7.49A4.951,4.951,0,0,0,78.8,47.061M19,63.016,12.637,49.11l4.188-1.918,5.785,12.636.122.283c0,.009.013.015.018.024l.441.964ZM74.759,51.331,51.224,58.787l-.972.057-20.041-3.2a.95.95,0,0,0-.146-.01c-.028,0-.055,0-.082,0a13.714,13.714,0,0,0-6,2.651L19.622,48.236l9.915-6.2c4.492-1.9,9.043.449,9.087.472l.039.019a44.71,44.71,0,0,0,7.362,2.262l7.865,1.475a3.2,3.2,0,0,1,2.837,3.29c-.01.031,0,.067-.007.1,0,.013-.012.022-.013.036a2.61,2.61,0,0,1-1.3,1.758,3.7,3.7,0,0,1-2.566.414l-10.9-2.039a.935.935,0,1,0-.344,1.839L52.5,53.7a5.819,5.819,0,0,0,1.083.1,5.462,5.462,0,0,0,2.778-.744,4.5,4.5,0,0,0,2.013-2.453l14.718-4.526c1.748-.556,3.474.124,3.925,1.544a3.087,3.087,0,0,1-2.255,3.7" transform="translate(5.128 19.323)" fill="#fff"/>
    <path id="Path_1099" data-name="Path 1099" d="M43.321,33.633a10.347,10.347,0,0,0,7.332-3.012,10.249,10.249,0,0,0,0-14.576,10.432,10.432,0,0,0-14.665,0,10.249,10.249,0,0,0,0,14.576,10.354,10.354,0,0,0,7.333,3.012M37.54,17.624a8.227,8.227,0,0,1,11.56,0,8.018,8.018,0,0,1,0,11.417,8.227,8.227,0,0,1-11.56,0,8.018,8.018,0,0,1,0-11.417" transform="translate(16.15 6.389)" fill="#e9b4c5"/>
    <path id="Path_1100" data-name="Path 1100" d="M29.633,43.089a1.054,1.054,0,0,0,1.054-1.052V38.871c0-3.758,2.793-7.29,7.29-9.216a1.053,1.053,0,1,0-.829-1.936c-5.284,2.262-8.567,6.535-8.567,11.151v3.165a1.054,1.054,0,0,0,1.052,1.052" transform="translate(14.012 13.548)" fill="#e9b4c5"/>
    <path id="Path_1101" data-name="Path 1101" d="M45.553,27.634a1.053,1.053,0,0,0-.416,2.021c4.5,1.927,7.292,5.459,7.292,9.217v3.165a1.054,1.054,0,0,0,2.107,0V38.872c0-4.617-3.284-8.889-8.57-11.153a1.045,1.045,0,0,0-.413-.085" transform="translate(21.815 13.547)" fill="#e9b4c5"/>
  </g>
</svg>
