<svg id="Group_736" data-name="Group 736" xmlns="http://www.w3.org/2000/svg" width="217.125" height="53.431" viewBox="0 0 217.125 53.431">
  <path id="Path_1379" data-name="Path 1379" d="M288.46,2.809l.171-1.138h36.012l.172,1.138c.4,2.787.8,6.429,1.195,9.216a5.019,5.019,0,0,1-.74-.057l-.683-1.194A15.752,15.752,0,0,0,311.1,3.946V27.556c0,5.064,1.252,8.534,3.3,8.762l.569.057a8.415,8.415,0,0,1,.057,1.08v.626H298.245v-.626a8.415,8.415,0,0,1,.057-1.08l.569-.057c2.048-.228,3.3-3.7,3.3-8.762V3.946a15.752,15.752,0,0,0-13.483,6.828L288,11.968a5.013,5.013,0,0,1-.739.057c.4-2.788.91-6.43,1.195-9.216" transform="translate(-287.265 0.035)" fill="#251163"/>
  <path id="Path_1380" data-name="Path 1380" d="M317.428,24.9c0-8.078,5.575-13.255,14.393-13.255,8.7,0,14.28,5.178,14.28,13.255s-5.575,13.256-14.28,13.256c-8.818,0-14.393-5.177-14.393-13.256m14.393,11.379c3.414,0,5.633-4.438,5.633-11.379s-2.219-11.377-5.633-11.377-5.632,4.438-5.632,11.377,2.219,11.379,5.632,11.379" transform="translate(-286.625 0.247)" fill="#251163"/>
  <path id="Path_1381" data-name="Path 1381" d="M352.022,40.314c-2.675-1.194-4.267-3.3-4.267-5.917a5.651,5.651,0,0,1,3.356-5.519,8.133,8.133,0,0,1-4.324-7.225c0-5.632,5.12-9.785,12.289-9.785a15.468,15.468,0,0,1,8.305,2.275c1.991-3.982,6.372-11.718,13.2-12.913,4.494-.8,7,1.195,7.112,3.413a4.217,4.217,0,0,1-5.348,4.494,12.294,12.294,0,0,0-3.583-.569c-4.836,0-7.851,3.357-10.241,6.429a8.551,8.551,0,0,1,3.3,6.656c0,5.576-5.689,9.16-12.744,9.16a17.676,17.676,0,0,1-5.405-.8,2.361,2.361,0,0,0-.454,1.537c0,1.195,1.308,1.991,3.3,2.1,0,0,5.348.057,6.087.113,6.258.456,11.094,3.756,11.378,8.136.512,7.851-8.022,11.72-16.613,11.493-4.721-.113-10.638-2.276-10.923-6.941-.228-3.7,2.106-5.576,5.576-6.145M358,51.351c6.145,0,9.842-1.991,9.16-5.974-.455-2.73-3.243-3.527-7.282-3.811a37.5,37.5,0,0,1-5.405-.4c-1.649.341-2.673,1.65-2.673,4.608,0,2.675,2.049,5.576,6.2,5.576m-3.7-29.7c0,4.381,2.162,7.282,4.779,7.282s5.291-2.9,5.291-7.282c0-4.437-2.675-7.85-5.291-7.85s-4.779,3.413-4.779,7.85" transform="translate(-286.01 0.022)" fill="#251163"/>
  <path id="Path_1382" data-name="Path 1382" d="M388.905,11.643c7.112,0,11.663,5.235,11.663,13.313L383.5,25.24c.739,5.063,3.527,9.046,10.411,8.534,1.48-.114,3.7-1.424,5.575-4.21l.911.8a14.658,14.658,0,0,1-12.687,7.794c-7.851,0-12.914-4.666-12.914-11.948,0-8.874,5.461-14.564,14.108-14.564M383.33,23.42h6.6c5.689-.228,4.211-9.444-1.479-9.444-3.186,0-5.234,3.811-5.12,9.444" transform="translate(-285.408 0.247)" fill="#251163"/>
  <path id="Path_1383" data-name="Path 1383" d="M400.194,15.318v-.91c2.731-.569,6.77-4.381,10.184-9.728h1.308v7.4h7.567v3.242h-7.567s-.056,11.209-.056,16.158c0,2.5.626,3.129,2.844,3.129,1.024,0,3.129-.626,4.893-3.185l.57.738c-2.959,5.292-7.453,6.145-9.388,6.145-5.461,0-7.055-1.706-7.055-8.249V15.318Z" transform="translate(-284.869 0.099)" fill="#251163"/>
  <path id="Path_1384" data-name="Path 1384" d="M438.313,21.5c0-2.731-1.423-5.745-3.7-5.745-1.138,0-2.5.8-4.039,2.844v8.989c0,5.064,1.251,8.533,3.3,8.762l.512.057h.114l-.057,1.706h-15.7V36.411l.569-.057c2.048-.229,3.242-3.7,3.242-8.762V15.019c0-7.055-.512-8.533-3.3-9.956l-.569-.284a2.631,2.631,0,0,1-.056-.57L428.926,0h1.65V15.759a14.141,14.141,0,0,1,9.614-3.869c4.5,0,6.145,3.414,6.145,8.762V31.006c0,4.835.114,6.258.114,6.827,0,1.934.171,7.112,2.5,7.907,2.844.968,4.722-1.933,6.088-3.413a3.1,3.1,0,0,1,2.332-.967,3.39,3.39,0,0,1,3.47,2.675c.455,3.015-1.479,4.835-4.381,5.575a16.615,16.615,0,0,1-3.811.455,13.334,13.334,0,0,1-7.225-1.935c-1.593-1.024-7.112-3.868-7.112-12.516Z" transform="translate(-284.478 0)" fill="#251163"/>
  <path id="Path_1385" data-name="Path 1385" d="M463.984,11.643c7.112,0,11.663,5.235,11.663,13.313l-17.068.285c.739,5.063,3.527,9.046,10.411,8.534,1.48-.114,3.7-1.424,5.575-4.21l.911.8a14.658,14.658,0,0,1-12.687,7.794c-7.851,0-12.914-4.666-12.914-11.948,0-8.874,5.461-14.564,14.108-14.564M458.409,23.42h6.6c5.689-.228,4.21-9.444-1.479-9.444-3.186,0-5.234,3.811-5.12,9.444" transform="translate(-283.815 0.247)" fill="#251163"/>
  <path id="Path_1386" data-name="Path 1386" d="M476.443,37.238a8.428,8.428,0,0,1,.057-1.08l.512-.056c2.162-.229,3.3-3.984,3.3-9.16,0-7.055-.513-8.42-3.3-9.956L476.5,16.7a2.588,2.588,0,0,1-.057-.57l10.3-4.209h1.594v8.306c1.08-2.617,3.356-7.453,6.77-8.078,3.242-.57,4.722,1.251,5.234,4.266.341,2.39-1.593,4.325-2.844,3.869-1.423-.513-2.732-1.65-4.324-1.65-1.365,0-2.9.854-4.835,3.7v5.007c0,5.064,1.251,8.533,3.3,8.762l.569.056a8.582,8.582,0,0,1,.056,1.08v.626H476.443Z" transform="translate(-283.252 0.253)" fill="#251163"/>
</svg>
