<svg xmlns="http://www.w3.org/2000/svg" width="276.279" height="62.199" viewBox="0 0 276.279 62.199">
  <g id="Group_629" data-name="Group 629" transform="translate(0 0)">
    <path id="Path_1318" data-name="Path 1318" d="M307.222,15.641c8.235,0,13.507,6.061,13.507,15.417l-19.766.33c.856,5.864,4.085,10.476,12.057,9.883,1.713-.132,4.283-1.647,6.457-4.876l1.054.922a16.974,16.974,0,0,1-14.693,9.026c-9.092,0-14.957-5.4-14.957-13.836,0-10.279,6.326-16.867,16.34-16.867M300.766,29.28h7.642c6.589-.264,4.876-10.938-1.713-10.938-3.689,0-6.061,4.415-5.929,10.938" transform="translate(-290.882 -1.341)" fill="#f5f5f5"/>
    <path id="Path_1319" data-name="Path 1319" d="M319.641,14.629h19.832v.724a9.815,9.815,0,0,1-.066,1.253l-.659.065c-2.24.2-1.713,4.283,1.516,10.147,1.383,2.5,2.372,4.678,3.756,7.248l3.228-6.194C349.026,23.655,358.843.265,371.889,0c3.032-.066,6.194,1.383,6.194,4.677,0,2.965-2.109,5.8-4.612,5.074a13.933,13.933,0,0,0-3.887-.593c-9.488,0-15.549,10.212-19.173,17.658l-9.092,18.514h-1.778L329.525,26.817c-.659-1.384-2.7-4.216-3.427-5.4-2.107-2.965-4.677-4.612-6.456-4.81Z" transform="translate(-293.348 0)" fill="#f5f5f5"/>
    <path id="Path_1320" data-name="Path 1320" d="M377.276,15.641c8.235,0,13.507,6.061,13.507,15.417l-19.766.33c.856,5.864,4.085,10.476,12.057,9.883,1.713-.132,4.283-1.647,6.457-4.876l1.054.922a16.974,16.974,0,0,1-14.693,9.026c-9.092,0-14.957-5.4-14.957-13.836,0-10.279,6.326-16.867,16.34-16.867M370.82,29.28h7.642c6.589-.264,4.876-10.938-1.713-10.938-3.689,0-6.061,4.415-5.929,10.938" transform="translate(-296.89 -1.341)" fill="#f5f5f5"/>
    <path id="Path_1321" data-name="Path 1321" d="M395.676,45.321a9.826,9.826,0,0,1,.066-1.252l.593-.066c2.5-.263,3.821-4.611,3.821-10.608,0-8.17-.592-9.751-3.821-11.529l-.593-.33a3,3,0,0,1-.066-.658L407.6,16h1.846v9.619c1.252-3.031,3.886-8.63,7.841-9.355,3.755-.659,5.468,1.449,6.061,4.941.395,2.766-1.845,5.007-3.295,4.48-1.647-.592-3.162-1.91-5.008-1.91-1.581,0-3.359.988-5.6,4.281v5.8c0,5.864,1.448,9.883,3.821,10.146l.659.066a9.817,9.817,0,0,1,.066,1.252v.725H395.676Z" transform="translate(-299.869 -1.372)" fill="#f5f5f5"/>
    <path id="Path_1322" data-name="Path 1322" d="M441.709,16v.724c0,1.253.133,1.253-.527,1.317-1.582.33-.593,4.283,2.636,10.147,1.382,2.5,2.766,5.139,4.151,7.709l3.491-7.709c2.636-5.864,3.295-9.817,1.516-10.147-.593-.131-.462-.065-.462-1.317V16h11.07v1.977l-.659.065c-2.5.264-6,4.349-8.961,10.147L444.543,46.7c-3.559,6.786-6,15.813-15.814,15.813-3.295,0-5.4-1.515-5.4-3.953s1.844-4.019,4.743-4.019c1.911,0,6.326,1.713,6.326,1.713,3.162-.066,6.523-7.906,7.841-11L433.078,28.19c-3.1-5.8-6.786-9.949-9.291-10.147l-.724-.065V16Z" transform="translate(-302.218 -1.372)" fill="#f5f5f5"/>
    <path id="Path_1323" data-name="Path 1323" d="M478.631,31.809c0-10.674,6.193-17.46,15.879-17.46a8.511,8.511,0,0,1,5.006,1.712c-.131-6.523-.856-8.1-3.821-9.619l-.659-.33a2.986,2.986,0,0,1-.066-.658L506.9.579h1.844v26.75c0,8.17.659,9.751,3.887,11.53l.593.329a2.991,2.991,0,0,1,.066.659l-11.925,4.876h-1.846V40.242c-2.569,2.965-5.731,4.81-8.565,4.81-7.577,0-12.32-5.139-12.32-13.243m17.393,7.379a7.2,7.2,0,0,0,3.492-.79V20.015a6.532,6.532,0,0,0-5.468-3.03c-3.492,0-5.732,4.348-5.732,11.2,0,6.72,3.032,11,7.709,11" transform="translate(-306.983 -0.049)" fill="#f5f5f5"/>
    <path id="Path_1324" data-name="Path 1324" d="M534.081,29.092V23.953c0-3.361-.923-5.535-2.372-5.535-2.9,0-4.281,3.162-3.689,7.775a17.946,17.946,0,0,1-4.612.725,20.271,20.271,0,0,1-4.743-.725c-.858-6.193,5.535-10.74,15.154-10.41,6.127.2,10.08,4.02,10.08,10.345v11.4c0,2.833.528,4.679,2.57,4.679a2.771,2.771,0,0,0,2.767-1.384l.988,1.252c-1.581,2.9-4.216,4.745-10.08,4.745-2.635,0-4.677-1.187-5.4-3.229a17.513,17.513,0,0,1-9.093,2.9,7.946,7.946,0,0,1-8.17-7.906c0-7.709,10.805-9.225,16.6-9.488m-2.7,12.716a4.874,4.874,0,0,0,2.767-.857l-.066-10.015c-3.624,0-7.313,1.712-7.313,6.128a4.532,4.532,0,0,0,4.611,4.743" transform="translate(-310.315 -1.352)" fill="#f5f5f5"/>
    <path id="Path_1325" data-name="Path 1325" d="M534.439,52.3a4.4,4.4,0,0,1,4.019-2.5,6.864,6.864,0,0,1,3.821,1.317c4.612,3.163,8.369,5.008,11.795,5.008,4.546,0,8.367-3.229,12.584-10.872L557.433,28.19c-3.163-5.8-6.785-9.883-9.29-10.147l-.658-.065V16h18.58v.724c0,1.253.132,1.253-.527,1.317-1.582.33-.593,4.283,2.635,10.147,1.383,2.5,2.833,5.139,4.151,7.709l3.492-7.709c2.636-5.864,3.294-9.817,1.581-10.147-.658-.065-.527-.065-.527-1.317V16H588v1.977l-.724.065c-2.5.2-6,4.349-8.961,10.147l-8.565,16.933c-4.876,11.069-12.716,18.447-22.072,18.447a21.612,21.612,0,0,1-9.949-2.636c-3.558-1.844-4.547-6.259-3.294-8.63" transform="translate(-311.725 -1.372)" fill="#f5f5f5"/>
  </g>
</svg>
