<svg xmlns="http://www.w3.org/2000/svg" width="250.978" height="58.638" viewBox="0 0 250.978 58.638">
  <g id="Group_628" data-name="Group 628" transform="translate(0 0)">
    <path id="Path_1311" data-name="Path 1311" d="M0,44.908v-.725a9.821,9.821,0,0,1,.066-1.252l.593-.066C3.031,42.6,4.547,38.584,4.547,32.72V14.93c0-5.864-1.516-9.883-3.887-10.146L.066,4.718A9.821,9.821,0,0,1,0,3.466V2.741H19.437v.725a9.689,9.689,0,0,1-.067,1.252l-.658.066C16.34,5.047,14.89,9.066,14.89,14.93V22.7h16.6V14.93c0-5.864-1.449-9.883-3.821-10.146l-.659-.066a9.821,9.821,0,0,1-.066-1.252V2.741h19.37v.725a9.958,9.958,0,0,1-.065,1.252l-.659.066c-2.372.263-3.822,4.282-3.822,10.146V32.72c0,5.864,1.45,9.883,3.822,10.146l.659.066a9.958,9.958,0,0,1,.065,1.252v.725H26.948v-.725a9.821,9.821,0,0,1,.066-1.252l.659-.066c2.372-.263,3.821-4.282,3.821-10.146V25.406H14.89V32.72c0,5.864,1.45,9.883,3.822,10.146l.658.066a9.689,9.689,0,0,1,.067,1.252v.725Z" transform="translate(0 -2.741)" fill="#f5f5f5"/>
    <path id="Path_1312" data-name="Path 1312" d="M68.855,29.092V23.953c0-3.361-.922-5.535-2.372-5.535-2.9,0-4.281,3.162-3.689,7.775a17.946,17.946,0,0,1-4.612.725,20.271,20.271,0,0,1-4.743-.725c-.858-6.193,5.535-10.74,15.153-10.41,6.127.2,10.08,4.02,10.08,10.345v11.4c0,2.833.528,4.679,2.57,4.679a2.771,2.771,0,0,0,2.766-1.384L85,42.071c-1.581,2.9-4.216,4.745-10.08,4.745-2.635,0-4.677-1.187-5.4-3.229a17.513,17.513,0,0,1-9.093,2.9,7.946,7.946,0,0,1-8.17-7.906c0-7.709,10.805-9.225,16.6-9.488m-2.7,12.716a4.873,4.873,0,0,0,2.766-.857l-.066-10.015c-3.624,0-7.313,1.712-7.313,6.128a4.532,4.532,0,0,0,4.612,4.743" transform="translate(-4.481 -3.858)" fill="#f5f5f5"/>
    <path id="Path_1313" data-name="Path 1313" d="M88.215,61.761a9.689,9.689,0,0,1,.067-1.252l.592-.065C91.247,60.179,92.7,56.161,92.7,50.3V33.363c0-8.17-.593-9.751-3.822-11.529l-.592-.329a2.961,2.961,0,0,1-.067-.659L100.14,15.97h1.846V19c1.383-1.778,5.271-3.359,9.883-3.359,7.445,0,13.309,7.116,12.914,17.262-.395,9.356-8.7,14.1-15.813,14.1a11.658,11.658,0,0,1-6.984-2.042v4.283c0,5.864,1.449,10.936,3.822,11.2l.658.065a9.689,9.689,0,0,1,.067,1.252v.725H88.215ZM101.986,21.57V36.526a7.68,7.68,0,0,0,.065,1.253v2.24a5.759,5.759,0,0,0,4.745,3.756c4.612.132,7.577-3.294,7.577-9.225,0-8.5-4.482-15.615-9.751-14.56a4.211,4.211,0,0,0-2.636,1.581" transform="translate(-7.565 -3.847)" fill="#f5f5f5"/>
    <path id="Path_1314" data-name="Path 1314" d="M130.667,61.761a9.69,9.69,0,0,1,.067-1.252l.592-.065c2.372-.265,3.822-4.283,3.822-10.147V33.363c0-8.17-.593-9.751-3.822-11.529l-.592-.329a2.962,2.962,0,0,1-.067-.659l11.924-4.876h1.847V19c1.382-1.778,5.271-3.359,9.883-3.359,7.444,0,13.308,7.116,12.914,17.262-.4,9.356-8.7,14.1-15.814,14.1a11.655,11.655,0,0,1-6.983-2.042v4.283c0,5.864,1.448,10.936,3.822,11.2l.658.065a9.821,9.821,0,0,1,.066,1.252v.725H130.667ZM144.438,21.57V36.526a7.679,7.679,0,0,0,.065,1.253v2.24a5.759,5.759,0,0,0,4.744,3.756c4.613.132,7.578-3.294,7.578-9.225,0-8.5-4.482-15.615-9.751-14.56a4.208,4.208,0,0,0-2.636,1.581" transform="translate(-11.206 -3.847)" fill="#f5f5f5"/>
    <path id="Path_1315" data-name="Path 1315" d="M189.817,15.641c8.235,0,13.507,6.061,13.507,15.417l-19.766.33c.856,5.864,4.085,10.476,12.057,9.883,1.713-.132,4.283-1.647,6.457-4.876l1.054.922a16.974,16.974,0,0,1-14.693,9.026c-9.092,0-14.957-5.4-14.957-13.836,0-10.279,6.326-16.867,16.34-16.867M183.361,29.28H191c6.589-.264,4.876-10.938-1.713-10.938-3.689,0-6.061,4.415-5.929,10.938" transform="translate(-14.877 -3.847)" fill="#f5f5f5"/>
    <path id="Path_1316" data-name="Path 1316" d="M230.8,26.775c0-3.295-1.647-7.05-4.348-7.05-1.317,0-2.9.988-4.678,3.491V33.826c0,5.864,1.45,9.882,3.756,10.146l.593.066v1.977H208V45.29a9.693,9.693,0,0,1,.067-1.252l.592-.066c2.5-.264,3.887-4.611,3.887-10.608,0-8.17-.659-9.751-3.887-11.529l-.592-.33a2.958,2.958,0,0,1-.067-.658l11.925-4.876h1.845v4.546c1.713-2.372,5.864-4.876,11.2-4.876,5.2,0,7.116,3.953,7.116,10.146V37.778c0,5.6.132,7.248.132,7.907,0,2.108.2,8.3,2.833,9.158,3.36,1.12,5.535-2.24,7.116-3.953a3.585,3.585,0,0,1,2.7-1.121,3.926,3.926,0,0,1,4.019,3.1c.462,3.491-1.713,5.6-5.073,6.457a19.3,19.3,0,0,1-4.415.527,15.671,15.671,0,0,1-8.433-2.24c-1.779-1.186-8.171-4.481-8.171-14.5Z" transform="translate(-17.838 -3.847)" fill="#f5f5f5"/>
    <path id="Path_1317" data-name="Path 1317" d="M248.433,35.74c.2,0,.4.066.791.066,1.318,3.624,4.81,8.632,9.62,8.632,3.163,0,5.2-1.78,5.2-4.547,0-1.846-2.174-3.887-5.535-5.2-5.929-2.307-9.816-6.392-9.816-9.818,0-5.666,5.271-9.948,13.836-9.948,2.7,0,7.181.988,9.224,3.294l-.263,7.247h-.988c-1.712-3.36-3.822-8.171-7.709-8.368s-6.325,2.174-6.391,4.481c-.067,2.24,3.557,3.756,9.158,6,4.151,1.647,6.721,5.271,6.721,8.829,0,6.259-5.469,10.213-14.1,10.213a15.588,15.588,0,0,1-9.422-2.966Z" transform="translate(-21.306 -3.786)" fill="#f5f5f5"/>
  </g>
</svg>
