<svg xmlns="http://www.w3.org/2000/svg" xmlns:xlink="http://www.w3.org/1999/xlink" width="614.611" height="109.214" viewBox="0 0 614.611 109.214">
  <defs>
    <clipPath id="clip-path">
      <rect id="Rectangle_847" data-name="Rectangle 847" width="614.611" height="109.214" fill="#f5f5f5"/>
    </clipPath>
  </defs>
  <g id="Group_480" data-name="Group 480" transform="translate(0 0)">
    <g id="Group_479" data-name="Group 479" transform="translate(0 0)" clip-path="url(#clip-path)">
      <path id="Path_1160" data-name="Path 1160" d="M0,81.325V79.984a18.137,18.137,0,0,1,.122-2.315l1.1-.122c4.387-.487,7.192-7.922,7.192-18.772V25.864c0-10.848-2.8-18.283-7.192-18.771l-1.1-.122A18.137,18.137,0,0,1,0,4.656V3.315H35.958V4.656a17.891,17.891,0,0,1-.123,2.315l-1.218.122c-4.387.487-7.07,7.922-7.07,18.771V40.247H58.264V25.864c0-10.848-2.681-18.283-7.068-18.771l-1.219-.122a18.136,18.136,0,0,1-.122-2.315V3.315H85.689V4.656a18.388,18.388,0,0,1-.12,2.315l-1.219.122c-4.389.487-7.072,7.922-7.072,18.771v32.91c0,10.85,2.682,18.285,7.072,18.772l1.219.122a18.388,18.388,0,0,1,.12,2.315v1.341H49.854V79.984a18.136,18.136,0,0,1,.122-2.315l1.219-.122c4.387-.487,7.068-7.922,7.068-18.772V45.245H27.547V58.774c0,10.85,2.682,18.285,7.07,18.772l1.218.122a17.891,17.891,0,0,1,.123,2.315v1.341Z" transform="translate(0 2.291)" fill="#f5f5f5"/>
      <path id="Path_1161" data-name="Path 1161" d="M51.891,82.276a17.891,17.891,0,0,1,.123-2.315l1.1-.122c4.633-.489,7.192-8.533,7.192-19.5,0-15.237-1.219-18.162-7.192-21.453l-1.1-.609a7.058,7.058,0,0,1-.123-1.219l22.185-9.02H77.49V61.066c0,10.848,2.8,18.283,7.07,18.772l1.219.122a18.135,18.135,0,0,1,.122,2.315v1.341H51.891ZM58.474,9.751C58.474,3.778,62.13,0,67.982,0c5.729,0,9.385,3.778,9.385,9.751S73.711,19.5,67.982,19.5c-5.852,0-9.509-3.78-9.509-9.752" transform="translate(35.875 -0.001)" fill="#f5f5f5"/>
      <path id="Path_1162" data-name="Path 1162" d="M72.072,30V28.05c5.852-1.219,14.505-9.385,21.818-20.844h2.8V23.052h16.212V30H96.695s-.122,24.012-.122,34.617c0,5.363,1.34,6.7,6.094,6.7,2.2,0,6.7-1.341,10.483-6.826l1.219,1.585C108.03,77.416,98.4,79.244,94.256,79.244c-11.7,0-15.112-3.657-15.112-17.673V30Z" transform="translate(49.827 4.981)" fill="#f5f5f5"/>
      <path id="Path_1163" data-name="Path 1163" d="M110.054,30V28.05c5.852-1.219,14.505-9.385,21.818-20.844h2.8V23.052h16.212V30H134.677s-.122,24.012-.122,34.617c0,5.363,1.34,6.7,6.094,6.7,2.2,0,6.7-1.341,10.483-6.826l1.219,1.585c-6.337,11.335-15.968,13.164-20.114,13.164-11.7,0-15.112-3.657-15.112-17.673V30Z" transform="translate(76.086 4.981)" fill="#f5f5f5"/>
      <path id="Path_1164" data-name="Path 1164" d="M176.445,47.229c0-5.85-3.048-12.311-7.924-12.311-2.437,0-5.362,1.707-8.653,6.094V60.271c0,10.848,2.681,18.283,7.07,18.772l1.1.12h.245l-.122,3.657H134.515V79.163l1.219-.12c4.387-.489,6.946-7.924,6.946-18.772V33.333c0-15.114-1.1-18.283-7.07-21.331l-1.218-.609a5.46,5.46,0,0,1-.123-1.219l22.064-9.02h3.535V34.917a30.3,30.3,0,0,1,20.6-8.289c9.629,0,13.164,7.315,13.164,18.772V67.584c0,10.361.245,13.407.245,14.627,0,4.146.364,15.236,5.363,16.942,6.094,2.074,10.116-4.144,13.04-7.313a6.641,6.641,0,0,1,5-2.072c3.411,0,6.948,2.194,7.435,5.729.974,6.461-3.17,10.361-9.387,11.946a35.686,35.686,0,0,1-8.166.976c-5.607,0-11.214-1.341-15.479-4.144-3.415-2.2-15.237-8.289-15.237-26.816Z" transform="translate(92.828 0.797)" fill="#f5f5f5"/>
      <path id="Path_1165" data-name="Path 1165" d="M205.292,16.215c15.236,0,24.988,11.214,24.988,28.523l-36.567.609C195.3,56.2,201.27,64.728,216.019,63.63c3.17-.244,7.924-3.048,11.946-9.02l1.95,1.707c-6.217,12.068-18.649,16.7-27.182,16.7-16.821,0-27.67-10-27.67-25.6,0-19.014,11.7-31.2,30.229-31.2M193.348,41.447h14.138c12.19-.487,9.02-20.234-3.17-20.234-6.825,0-11.214,8.166-10.968,20.234" transform="translate(121.03 11.21)" fill="#f5f5f5"/>
      <path id="Path_1166" data-name="Path 1166" d="M223.928,79.735a18.132,18.132,0,0,1,.122-2.315l1.1-.122c4.631-.487,7.068-8.533,7.068-19.625,0-15.114-1.1-18.04-7.068-21.331l-1.1-.609a5.53,5.53,0,0,1-.122-1.219l22.062-9.02H249.4V43.168c3.777-13.042,16.21-39.493,37.785-39.493,5.607,0,9.872,4.024,9.872,10.118a7.517,7.517,0,0,1-9.749,7.192,31.537,31.537,0,0,0-9.02-1.463c-17.431,0-24.257,18.04-28.888,30.717v8.288c0,10.85,2.679,18.285,7.068,18.772l1.22.122a18.134,18.134,0,0,1,.122,2.315v1.341H223.928Z" transform="translate(154.813 2.54)" fill="#f5f5f5"/>
      <path id="Path_1167" data-name="Path 1167" d="M250.811,44.616c0-17.309,11.944-28.4,30.838-28.4,18.649,0,30.595,11.092,30.595,28.4s-11.946,28.4-30.595,28.4c-18.894,0-30.838-11.092-30.838-28.4m30.838,24.377c7.313,0,12.068-9.507,12.068-24.377s-4.754-24.379-12.068-24.379-12.068,9.507-12.068,24.379,4.754,24.377,12.068,24.377" transform="translate(173.398 11.21)" fill="#f5f5f5"/>
      <path id="Path_1168" data-name="Path 1168" d="M320.086,40.994V31.487c0-6.217-1.707-10.239-4.389-10.239-5.363,0-7.921,5.85-6.825,14.383a33.275,33.275,0,0,1-8.533,1.341,37.592,37.592,0,0,1-8.775-1.341C289.978,24.174,301.8,15.763,319.6,16.372c11.335.367,18.649,7.437,18.649,19.138V56.6c0,5.243.976,8.656,4.754,8.656,2.8,0,4.266-.976,5.118-2.561l1.828,2.315c-2.924,5.363-7.8,8.776-18.649,8.776-4.874,0-8.653-2.194-9.994-5.972-4.144,2.681-10.361,5.363-16.822,5.363a14.7,14.7,0,0,1-15.114-14.627c0-14.261,19.99-17.066,30.717-17.553m-5,23.525a9.015,9.015,0,0,0,5.118-1.585l-.122-18.527c-6.7,0-13.529,3.168-13.529,11.335a8.385,8.385,0,0,0,8.533,8.776" transform="translate(200.055 11.297)" fill="#f5f5f5"/>
      <path id="Path_1169" data-name="Path 1169" d="M325.478,58.93c0-19.748,11.457-32.3,29.375-32.3a15.723,15.723,0,0,1,9.262,3.17c-.242-12.068-1.583-14.994-7.068-17.8l-1.219-.611a5.526,5.526,0,0,1-.122-1.218l22.064-9.02h3.411V50.64c0,15.114,1.219,18.04,7.192,21.331l1.1.609a5.549,5.549,0,0,1,.122,1.219L367.53,82.82h-3.415V74.531c-4.753,5.485-10.6,8.9-15.844,8.9-14.018,0-22.793-9.507-22.793-24.5M357.656,72.58a13.3,13.3,0,0,0,6.459-1.463V37.109A12.085,12.085,0,0,0,354,31.5c-6.459,0-10.6,8.046-10.6,20.722,0,12.433,5.608,20.355,14.261,20.355" transform="translate(225.019 0.797)" fill="#f5f5f5"/>
    </g>
  </g>
</svg>
