<svg xmlns="http://www.w3.org/2000/svg" width="88.321" height="45.305" viewBox="0 0 88.321 45.305">
  <g id="Group_663" data-name="Group 663" transform="translate(-145.769 -254.388)">
    <path id="Path_1334" data-name="Path 1334" d="M0,45.276v-.721a9.756,9.756,0,0,1,.066-1.245l.59-.065c2.36-.262,3.868-4.261,3.868-10.1v-17.7c0-5.835-1.508-9.835-3.868-10.1l-.59-.066A9.756,9.756,0,0,1,0,4.036V3.315H19.342v.721a9.623,9.623,0,0,1-.066,1.245l-.655.066c-2.36.262-3.8,4.261-3.8,10.1v7.737H31.34V15.444c0-5.835-1.442-9.835-3.8-10.1l-.656-.066a9.755,9.755,0,0,1-.066-1.245V3.315H46.092v.721a9.891,9.891,0,0,1-.065,1.245l-.656.066c-2.361.262-3.8,4.261-3.8,10.1v17.7c0,5.836,1.443,9.835,3.8,10.1l.656.065a9.892,9.892,0,0,1,.065,1.245v.721H26.816v-.721a9.755,9.755,0,0,1,.066-1.245l.656-.065c2.36-.262,3.8-4.261,3.8-10.1V25.869H14.817v7.277c0,5.836,1.443,9.835,3.8,10.1l.655.065a9.623,9.623,0,0,1,.066,1.245v.721Z" transform="translate(145.769 254.089)" fill="#f5f5f5"/>
    <path id="Path_1335" data-name="Path 1335" d="M51.891,44.256a9.624,9.624,0,0,1,.066-1.245l.59-.066c2.492-.263,3.868-4.59,3.868-10.491,0-8.2-.656-9.769-3.868-11.54l-.59-.328a3.8,3.8,0,0,1-.066-.656l11.933-4.852H65.66V32.847c0,5.835,1.507,9.835,3.8,10.1l.656.066a9.755,9.755,0,0,1,.066,1.245v.721H51.891ZM55.432,5.245C55.432,2.032,57.4,0,60.547,0c3.081,0,5.048,2.032,5.048,5.245s-1.967,5.246-5.048,5.246c-3.148,0-5.115-2.033-5.115-5.246" transform="translate(141.086 254.388)" fill="#f5f5f5"/>
    <path id="Path_1336" data-name="Path 1336" d="M72.072,19.467V18.418c3.148-.656,7.8-5.048,11.736-11.212h1.508V15.73h8.72v3.737h-8.72s-.065,12.916-.065,18.62c0,2.885.721,3.606,3.278,3.606,1.181,0,3.606-.721,5.639-3.672l.656.852c-3.41,6.1-8.589,7.081-10.819,7.081-6.294,0-8.129-1.967-8.129-9.506V19.467Z" transform="translate(139.266 253.738)" fill="#f5f5f5"/>
  </g>
</svg>
