<svg xmlns="http://www.w3.org/2000/svg" width="230.473" height="57.698" viewBox="0 0 230.473 57.698">
  <g id="Group_662" data-name="Group 662" transform="translate(0 0)">
    <path id="Path_1337" data-name="Path 1337" d="M110.054,19.467V18.418c3.148-.656,7.8-5.048,11.736-11.212H123.3V15.73h8.72v3.737H123.3s-.066,12.916-.066,18.62c0,2.885.721,3.606,3.278,3.606,1.181,0,3.606-.721,5.639-3.672l.656.852c-3.409,6.1-8.589,7.081-10.819,7.081-6.294,0-8.129-1.967-8.129-9.506V19.467Z" transform="translate(-110.054 -1.699)" fill="#f5f5f5"/>
    <path id="Path_1338" data-name="Path 1338" d="M156.956,25.937c0-3.147-1.639-6.622-4.262-6.622-1.311,0-2.884.918-4.654,3.278v10.36c0,5.835,1.442,9.835,3.8,10.1l.59.065h.132l-.066,1.967H134.4V43.114l.656-.065c2.36-.263,3.736-4.262,3.736-10.1V18.462c0-8.13-.59-9.835-3.8-11.474l-.655-.328A2.937,2.937,0,0,1,134.27,6l11.868-4.852h1.9V19.315a16.3,16.3,0,0,1,11.08-4.459c5.179,0,7.081,3.935,7.081,10.1V36.886c0,5.573.132,7.212.132,7.868,0,2.23.2,8.2,2.885,9.113,3.278,1.115,5.441-2.229,7.014-3.934a3.572,3.572,0,0,1,2.689-1.114,3.907,3.907,0,0,1,4,3.081c.524,3.475-1.7,5.573-5.049,6.426a19.2,19.2,0,0,1-4.392.525,15.373,15.373,0,0,1-8.326-2.229c-1.837-1.181-8.2-4.459-8.2-14.424Z" transform="translate(-112.239 -1.153)" fill="#f5f5f5"/>
    <path id="Path_1339" data-name="Path 1339" d="M191.323,16.215c8.2,0,13.441,6.032,13.441,15.342l-19.669.328c.852,5.835,4.065,10.425,12,9.835,1.7-.131,4.262-1.639,6.426-4.852l1.049.918a16.892,16.892,0,0,1-14.621,8.983c-9.048,0-14.884-5.377-14.884-13.769,0-10.228,6.295-16.784,16.26-16.784M184.9,29.787h7.6c6.557-.262,4.852-10.884-1.7-10.884-3.671,0-6.032,4.392-5.9,10.884" transform="translate(-115.919 -2.512)" fill="#f5f5f5"/>
    <g id="Group_661" data-name="Group 661" transform="translate(103.599 0)">
      <path id="Path_1340" data-name="Path 1340" d="M223.928,44.587a9.753,9.753,0,0,1,.066-1.245l.59-.065c2.491-.262,3.8-4.59,3.8-10.556,0-8.13-.59-9.7-3.8-11.474l-.59-.328a2.975,2.975,0,0,1-.066-.656L235.8,15.411h1.837v9.507c2.032-7.015,8.719-21.243,20.324-21.243a5.165,5.165,0,0,1,5.31,5.442,4.043,4.043,0,0,1-5.244,3.868,16.964,16.964,0,0,0-4.852-.787c-9.376,0-13.048,9.7-15.539,16.522v4.458c0,5.836,1.441,9.836,3.8,10.1l.656.065a9.753,9.753,0,0,1,.066,1.245v.721H223.928Z" transform="translate(-223.928 -1.381)" fill="#f5f5f5"/>
      <path id="Path_1341" data-name="Path 1341" d="M250.811,31.492c0-9.311,6.425-15.277,16.588-15.277,10.031,0,16.457,5.966,16.457,15.277S277.43,46.768,267.4,46.768c-10.163,0-16.588-5.966-16.588-15.276M267.4,44.6c3.934,0,6.491-5.114,6.491-13.112s-2.557-13.113-6.491-13.113-6.491,5.114-6.491,13.113S263.465,44.6,267.4,44.6" transform="translate(-226.353 -2.512)" fill="#f5f5f5"/>
      <path id="Path_1342" data-name="Path 1342" d="M305.891,29.6V24.488c0-3.344-.918-5.508-2.361-5.508-2.885,0-4.26,3.147-3.671,7.737a17.9,17.9,0,0,1-4.59.721,20.221,20.221,0,0,1-4.72-.721c-.853-6.163,5.508-10.687,15.079-10.36,6.1.2,10.031,4,10.031,10.294V37.993c0,2.82.525,4.656,2.557,4.656a2.756,2.756,0,0,0,2.753-1.377l.983,1.245c-1.573,2.885-4.2,4.721-10.031,4.721-2.622,0-4.654-1.18-5.376-3.212a17.427,17.427,0,0,1-9.049,2.885,7.907,7.907,0,0,1-8.13-7.868c0-7.671,10.753-9.18,16.522-9.442M303.2,42.256a4.849,4.849,0,0,0,2.753-.852l-.066-9.966c-3.606,0-7.277,1.7-7.277,6.1a4.51,4.51,0,0,0,4.59,4.721" transform="translate(-229.832 -2.523)" fill="#f5f5f5"/>
      <path id="Path_1343" data-name="Path 1343" d="M325.478,32.231c0-10.622,6.163-17.375,15.8-17.375a8.457,8.457,0,0,1,4.982,1.7c-.13-6.491-.852-8.065-3.8-9.573L341.8,6.66A2.972,2.972,0,0,1,341.737,6l11.868-4.852h1.835V27.772c0,8.13.656,9.7,3.868,11.474l.59.328a2.985,2.985,0,0,1,.066.656L348.1,45.081h-1.837V40.622c-2.556,2.95-5.7,4.786-8.523,4.786-7.54,0-12.26-5.114-12.26-13.178m17.308,7.343a7.153,7.153,0,0,0,3.474-.787V20.494a6.5,6.5,0,0,0-5.441-3.016c-3.474,0-5.7,4.328-5.7,11.146,0,6.688,3.017,10.949,7.671,10.949" transform="translate(-233.091 -1.153)" fill="#f5f5f5"/>
    </g>
  </g>
</svg>
