<svg xmlns="http://www.w3.org/2000/svg" xmlns:xlink="http://www.w3.org/1999/xlink" width="1164.283" height="133.914" viewBox="0 0 1164.283 133.914">
  <defs>
    <clipPath id="clip-path">
      <rect id="Rectangle_844" data-name="Rectangle 844" width="1164.283" height="133.914" fill="#fff"/>
    </clipPath>
  </defs>
  <g id="Group_474" data-name="Group 474" transform="translate(0 0)">
    <g id="Group_473" data-name="Group 473" transform="translate(0 0)" clip-path="url(#clip-path)">
      <path id="Path_1115" data-name="Path 1115" d="M37.612,19.563v1.389a18.78,18.78,0,0,1-.126,2.4l-1.263.126c-4.291.378-4.165,8.2.38,19.438,4.165,10.727,8.708,21.582,13,32.437L69.545,18.3h4.923l25.873,54.147,10.1-31.3C115.738,24.864,126.972,0,152.344,0c5.8,0,11.862,2.65,11.862,8.96,0,5.68-4.037,11.107-8.834,9.72a30.686,30.686,0,0,0-8.583-1.263c-20.951,0-31.174,25.116-36.6,41.4L95.8,102.234H91L63.613,48.971,45.059,102.234H40.136l-24.99-59.32c-4.8-11.235-10.1-19.06-13.883-19.438L0,23.349V19.563Z" transform="translate(0 0)" fill="#fff"/>
      <path id="Path_1116" data-name="Path 1116" d="M100.85,24.07c15.776,0,25.875,11.612,25.875,29.535l-37.864.63c1.639,11.233,7.825,20.069,23.1,18.932,3.282-.252,8.205-3.156,12.37-9.34l2.019,1.767c-6.438,12.5-19.31,17.291-28.146,17.291-17.417,0-28.652-10.349-28.652-26.505,0-19.689,12.118-32.311,31.3-32.311M88.482,50.2h14.64c12.622-.5,9.34-20.951-3.282-20.951-7.067,0-11.612,8.456-11.358,20.951" transform="translate(52.255 18.085)" fill="#fff"/>
      <path id="Path_1117" data-name="Path 1117" d="M140.953,9.008h3.536V70.223c0,11.233,2.9,18.932,7.319,19.437l1.263.126a18.78,18.78,0,0,1,.126,2.4v1.389H117.982V92.183a18.78,18.78,0,0,1,.126-2.4l1.135-.126c4.545-.5,7.447-8.2,7.447-19.437V42.455c0-15.778-1.261-18.806-7.447-22.214l-1.135-.63a7.406,7.406,0,0,1-.126-1.263Z" transform="translate(88.647 6.768)" fill="#fff"/>
      <path id="Path_1118" data-name="Path 1118" d="M139.242,93.051a18.524,18.524,0,0,1,.128-2.4l1.135-.126c4.8-.506,7.447-8.836,7.447-20.195,0-15.778-1.263-18.806-7.447-22.214l-1.135-.63a7.307,7.307,0,0,1-.128-1.263l22.973-9.34h3.534v34.2c0,11.233,2.9,18.932,7.321,19.438l1.263.126a18.778,18.778,0,0,1,.126,2.4V94.44H139.242Zm6.816-75.1c0-6.184,3.786-10.1,9.846-10.1,5.932,0,9.718,3.913,9.718,10.1s-3.786,10.1-9.718,10.1c-6.06,0-9.846-3.914-9.846-10.1" transform="translate(104.621 5.903)" fill="#fff"/>
      <path id="Path_1119" data-name="Path 1119" d="M154.955,36.454h37.99v1.389a18.778,18.778,0,0,1-.126,2.4l-1.263.126c-4.291.378-3.282,8.2,2.9,19.438,2.65,4.8,4.543,8.96,7.195,13.883l6.184-11.864c3.408-8.077,22.214-52.884,47.2-53.39,5.807-.126,11.865,2.652,11.865,8.962,0,5.68-4.04,11.107-8.836,9.718a26.749,26.749,0,0,0-7.447-1.135c-18.176,0-29.787,19.563-36.729,33.826L196.48,95.27h-3.406L173.889,59.8c-1.263-2.652-5.177-8.079-6.566-10.351-4.037-5.68-8.96-8.836-12.368-9.214Z" transform="translate(116.427 6.334)" fill="#fff"/>
      <path id="Path_1120" data-name="Path 1120" d="M227.553,24.07c15.776,0,25.875,11.612,25.875,29.535l-37.864.63c1.639,11.233,7.825,20.069,23.1,18.932,3.282-.252,8.205-3.156,12.37-9.34l2.019,1.767c-6.436,12.5-19.31,17.291-28.146,17.291-17.417,0-28.652-10.349-28.652-26.505,0-19.689,12.118-32.311,31.3-32.311M215.187,50.2h14.638c12.622-.5,9.34-20.951-3.282-20.951-7.067,0-11.612,8.456-11.356,20.951" transform="translate(147.455 18.085)" fill="#fff"/>
      <path id="Path_1121" data-name="Path 1121" d="M275.28,9.008l1.515,2.652c-10.349,6.058-16.787,18.174-16.787,49.854s6.438,43.922,16.787,49.982l-1.515,2.65c-17.8-10.6-29.155-24.612-29.155-52.632,0-27.894,11.359-41.9,29.155-52.506" transform="translate(184.928 6.768)" fill="#fff"/>
      <path id="Path_1122" data-name="Path 1122" d="M294.941,49.724V39.88c0-6.438-1.767-10.6-4.545-10.6-5.554,0-8.2,6.058-7.067,14.894a34.454,34.454,0,0,1-8.836,1.389,38.923,38.923,0,0,1-9.086-1.389c-1.643-11.864,10.6-20.573,29.029-19.943,11.738.38,19.31,7.7,19.31,19.817V65.879c0,5.429,1.01,8.963,4.923,8.963,2.9,0,4.417-1.011,5.3-2.652l1.893,2.4c-3.028,5.554-8.077,9.088-19.31,9.088-5.047,0-8.96-2.272-10.349-6.184-4.291,2.776-10.729,5.554-17.419,5.554A15.222,15.222,0,0,1,263.135,67.9c0-14.767,20.7-17.671,31.806-18.176m-5.173,24.36a9.335,9.335,0,0,0,5.3-1.641l-.126-19.184c-6.942,0-14.009,3.28-14.009,11.738a8.683,8.683,0,0,0,8.836,9.088" transform="translate(197.709 18.18)" fill="#fff"/>
      <path id="Path_1123" data-name="Path 1123" d="M342.552,45.4c0-6.312-3.154-13.5-8.329-13.5-2.524,0-5.554,1.893-8.962,6.688V58.906c0,11.233,2.778,18.932,7.195,19.438l1.137.124v3.786h-34.71V80.867a18.561,18.561,0,0,1,.128-2.4l1.135-.124c4.8-.506,7.447-8.836,7.447-20.321,0-15.652-1.263-18.68-7.447-22.088L299.01,35.3a5.646,5.646,0,0,1-.128-1.261l22.845-9.34h3.534V33.41c3.282-4.543,11.233-9.34,21.458-9.34,9.97,0,13.631,7.575,13.631,19.438V66.479c0,10.729.252,13.883.252,15.146,0,4.039.378,15.9,5.427,17.543,6.436,2.147,10.6-4.291,13.631-7.573a6.873,6.873,0,0,1,5.175-2.145c3.534,0,7.195,2.272,7.7,5.932.884,6.69-3.282,10.729-9.718,12.37a36.968,36.968,0,0,1-8.457,1.011c-5.8,0-11.738-1.389-16.155-4.291C354.8,102.2,342.552,95.888,342.552,76.7Z" transform="translate(224.567 18.085)" fill="#fff"/>
      <path id="Path_1124" data-name="Path 1124" d="M339.171,68.835c0-20.449,11.864-33.447,30.418-33.447a16.282,16.282,0,0,1,9.59,3.282c-.25-12.5-1.639-15.526-7.319-18.428L370.6,19.61a5.718,5.718,0,0,1-.126-1.261l22.847-9.34h3.532V60.252c0,15.65,1.263,18.68,7.447,22.088l1.137.63a5.747,5.747,0,0,1,.126,1.263l-22.845,9.34h-3.536V84.99C374.258,90.67,368.2,94.2,362.772,94.2c-14.515,0-23.6-9.844-23.6-25.368m33.32,14.135a13.771,13.771,0,0,0,6.688-1.515V46.241A12.514,12.514,0,0,0,368.7,40.435c-6.688,0-10.981,8.331-10.981,21.458,0,12.874,5.807,21.078,14.767,21.078" transform="translate(254.839 6.769)" fill="#fff"/>
      <path id="Path_1125" data-name="Path 1125" d="M392.5,63.234c.38,0,.758.126,1.515.126,2.525,6.942,9.214,16.535,18.428,16.535,6.058,0,9.971-3.408,9.971-8.71,0-3.534-4.165-7.447-10.6-9.97-11.358-4.417-18.8-12.244-18.8-18.806,0-10.855,10.1-19.058,26.505-19.058,5.175,0,13.757,1.893,17.669,6.31l-.5,13.883h-1.893c-3.28-6.436-7.321-15.65-14.767-16.028S407.9,31.679,407.778,36.1c-.128,4.293,6.814,7.195,17.543,11.485C433.272,50.738,438.2,57.68,438.2,64.5c0,11.99-10.477,19.563-27.011,19.563-6.942,0-13.883-2.272-18.049-5.68Z" transform="translate(294.911 17.544)" fill="#fff"/>
      <path id="Path_1126" data-name="Path 1126" d="M443.006,9.008h3.536V70.223c0,11.233,2.9,18.932,7.319,19.437l1.263.126a18.784,18.784,0,0,1,.126,2.4v1.389H420.035V92.183a18.784,18.784,0,0,1,.126-2.4l1.135-.126c4.545-.5,7.447-8.2,7.447-19.437V42.455c0-15.778-1.261-18.806-7.447-22.214l-1.135-.63a7.407,7.407,0,0,1-.126-1.263Z" transform="translate(315.597 6.768)" fill="#fff"/>
      <path id="Path_1127" data-name="Path 1127" d="M473.391,24.07c15.776,0,25.875,11.612,25.875,29.535l-37.864.63c1.639,11.233,7.825,20.069,23.1,18.932,3.282-.252,8.205-3.156,12.37-9.34l2.019,1.767c-6.438,12.5-19.31,17.291-28.146,17.291-17.417,0-28.652-10.349-28.652-26.505,0-19.689,12.118-32.311,31.3-32.311M461.023,50.2h14.64c12.622-.5,9.34-20.951-3.282-20.951-7.067,0-11.611,8.456-11.358,20.951" transform="translate(332.167 18.085)" fill="#fff"/>
      <path id="Path_1128" data-name="Path 1128" d="M508.49,24.07c15.776,0,25.875,11.612,25.875,29.535l-37.864.63c1.639,11.233,7.825,20.069,23.1,18.932,3.282-.252,8.205-3.156,12.37-9.34l2.019,1.767c-6.438,12.5-19.31,17.291-28.146,17.291-17.417,0-28.652-10.349-28.652-26.505,0-19.689,12.118-32.311,31.3-32.311M496.122,50.2h14.64c12.622-.5,9.34-20.951-3.282-20.951-7.067,0-11.612,8.456-11.358,20.951" transform="translate(358.539 18.085)" fill="#fff"/>
      <path id="Path_1129" data-name="Path 1129" d="M511.927,112.422a18.523,18.523,0,0,1,.128-2.4l1.135-.126c4.545-.506,7.321-8.205,7.321-19.438V58.023c0-15.652-1.137-18.68-7.321-22.088l-1.135-.63a5.652,5.652,0,0,1-.128-1.263l22.845-9.34h3.536v5.806c2.65-3.406,10.1-6.436,18.932-6.436,14.261,0,25.494,13.631,24.738,33.069-.757,17.922-16.661,27.008-30.291,27.008-5.049,0-9.844-1.261-13.379-3.911v8.205c0,11.231,2.776,20.95,7.321,21.456l1.261.126a18.523,18.523,0,0,1,.128,2.4v1.389h-35.09ZM538.308,35.43v28.65a14.523,14.523,0,0,0,.126,2.4v4.291c1.767,4.291,5.554,7.067,9.088,7.195,8.836.252,14.515-6.312,14.515-17.671,0-16.282-8.585-29.913-18.68-27.894a8.068,8.068,0,0,0-5.049,3.03" transform="translate(384.64 18.086)" fill="#fff"/>
      <path id="Path_1130" data-name="Path 1130" d="M552.65,9.008c17.669,10.6,29.029,24.612,29.029,52.632,0,27.894-11.359,41.9-29.029,52.506l-1.515-2.65c10.225-6.06,16.787-18.176,16.787-49.856s-6.562-43.922-16.787-49.98Z" transform="translate(414.1 6.768)" fill="#fff"/>
      <path id="Path_1131" data-name="Path 1131" d="M583.855,18.348l22.971-9.34h3.534V40.814c2.145-3.282,8.962-5.427,18.428-5.427,14.137,0,23.223,11.738,23.223,30.039,0,17.545-12.368,28.777-31.806,28.777-7.447,0-12.5-4.669-18.049-4.669a9.635,9.635,0,0,0-7.7,4.039h-1.893V42.455c0-15.778-1.263-18.806-7.447-22.214l-1.137-.63a7.4,7.4,0,0,1-.126-1.263M620.2,89.029c7.323,0,11.992-7.321,11.992-18.68,0-16.282-6.69-26.757-17.165-26.757-2.651,0-4.419.757-4.671,1.893V70.854c0,11.107,3.786,18.176,9.844,18.176" transform="translate(438.684 6.768)" fill="#fff"/>
      <path id="Path_1132" data-name="Path 1132" d="M606.625,93.976a8.436,8.436,0,0,1,7.7-4.8,13.135,13.135,0,0,1,7.319,2.524c8.836,6.058,16.032,9.592,22.594,9.592,8.708,0,16.029-6.186,24.106-20.825l-17.67-32.689c-6.06-11.107-13-18.934-17.8-19.438l-1.261-.126V24.431h35.593V25.82c0,2.4.252,2.4-1.009,2.524-3.03.632-1.137,8.2,5.047,19.438,2.65,4.8,5.428,9.844,7.951,14.767l6.69-14.767c5.049-11.235,6.31-18.806,3.028-19.438-1.261-.126-1.009-.126-1.009-2.524V24.431h21.33v3.786l-1.387.126c-4.8.378-11.487,8.331-17.167,19.438L674.276,80.219c-9.34,21.2-24.36,35.339-42.283,35.339a41.418,41.418,0,0,1-19.058-5.047c-6.816-3.534-8.71-11.99-6.31-16.535" transform="translate(455.046 18.357)" fill="#fff"/>
    </g>
  </g>
</svg>
