<svg id="Group_340" data-name="Group 340" xmlns="http://www.w3.org/2000/svg" xmlns:xlink="http://www.w3.org/1999/xlink" width="793" height="447.92" viewBox="0 0 793 447.92">
  <defs>
    <clipPath id="clip-path">
      <rect id="Rectangle_426" data-name="Rectangle 426" width="793" height="447.92" fill="#f5f5f5"/>
    </clipPath>
  </defs>
  <g id="Group_263" data-name="Group 263" clip-path="url(#clip-path)">
    <path id="Path_477" data-name="Path 477" d="M89.857,20.677a9.728,9.728,0,0,1,4.293-1.044c3.249,0,6.032,1.623,6.961,4.64,1.857,6.264,1.044,10.091,4.409,14.269a30.615,30.615,0,0,0,6.845,6.148L129.648.721h4.525l26.451,54.525c6.379,13.227,12.527,20.882,15.429,18.8l1.16-.813a17.3,17.3,0,0,1,.116,2.2v1.278H141.133v-3.48l1.276-.116c4.062-.35,3.249-7.31-1.276-17.633l-.81-1.857A104.485,104.485,0,0,1,114.916,52l-1.278,3.362c-3.478,10.325-2.668,17.286,2.207,17.751l1.389.116a17.293,17.293,0,0,1,.116,2.2v1.278H93.221v-3.48l1.16-.116c4.291-.465,9.86-7.542,13.806-17.867l1.739-4.525c-9.281-2.668-18.1-7.424-22.505-16.242-2.552-5.1-2.783-11.136,2.436-13.8m48.725,29.35L125.82,23,116.771,47.01c7.308,3.133,15.2,3.249,21.811,3.017" transform="translate(120.947 1.018)" fill="#f5f5f5"/>
    <path id="Path_478" data-name="Path 478" d="M144.529,0h3.249V56.264c0,10.325,2.668,17.4,6.727,17.867l1.163.116a17.293,17.293,0,0,1,.116,2.2v1.278H123.416V76.449a17.3,17.3,0,0,1,.116-2.2l1.044-.116c4.175-.465,6.845-7.542,6.845-17.867V30.744c0-14.5-1.16-17.288-6.845-20.419l-1.044-.581a6.769,6.769,0,0,1-.116-1.158Z" transform="translate(174.247)" fill="#f5f5f5"/>
    <path id="Path_479" data-name="Path 479" d="M135.234,10.293h32.715v1.276a16.9,16.9,0,0,1-.118,2.2l-1.044.116c-3.365.35-2.552,6.5,1.86,15.547l8.7,16.01,10.675-23.549c-3.714-5.222-6.266-7.773-9.4-8.123V10.293h32.83v1.276a16.9,16.9,0,0,1-.118,2.2l-1.155.116c-3.946.35-3.02,7.544,2.668,17.867,2.431,4.409,4.985,9.049,7.308,13.572l6.264-13.572c4.756-10.323,4.64-17.517.113-17.867l-1.507-.116v-2.2a5.915,5.915,0,0,0-.113-1.276h22.855v3.478l-1.278.116c-4.409.35-10.557,7.66-15.776,17.867l-16.473,32.6h-2.672l-17.631-32.6a73.364,73.364,0,0,0-3.83-6.729L171.426,64.353h-2.668l-17.517-32.6c-5.451-10.207-11.367-17.517-14.963-17.867l-1.044-.116Z" transform="translate(190.932 14.532)" fill="#f5f5f5"/>
    <path id="Path_480" data-name="Path 480" d="M207.55,33.6V24.551c0-5.916-1.623-9.744-4.177-9.744-5.1,0-7.54,5.569-6.5,13.687a31.621,31.621,0,0,1-8.121,1.278,35.716,35.716,0,0,1-8.352-1.278c-1.51-10.9,9.744-18.909,26.68-18.328,10.791.347,17.751,7.076,17.751,18.212V48.45c0,4.988.926,8.234,4.525,8.234,2.668,0,4.059-.926,4.872-2.436l1.741,2.2c-2.786,5.106-7.426,8.355-17.751,8.355-4.64,0-8.237-2.089-9.512-5.685-3.943,2.552-9.86,5.1-16.008,5.1A13.992,13.992,0,0,1,178.316,50.3c0-13.572,19.025-16.242,29.234-16.7m-4.756,22.389a8.588,8.588,0,0,0,4.872-1.507l-.116-17.633c-6.379,0-12.877,3.015-12.877,10.788a7.982,7.982,0,0,0,8.121,8.352" transform="translate(251.758 14.312)" fill="#f5f5f5"/>
    <path id="Path_481" data-name="Path 481" d="M189.611,74.213a7.755,7.755,0,0,1,7.076-4.409,12.087,12.087,0,0,1,6.729,2.32c8.121,5.569,14.734,8.818,20.766,8.818,8.005,0,14.734-5.685,22.158-19.143L230.1,31.755c-5.569-10.209-11.948-17.4-16.357-17.867l-1.16-.116V10.294H245.3v1.273c0,2.2.232,2.2-.929,2.32-2.783.581-1.044,7.542,4.64,17.867,2.436,4.406,4.988,9.047,7.308,13.572l6.15-13.572c4.64-10.325,5.8-17.286,2.783-17.867-1.16-.116-.929-.116-.929-2.32V10.294h19.606v3.478l-1.276.116c-4.409.35-10.557,7.658-15.778,17.867L251.793,61.568c-8.586,19.49-22.392,32.483-38.865,32.483a38.056,38.056,0,0,1-17.515-4.64c-6.266-3.249-8.007-11.022-5.8-15.2" transform="translate(266.418 14.534)" fill="#f5f5f5"/>
    <path id="Path_482" data-name="Path 482" d="M225.714,46.23c.347,0,.7.116,1.392.116,2.32,6.382,8.468,15.2,16.939,15.2,5.569,0,9.165-3.133,9.165-8.007,0-3.249-3.83-6.842-9.746-9.165-10.441-4.059-17.286-11.251-17.286-17.283,0-9.975,9.281-17.517,24.362-17.517,4.756,0,12.645,1.741,16.242,5.8l-.463,12.761h-1.741C261.562,22.215,257.847,13.749,251,13.4s-11.138,3.83-11.254,7.889c-.116,3.943,6.264,6.611,16.126,10.557,7.308,2.9,11.833,9.281,11.833,15.544,0,11.022-9.628,17.983-24.825,17.983-6.382,0-12.761-2.089-16.591-5.222Z" transform="translate(318.678 13.514)" fill="#f5f5f5"/>
    <path id="Path_483" data-name="Path 483" d="M137.687,118.81a17.745,17.745,0,0,1,.118-2.253l1.066-.118c4.505-.473,6.994-8.3,6.994-18.967,0-14.816-1.184-17.66-6.994-20.863l-1.066-.591a6.966,6.966,0,0,1-.118-1.187l21.574-8.77h3.319V98.183c0,10.552,2.725,17.783,6.874,18.255l1.187.118a17.745,17.745,0,0,1,.118,2.253v1.3H137.687Zm6.4-70.53c0-5.808,3.557-9.483,9.247-9.483,5.571,0,9.126,3.676,9.126,9.483s-3.555,9.483-9.126,9.483c-5.69,0-9.247-3.676-9.247-9.483" transform="translate(194.396 54.775)" fill="#f5f5f5"/>
    <path id="Path_484" data-name="Path 484" d="M151.434,103.2a18.11,18.11,0,0,1,.116-2.253l1.187-.118c4.385-.473,6.879-8.3,6.879-19.085,0-14.7-1.071-17.78-6.879-20.744l-1.187-.591a5.518,5.518,0,0,1-.116-1.187l21.454-8.77h3.319v8.179c3.082-4.269,10.549-8.774,20.154-8.774,9.363,0,12.8,7.115,12.8,18.258V82.571c0,10.552,2.607,17.783,6.876,18.255l1.184.118a17.745,17.745,0,0,1,.118,2.253v1.3H185.215v-3.558l.714-.118c4.267-.709,6.517-7.7,6.517-18.255V69.889c0-5.928-2.964-12.684-7.822-12.684-2.371,0-5.214,1.778-8.417,6.281V82.571c0,10.552,2.61,17.783,6.876,18.255l.948.118V104.5h-32.6Z" transform="translate(213.805 70.387)" fill="#f5f5f5"/>
    <path id="Path_485" data-name="Path 485" d="M105.288,65.884v-1.9c5.685-1.184,14.095-9.119,21.2-20.255h2.723v15.4h27.925l-12.17,6.751H129.214s-.118,23.335-.118,33.641c0,5.212,1.3,6.514,5.921,6.514,2.132,0,6.517-1.3,10.188-6.633l1.184,1.539c-6.16,11.015-15.516,12.793-19.543,12.793-11.372,0-14.688-3.555-14.688-17.175V65.884Z" transform="translate(148.653 61.745)" fill="#f5f5f5"/>
    <path id="Path_486" data-name="Path 486" d="M121.315,65.883v-1.9c5.685-1.184,14.095-9.119,21.2-20.255h2.723v15.4H161v6.751H145.241s-.118,23.335-.118,33.641c0,5.212,1.3,6.514,5.921,6.514,2.132,0,6.517-1.3,10.188-6.633l1.184,1.539c-6.16,11.015-15.516,12.793-19.543,12.793-11.372,0-14.688-3.555-14.688-17.175V65.883Z" transform="translate(171.281 61.744)" fill="#f5f5f5"/>
    <path id="Path_487" data-name="Path 487" d="M51.6,133.277a17.824,17.824,0,0,1,.118-2.262l1.073-.121c4.291-.478,6.912-7.744,6.912-18.352V81.914c0-14.78-1.073-17.638-6.912-20.858l-1.073-.593a5.5,5.5,0,0,1-.118-1.194l21.569-8.818H76.5v5.482c2.5-3.217,9.534-6.078,17.877-6.078,13.465,0,24.073,12.87,23.359,31.224-.716,16.922-15.733,25.5-28.6,25.5A21.091,21.091,0,0,1,76.5,102.887v7.747c0,10.607,2.622,19.782,6.912,20.26l1.191.121a17.824,17.824,0,0,1,.118,2.262v1.312H51.6ZM76.5,60.581V87.632a13.8,13.8,0,0,0,.118,2.265v4.052c1.669,4.052,5.246,6.676,8.581,6.794,8.343.239,13.707-5.96,13.707-16.685,0-15.373-8.106-28.245-17.64-26.338a7.614,7.614,0,0,0-4.766,2.86" transform="translate(72.848 70.389)" fill="#f5f5f5"/>
    <path id="Path_488" data-name="Path 488" d="M79.4,50.1h25.028V84.425c0,5.6,3.813,9.175,11.439,9.175a5.533,5.533,0,0,0,4.291-2.265V72.983c.118-10.726-2.5-18.711-6.912-19.189l-1.073-.118a17.891,17.891,0,0,1-.118-2.265V50.1h24.907V72.983c0,14.778,1.073,17.877,6.912,20.855l1.191.6a5.457,5.457,0,0,1,.118,1.191l-21.569,8.82h-3.456V94.673c-4.886,6.435-10.607,10.369-17.52,10.369-10.009,0-15.016-7.39-15.016-18.832V72.149c0-10.6-2.622-17.877-6.91-18.354l-1.194-.118a17.891,17.891,0,0,1-.118-2.265Z" transform="translate(112.104 70.737)" fill="#f5f5f5"/>
    <path id="Path_489" data-name="Path 489" d="M190.186,112.917c-5.571-2.489-8.89-6.876-8.89-12.329,0-5.928,2.725-9.368,6.994-11.5-5.692-3.319-9.011-8.538-9.011-15.057,0-11.739,10.67-20.395,25.609-20.395a31.346,31.346,0,0,1,17.074,4.626c1.9-4.505,4.744-10.2,9.25-10.909,5.69-.948,8.06,1.78,9.129,6.283.83,3.676-2.61,6.4-4.98,5.692-2.607-.83-4.742-2.489-7.233-2.489-1.539,0-3.08.593-4.978,2.253,5.1,3.676,8.3,8.893,8.3,14.939,0,11.62-11.857,19.09-26.559,19.09a36.839,36.839,0,0,1-11.263-1.662,4.914,4.914,0,0,0-.948,3.2c0,2.489,2.725,4.148,6.876,4.387,0,0,11.145.118,12.686.236,13.043.948,23.12,7.824,23.713,16.955,1.068,16.362-16.717,24.425-34.622,23.95-9.722-.236-22.17-4.744-22.763-14.466-.475-7.706,4.387-11.618,11.618-12.8m12.45,23c12.807,0,20.513-4.153,19.09-12.452-.948-5.69-6.758-7.349-15.175-7.942-4.624-.355-7.59,0-11.266-.832-3.437.714-5.571,3.439-5.571,9.6,0,5.574,4.267,11.623,12.923,11.623M194.93,74.028c0,9.129,4.505,15.175,9.959,15.175s11.027-6.047,11.027-15.175c0-9.249-5.571-16.362-11.027-16.362s-9.959,7.113-9.959,16.362" transform="translate(252.069 66.588)" fill="#f5f5f5"/>
    <path id="Path_490" data-name="Path 490" d="M215.624,77.306c0-16.885,11.654-27.708,30.086-27.708,18.2,0,29.849,10.822,29.849,27.708S263.9,105.013,245.71,105.013c-18.432,0-30.086-10.82-30.086-27.708m30.086,23.783c7.134,0,11.772-9.276,11.772-23.783s-4.638-23.783-11.772-23.783S233.937,62.8,233.937,77.306s4.638,23.783,11.772,23.783" transform="translate(304.432 70.026)" fill="#f5f5f5"/>
    <path id="Path_491" data-name="Path 491" d="M240.755,49.845h24.972V84.094c0,5.586,3.806,9.155,11.415,9.155a5.514,5.514,0,0,0,4.281-2.26V72.676c.118-10.7-2.5-18.668-6.9-19.145l-1.071-.118a17.45,17.45,0,0,1-.121-2.26V49.845h24.854V72.676c0,14.746,1.071,17.838,6.9,20.81l1.189.6a5.418,5.418,0,0,1,.118,1.189l-21.524,8.8h-3.449V94.32c-4.874,6.42-10.583,10.344-17.481,10.344-9.988,0-14.982-7.373-14.982-18.788V71.844c0-10.583-2.617-17.836-6.9-18.313l-1.191-.118a17.8,17.8,0,0,1-.118-2.26Z" transform="translate(339.914 70.374)" fill="#f5f5f5"/>
    <path id="Path_492" data-name="Path 492" d="M267.612,115.223a17.844,17.844,0,0,1,.118-2.26l1.071-.118c4.52-.475,6.9-8.323,6.9-19.145,0-14.746-1.071-17.6-6.9-20.81l-1.071-.6a5.418,5.418,0,0,1-.118-1.189l21.523-8.8h3.331V79.549c3.685-12.725,15.815-38.53,36.863-38.53,5.47,0,9.631,3.924,9.631,9.872a7.333,7.333,0,0,1-9.512,7.014,30.806,30.806,0,0,0-8.8-1.428c-17.006,0-23.665,17.6-28.183,29.967v8.087c0,10.583,2.615,17.838,6.9,18.313l1.187.118a17.862,17.862,0,0,1,.118,2.26v1.31H267.612Z" transform="translate(377.832 57.913)" fill="#f5f5f5"/>
    <path id="Path_493" data-name="Path 493" d="M88.389,150.485c.523,0,1.049.174,2.1.174,3.495,9.609,12.752,22.886,25.5,22.886,8.386,0,13.8-4.718,13.8-12.055,0-4.891-5.764-10.306-14.671-13.8-15.723-6.114-26.031-16.943-26.031-26.026,0-15.021,13.977-26.376,36.684-26.376,7.163,0,19.039,2.622,24.456,8.733l-.7,19.215h-2.619c-4.544-8.909-10.132-21.661-20.438-22.184s-16.77,5.764-16.943,11.878c-.174,5.938,9.433,9.956,24.28,15.9,11,4.365,17.819,13.974,17.819,23.407,0,16.594-14.5,27.076-37.384,27.076-9.606,0-19.213-3.145-24.98-7.86Z" transform="translate(124.793 134.533)" fill="#f5f5f5"/>
    <path id="Path_494" data-name="Path 494" d="M114.587,125.953c11.7,3.495,20.964-15.371,28.648-30.918h5.415V117.57c19.739-13.625,56.247-36.335,83.323-36.335A34.157,34.157,0,0,1,249.442,85.6c6.987,4.194,11.876,12.226,7.337,19.565-2.622,4.368-7.163,7.163-11.355,7.163a7.531,7.531,0,0,1-6.112-2.8C233.2,102.2,224.988,99.4,215.553,99.4c-21.661,0-48.91,15.371-66.9,26.55V127.7s-.174,34.41-.174,49.61c0,7.687,1.922,9.606,8.733,9.606,3.143,0,9.609-1.92,15.024-9.783l1.746,2.272c-9.083,16.244-22.884,18.863-28.822,18.863-16.77,0-21.837-5.239-21.661-25.327l.174-38.255a16.7,16.7,0,0,1-8.909-1.746Z" transform="translate(161.782 114.693)" fill="#f5f5f5"/>
    <path id="Path_495" data-name="Path 495" d="M138.465,136.711c0-24.8,17.119-40.7,44.2-40.7,26.726,0,43.845,15.9,43.845,40.7s-17.119,40.7-43.845,40.7c-27.078,0-44.2-15.894-44.2-40.7m44.2,34.936c10.48,0,17.293-13.625,17.293-34.936s-6.814-34.936-17.293-34.936-17.3,13.625-17.3,34.936,6.811,34.936,17.3,34.936" transform="translate(195.494 135.555)" fill="#f5f5f5"/>
    <path id="Path_496" data-name="Path 496" d="M286.884,125.532c0-8.384-4.539-17.645-11.355-17.645-4.189,0-9.083,3.321-14.5,11.881v24.454c0,15.547,3.842,26.379,10.132,26.9l2.27.174v5.241H226.1V171.3l.873-.174c6.288-1.223,9.433-11.355,9.433-26.9v-18.69c0-8.733-4.365-18.692-11.529-18.692-3.492,0-7.687,2.622-12.4,9.257v28.125c0,15.547,4.018,26.379,10.13,26.9l1.922.174v5.241H175.96v-1.922a25.5,25.5,0,0,1,.178-3.319l1.57-.174c6.64-.7,10.306-12.228,10.306-28.125,0-21.661-1.746-25.85-10.306-30.568l-1.57-.873a7.806,7.806,0,0,1-.178-1.749l31.62-12.925h4.891v12.052c4.542-6.288,15.544-12.925,29.695-12.925,10.306,0,15.723,5.764,17.819,15.547,6.288-8.909,19.739-15.547,32.664-15.547,13.8,0,18.866,10.48,18.866,26.9V154.7c0,14.85.35,19.215.35,20.962,0,5.591.523,22.011,7.513,24.28,8.907,2.969,14.671-5.938,18.866-10.48A9.5,9.5,0,0,1,345.4,186.5c4.891,0,9.956,3.143,10.656,8.208,1.4,9.259-4.542,14.85-13.451,17.122a51.277,51.277,0,0,1-11.7,1.394c-8.036,0-16.073-1.746-22.36-5.938-4.718-3.143-21.661-11.878-21.661-38.431Z" transform="translate(248.432 135.555)" fill="#f5f5f5"/>
    <path id="Path_497" data-name="Path 497" d="M280.825,96.011c21.835,0,35.807,16.07,35.807,40.876l-52.4.873c2.272,15.547,10.832,27.773,31.967,26.2,4.542-.352,11.353-4.368,17.117-12.928l2.8,2.446c-8.907,17.293-26.726,23.931-38.954,23.931-24.1,0-39.654-14.324-39.654-36.682,0-27.252,16.77-44.718,43.324-44.718M263.706,132.17h20.262c17.469-.7,12.925-29-4.542-29-9.783,0-16.073,11.7-15.721,29" transform="translate(335.32 135.555)" fill="#f5f5f5"/>
    <path id="Path_498" data-name="Path 498" d="M302.573,150.485c.523,0,1.049.174,2.1.174,3.495,9.609,12.752,22.886,25.5,22.886,8.386,0,13.8-4.718,13.8-12.055,0-4.891-5.764-10.306-14.671-13.8-15.723-6.114-26.031-16.943-26.031-26.026,0-15.021,13.977-26.376,36.684-26.376,7.163,0,19.039,2.622,24.456,8.733l-.7,19.215h-2.619c-4.544-8.909-10.132-21.661-20.438-22.184s-16.77,5.764-16.943,11.878c-.174,5.938,9.433,9.956,24.28,15.9,11,4.365,17.819,13.974,17.819,23.407,0,16.594-14.5,27.076-37.384,27.076-9.607,0-19.213-3.145-24.98-7.86Z" transform="translate(427.193 134.533)" fill="#f5f5f5"/>
    <path id="Path_499" data-name="Path 499" d="M271.545,174.149a26.215,26.215,0,0,1,.174-3.321l1.575-.174c6.642-.7,10.137-12.235,10.137-28.144,0-21.678-1.572-25.872-10.137-30.592l-1.575-.873a7.985,7.985,0,0,1-.174-1.749l31.639-12.935h4.9v25.522c3.321-8.041,10.313-22.9,20.8-24.823,9.966-1.749,14.512,3.845,16.082,13.108,1.052,7.344-4.894,13.287-8.738,11.888-4.373-1.573-8.391-5.07-13.287-5.07-4.194,0-8.914,2.624-14.857,11.362v15.383c0,15.559,3.844,26.222,10.14,26.921l1.746.174a26.215,26.215,0,0,1,.174,3.321v1.925H271.545Z" transform="translate(383.385 136.049)" fill="#f5f5f5"/>
    <path id="Path_500" data-name="Path 500" d="M0,141.5c0-34.586,27.6-60.265,70.747-60.265,19.739,0,35.811,6.637,43.843,14.15l1.225,26.026h-2.1c-1.049-2.1-2.622-4.542-3.668-6.64-7.687-15.371-22.36-26.55-39.3-26.55-24.8,0-40.876,22.884-40.876,53.278,0,30.221,16.073,49.61,40.876,49.61,16.943,0,31.617-9.433,39.3-24.8,1.047-2.1,2.619-4.544,3.668-6.64h2.1l-1.225,26.2c-8.032,7.513-24.1,12.4-43.843,12.4C27.6,198.272,0,176.087,0,141.5" transform="translate(0 114.694)" fill="#f5f5f5"/>
    <path id="Path_501" data-name="Path 501" d="M48.649,96.373H85.331v50.309c0,8.208,5.591,13.449,16.77,13.449a8.1,8.1,0,0,0,6.288-3.319v-26.9c.176-15.723-3.666-27.425-10.13-28.127l-1.573-.174a26.147,26.147,0,0,1-.174-3.319v-1.92h36.508v33.539c0,21.659,1.573,26.2,10.132,30.566l1.744.875a7.87,7.87,0,0,1,.176,1.746l-31.617,12.928h-5.067V161.7c-7.161,9.433-15.544,15.2-25.677,15.2-14.674,0-22.011-10.832-22.011-27.6V128.687c0-15.544-3.842-26.2-10.13-26.9l-1.749-.174a26.145,26.145,0,0,1-.174-3.319Z" transform="translate(68.686 136.066)" fill="#f5f5f5"/>
    <path id="Path_502" data-name="Path 502" d="M98.291,247.06v-1.821a24.551,24.551,0,0,1,.166-3.147l1.488-.164c5.962-.663,9.6-10.762,9.6-25.5v-44.7c0-14.737-3.642-24.837-9.6-25.5l-1.488-.166a24.532,24.532,0,0,1-.166-3.145v-1.821H192.17c.5,9.274,1,18.545,1.327,27.816a11.134,11.134,0,0,1-1.987-.166l-1.657-3.145c-5.793-11.095-21.359-17.884-39.075-17.884H135.711v43.713c15.4-.825,27.816-4.139,32.288-9.768L169.323,180s1.985-.166,3.972-.166v31.791c-1.987,0-3.972-.164-3.972-.164L168,209.476c-4.8-5.8-16.888-9.937-32.288-11.095v18.046c0,14.739,4.305,24.837,10.928,25.5l1.821.164a24.551,24.551,0,0,1,.166,3.147v1.821Z" transform="translate(138.774 199.203)" fill="#f5f5f5"/>
    <path id="Path_503" data-name="Path 503" d="M137.813,249.7a24.191,24.191,0,0,1,.169-3.145l1.488-.166c6.293-.661,9.77-11.589,9.77-26.492,0-20.7-1.657-24.671-9.77-29.14l-1.488-.827a9.535,9.535,0,0,1-.169-1.657l30.136-12.252h4.638v44.87c0,14.737,3.806,24.837,9.6,25.5l1.657.166a24.888,24.888,0,0,1,.164,3.145v1.821h-46.2Zm8.943-98.518c0-8.114,4.968-13.246,12.916-13.246,7.781,0,12.749,5.132,12.749,13.246s-4.968,13.246-12.749,13.246c-7.947,0-12.916-5.132-12.916-13.246" transform="translate(194.574 194.744)" fill="#f5f5f5"/>
    <path id="Path_504" data-name="Path 504" d="M157.634,244.755a24.532,24.532,0,0,1,.166-3.145l1.488-.166c6.293-.661,9.6-11.589,9.6-26.656,0-20.532-1.488-24.5-9.6-28.976l-1.488-.827a7.518,7.518,0,0,1-.166-1.657L187.6,171.074h4.638v24.01c5.132-17.718,22.02-53.65,51.327-53.65,7.617,0,13.412,5.465,13.412,13.745a10.215,10.215,0,0,1-13.246,9.768,42.863,42.863,0,0,0-12.252-1.987c-23.677,0-32.951,24.507-39.241,41.725v11.259c0,14.737,3.642,24.837,9.6,25.5l1.655.166a24.888,24.888,0,0,1,.164,3.145v1.821H157.634Z" transform="translate(222.558 199.687)" fill="#f5f5f5"/>
    <path id="Path_505" data-name="Path 505" d="M182.327,205.015c.5,0,.994.166,1.987.166,3.312,9.107,12.086,21.692,24.174,21.692,7.947,0,13.08-4.472,13.08-11.427,0-4.636-5.463-9.768-13.907-13.08-14.9-5.8-24.673-16.061-24.673-24.671,0-14.24,13.246-25,34.774-25,6.787,0,18.046,2.484,23.178,8.28l-.661,18.212H237.8c-4.305-8.446-9.6-20.532-19.372-21.027s-15.894,5.463-16.061,11.259c-.166,5.629,8.941,9.435,23.014,15.067,10.431,4.139,16.89,13.246,16.89,22.187,0,15.73-13.743,25.665-35.435,25.665-9.1,0-18.214-2.981-23.677-7.45Z" transform="translate(257.421 215.584)" fill="#f5f5f5"/>
    <path id="Path_506" data-name="Path 506" d="M206.679,175.763v-2.648c7.947-1.657,19.7-12.752,29.637-28.315h3.808v21.526h22.023v9.438H240.124s-.166,32.618-.166,47.024c0,7.286,1.823,9.1,8.28,9.1,2.979,0,9.107-1.819,14.24-9.271l1.655,2.154c-8.61,15.4-21.69,17.879-27.319,17.879-15.894,0-20.532-4.966-20.532-24.008V175.763Z" transform="translate(291.803 204.437)" fill="#f5f5f5"/>
  </g>
</svg>
