<svg id="Group_485" data-name="Group 485" xmlns="http://www.w3.org/2000/svg" xmlns:xlink="http://www.w3.org/1999/xlink" width="1029.148" height="211.722" viewBox="0 0 1029.148 211.722">
  <defs>
    <clipPath id="clip-path">
      <rect id="Rectangle_856" data-name="Rectangle 856" width="1029.148" height="211.722" fill="#f5f5f5"/>
    </clipPath>
  </defs>
  <g id="Group_484" data-name="Group 484" clip-path="url(#clip-path)">
    <path id="Path_1196" data-name="Path 1196" d="M1.741,55.987c.87,1.367,1.99,3.358,2.735,4.725,5.847,10.821,15.548,18.658,24,18.658,10.7,0,17.412-5.723,17.412-12.687,0-5.845-9.2-12.065-23.754-16.045C9.2,47.156.621,38.449.621,28.5.621,12.581,13.184,2.381,32.96,2.381c8.208,0,17.536,2.861,22.884,7.214l1.12,19.9H55.1C52.486,20.416,42.536,7.232,31.964,7.357c-10.074.124-16.542,5.1-16.542,13.059,0,4.974,9.2,10.695,23.383,14.552C52.361,38.7,61.192,47.779,61.192,58.474c0,15.051-12.811,25.994-32.711,25.994-11.442,0-22.137-4.1-27.361-8.581L0,55.987Z" transform="translate(0 1.728)" fill="#f5f5f5"/>
    <path id="Path_1197" data-name="Path 1197" d="M34.307,27.615H69.381v1.369a18.507,18.507,0,0,1-.124,2.363l-1.12.124c-3.607.373-2.735,6.965,1.99,16.666L79.454,65.3,90.9,40.053c-3.981-5.6-6.717-8.334-10.075-8.707V27.615h35.2v1.369a18.5,18.5,0,0,1-.124,2.363l-1.244.124c-4.228.373-3.232,8.084,2.861,19.155,2.611,4.725,4.477,8.829,6.965,13.681L130.7,52.491C134.056,44.406,152.712.5,177.089,0c5.845-.124,11.691,2.613,11.691,8.831,0,5.6-3.98,10.945-8.581,9.577a27.2,27.2,0,0,0-7.462-1.118c-17.538,0-29.229,19.153-36.07,32.834,0,.124-.124.375-.124.5l-2.487,4.85c-.747,1.369-1.12,2.487-1.617,3.483v-.124l-13.432,26.74h-2.861l-18.9-34.948a78.727,78.727,0,0,0-4.1-7.214L73.112,85.573H70.251L51.47,50.626C45.625,39.68,39.283,31.843,35.425,31.471l-1.118-.124Z" transform="translate(24.901 0)" fill="#f5f5f5"/>
    <path id="Path_1198" data-name="Path 1198" d="M131.026,15.641c15.546,0,25.5,11.442,25.5,29.1l-37.312.621c1.617,11.069,7.713,19.776,22.762,18.656,3.232-.249,8.084-3.11,12.188-9.2l1.99,1.741C149.806,68.874,137.119,73.6,128.413,73.6c-17.163,0-28.233-10.2-28.233-26.12,0-19.4,11.939-31.84,30.846-31.84M118.836,41.387h14.428c12.438-.5,9.2-20.646-3.234-20.646-6.964,0-11.442,8.332-11.194,20.646" transform="translate(72.713 11.353)" fill="#f5f5f5"/>
    <path id="Path_1199" data-name="Path 1199" d="M166.125,15.641c15.546,0,25.5,11.442,25.5,29.1l-37.312.621c1.617,11.069,7.713,19.776,22.762,18.656,3.232-.249,8.084-3.11,12.188-9.2l1.99,1.741C184.9,68.874,172.218,73.6,163.512,73.6c-17.163,0-28.233-10.2-28.233-26.12,0-19.4,11.939-31.84,30.846-31.84M153.935,41.387h14.428c12.438-.5,9.2-20.646-3.234-20.646-6.964,0-11.442,8.332-11.194,20.646" transform="translate(98.189 11.353)" fill="#f5f5f5"/>
    <path id="Path_1200" data-name="Path 1200" d="M168.5,29.891V27.9c5.97-1.244,14.8-9.577,22.263-21.269h2.861V22.8h16.542v7.09H193.63s-.126,24.5-.126,35.322c0,5.473,1.369,6.841,6.22,6.841,2.238,0,6.841-1.369,10.7-6.965l1.243,1.617c-6.467,11.566-16.293,13.432-20.522,13.432-11.939,0-15.422-3.731-15.422-18.033V29.891Z" transform="translate(122.305 4.814)" fill="#f5f5f5"/>
    <path id="Path_1201" data-name="Path 1201" d="M208.145,59.533c0-20.151,11.691-32.96,29.974-32.96a16.053,16.053,0,0,1,9.452,3.234c-.249-12.314-1.617-15.3-7.214-18.159l-1.244-.623a5.637,5.637,0,0,1-.124-1.243L261.5.579h3.483v50.5c0,15.422,1.244,18.408,7.338,21.766l1.12.621a5.663,5.663,0,0,1,.124,1.244l-22.513,9.2h-3.481V75.452c-4.851,5.6-10.821,9.08-16.169,9.08-14.3,0-23.257-9.7-23.257-25m32.834,13.929a13.588,13.588,0,0,0,6.593-1.493v-34.7a12.337,12.337,0,0,0-10.324-5.721c-6.591,0-10.821,8.21-10.821,21.145,0,12.687,5.721,20.77,14.552,20.77" transform="translate(151.076 0.42)" fill="#f5f5f5"/>
    <path id="Path_1202" data-name="Path 1202" d="M247.063,71.348a18.5,18.5,0,0,1,.124-2.363l1.12-.124c4.725-.5,7.214-8.707,7.214-20.025,0-15.422-1.12-18.408-7.214-21.766l-1.12-.621a5.643,5.643,0,0,1-.124-1.244L269.575,16h3.483V34.16c2.364-5.721,7.338-16.293,14.8-17.66,7.09-1.244,10.324,2.735,11.444,9.328.746,5.222-3.484,9.452-6.22,8.457-3.11-1.12-5.97-3.607-9.452-3.607-2.986,0-6.342,1.866-10.572,8.085V49.706c0,11.071,2.735,18.658,7.214,19.155l1.244.124a18.505,18.505,0,0,1,.124,2.363v1.369H247.063Z" transform="translate(179.324 11.614)" fill="#f5f5f5"/>
    <path id="Path_1203" data-name="Path 1203" d="M309.765,15.641c15.546,0,25.5,11.442,25.5,29.1l-37.312.621c1.617,11.069,7.713,19.776,22.762,18.656,3.234-.249,8.084-3.11,12.188-9.2l1.992,1.741C328.545,68.874,315.858,73.6,307.152,73.6c-17.163,0-28.233-10.2-28.233-26.12,0-19.4,11.939-31.84,30.846-31.84M297.575,41.387H312c12.438-.5,9.2-20.646-3.234-20.646-6.964,0-11.442,8.332-11.194,20.646" transform="translate(202.446 11.353)" fill="#f5f5f5"/>
    <path id="Path_1204" data-name="Path 1204" d="M344.928,40.923v-9.7c0-6.344-1.741-10.448-4.479-10.448-5.473,0-8.082,5.97-6.964,14.676a33.952,33.952,0,0,1-8.707,1.369,38.357,38.357,0,0,1-8.954-1.369C314.206,23.76,326.273,15.177,344.431,15.8c11.566.375,19.029,7.588,19.029,19.528V56.842c0,5.35,1,8.833,4.851,8.833,2.86,0,4.353-1,5.222-2.613l1.866,2.363c-2.984,5.473-7.959,8.955-19.029,8.955-4.974,0-8.829-2.238-10.2-6.094-4.228,2.735-10.572,5.473-17.165,5.473a15,15,0,0,1-15.422-14.925c0-14.552,20.4-17.414,31.343-17.911m-5.1,24a9.2,9.2,0,0,0,5.224-1.617l-.124-18.9c-6.841,0-13.8,3.232-13.8,11.566a8.556,8.556,0,0,0,8.705,8.955" transform="translate(227.607 11.444)" fill="#f5f5f5"/>
    <path id="Path_1205" data-name="Path 1205" d="M349.046,71.609a18.755,18.755,0,0,1,.123-2.363l1.122-.124c4.725-.5,7.338-8.707,7.338-20.025,0-15.422-1.244-18.408-7.338-21.766l-1.122-.621a5.718,5.718,0,0,1-.123-1.244l22.512-9.2h3.483v8.583c3.234-4.477,11.069-9.2,21.143-9.2,7.214,0,11.071,3.98,12.562,10.821,4.352-4.6,14.428-10.821,23.63-10.821,9.827,0,13.434,7.462,13.434,19.153V49.968c0,11.071,2.736,18.658,7.214,19.155l1.244.124v3.731h-34.7V69.247l1.495-.124c4.477-.373,7.212-8.084,7.212-19.155V36.662c0-6.1-3.481-12.688-8.707-12.688-2.984,0-6.467,1.992-10.074,7.464a29.908,29.908,0,0,1,.126,3.357V49.968c0,11.071,2.736,18.782,7.212,19.155l1.617.124v3.731H384.741V69.247l.621-.124c4.479-.872,6.717-8.084,6.717-19.155V36.662c0-6.22-3.11-13.31-8.208-13.31-2.489,0-5.473,1.866-8.831,6.593V49.968c0,11.071,2.86,18.658,7.336,19.155l1.244.124v3.731H349.046Z" transform="translate(253.345 11.353)" fill="#f5f5f5"/>
    <path id="Path_1206" data-name="Path 1206" d="M411.819,54.223c.375,0,.747.124,1.493.124,2.489,6.841,9.08,16.294,18.159,16.294,5.971,0,9.825-3.358,9.825-8.583,0-3.483-4.1-7.338-10.448-9.825-11.192-4.353-18.53-12.065-18.53-18.532,0-10.7,9.949-18.78,26.119-18.78,5.1,0,13.556,1.866,17.412,6.218l-.5,13.681h-1.866c-3.233-6.342-7.214-15.422-14.552-15.795s-11.939,4.1-12.063,8.457c-.126,4.23,6.715,7.09,17.288,11.318,7.835,3.11,12.686,9.951,12.686,16.668,0,11.815-10.324,19.277-26.617,19.277-6.841,0-13.681-2.238-17.786-5.6Z" transform="translate(298.907 10.83)" fill="#f5f5f5"/>
    <path id="Path_1207" data-name="Path 1207" d="M454.2,54.223c.374,0,.747.124,1.493.124,2.489,6.841,9.08,16.294,18.159,16.294,5.971,0,9.825-3.358,9.825-8.583,0-3.483-4.1-7.338-10.448-9.825C462.035,47.881,454.7,40.168,454.7,33.7c0-10.7,9.949-18.78,26.119-18.78,5.1,0,13.556,1.866,17.412,6.218l-.5,13.681h-1.866c-3.232-6.342-7.214-15.422-14.552-15.795s-11.939,4.1-12.064,8.457c-.126,4.23,6.715,7.09,17.288,11.318,7.835,3.11,12.687,9.951,12.687,16.668,0,11.815-10.324,19.277-26.617,19.277-6.841,0-13.681-2.238-17.786-5.6Z" transform="translate(329.667 10.83)" fill="#f5f5f5"/>
    <path id="Path_1208" data-name="Path 1208" d="M481.153,32.78c8.332,2.487,14.925-10.945,20.4-22.015h3.855V26.81C519.459,17.108,545.455.94,564.733.94a24.3,24.3,0,0,1,12.438,3.11c4.976,2.984,8.456,8.705,5.224,13.929-1.866,3.11-5.1,5.1-8.084,5.1a5.362,5.362,0,0,1-4.354-1.99c-4.353-5.224-10.2-7.214-16.915-7.214-15.422,0-34.825,10.945-47.636,18.9v1.244s-.124,24.5-.124,35.322c0,5.473,1.367,6.839,6.218,6.839,2.24,0,6.841-1.367,10.7-6.964l1.244,1.617c-6.468,11.566-16.292,13.432-20.523,13.432-11.939,0-15.545-3.731-15.42-18.035L487.62,39a11.9,11.9,0,0,1-6.342-1.244Z" transform="translate(349.232 0.682)" fill="#f5f5f5"/>
    <path id="Path_1209" data-name="Path 1209" d="M536.712,40.923v-9.7c0-6.344-1.741-10.448-4.479-10.448-5.473,0-8.082,5.97-6.964,14.676a33.953,33.953,0,0,1-8.707,1.369,38.355,38.355,0,0,1-8.954-1.369C505.99,23.76,518.057,15.177,536.215,15.8c11.566.375,19.029,7.588,19.029,19.528V56.842c0,5.35,1,8.833,4.851,8.833,2.86,0,4.353-1,5.222-2.613l1.866,2.363c-2.984,5.473-7.959,8.955-19.029,8.955-4.974,0-8.829-2.238-10.2-6.094-4.228,2.735-10.572,5.473-17.165,5.473a15,15,0,0,1-15.422-14.925c0-14.552,20.4-17.414,31.343-17.911m-5.1,24a9.2,9.2,0,0,0,5.222-1.617l-.124-18.9c-6.841,0-13.8,3.232-13.8,11.566a8.556,8.556,0,0,0,8.707,8.955" transform="translate(366.808 11.444)" fill="#f5f5f5"/>
    <path id="Path_1210" data-name="Path 1210" d="M541.333,71.348a18.5,18.5,0,0,1,.124-2.363l1.12-.124c4.725-.5,7.212-8.707,7.212-20.025,0-15.422-1.118-18.408-7.212-21.766l-1.12-.621a5.641,5.641,0,0,1-.124-1.244L563.844,16h3.484V34.16c2.363-5.721,7.336-16.293,14.8-17.66,7.088-1.244,10.322,2.735,11.442,9.328.746,5.222-3.483,9.452-6.22,8.457-3.11-1.12-5.97-3.607-9.454-3.607-2.984,0-6.341,1.866-10.569,8.085V49.706c0,11.071,2.734,18.658,7.212,19.155l1.244.124a18.514,18.514,0,0,1,.124,2.363v1.369H541.333Z" transform="translate(392.912 11.614)" fill="#f5f5f5"/>
    <path id="Path_1211" data-name="Path 1211" d="M571.315,29.891V27.9c5.971-1.244,14.8-9.577,22.263-21.269h2.861V22.8h16.542v7.09H596.439s-.124,24.5-.124,35.322c0,5.473,1.367,6.841,6.218,6.841,2.24,0,6.841-1.369,10.7-6.965l1.244,1.617c-6.467,11.566-16.293,13.432-20.523,13.432-11.939,0-15.42-3.731-15.42-18.033V29.891Z" transform="translate(414.673 4.814)" fill="#f5f5f5"/>
    <path id="Path_1212" data-name="Path 1212" d="M14.559,71.8H49.633v1.367a18.555,18.555,0,0,1-.124,2.364l-1.12.123c-3.607.374-2.735,6.967,1.99,16.668l9.328,17.163L71.15,84.236c-3.981-5.6-6.717-8.332-10.075-8.705V71.8h35.2v1.367a18.553,18.553,0,0,1-.124,2.364l-1.244.123c-4.228.374-3.232,8.085,2.861,19.155,2.611,4.725,5.348,9.7,7.835,14.552l6.717-14.552c5.1-11.069,4.974-18.78.124-19.155l-1.617-.123V73.167A6.21,6.21,0,0,0,110.7,71.8h24.5v3.731l-1.369.123c-4.725.374-11.318,8.21-16.915,19.155l-17.66,34.95H96.4l-18.9-34.95a78.729,78.729,0,0,0-4.1-7.214L53.364,129.758H50.5l-18.78-34.95c-5.845-10.945-12.188-18.78-16.045-19.155l-1.118-.123Z" transform="translate(10.567 52.114)" fill="#f5f5f5"/>
    <path id="Path_1213" data-name="Path 1213" d="M79.64,139.178a18.54,18.54,0,0,1,.124-2.363l1.12-.126c4.725-.5,7.338-8.7,7.338-19.9,0-15.548-1.244-18.532-7.338-21.889l-1.12-.623a7.264,7.264,0,0,1-.124-1.243l22.638-9.2h3.481v33.705c0,11.069,2.861,18.654,7.214,19.151l1.244.126a18.541,18.541,0,0,1,.124,2.363v1.369H79.64Zm6.717-74c0-6.094,3.731-9.951,9.7-9.951,5.845,0,9.577,3.857,9.577,9.951s-3.731,9.951-9.577,9.951c-5.97,0-9.7-3.857-9.7-9.951" transform="translate(57.805 40.083)" fill="#f5f5f5"/>
    <path id="Path_1214" data-name="Path 1214" d="M99.82,85.69V83.7c5.97-1.244,14.8-9.577,22.263-21.269h2.861V78.6h16.542V85.69H124.945s-.126,24.5-.126,35.322c0,5.473,1.369,6.841,6.22,6.841,2.238,0,6.841-1.369,10.7-6.964l1.243,1.615c-6.467,11.566-16.293,13.432-20.522,13.432-11.939,0-15.422-3.731-15.422-18.035V85.69Z" transform="translate(72.452 45.314)" fill="#f5f5f5"/>
    <path id="Path_1215" data-name="Path 1215" d="M167.07,103.389c0-5.968-3.11-12.561-8.084-12.561-2.487,0-5.473,1.741-8.831,6.22V116.7c0,11.071,2.737,18.654,7.214,19.153l1.118.124h.249l-.123,3.733H124.286v-3.733l1.244-.124c4.477-.5,7.09-8.082,7.09-19.153V89.212c0-15.42-1.12-18.654-7.216-21.764l-1.243-.623a5.644,5.644,0,0,1-.124-1.244l22.512-9.2h3.607V90.829a30.919,30.919,0,0,1,21.019-8.457c9.827,0,13.434,7.462,13.434,19.153V124.16c0,10.572.249,13.682.249,14.927,0,4.23.373,15.546,5.473,17.288,6.218,2.116,10.322-4.228,13.308-7.461a6.761,6.761,0,0,1,5.1-2.118c3.483,0,7.088,2.24,7.587,5.847.994,6.593-3.234,10.574-9.577,12.191a36.441,36.441,0,0,1-8.334.994c-5.721,0-11.442-1.367-15.8-4.228-3.481-2.24-15.546-8.46-15.546-27.365Z" transform="translate(90.029 40.92)" fill="#f5f5f5"/>
    <path id="Path_1216" data-name="Path 1216" d="M178.883,110.02c.373,0,.746.124,1.493.124,2.487,6.841,9.078,16.3,18.157,16.3,5.971,0,9.827-3.36,9.827-8.583,0-3.484-4.1-7.338-10.448-9.825C186.718,103.678,179.38,95.965,179.38,89.5c0-10.7,9.951-18.779,26.119-18.779,5.1,0,13.556,1.866,17.414,6.218l-.5,13.681h-1.864c-3.234-6.342-7.216-15.424-14.554-15.8s-11.939,4.1-12.064,8.458c-.124,4.228,6.717,7.09,17.288,11.318,7.835,3.11,12.687,9.949,12.687,16.666,0,11.815-10.324,19.279-26.616,19.279-6.841,0-13.682-2.238-17.786-5.6Z" transform="translate(129.837 51.33)" fill="#f5f5f5"/>
    <path id="Path_1217" data-name="Path 1217" d="M206.414,139.178a18.541,18.541,0,0,1,.124-2.363l1.12-.126c4.725-.5,7.338-8.7,7.338-19.9,0-15.548-1.244-18.532-7.338-21.889l-1.12-.623a7.265,7.265,0,0,1-.124-1.243l22.638-9.2h3.481v33.705c0,11.069,2.861,18.654,7.214,19.151l1.244.126a18.537,18.537,0,0,1,.124,2.363v1.369h-34.7Zm6.717-74c0-6.094,3.731-9.951,9.7-9.951,5.845,0,9.577,3.857,9.577,9.951s-3.731,9.951-9.577,9.951c-5.97,0-9.7-3.857-9.7-9.951" transform="translate(149.82 40.083)" fill="#f5f5f5"/>
    <path id="Path_1218" data-name="Path 1218" d="M227.6,127.407a18.545,18.545,0,0,1,.124-2.363l1.12-.124c4.725-.5,7.338-8.705,7.338-20.025,0-15.422-1.244-18.408-7.338-21.764l-1.12-.623a5.658,5.658,0,0,1-.124-1.243l22.512-9.2H253.6v8.581c3.234-4.477,11.069-9.2,21.143-9.2,7.216,0,11.071,3.98,12.562,10.821,4.354-4.6,14.428-10.821,23.632-10.821,9.827,0,13.432,7.462,13.432,19.153v15.175c0,11.069,2.737,18.656,7.216,19.153l1.243.124v3.731h-34.7v-3.731l1.493-.124c4.477-.373,7.214-8.084,7.214-19.153V92.458c0-6.094-3.483-12.687-8.707-12.687-2.984,0-6.467,1.992-10.074,7.464a30.309,30.309,0,0,1,.124,3.357v15.175c0,11.069,2.735,18.78,7.214,19.153l1.615.124v3.731H263.3v-3.731l.621-.124c4.477-.87,6.717-8.084,6.717-19.153V92.458c0-6.218-3.11-13.308-8.21-13.308-2.487,0-5.473,1.866-8.831,6.591v20.026c0,11.069,2.861,18.656,7.338,19.153l1.244.124v3.731H227.6Z" transform="translate(165.2 51.852)" fill="#f5f5f5"/>
    <path id="Path_1219" data-name="Path 1219" d="M290.09,158.5a18.534,18.534,0,0,1,.124-2.363l1.12-.123c4.477-.5,7.214-8.085,7.214-19.155V104.9c0-15.422-1.12-18.408-7.214-21.764l-1.12-.621a5.662,5.662,0,0,1-.124-1.244l22.512-9.2h3.483v5.719c2.613-3.357,9.951-6.341,18.658-6.341,14.053,0,25.123,13.432,24.377,32.585-.747,17.662-16.418,26.616-29.85,26.616-4.975,0-9.7-1.243-13.185-3.855v8.085c0,11.069,2.737,20.644,7.214,21.145l1.243.123a18.3,18.3,0,0,1,.126,2.363v1.369H290.09Zm25.994-75.869v28.233a14.3,14.3,0,0,0,.124,2.364v4.228c1.741,4.23,5.473,6.965,8.955,7.09,8.707.249,14.3-6.218,14.3-17.414,0-16.043-8.458-29.477-18.408-27.485a7.954,7.954,0,0,0-4.976,2.984" transform="translate(210.554 51.853)" fill="#f5f5f5"/>
    <path id="Path_1220" data-name="Path 1220" d="M354.745,56.377h3.484V116.7c0,11.069,2.86,18.656,7.212,19.153l1.244.124a18.547,18.547,0,0,1,.124,2.363v1.369h-34.7V138.34a18.538,18.538,0,0,1,.124-2.363l1.118-.124c4.479-.5,7.338-8.084,7.338-19.153V89.337c0-15.546-1.243-18.532-7.338-21.89l-1.118-.621a7.3,7.3,0,0,1-.124-1.244Z" transform="translate(241.052 40.92)" fill="#f5f5f5"/>
    <path id="Path_1221" data-name="Path 1221" d="M385.008,71.44c15.546,0,25.5,11.442,25.5,29.1l-37.312.623c1.615,11.069,7.711,19.776,22.76,18.656,3.234-.249,8.085-3.11,12.189-9.2l1.99,1.741C403.788,124.673,391.1,129.4,382.4,129.4c-17.163,0-28.235-10.2-28.235-26.119,0-19.4,11.941-31.84,30.846-31.84M372.82,97.186h14.426c12.438-.5,9.2-20.648-3.234-20.648-6.964,0-11.442,8.334-11.192,20.648" transform="translate(257.059 51.853)" fill="#f5f5f5"/>
    <path id="Path_1222" data-name="Path 1222" d="M403.315,110.02c.375,0,.747.124,1.493.124,2.489,6.841,9.08,16.3,18.159,16.3,5.971,0,9.825-3.36,9.825-8.583,0-3.484-4.1-7.338-10.448-9.825-11.192-4.354-18.53-12.067-18.53-18.534,0-10.7,9.949-18.779,26.119-18.779,5.1,0,13.556,1.866,17.412,6.218l-.5,13.681h-1.866c-3.232-6.342-7.214-15.424-14.552-15.8s-11.939,4.1-12.063,8.458c-.126,4.228,6.715,7.09,17.288,11.318,7.835,3.11,12.686,9.949,12.686,16.666,0,11.815-10.324,19.279-26.617,19.279-6.841,0-13.681-2.238-17.786-5.6Z" transform="translate(292.735 51.33)" fill="#f5f5f5"/>
    <path id="Path_1223" data-name="Path 1223" d="M429.766,85.69V83.7c5.971-1.244,14.8-9.577,22.263-21.269h2.861V78.6h16.542V85.69H454.891s-.124,24.5-.124,35.322c0,5.473,1.367,6.841,6.218,6.841,2.24,0,6.841-1.369,10.7-6.964l1.244,1.615c-6.468,11.566-16.293,13.432-20.523,13.432-11.939,0-15.42-3.731-15.42-18.035V85.69Z" transform="translate(311.934 45.314)" fill="#f5f5f5"/>
    <path id="Path_1224" data-name="Path 1224" d="M486.342,71.44c15.546,0,25.5,11.442,25.5,29.1l-37.312.623c1.615,11.069,7.711,19.776,22.76,18.656,3.234-.249,8.085-3.11,12.189-9.2l1.99,1.741c-6.344,12.314-19.029,17.039-27.736,17.039-17.163,0-28.234-10.2-28.234-26.119,0-19.4,11.941-31.84,30.846-31.84M474.154,97.186H488.58c12.438-.5,9.2-20.648-3.234-20.648-6.964,0-11.442,8.334-11.192,20.648" transform="translate(330.609 51.853)" fill="#f5f5f5"/>
    <path id="Path_1225" data-name="Path 1225" d="M490.234,158.5a18.3,18.3,0,0,1,.126-2.363l1.118-.123c4.479-.5,7.214-8.085,7.214-19.155V104.9c0-15.422-1.12-18.408-7.214-21.764l-1.118-.621a5.591,5.591,0,0,1-.126-1.244l22.512-9.2h3.484v5.719c2.611-3.357,9.949-6.341,18.656-6.341,14.053,0,25.123,13.432,24.377,32.585-.745,17.662-16.418,26.616-29.85,26.616-4.976,0-9.7-1.243-13.184-3.855v8.085c0,11.069,2.735,20.644,7.214,21.145l1.243.123a18.282,18.282,0,0,1,.126,2.363v1.369H490.234Zm26-75.869v28.233a14.3,14.3,0,0,0,.124,2.364v4.228c1.741,4.23,5.473,6.965,8.955,7.09,8.707.249,14.3-6.218,14.3-17.414,0-16.043-8.46-29.477-18.408-27.485a7.949,7.949,0,0,0-4.976,2.984" transform="translate(355.823 51.853)" fill="#f5f5f5"/>
    <path id="Path_1226" data-name="Path 1226" d="M532.973,110.02c.374,0,.747.124,1.493.124,2.489,6.841,9.08,16.3,18.159,16.3,5.97,0,9.825-3.36,9.825-8.583,0-3.484-4.1-7.338-10.448-9.825-11.192-4.354-18.53-12.067-18.53-18.534,0-10.7,9.949-18.779,26.119-18.779,5.1,0,13.556,1.866,17.412,6.218l-.5,13.681H574.64c-3.233-6.342-7.214-15.424-14.552-15.8s-11.939,4.1-12.064,8.458c-.126,4.228,6.715,7.09,17.288,11.318,7.835,3.11,12.687,9.949,12.687,16.666,0,11.815-10.324,19.279-26.617,19.279-6.841,0-13.681-2.238-17.786-5.6Z" transform="translate(386.844 51.33)" fill="#f5f5f5"/>
    <path id="Path_1227" data-name="Path 1227" d="M573.954,93.492c5.845,0,9.576,3.855,9.576,9.951s-3.731,9.949-9.576,9.949c-5.97,0-9.7-3.855-9.7-9.949s3.731-9.951,9.7-9.951" transform="translate(409.548 67.859)" fill="#f5f5f5"/>
  </g>
</svg>
