<svg id="Group_328" data-name="Group 328" xmlns="http://www.w3.org/2000/svg" xmlns:xlink="http://www.w3.org/1999/xlink" width="1312.978" height="93.431" viewBox="0 0 1312.978 93.431">
  <defs>
    <clipPath id="clip-path">
      <rect id="Rectangle_621" data-name="Rectangle 621" width="1312.978" height="93.431" fill="#fff"/>
    </clipPath>
  </defs>
  <g id="Group_327" data-name="Group 327" transform="translate(0 0)" clip-path="url(#clip-path)">
    <path id="Path_685" data-name="Path 685" d="M0,65.918V64.841a14.554,14.554,0,0,1,.1-1.858l.881-.1C4.5,62.494,6.75,56.528,6.75,47.821V21.41C6.75,12.7,4.5,6.738.979,6.347L.1,6.249A14.554,14.554,0,0,1,0,4.391V3.315H28.856V4.391a14.358,14.358,0,0,1-.1,1.858l-.977.1c-3.521.391-5.673,6.358-5.673,15.063V32.953h24.65V21.41c0-8.706-2.151-14.672-5.672-15.063l-.979-.1a14.554,14.554,0,0,1-.1-1.858V3.315H68.765V4.391a14.756,14.756,0,0,1-.1,1.858l-.979.1c-3.522.391-5.675,6.358-5.675,15.063v26.41c0,8.707,2.153,14.674,5.675,15.065l.979.1a14.756,14.756,0,0,1,.1,1.858v1.076H40.008V64.841a14.554,14.554,0,0,1,.1-1.858l.979-.1c3.521-.391,5.672-6.358,5.672-15.065V36.964H22.106V47.821c0,8.707,2.153,14.674,5.673,15.065l.977.1a14.358,14.358,0,0,1,.1,1.858v1.076Z" transform="translate(0 1.184)" fill="#fff"/>
    <path id="Path_686" data-name="Path 686" d="M76.943,16.215C89.169,16.215,97,25.214,97,39.1l-29.345.489c1.27,8.706,6.064,15.553,17.9,14.672,2.544-.2,6.359-2.446,9.587-7.238L96.7,48.4A25.2,25.2,0,0,1,74.889,61.8c-13.5,0-22.205-8.022-22.205-20.543,0-15.259,9.391-25.041,24.259-25.041M67.358,36.463H78.7c9.782-.391,7.238-16.237-2.544-16.237-5.477,0-9,6.553-8.8,16.237" transform="translate(18.824 5.793)" fill="#fff"/>
    <path id="Path_687" data-name="Path 687" d="M104.793,1.153h2.74V48.595c0,8.706,2.249,14.672,5.672,15.063l.979.1a14.554,14.554,0,0,1,.1,1.858V66.69H86.991V65.614a14.554,14.554,0,0,1,.1-1.858l.88-.1c3.522-.391,5.771-6.358,5.771-15.063V27.075c0-12.228-.977-14.575-5.771-17.216l-.88-.489a5.739,5.739,0,0,1-.1-.979Z" transform="translate(31.081 0.412)" fill="#fff"/>
    <path id="Path_688" data-name="Path 688" d="M108.684,84.686a14.359,14.359,0,0,1,.1-1.858l.88-.1c3.522-.392,5.673-6.359,5.673-15.065V42.528c0-12.13-.881-14.477-5.673-17.118l-.88-.489a4.382,4.382,0,0,1-.1-.979l17.7-7.238h2.74v4.5c2.054-2.64,7.825-4.988,14.672-4.988,11.052,0,19.758,10.564,19.172,25.628-.586,13.889-12.912,20.931-23.476,20.931a17.316,17.316,0,0,1-10.368-3.031V66.1c0,8.7,2.151,16.236,5.674,16.628l.977.1a14.359,14.359,0,0,1,.1,1.858v1.076H108.684Zm20.445-59.668v22.2a11.409,11.409,0,0,0,.1,1.859v3.325c1.371,3.325,4.305,5.477,7.044,5.576,6.848.2,11.249-4.892,11.249-13.7,0-12.619-6.653-23.183-14.477-21.618a6.252,6.252,0,0,0-3.913,2.348" transform="translate(38.832 5.793)" fill="#fff"/>
    <path id="Path_689" data-name="Path 689" d="M150.7,66.026a14.361,14.361,0,0,1,.1-1.858l.88-.1c3.718-.392,5.771-6.848,5.771-15.651,0-12.228-.979-14.575-5.771-17.216l-.88-.489a5.665,5.665,0,0,1-.1-.979l17.8-7.238h2.739V49.005c0,8.706,2.249,14.672,5.674,15.065l.979.1a14.56,14.56,0,0,1,.1,1.858V67.1H150.7Zm5.283-58.2c0-4.793,2.934-7.825,7.631-7.825,4.6,0,7.532,3.032,7.532,7.825s-2.934,7.826-7.532,7.826c-4.7,0-7.631-3.034-7.631-7.826" transform="translate(53.845 0)" fill="#fff"/>
    <path id="Path_690" data-name="Path 690" d="M171.748,60.232a14.555,14.555,0,0,1,.1-1.858l.979-.1c3.619-.391,5.673-6.848,5.673-15.749,0-12.129-.881-14.672-5.673-17.118l-.979-.489a4.44,4.44,0,0,1-.1-.979l17.7-7.238h2.74v6.75c2.542-3.521,8.7-7.238,16.627-7.238,7.728,0,10.565,5.869,10.565,15.063V43.212c0,8.707,2.153,14.674,5.672,15.065l.979.1a14.555,14.555,0,0,1,.1,1.858v1.076H199.625V58.374l.588-.1c3.521-.588,5.38-6.358,5.38-15.065V32.745c0-4.89-2.446-10.466-6.457-10.466-1.957,0-4.3,1.467-6.944,5.185V43.212c0,8.707,2.15,14.674,5.672,15.065l.782.1v2.934h-26.9Z" transform="translate(61.365 5.793)" fill="#fff"/>
    <path id="Path_691" data-name="Path 691" d="M221.989,70.02c-4.6-2.055-7.335-5.674-7.335-10.174,0-4.89,2.249-7.727,5.771-9.487-4.7-2.739-7.435-7.043-7.435-12.423,0-9.683,8.8-16.825,21.129-16.825a26.589,26.589,0,0,1,14.28,3.913c3.424-6.848,10.956-20.149,22.694-22.2,7.727-1.37,12.031,2.055,12.228,5.869.391,4.5-3.718,9.391-9.2,7.728a21.12,21.12,0,0,0-6.162-.979c-8.315,0-13.5,5.771-17.607,11.052a14.7,14.7,0,0,1,5.673,11.445c0,9.587-9.782,15.749-21.911,15.749a30.411,30.411,0,0,1-9.293-1.37,4.05,4.05,0,0,0-.782,2.641c0,2.054,2.249,3.424,5.673,3.62,0,0,9.194.1,10.465.2,10.761.782,19.075,6.455,19.565,13.987.88,13.5-13.793,20.15-28.563,19.76-8.119-.2-18.292-3.913-18.781-11.933-.391-6.359,3.62-9.587,9.585-10.564M232.261,89c10.564,0,16.921-3.423,15.747-10.271-.782-4.695-5.574-6.064-12.521-6.553-3.814-.293-6.26,0-9.291-.684-2.838.585-4.6,2.837-4.6,7.923,0,4.6,3.522,9.585,10.663,9.585M225.9,37.935c0,7.532,3.716,12.521,8.217,12.521s9.1-4.989,9.1-12.521c0-7.629-4.6-13.5-9.1-13.5s-8.217,5.869-8.217,13.5" transform="translate(75.882 0.897)" fill="#fff"/>
    <path id="Path_692" data-name="Path 692" d="M261.693,25.5V23.933c4.7-.979,11.64-7.532,17.509-16.727h2.25V19.923h13.01V25.5h-13.01s-.1,19.27-.1,27.78c0,4.3,1.075,5.38,4.89,5.38,1.762,0,5.38-1.076,8.413-5.478l.979,1.272c-5.087,9.1-12.814,10.564-16.141,10.564-9.39,0-12.127-2.934-12.127-14.182V25.5Z" transform="translate(93.502 2.574)" fill="#fff"/>
    <path id="Path_693" data-name="Path 693" d="M319.755,38.127c0-4.695-2.446-9.88-6.359-9.88-1.956,0-4.3,1.371-6.944,4.89V48.594c0,8.706,2.151,14.672,5.673,15.065l.88.1h.2l-.1,2.934h-27V63.755l.979-.1c3.521-.392,5.574-6.359,5.574-15.065V26.976c0-12.129-.88-14.672-5.673-17.118l-.977-.489a4.381,4.381,0,0,1-.1-.979l17.706-7.238h2.837v27.1a24.311,24.311,0,0,1,16.53-6.652c7.727,0,10.564,5.87,10.564,15.065v17.8c0,8.315.2,10.759.2,11.738,0,3.327.292,12.227,4.3,13.6,4.89,1.664,8.118-3.325,10.465-5.869a5.329,5.329,0,0,1,4.012-1.663c2.738,0,5.574,1.76,5.967,4.6.782,5.185-2.544,8.315-7.533,9.587a28.638,28.638,0,0,1-6.553.783,22.935,22.935,0,0,1-12.422-3.325c-2.74-1.762-12.228-6.652-12.228-21.52Z" transform="translate(102.154 0.411)" fill="#fff"/>
    <path id="Path_694" data-name="Path 694" d="M350.962,16.215c12.227,0,20.053,9,20.053,22.889l-29.345.489c1.27,8.706,6.064,15.553,17.9,14.672,2.544-.2,6.359-2.446,9.587-7.238l1.565,1.37a25.2,25.2,0,0,1-21.813,13.4c-13.5,0-22.205-8.022-22.205-20.543,0-15.259,9.391-25.041,24.259-25.041m-9.585,20.248h11.346c9.782-.391,7.238-16.237-2.544-16.237-5.477,0-9,6.553-8.8,16.237" transform="translate(116.729 5.793)" fill="#fff"/>
    <path id="Path_695" data-name="Path 695" d="M374.919,60.232a14.56,14.56,0,0,1,.1-1.858l.979-.1c3.619-.391,5.673-6.848,5.673-15.749,0-12.129-.881-14.672-5.673-17.118l-.979-.489a4.441,4.441,0,0,1-.1-.979l17.7-7.238h2.74v6.75c2.542-3.521,8.7-7.238,16.627-7.238,7.728,0,10.565,5.869,10.565,15.063V43.212c0,8.707,2.153,14.674,5.672,15.065l.979.1a14.551,14.551,0,0,1,.1,1.858v1.076H402.8V58.374l.588-.1c3.521-.588,5.38-6.358,5.38-15.065V32.745c0-4.89-2.446-10.466-6.457-10.466-1.957,0-4.3,1.467-6.944,5.185V43.212c0,8.707,2.15,14.674,5.672,15.065l.782.1v2.934h-26.9Z" transform="translate(133.957 5.793)" fill="#fff"/>
    <path id="Path_696" data-name="Path 696" d="M440.866,36.125V28.5c0-4.989-1.369-8.217-3.522-8.217-4.3,0-6.356,4.695-5.477,11.542a26.7,26.7,0,0,1-6.848,1.076,30.166,30.166,0,0,1-7.042-1.076c-1.273-9.2,8.217-15.944,22.5-15.456,9.1.293,14.965,5.968,14.965,15.358V48.645c0,4.208.783,6.947,3.815,6.947,2.249,0,3.423-.783,4.107-2.055l1.467,1.858c-2.347,4.3-6.26,7.043-14.966,7.043-3.912,0-6.944-1.76-8.02-4.793a26,26,0,0,1-13.5,4.3,11.8,11.8,0,0,1-12.129-11.738c0-11.445,16.042-13.7,24.65-14.086M436.855,55a7.235,7.235,0,0,0,4.109-1.272l-.1-14.868c-5.38,0-10.857,2.542-10.857,9.1A6.729,6.729,0,0,0,436.855,55" transform="translate(148.712 5.838)" fill="#fff"/>
    <path id="Path_697" data-name="Path 697" d="M450.812,26.152c4.695-.977,11.443-7.532,17.314-16.726h2.249V24c11.249-1.957,19.075-5.185,19.075-16.336,0-4.988,6.358-7.434,10.173-6.455,5.281,1.37,5.183,7.727,2.934,11.152-6.945,10.466-22.792,13.694-32.183,15.063v.293s-.1,19.27-.1,27.78c0,4.3,1.075,5.38,4.889,5.38,1.762,0,5.38-1.076,8.413-5.478l.979,1.272c-5.086,9.1-12.813,10.564-16.141,10.564-9.39,0-11.933-2.934-11.933-14.182V27.717h-5.672ZM485.635,65.67a14.756,14.756,0,0,1,.1-1.858l.979-.1c3.718-.391,5.675-6.848,5.675-15.651,0-12.227-.881-13.5-5.675-15.944l-.979-.489a5.8,5.8,0,0,1-.1-.979l17.9-7.238h2.739V48.649c0,8.707,2.151,14.674,5.673,15.065l.977.1a14.361,14.361,0,0,1,.1,1.858v1.076H485.635Z" transform="translate(161.073 0.356)" fill="#fff"/>
    <path id="Path_698" data-name="Path 698" d="M498.451,39.007c0-13.891,9.585-22.792,24.748-22.792,14.966,0,24.552,8.9,24.552,22.792S538.164,61.8,523.2,61.8c-15.162,0-24.748-8.9-24.748-22.79M523.2,58.569c5.869,0,9.684-7.629,9.684-19.563s-3.815-19.564-9.684-19.564-9.684,7.629-9.684,19.564,3.815,19.563,9.684,19.563" transform="translate(178.094 5.793)" fill="#fff"/>
    <path id="Path_699" data-name="Path 699" d="M570.709,32.746c0-4.892-2.444-10.466-6.455-10.466-1.956,0-4.3,1.467-6.945,5.184V43.212c0,8.706,2.153,14.672,5.576,15.065l.881.1v2.934h-26.9V60.232a14.407,14.407,0,0,1,.1-1.859l.88-.1c3.716-.392,5.771-6.848,5.771-15.749,0-12.13-.979-14.477-5.771-17.118l-.88-.49a4.379,4.379,0,0,1-.1-.977l17.7-7.238h2.739v6.748c2.544-3.521,8.706-7.238,16.63-7.238,7.727,0,10.564,5.87,10.564,15.065v17.8c0,8.315.2,10.759.2,11.738,0,3.13.293,12.326,4.206,13.6,4.988,1.664,8.217-3.325,10.564-5.869a5.326,5.326,0,0,1,4.011-1.663c2.739,0,5.576,1.76,5.967,4.6.685,5.185-2.544,8.315-7.532,9.587a28.651,28.651,0,0,1-6.554.783,23.277,23.277,0,0,1-12.52-3.325c-2.641-1.762-12.13-6.652-12.13-21.52Z" transform="translate(191.819 5.793)" fill="#fff"/>
    <path id="Path_700" data-name="Path 700" d="M591.424,46.4c.294,0,.588.1,1.174.1,1.957,5.38,7.141,12.814,14.281,12.814,4.695,0,7.727-2.641,7.727-6.75,0-2.739-3.228-5.771-8.217-7.727-8.8-3.423-14.573-9.489-14.573-14.575,0-8.413,7.825-14.77,20.541-14.77,4.011,0,10.662,1.467,13.694,4.89l-.391,10.759h-1.467c-2.542-4.988-5.674-12.129-11.445-12.422s-9.39,3.228-9.487,6.651c-.1,3.327,5.281,5.576,13.6,8.9,6.162,2.446,9.977,7.826,9.977,13.109,0,9.292-8.119,15.161-20.933,15.161-5.38,0-10.759-1.76-13.988-4.4Z" transform="translate(211.313 5.536)" fill="#fff"/>
    <path id="Path_701" data-name="Path 701" d="M636.757,1.153h2.74V48.595c0,8.706,2.249,14.672,5.672,15.063l.979.1a14.547,14.547,0,0,1,.1,1.858V66.69H618.955V65.614a14.565,14.565,0,0,1,.1-1.858l.88-.1c3.522-.391,5.771-6.358,5.771-15.063V27.075c0-12.228-.977-14.575-5.771-17.216l-.88-.489a5.743,5.743,0,0,1-.1-.979Z" transform="translate(221.15 0.412)" fill="#fff"/>
    <path id="Path_702" data-name="Path 702" d="M665.267,16.215c12.227,0,20.053,9,20.053,22.889l-29.345.489c1.27,8.706,6.064,15.553,17.9,14.672,2.544-.2,6.359-2.446,9.587-7.238l1.565,1.37a25.2,25.2,0,0,1-21.813,13.4c-13.5,0-22.205-8.022-22.205-20.543,0-15.259,9.391-25.041,24.259-25.041m-9.585,20.248h11.346c9.782-.391,7.238-16.237-2.543-16.237-5.477,0-9,6.553-8.8,16.237" transform="translate(229.029 5.793)" fill="#fff"/>
    <path id="Path_703" data-name="Path 703" d="M700.367,16.215c12.226,0,20.052,9,20.052,22.889l-29.345.489c1.27,8.706,6.064,15.553,17.9,14.672,2.544-.2,6.359-2.446,9.587-7.238l1.565,1.37a25.2,25.2,0,0,1-21.813,13.4c-13.5,0-22.205-8.022-22.205-20.543,0-15.259,9.391-25.041,24.259-25.041m-9.585,20.248h11.346c9.782-.391,7.238-16.237-2.544-16.237-5.477,0-9,6.553-8.8,16.237" transform="translate(241.57 5.793)" fill="#fff"/>
    <path id="Path_704" data-name="Path 704" d="M710.846,84.686a14.344,14.344,0,0,1,.1-1.858l.88-.1c3.522-.392,5.673-6.359,5.673-15.065V42.528c0-12.13-.881-14.477-5.673-17.118l-.88-.489a4.377,4.377,0,0,1-.1-.979l17.7-7.238h2.74v4.5c2.054-2.64,7.825-4.988,14.672-4.988,11.052,0,19.758,10.564,19.172,25.628-.586,13.889-12.912,20.931-23.476,20.931a17.316,17.316,0,0,1-10.368-3.031V66.1c0,8.7,2.151,16.236,5.673,16.628l.977.1a14.361,14.361,0,0,1,.1,1.858v1.076H710.846Zm20.445-59.668v22.2a11.426,11.426,0,0,0,.1,1.859v3.325c1.371,3.325,4.305,5.477,7.044,5.576,6.848.2,11.249-4.892,11.249-13.7,0-12.619-6.653-23.183-14.477-21.618a6.252,6.252,0,0,0-3.913,2.348" transform="translate(253.982 5.793)" fill="#fff"/>
    <path id="Path_705" data-name="Path 705" d="M764.685,8.391l17.8-7.238h2.739V25.8c1.663-2.544,6.945-4.206,14.281-4.206,10.956,0,18,9.1,18,23.28,0,13.6-9.585,22.3-24.65,22.3-5.771,0-9.684-3.62-13.988-3.62a7.467,7.467,0,0,0-5.965,3.13h-1.467V27.075c0-12.228-.979-14.575-5.771-17.216l-.881-.489a5.74,5.74,0,0,1-.1-.979m28.171,54.778c5.675,0,9.293-5.673,9.293-14.477,0-12.619-5.185-20.737-13.3-20.737-2.055,0-3.424.586-3.62,1.467v19.66c0,8.608,2.935,14.086,7.629,14.086" transform="translate(273.218 0.412)" fill="#fff"/>
    <path id="Path_706" data-name="Path 706" d="M830.6,16.215c12.227,0,20.053,9,20.053,22.889l-29.345.489c1.27,8.706,6.064,15.553,17.9,14.672,2.544-.2,6.359-2.446,9.586-7.238l1.565,1.37a25.2,25.2,0,0,1-21.813,13.4c-13.5,0-22.205-8.022-22.205-20.543,0-15.259,9.391-25.041,24.259-25.041m-9.585,20.248h11.346c9.782-.391,7.238-16.237-2.544-16.237-5.477,0-9,6.553-8.8,16.237" transform="translate(288.102 5.793)" fill="#fff"/>
    <path id="Path_707" data-name="Path 707" d="M857.026,7.206h2.249V19.924h11.348c7.53.39,12.813-3.524,18.682-12.718h2.348V19.924h13.01V25.5h-13.01s-.1,19.27-.1,27.78c0,4.3.979,5.379,4.892,5.379,1.762,0,5.38-1.075,8.412-5.477l.979,1.272c-5.087,9.1-12.912,10.564-16.239,10.564-9.39,0-11.836-2.934-11.836-14.184V25.5H859.275s-.1,19.27-.1,27.78c0,4.3,1.075,5.379,4.889,5.379,1.762,0,5.38-1.075,8.414-5.477l.977,1.272c-5.086,9.1-12.813,10.564-16.14,10.564-9.39,0-11.933-2.934-11.933-14.184V25.5h-5.674V23.933c4.695-.979,11.445-7.533,17.314-16.727" transform="translate(300.025 2.574)" fill="#fff"/>
    <path id="Path_708" data-name="Path 708" d="M913.628,16.215c12.227,0,20.053,9,20.053,22.889l-29.345.489c1.27,8.706,6.064,15.553,17.9,14.672,2.544-.2,6.359-2.446,9.587-7.238l1.565,1.37a25.2,25.2,0,0,1-21.813,13.4c-13.5,0-22.205-8.022-22.205-20.543,0-15.259,9.391-25.041,24.259-25.041m-9.585,20.248h11.346c9.782-.391,7.238-16.237-2.544-16.237-5.477,0-9,6.553-8.8,16.237" transform="translate(317.767 5.793)" fill="#fff"/>
    <path id="Path_709" data-name="Path 709" d="M924.108,64.713a14.538,14.538,0,0,1,.1-1.858l.881-.1c3.716-.391,5.672-6.848,5.672-15.749,0-12.129-.88-14.477-5.672-17.118l-.881-.489a4.434,4.434,0,0,1-.1-.979l17.7-7.238h2.74V35.368C947.584,24.9,957.561,3.675,974.875,3.675a7.706,7.706,0,0,1,7.923,8.119,6.033,6.033,0,0,1-7.823,5.771,25.309,25.309,0,0,0-7.239-1.174c-13.988,0-19.466,14.477-23.182,24.65v6.651c0,8.707,2.15,14.674,5.672,15.065l.979.1a14.538,14.538,0,0,1,.1,1.858v1.076H924.108Z" transform="translate(330.179 1.313)" fill="#fff"/>
    <path id="Path_710" data-name="Path 710" d="M961.575,38.268c4.6,0,7.532,3.032,7.532,7.825s-2.934,7.826-7.532,7.826c-4.695,0-7.629-3.032-7.629-7.826s2.934-7.825,7.629-7.825" transform="translate(340.84 13.673)" fill="#fff"/>
  </g>
</svg>
