<svg xmlns="http://www.w3.org/2000/svg" xmlns:xlink="http://www.w3.org/1999/xlink" width="1315.788" height="111.051" viewBox="0 0 1315.788 111.051">
  <defs>
    <clipPath id="clip-path">
      <rect id="Rectangle_608" data-name="Rectangle 608" width="1315.788" height="111.051" fill="#f5f5f5"/>
    </clipPath>
  </defs>
  <g id="Group_322" data-name="Group 322" transform="translate(0 0)">
    <g id="Group_321" data-name="Group 321" transform="translate(0 0)" clip-path="url(#clip-path)">
      <path id="Path_647" data-name="Path 647" d="M0,32.666C8.454,35.19,15.143,21.561,20.7,10.33h3.912v16.28C38.867,16.765,65.243.361,84.8.361A24.65,24.65,0,0,1,97.422,3.516c5.048,3.028,8.58,8.832,5.3,14.133-1.893,3.155-5.174,5.174-8.2,5.174A5.441,5.441,0,0,1,90.1,20.8c-4.416-5.3-10.347-7.319-17.162-7.319-15.647,0-35.335,11.105-48.333,19.181v1.263s-.126,24.86-.126,35.839c0,5.553,1.387,6.939,6.309,6.939,2.273,0,6.941-1.387,10.853-7.066l1.263,1.641c-6.561,11.736-16.53,13.629-20.824,13.629-12.114,0-15.772-3.786-15.646-18.3l.124-27.635A12.074,12.074,0,0,1,.126,37.715Z" transform="translate(0 0.27)" fill="#f5f5f5"/>
      <path id="Path_648" data-name="Path 648" d="M24.649,44.466c0-17.92,12.366-29.4,31.927-29.4,19.307,0,31.675,11.483,31.675,29.4s-12.368,29.4-31.675,29.4c-19.561,0-31.927-11.483-31.927-29.4M56.576,69.7c7.572,0,12.494-9.843,12.494-25.238s-4.922-25.24-12.494-25.24-12.494,9.843-12.494,25.24S49,69.7,56.576,69.7" transform="translate(18.513 11.312)" fill="#f5f5f5"/>
      <path id="Path_649" data-name="Path 649" d="M77.766,44.466c0-17.92,12.366-29.4,31.927-29.4,19.307,0,31.675,11.483,31.675,29.4s-12.368,29.4-31.675,29.4c-19.561,0-31.927-11.483-31.927-29.4M109.693,69.7c7.572,0,12.494-9.843,12.494-25.238s-4.922-25.24-12.494-25.24S97.2,29.069,97.2,44.466,102.122,69.7,109.693,69.7" transform="translate(58.407 11.312)" fill="#f5f5f5"/>
      <path id="Path_650" data-name="Path 650" d="M115.388,15.422h26.5V51.765c0,5.933,4.038,9.718,12.116,9.718a5.863,5.863,0,0,0,4.542-2.4V39.651c.126-11.357-2.649-19.813-7.319-20.318l-1.136-.126a18.778,18.778,0,0,1-.126-2.4V15.422h26.376V39.651c0,15.647,1.135,18.929,7.318,22.084l1.262.63a5.746,5.746,0,0,1,.126,1.263l-22.841,9.338h-3.66V62.618C153.372,69.433,147.315,73.6,140,73.6c-10.6,0-15.9-7.824-15.9-19.939V38.769c0-11.233-2.777-18.931-7.319-19.435l-1.263-.126a18.778,18.778,0,0,1-.126-2.4Z" transform="translate(86.663 11.582)" fill="#f5f5f5"/>
      <path id="Path_651" data-name="Path 651" d="M155.531,71.579a18.778,18.778,0,0,1,.126-2.4l1.136-.126c4.794-.5,7.318-8.834,7.318-20.318,0-15.647-1.135-18.677-7.318-22.084l-1.136-.63a5.727,5.727,0,0,1-.126-1.263l22.841-9.338h3.535V33.847c2.4-5.8,7.444-16.532,15.017-17.919,7.192-1.263,10.473,2.775,11.61,9.464.756,5.3-3.534,9.591-6.311,8.58-3.155-1.136-6.057-3.66-9.592-3.66-3.028,0-6.433,1.893-10.724,8.2v11.1c0,11.233,2.774,18.931,7.318,19.435l1.263.126a18.778,18.778,0,0,1,.126,2.4v1.389H155.531Z" transform="translate(116.813 11.582)" fill="#f5f5f5"/>
      <path id="Path_652" data-name="Path 652" d="M243.665,47.7c0-6.057-3.157-12.746-8.205-12.746-2.523,0-5.551,1.767-8.958,6.309V61.2c0,11.231,2.775,18.929,7.319,19.435l1.135.124h.254l-.126,3.786H200.255V80.764l1.261-.124c4.542-.506,7.192-8.2,7.192-19.435V33.316c0-15.647-1.135-18.929-7.319-22.084l-1.261-.63A5.651,5.651,0,0,1,200,9.338L222.842,0h3.66V34.956a31.364,31.364,0,0,1,21.326-8.582c9.971,0,13.629,7.573,13.629,19.435V68.776c0,10.727.256,13.881.256,15.143,0,4.292.375,15.774,5.551,17.54,6.309,2.147,10.473-4.29,13.5-7.572a6.875,6.875,0,0,1,5.176-2.145c3.532,0,7.193,2.271,7.7,5.931,1.009,6.689-3.281,10.727-9.718,12.368a36.946,36.946,0,0,1-8.454,1.01c-5.8,0-11.61-1.389-16.026-4.29C255.9,104.489,243.665,98.18,243.665,79Z" transform="translate(150.212 -0.001)" fill="#f5f5f5"/>
      <path id="Path_653" data-name="Path 653" d="M272.161,40.712V30.869c0-6.437-1.767-10.6-4.544-10.6-5.553,0-8.2,6.057-7.065,14.891a34.449,34.449,0,0,1-8.834,1.389,38.918,38.918,0,0,1-9.084-1.389c-1.643-11.862,10.6-20.57,29.024-19.939,11.736.38,19.307,7.7,19.307,19.813v21.83c0,5.428,1.01,8.962,4.922,8.962,2.9,0,4.416-1.01,5.3-2.651l1.893,2.4c-3.028,5.553-8.076,9.086-19.307,9.086-5.047,0-8.958-2.271-10.347-6.183-4.29,2.775-10.727,5.553-17.416,5.553A15.219,15.219,0,0,1,240.36,58.884c0-14.765,20.7-17.668,31.8-18.173m-5.174,24.356a9.334,9.334,0,0,0,5.3-1.641l-.126-19.181c-6.941,0-14.007,3.28-14.007,11.736a8.681,8.681,0,0,0,8.832,9.086" transform="translate(180.525 11.406)" fill="#f5f5f5"/>
      <path id="Path_654" data-name="Path 654" d="M275.676,71.849a18.787,18.787,0,0,1,.126-2.4l1.263-.126c4.668-.5,7.319-8.834,7.319-20.318,0-15.647-1.136-18.929-7.319-22.084l-1.263-.63a5.73,5.73,0,0,1-.126-1.263l22.841-9.338h3.535V24.4c3.28-4.542,11.23-9.338,21.45-9.338,9.971,0,13.63,7.572,13.63,19.433v15.4c0,11.233,2.777,18.931,7.318,19.435l1.263.126a18.782,18.782,0,0,1,.126,2.4v1.389h-34.2V69.452l.758-.126c4.542-.758,6.941-8.2,6.941-19.435V36.39c0-6.311-3.155-13.5-8.33-13.5-2.525,0-5.553,1.893-8.958,6.689V49.891c0,11.233,2.774,18.931,7.318,19.435l1.009.126v3.786h-34.7Z" transform="translate(207.049 11.312)" fill="#f5f5f5"/>
      <path id="Path_655" data-name="Path 655" d="M317.19,59.816c0-20.445,11.862-33.442,30.413-33.442a16.278,16.278,0,0,1,9.589,3.281c-.25-12.494-1.639-15.523-7.318-18.425l-1.263-.632a5.72,5.72,0,0,1-.126-1.261L371.328,0h3.532V51.234c0,15.647,1.263,18.677,7.446,22.084l1.136.63a5.747,5.747,0,0,1,.126,1.263L360.727,84.55h-3.535V75.968c-4.92,5.679-10.977,9.212-16.4,9.212-14.513,0-23.6-9.843-23.6-25.364M350.5,73.949a13.769,13.769,0,0,0,6.687-1.515V37.226a12.512,12.512,0,0,0-10.473-5.8c-6.687,0-10.979,8.33-10.979,21.454,0,12.872,5.807,21.074,14.765,21.074" transform="translate(238.229 -0.001)" fill="#f5f5f5"/>
      <path id="Path_656" data-name="Path 656" d="M356.4,54.219c.378,0,.756.126,1.515.126,2.523,6.941,9.211,16.532,18.425,16.532,6.055,0,9.969-3.408,9.969-8.708,0-3.534-4.164-7.446-10.6-9.969-11.354-4.416-18.8-12.242-18.8-18.8,0-10.853,10.1-19.055,26.5-19.055,5.176,0,13.755,1.893,17.668,6.309l-.5,13.881h-1.895c-3.278-6.435-7.319-15.647-14.763-16.026s-12.114,4.164-12.242,8.58c-.128,4.292,6.815,7.193,17.54,11.483,7.95,3.155,12.874,10.1,12.874,16.912,0,11.988-10.475,19.559-27.007,19.559-6.941,0-13.882-2.271-18.046-5.679Z" transform="translate(267.676 10.771)" fill="#f5f5f5"/>
      <rect id="Rectangle_607" data-name="Rectangle 607" width="35.965" height="14.261" transform="translate(678.212 40.759)" fill="#f5f5f5"/>
      <path id="Path_657" data-name="Path 657" d="M413.838,44.466c0-17.92,12.366-29.4,31.927-29.4,19.307,0,31.675,11.483,31.675,29.4s-12.368,29.4-31.675,29.4c-19.561,0-31.927-11.483-31.927-29.4M445.765,69.7c7.572,0,12.494-9.843,12.494-25.238s-4.922-25.24-12.494-25.24-12.494,9.843-12.494,25.24S438.194,69.7,445.765,69.7" transform="translate(310.818 11.312)" fill="#f5f5f5"/>
      <path id="Path_658" data-name="Path 658" d="M451.82,71.849a18.778,18.778,0,0,1,.126-2.4l1.263-.126c4.668-.5,7.319-8.834,7.319-20.318,0-15.647-1.136-18.929-7.319-22.084l-1.263-.63a5.727,5.727,0,0,1-.126-1.263l22.841-9.338H478.2V24.4c3.28-4.542,11.23-9.338,21.451-9.338,9.971,0,13.63,7.572,13.63,19.433v15.4c0,11.233,2.777,18.931,7.318,19.435l1.262.126a18.773,18.773,0,0,1,.126,2.4v1.389h-34.2V69.452l.758-.126c4.542-.758,6.941-8.2,6.941-19.435V36.39c0-6.311-3.155-13.5-8.33-13.5-2.525,0-5.553,1.893-8.958,6.689V49.891c0,11.233,2.774,18.931,7.318,19.435l1.009.126v3.786h-34.7Z" transform="translate(339.345 11.312)" fill="#f5f5f5"/>
      <path id="Path_659" data-name="Path 659" d="M587.017,36.39c0-6.057-3.282-12.746-8.2-12.746-3.028,0-6.561,2.4-10.475,8.582V49.892c0,11.231,2.777,19.055,7.321,19.435l1.639.124v3.786H543.1V69.452l.63-.124c4.544-.884,6.815-8.2,6.815-19.435V36.39c0-6.311-3.155-13.5-8.326-13.5-2.525,0-5.554,1.893-8.962,6.687V49.892c0,11.231,2.9,19.055,7.318,19.435l1.389.124v3.786H506.883V71.849a18.56,18.56,0,0,1,.128-2.4l1.133-.124c4.8-.506,7.445-8.834,7.445-20.318,0-15.649-1.263-18.677-7.445-22.084l-1.133-.632a5.645,5.645,0,0,1-.128-1.261l22.841-9.338h3.534V24.4c3.281-4.542,11.231-9.338,21.452-9.338,7.446,0,11.357,4.166,12.872,11.231,4.542-6.435,14.261-11.231,23.6-11.231,9.969,0,13.629,7.573,13.629,19.435V57.464c0,10.727.252,13.881.252,15.143,0,4.038.378,15.9,5.427,17.54,6.435,2.147,10.6-4.29,13.629-7.572a6.869,6.869,0,0,1,5.174-2.145c3.534,0,7.193,2.271,7.7,5.931,1.009,6.689-3.281,10.727-9.717,12.368a36.962,36.962,0,0,1-8.456,1.01c-5.8,0-11.61-1.263-16.152-4.29-3.408-2.273-15.647-8.582-15.647-27.763Z" transform="translate(380.7 11.312)" fill="#f5f5f5"/>
      <path id="Path_660" data-name="Path 660" d="M600.377,40.712V30.869c0-6.437-1.767-10.6-4.544-10.6-5.553,0-8.2,6.057-7.066,14.891a34.448,34.448,0,0,1-8.834,1.389,38.917,38.917,0,0,1-9.085-1.389c-1.643-11.862,10.6-20.57,29.024-19.939,11.736.38,19.307,7.7,19.307,19.813v21.83c0,5.428,1.01,8.962,4.922,8.962,2.9,0,4.416-1.01,5.3-2.651l1.893,2.4c-3.028,5.553-8.076,9.086-19.307,9.086-5.047,0-8.958-2.271-10.347-6.183-4.29,2.775-10.727,5.553-17.416,5.553a15.219,15.219,0,0,1-15.648-15.143c0-14.765,20.7-17.668,31.8-18.173M595.2,65.067a9.333,9.333,0,0,0,5.3-1.641l-.126-19.181c-6.941,0-14.007,3.28-14.007,11.736a8.681,8.681,0,0,0,8.834,9.086" transform="translate(427.035 11.406)" fill="#f5f5f5"/>
      <path id="Path_661" data-name="Path 661" d="M604.036,84.55V83.161a19.046,19.046,0,0,1,.124-2.4l1.138-.126c4.54-.5,7.445-8.2,7.445-19.435V33.442c0-15.775-1.262-18.8-7.445-22.21l-1.138-.63a7.508,7.508,0,0,1-.124-1.263L627,0h3.534V52.875l2.9-2.523c12.746-11.105,19.435-18.8,17.794-19.433-.63-.254-.506-.506-.506-2.525V27h20.7v3.786l-1.513.128c-4.166.376-12.872,5.425-23.347,13.249L661.2,63.728c7.7,9.843,15.269,16.532,19.813,16.91l1.513.126V84.55H645.68V83.161a18.773,18.773,0,0,1,.126-2.4l.63-.126c2.651-.5-1.009-8.33-9.591-19.435-2.145-2.775-4.166-5.551-6.309-8.328V61.2c0,11.233,2.9,18.931,7.318,19.435l1.263.126a18.782,18.782,0,0,1,.126,2.4V84.55Z" transform="translate(453.668 -0.001)" fill="#f5f5f5"/>
      <path id="Path_662" data-name="Path 662" d="M679.3,15.062c15.774,0,25.87,11.61,25.87,29.53l-37.858.63c1.639,11.231,7.824,20.065,23.093,18.929,3.282-.252,8.2-3.155,12.368-9.338l2.019,1.767c-6.437,12.494-19.307,17.29-28.141,17.29C659.232,73.87,648,63.521,648,47.367c0-19.685,12.116-32.305,31.3-32.305M666.93,41.184h14.637c12.62-.5,9.339-20.948-3.281-20.948-7.065,0-11.61,8.454-11.356,20.948" transform="translate(486.687 11.312)" fill="#f5f5f5"/>
      <path id="Path_663" data-name="Path 663" d="M705.579,25.858h3.536V38.982c4.92-13.756,20.063-39.247,49.467-37.354,5.931.378,9.338,3.66,9.338,9.969A7.719,7.719,0,0,1,757.7,19.043a42.293,42.293,0,0,0-14.641-2.9c-19.307,0-28.9,17.414-33.944,29.906V60.056c0,11.231,2.775,18.929,7.318,19.435l1.263.124a18.817,18.817,0,0,1,.126,2.4V83.4H682.738V82.013a18.817,18.817,0,0,1,.126-2.4L684,79.491c4.794-.506,7.319-8.834,7.319-20.319,0-15.647-1.136-18.677-7.319-22.083l-1.136-.632a5.721,5.721,0,0,1-.126-1.261ZM725.14,63.842c.5,0,.883.126,1.641.126,2.523,6.941,9.211,16.532,18.3,16.532,6.183,0,10.095-3.408,10.095-8.708,0-3.534-4.166-7.446-10.727-9.969C733.09,57.407,725.77,49.962,725.77,43.4c0-10.853,10.1-19.055,26.5-19.055,5.048,0,13.756,1.893,17.542,6.309l-.5,13.882h-1.767c-3.281-6.437-7.321-15.649-14.891-16.027-7.446-.378-12.116,4.164-12.242,8.582-.126,4.29,6.941,6.813,17.668,11.1,7.822,3.155,12.87,10.1,12.87,16.912,0,11.988-10.473,19.559-27,19.559-7.067,0-13.881-2.271-18.045-5.679Z" transform="translate(512.778 1.148)" fill="#f5f5f5"/>
      <path id="Path_664" data-name="Path 664" d="M746.76,56.746c-4.544,0-7.445-4.544-7.445-9.592,0-6.057,3.786-9.967,9.717-9.967,7.572,0,11.483,7.192,11.483,14.133,0,12.366-6.939,23.093-17.794,27.257V76.306c5.933-2.271,9.718-9.338,9.718-18.173a15.564,15.564,0,0,0-.38-3.406,9.328,9.328,0,0,1-5.3,2.019" transform="translate(555.271 27.929)" fill="#f5f5f5"/>
    </g>
  </g>
</svg>
