<svg xmlns="http://www.w3.org/2000/svg" xmlns:xlink="http://www.w3.org/1999/xlink" width="917.313" height="113.883" viewBox="0 0 917.313 113.883">
  <defs>
    <clipPath id="clip-path">
      <rect id="Rectangle_630" data-name="Rectangle 630" width="917.313" height="113.883" fill="#f5f5f5"/>
    </clipPath>
  </defs>
  <g id="Group_341" data-name="Group 341" transform="translate(0 0)">
    <g id="Group_341-2" data-name="Group 341" transform="translate(0 0)" clip-path="url(#clip-path)">
      <path id="Path_750" data-name="Path 750" d="M0,43.9C0,26.326,12.13,15.062,31.318,15.062c18.939,0,31.07,11.264,31.07,28.843S50.256,72.745,31.318,72.745C12.13,72.745,0,61.481,0,43.9M31.318,68.661c7.427,0,12.255-9.655,12.255-24.756S38.745,19.147,31.318,19.147,19.062,28.8,19.062,43.9s4.828,24.756,12.255,24.756" transform="translate(0 10.809)" fill="#f5f5f5"/>
      <path id="Path_751" data-name="Path 751" d="M37.622,15.422H63.617v35.65c0,5.819,3.961,9.533,11.884,9.533a5.751,5.751,0,0,0,4.456-2.351V39.189c.124-11.141-2.6-19.435-7.18-19.93l-1.115-.124a18.419,18.419,0,0,1-.124-2.351V15.422H97.411V39.189c0,15.349,1.113,18.568,7.178,21.663l1.238.618a5.637,5.637,0,0,1,.124,1.238l-22.4,9.16h-3.59V61.717c-5.076,6.685-11.017,10.77-18.2,10.77-10.4,0-15.6-7.674-15.6-19.559V38.323c0-11.019-2.724-18.569-7.18-19.064l-1.238-.124a18.419,18.419,0,0,1-.124-2.351Z" transform="translate(26.999 11.067)" fill="#f5f5f5"/>
      <path id="Path_752" data-name="Path 752" d="M77.766,79.764a18.418,18.418,0,0,1,.124-2.351L79,77.289c4.7-.495,7.178-8.665,7.178-19.93,0-15.349-1.113-18.32-7.178-21.663l-1.115-.618a5.618,5.618,0,0,1-.124-1.238l22.4-9.16h3.468V42.629C107.474,29.384,120.1,2.522,142.011,2.522c5.694,0,10.026,4.086,10.026,10.275a7.634,7.634,0,0,1-9.9,7.3,32.028,32.028,0,0,0-9.16-1.486c-17.7,0-24.634,18.32-29.337,31.194v8.416c0,11.019,2.721,18.569,7.178,19.064l1.238.124a18.417,18.417,0,0,1,.124,2.351v1.362H77.766Z" transform="translate(55.808 1.81)" fill="#f5f5f5"/>
      <path id="Path_753" data-name="Path 753" d="M118.7,53.458c.373,0,.744.124,1.486.124,2.477,6.809,9.036,16.216,18.073,16.216,5.943,0,9.779-3.343,9.779-8.542,0-3.466-4.085-7.3-10.4-9.778C126.5,47.145,119.2,39.469,119.2,33.033c0-10.646,9.9-18.691,25.995-18.691,5.076,0,13.492,1.857,17.329,6.189l-.495,13.616h-1.857c-3.217-6.312-7.18-15.349-14.483-15.72s-11.883,4.085-12.006,8.416c-.125,4.21,6.683,7.056,17.206,11.264,7.8,3.1,12.626,9.9,12.626,16.589,0,11.759-10.275,19.186-26.491,19.186-6.809,0-13.616-2.228-17.7-5.57Z" transform="translate(85.185 10.292)" fill="#f5f5f5"/>
      <path id="Path_754" data-name="Path 754" d="M168.763,0h3.468V60.036c0,11.017,2.846,18.568,7.178,19.062l1.238.124a18.423,18.423,0,0,1,.124,2.351v1.362H146.235V81.574a18.418,18.418,0,0,1,.124-2.351l1.113-.124c4.457-.495,7.3-8.045,7.3-19.062V32.8c0-15.474-1.237-18.444-7.3-21.786l-1.113-.618a7.263,7.263,0,0,1-.124-1.238Z" transform="translate(104.943 0)" fill="#f5f5f5"/>
      <path id="Path_755" data-name="Path 755" d="M198.987,15.062c15.472,0,25.376,11.388,25.376,28.966l-37.135.618c1.608,11.017,7.674,19.682,22.652,18.568,3.219-.247,8.047-3.1,12.132-9.16l1.98,1.733c-6.314,12.255-18.939,16.96-27.6,16.96-17.082,0-28.1-10.151-28.1-26,0-19.31,11.884-31.689,30.7-31.689m-12.13,25.624h14.358c12.379-.495,9.16-20.548-3.219-20.548-6.931,0-11.388,8.293-11.139,20.548" transform="translate(120.769 10.809)" fill="#f5f5f5"/>
      <path id="Path_756" data-name="Path 756" d="M234.086,15.062c15.472,0,25.376,11.388,25.376,28.966l-37.135.618C223.935,55.663,230,64.329,244.98,63.214c3.219-.247,8.047-3.1,12.132-9.16l1.98,1.733c-6.314,12.255-18.939,16.96-27.6,16.96-17.082,0-28.1-10.151-28.1-26,0-19.31,11.884-31.689,30.7-31.689m-12.13,25.624h14.358c12.379-.495,9.16-20.548-3.219-20.548-6.931,0-11.388,8.293-11.139,20.548" transform="translate(145.958 10.809)" fill="#f5f5f5"/>
      <path id="Path_757" data-name="Path 757" d="M238.126,101.712a18.168,18.168,0,0,1,.125-2.351l1.111-.124c4.457-.5,7.181-8.047,7.181-19.064V48.36c0-15.351-1.115-18.32-7.181-21.663l-1.111-.618a5.544,5.544,0,0,1-.125-1.238l22.4-9.16H264v5.694c2.6-3.341,9.9-6.312,18.568-6.312,13.985,0,25,13.368,24.262,32.432-.744,17.577-16.34,26.488-29.71,26.488-4.952,0-9.655-1.237-13.119-3.835v8.047c0,11.015,2.721,20.546,7.178,21.043l1.238.124a18.416,18.416,0,0,1,.124,2.351v1.362H238.126ZM264,26.2V54.3a14.438,14.438,0,0,0,.122,2.353v4.208c1.735,4.208,5.447,6.931,8.913,7.056,8.667.247,14.236-6.19,14.236-17.331,0-15.969-8.42-29.337-18.319-27.357A7.907,7.907,0,0,0,264,26.2" transform="translate(170.887 10.809)" fill="#f5f5f5"/>
      <path id="Path_758" data-name="Path 758" d="M325.762,15.062c15.472,0,25.376,11.388,25.376,28.966L314,44.647c1.608,11.017,7.674,19.682,22.652,18.568,3.219-.247,8.047-3.1,12.132-9.16l1.98,1.733c-6.314,12.255-18.939,16.96-27.6,16.96-17.082,0-28.1-10.151-28.1-26,0-19.31,11.884-31.689,30.7-31.689m-12.13,25.624H327.99c12.379-.495,9.16-20.548-3.219-20.548-6.931,0-11.388,8.293-11.139,20.548" transform="translate(211.747 10.809)" fill="#f5f5f5"/>
      <path id="Path_759" data-name="Path 759" d="M327.279,68.155l1.486-.124c5.57-.495,14.359-8.293,23.272-19.062l1.733-2.106-5.57-8.54c-6.932-11.017-13.988-18.691-17.826-19.062l-1.115-.125V15.422h36.022v1.362c0,2.477.249,2.351-1.113,2.477-2.971.247-2.106,5.569,2.1,13.368,5.943-7.8,7.8-13,4.828-13.368l-1.115-.125a18.411,18.411,0,0,1-.124-2.351V15.422h22.529v3.714l-1.36.125c-4.581.371-13.368,6.931-22.9,16.585a.642.642,0,0,0,.249.5l8.045,12.626c7.056,11.017,13.616,18.691,16.958,19.062l.991.124v3.714h-33.3V70.507a18.416,18.416,0,0,1,.124-2.351l.742-.124c2.724-.495.124-8.045-5.818-17.331-7.3,10.028-8.911,16.96-4.085,17.331l1.609.124s.124,3.219.124,3.714H327.279Z" transform="translate(234.867 11.067)" fill="#f5f5f5"/>
      <path id="Path_760" data-name="Path 760" d="M366.63,101.712a18.168,18.168,0,0,1,.125-2.351l1.113-.124c4.457-.5,7.18-8.047,7.18-19.064V48.36c0-15.351-1.115-18.32-7.18-21.663l-1.113-.618a5.544,5.544,0,0,1-.125-1.238l22.4-9.16H392.5v5.694c2.6-3.341,9.9-6.312,18.568-6.312,13.987,0,25,13.368,24.262,32.432-.742,17.577-16.34,26.488-29.708,26.488-4.952,0-9.655-1.237-13.121-3.835v8.047c0,11.015,2.722,20.546,7.18,21.043l1.237.124a18.168,18.168,0,0,1,.125,2.351v1.362H366.63ZM392.5,26.2V54.3a14.241,14.241,0,0,0,.124,2.353v4.208c1.733,4.208,5.447,6.931,8.913,7.056,8.665.247,14.236-6.19,14.236-17.331,0-15.969-8.42-29.337-18.32-27.357A7.912,7.912,0,0,0,392.5,26.2" transform="translate(263.106 10.809)" fill="#f5f5f5"/>
      <path id="Path_761" data-name="Path 761" d="M440.14,15.062c15.472,0,25.376,11.388,25.376,28.966l-37.135.618c1.608,11.017,7.674,19.682,22.652,18.568,3.219-.247,8.047-3.1,12.132-9.16l1.98,1.733c-6.314,12.255-18.939,16.96-27.6,16.96-17.082,0-28.1-10.151-28.1-26,0-19.31,11.884-31.689,30.7-31.689M428.01,40.686h14.358c12.379-.495,9.16-20.548-3.219-20.548-6.931,0-11.388,8.293-11.139,20.548" transform="translate(293.829 10.809)" fill="#f5f5f5"/>
      <path id="Path_762" data-name="Path 762" d="M444.181,70.507a18.429,18.429,0,0,1,.124-2.351l1.115-.124c4.7-.495,7.178-8.665,7.178-19.93,0-15.349-1.113-18.32-7.178-21.663l-1.115-.618a5.621,5.621,0,0,1-.124-1.238l22.4-9.16h3.468V33.495c2.351-5.694,7.3-16.216,14.73-17.577,7.054-1.238,10.273,2.722,11.388,9.284.742,5.2-3.466,9.407-6.19,8.416-3.1-1.115-5.941-3.59-9.409-3.59-2.97,0-6.311,1.857-10.519,8.047V48.967c0,11.019,2.721,18.569,7.178,19.064l1.238.124a18.42,18.42,0,0,1,.124,2.351v1.362H444.181Z" transform="translate(318.76 11.067)" fill="#f5f5f5"/>
      <path id="Path_763" data-name="Path 763" d="M474.667,32.05c8.293,2.475,14.854-10.893,20.3-21.91H498.8V26.108C512.792,16.452,538.664.361,557.85.361a24.181,24.181,0,0,1,12.379,3.1c4.952,2.97,8.416,8.664,5.2,13.863-1.857,3.1-5.076,5.076-8.045,5.076a5.338,5.338,0,0,1-4.334-1.98c-4.332-5.2-10.149-7.18-16.834-7.18-15.349,0-34.66,10.893-47.41,18.815v1.238s-.124,24.385-.124,35.155c0,5.447,1.36,6.807,6.189,6.807,2.23,0,6.809-1.36,10.646-6.931l1.238,1.609C510.316,81.44,500.54,83.3,496.328,83.3c-11.883,0-15.471-3.714-15.347-17.949L481.1,38.24A11.843,11.843,0,0,1,474.791,37Z" transform="translate(340.637 0.259)" fill="#f5f5f5"/>
      <path id="Path_764" data-name="Path 764" d="M499.243,53.458c.373,0,.744.124,1.486.124C503.205,60.39,509.765,69.8,518.8,69.8c5.943,0,9.779-3.343,9.779-8.542,0-3.466-4.085-7.3-10.4-9.778-11.139-4.332-18.442-12.008-18.442-18.444,0-10.646,9.9-18.691,25.995-18.691,5.076,0,13.492,1.857,17.329,6.189l-.495,13.616h-1.857c-3.217-6.312-7.18-15.349-14.483-15.72s-11.883,4.085-12.006,8.416c-.125,4.21,6.683,7.056,17.206,11.264,7.8,3.1,12.626,9.9,12.626,16.589,0,11.759-10.275,19.186-26.491,19.186-6.809,0-13.616-2.228-17.7-5.57Z" transform="translate(358.274 10.292)" fill="#f5f5f5"/>
    </g>
  </g>
</svg>
