<svg xmlns="http://www.w3.org/2000/svg" width="187.334" height="67.741" viewBox="0 0 187.334 67.741"><g><g><g class="logo-text-1" fill="#f5f5f5"><path d="M42.402 36.14v-1.7l.564-.054q1.637-.17 2.457-2.682a21.067 21.067 0 0 0 .818-6.409q0-2.653-.113-4.292a10.89 10.89 0 0 0-.48-2.71 4.184 4.184 0 0 0-1.016-1.694 8.1 8.1 0 0 0-1.666-1.186l-.564-.318v-.529l10.221-4.179h1.581v8.244q.395-.959 1.017-2.259a16.587 16.587 0 0 1 1.468-2.485 12.151 12.151 0 0 1 1.92-2.118 4.824 4.824 0 0 1 2.315-1.158 3.809 3.809 0 0 1 3.614.762 6.422 6.422 0 0 1 1.581 3.473 3.753 3.753 0 0 1-.141 1.666 4.237 4.237 0 0 1-.677 1.3 2.637 2.637 0 0 1-.988.791 1.308 1.308 0 0 1-1.016.085 11.8 11.8 0 0 1-2.09-1.017 4.146 4.146 0 0 0-2.2-.621 4.005 4.005 0 0 0-2.174.762 10.828 10.828 0 0 0-2.626 2.908v4.969a18.069 18.069 0 0 0 .876 6.155q.875 2.371 2.4 2.541l.621.042v1.709h-15.7Z"/><path d="M153.852 31.876c-.534 1.618-1.386 2.434-2.4 2.509l-.68.058v1.694h15.7l-.008-1.685-.549-.018a3.42 3.42 0 0 1-3.1-2.438c-.014-.04-.024-.079-.038-.12a22.09 22.09 0 0 1-.529-6.187v-6.891a12.5 12.5 0 0 0-1.384-6.353 5.032 5.032 0 0 0-4.716-2.343 10.806 10.806 0 0 0-3.162.481 20.029 20.029 0 0 0-3.02 1.185 17.181 17.181 0 0 0-2.626 1.581 13.828 13.828 0 0 0-1.92 1.667 6.785 6.785 0 0 0-1.864-3.643 5.4 5.4 0 0 0-3.839-1.271 12.609 12.609 0 0 0-5.958 1.327 10.619 10.619 0 0 0-3.643 2.852v-3.9h-1.581l-10.22 4.18V15.1l.563.307a8.041 8.041 0 0 1 1.665 1.187 4.125 4.125 0 0 1 1.016 1.694 11.622 11.622 0 0 1 .51 2.71 39.93 39.93 0 0 1-.106 9.02 6.783 6.783 0 0 1-1.151 3.226 2.941 2.941 0 0 1-3.038 1.172 3.591 3.591 0 0 1-2.063-2.27c-.992-2.489-.85-5.334-.7-7.96a27.792 27.792 0 0 0-.135-6.855 8.713 8.713 0 0 0-3.45-5.735 10.267 10.267 0 0 0-5.489-1.386 17.354 17.354 0 0 0-7.716 1.424 9.352 9.352 0 0 0-3.731 2.945 5.943 5.943 0 0 0-1.08 4.545 13.523 13.523 0 0 0 8-.006 11.327 11.327 0 0 1 .055-3.749 3.834 3.834 0 0 1 2.279-2.8 1.881 1.881 0 0 1 1.207-.047c.875.3 1.229 1.333 1.386 2.245a34.006 34.006 0 0 1 .257 6.85 37.608 37.608 0 0 0-6.567.875 12.806 12.806 0 0 0-5.164 2.343c-1.464 1.231-2.143 3.011-3.314 4.42v-.013a7.353 7.353 0 0 1-.531.578 6.662 6.662 0 0 1-2.413 1.479 12.985 12.985 0 0 1-6.286.676 9.927 9.927 0 0 1-5.564-2.611 10.668 10.668 0 0 1-2.4-5.765l16.94-.286a17.175 17.175 0 0 0-.819-5.447 12.131 12.131 0 0 0-2.316-4.178 10.042 10.042 0 0 0-3.64-2.655 11.969 11.969 0 0 0-4.8-.933 15.808 15.808 0 0 0-5.818 1.025 12.056 12.056 0 0 0-4.4 2.909 13.078 13.078 0 0 0-2.8 4.543 17.051 17.051 0 0 0-.988 5.987 12.828 12.828 0 0 0 .9 4.913 10.283 10.283 0 0 0 2.568 3.726 12.562 12.562 0 0 0 7.495 3.022 21.9 21.9 0 0 0 7.336-.423 15.62 15.62 0 0 0 7.079-3.842q.345-.329.664-.682l.011-.014v.014c.21-.234.481-.6.64-.753a6.394 6.394 0 0 0 .392 1.557 6.98 6.98 0 0 0 .77 1.473A6.739 6.739 0 0 0 96 35.725a8.666 8.666 0 0 0 5.748.6 19.18 19.18 0 0 0 5.42-2.256 3.661 3.661 0 0 0 2.38 2.121 8.047 8.047 0 0 0 3.4.423c.932-.049 4.756-.467 6.073-.472 2.2-.009 14.545 0 14.545 0v-1.695l-.564-.058c-1.016-.113-1.605-.959-2.208-2.54a18.13 18.13 0 0 1-.682-6.155v-9.091a8.7 8.7 0 0 1 2.145-2.316 3.439 3.439 0 0 1 1.865-.677 2.513 2.513 0 0 1 1.552.536 4.426 4.426 0 0 1 1.187 1.412 7.74 7.74 0 0 1 .733 1.949 9.243 9.243 0 0 1 .255 2.145v6.042a20.948 20.948 0 0 1-.54 6.1c-.51 1.546-1.05 2.409-2.066 2.6l-.281.058v1.694h14.417v-1.694l-.735-.058c-1.016-.075-1.594-.912-2.176-2.513a18.922 18.922 0 0 1-.656-6.182v-7.652a5.757 5.757 0 0 0-.055-.762 9.185 9.185 0 0 1 2.4-2.626 3.981 3.981 0 0 1 2.172-.762 2.816 2.816 0 0 1 1.639.507 4.434 4.434 0 0 1 1.242 1.327 6.978 6.978 0 0 1 .79 1.864 7.869 7.869 0 0 1 .283 2.062v6.042c.102 3.766-.038 4.993-.431 6.178ZM75.481 14.989a4.242 4.242 0 0 1 3.784-2.568 4.418 4.418 0 0 1 2.456.677 5.623 5.623 0 0 1 1.694 1.694 5.526 5.526 0 0 1 .819 2.232 5.3 5.3 0 0 1-.142 2.258 3.628 3.628 0 0 1-1.129 1.749 3.524 3.524 0 0 1-2.229.764h-6.552a13.361 13.361 0 0 1 1.3-6.806Zm28.813 17.534a4.086 4.086 0 0 1-2.739-1.047 3.754 3.754 0 0 1-1.216-3.018 4.957 4.957 0 0 1 .538-2.4 4.841 4.841 0 0 1 1.439-1.639 5.951 5.951 0 0 1 2-.93 9.163 9.163 0 0 1 2.287-.283l.058 8.585a4.1 4.1 0 0 1-2.371.733Z"/><path d="M0 36.14v-1.696l.623-.054q1.524-.17 2.4-2.541a18.085 18.085 0 0 0 .877-6.155V10.447a18.1 18.1 0 0 0-.876-6.155Q2.146 1.92.623 1.751l-.565-.056L0 1.686V0h19.03a31.69 31.69 0 0 1 9.289 1.27 20.545 20.545 0 0 1 7.061 3.642 16.31 16.31 0 0 1 4.489 5.7 17.176 17.176 0 0 1 1.581 7.458 18.605 18.605 0 0 1-1.44 7.454 16.3 16.3 0 0 1-4.066 5.7 17.974 17.974 0 0 1-6.381 3.642 26.238 26.238 0 0 1-8.442 1.27H0Zm21.119-2.258a10.187 10.187 0 0 0 4.772-1.1 10.323 10.323 0 0 0 3.614-3.162 15.556 15.556 0 0 0 2.315-5 24.408 24.408 0 0 0 .819-6.55 21.02 21.02 0 0 0-.96-6.55 14.4 14.4 0 0 0-2.739-5 11.911 11.911 0 0 0-4.29-3.158 13.856 13.856 0 0 0-5.618-1.1h-6.269v31.621h8.358Z"/><path d="m166.878 28.191.311.013c2.492-.007 1.171 4.122 6.18 6.33a6.084 6.084 0 0 0 2.892.521 4.811 4.811 0 0 0 3.173-1.251 3.568 3.568 0 0 0 1.028-2.924 3.4 3.4 0 0 0-1.451-2.311 10.814 10.814 0 0 0-3.569-1.835 19.23 19.23 0 0 1-3.577-1.5 14.627 14.627 0 0 1-2.784-1.942 9.317 9.317 0 0 1-1.84-2.2 5.066 5.066 0 0 1-.737-2.216 7.258 7.258 0 0 1 .6-3.434 7.837 7.837 0 0 1 2.164-2.855 11.864 11.864 0 0 1 3.6-2.015 17.592 17.592 0 0 1 4.917-.968 13.07 13.07 0 0 1 1.955.043 15.55 15.55 0 0 1 2.23.365 11.382 11.382 0 0 1 2.141.739 6.438 6.438 0 0 1 1.744 1.16l.174 6.213-.541.035c-2.479-.008-1.48-4.112-4.464-6.066a6.147 6.147 0 0 0-2.9-.645 6.681 6.681 0 0 0-2.237.4 5.454 5.454 0 0 0-1.664.956 3.913 3.913 0 0 0-1.017 1.339 3.07 3.07 0 0 0-.3 1.49q.033 1.413 2.248 2.4t5.916 2.221a9.353 9.353 0 0 1 4.429 2.883 7.356 7.356 0 0 1 1.805 4.3 7.486 7.486 0 0 1-2.828 6.6q-3.089 2.548-8.667 2.908a14.37 14.37 0 0 1-4.554-.413 14.04 14.04 0 0 1-4.09-1.883l-.3-6.464Z"/></g></g><g><g class="logo-text-2" fill="#dba5ba"><path d="M39.991 63.519h-9.15V49.775h1.711v12.07h7.439Z"/><path d="M40.829 58.537a5.035 5.035 0 0 1 1.469-3.683 5.322 5.322 0 0 1 7.458 0 5.08 5.08 0 0 1 1.488 3.683 5.162 5.162 0 0 1-1.469 3.72 5.392 5.392 0 0 1-7.476 0 5.079 5.079 0 0 1-1.47-3.72Zm8.741 0a3.625 3.625 0 0 0-1.023-2.585 3.423 3.423 0 0 0-5.022 0 3.625 3.625 0 0 0-1.023 2.585 3.713 3.713 0 0 0 1.023 2.623 3.462 3.462 0 0 0 5.022 0 3.67 3.67 0 0 0 1.023-2.623Z"/><path d="m56.842 61.159 3.106-7.588h1.818l-4.389 9.931h-1.111l-4.389-9.931h1.841l3.124 7.588Z"/><path d="M72.204 58.366q0 .2-.055.874H64.17a3.3 3.3 0 0 0 3.571 2.957 5.837 5.837 0 0 0 1.832-.316 6.514 6.514 0 0 0 1.683-.819l.707 1.283a6.607 6.607 0 0 1-1.916 1 7.11 7.11 0 0 1-2.344.4 5.505 5.505 0 0 1-3.013-.781 4.489 4.489 0 0 1-1.748-1.925 6 6 0 0 1-.521-2.52 5.187 5.187 0 0 1 1.395-3.72 4.754 4.754 0 0 1 3.608-1.469 4.508 4.508 0 0 1 3.44 1.358 5.016 5.016 0 0 1 1.339 3.682Zm-2.668-2.734a2.955 2.955 0 0 0-2.111-.8 3.1 3.1 0 0 0-2.157.809 3.481 3.481 0 0 0-1.1 2.111h6.286a3.031 3.031 0 0 0-.92-2.12Z"/><path d="m82.507 61.193 2.734-7.626h1.841l-4.2 11.159a5.643 5.643 0 0 1-1.4 2.307 3.17 3.17 0 0 1-3.488.335l.186-1.469a3.023 3.023 0 0 0 1.209.3q1.246 0 1.972-1.767l.391-.967-4.322-9.897h1.916l3.162 7.626Z"/><path d="M87.808 58.537a5.035 5.035 0 0 1 1.47-3.683 5.322 5.322 0 0 1 7.458 0 5.08 5.08 0 0 1 1.488 3.683 5.158 5.158 0 0 1-1.469 3.72 5.392 5.392 0 0 1-7.476 0 5.079 5.079 0 0 1-1.471-3.72Zm8.741 0a3.625 3.625 0 0 0-1.023-2.585 3.423 3.423 0 0 0-5.022 0 3.625 3.625 0 0 0-1.023 2.585 3.714 3.714 0 0 0 1.023 2.623 3.462 3.462 0 0 0 5.022 0 3.673 3.673 0 0 0 1.023-2.623Z"/><path d="M104.509 63.76a3.918 3.918 0 0 1-4.222-4.222v-5.97h1.656v5.915a2.825 2.825 0 0 0 .679 2.009 2.818 2.818 0 0 0 3.775 0 2.825 2.825 0 0 0 .679-2.009v-5.915h1.655v5.97a3.906 3.906 0 0 1-4.221 4.222Z"/><path d="M113.082 63.518h-1.655v-9.95h1.563v1.488a2.964 2.964 0 0 1 2.882-1.748 5.113 5.113 0 0 1 1.153.148l-.149 1.618a3.457 3.457 0 0 0-1.023-.168 2.576 2.576 0 0 0-2.009.846 3.474 3.474 0 0 0-.762 2.408v5.356Z"/><path d="M127.849 53.327a4.62 4.62 0 0 1 3.534 1.525 5.5 5.5 0 0 1 0 7.4 4.667 4.667 0 0 1-3.552 1.506 4.351 4.351 0 0 1-3.552-1.711v1.469h-1.655V49.44h1.655v5.654a4.32 4.32 0 0 1 3.571-1.767Zm-.186 8.871a3.184 3.184 0 0 0 2.492-1.06 3.681 3.681 0 0 0 .967-2.6 3.616 3.616 0 0 0-.967-2.585 3.184 3.184 0 0 0-2.492-1.06 3.224 3.224 0 0 0-2.511 1.06 3.739 3.739 0 0 0-.948 2.585 3.784 3.784 0 0 0 .948 2.6 3.205 3.205 0 0 0 2.511 1.06Z"/><path d="M144.178 58.366q0 .2-.056.874h-7.976a3.3 3.3 0 0 0 3.57 2.957 5.837 5.837 0 0 0 1.832-.316 6.512 6.512 0 0 0 1.683-.819l.707 1.283a6.609 6.609 0 0 1-1.916 1 7.109 7.109 0 0 1-2.344.4 5.5 5.5 0 0 1-3.012-.781 4.489 4.489 0 0 1-1.748-1.925 6.007 6.007 0 0 1-.521-2.52 5.186 5.186 0 0 1 1.4-3.72 4.752 4.752 0 0 1 3.608-1.469 4.509 4.509 0 0 1 3.441 1.358 5.018 5.018 0 0 1 1.339 3.682Zm-2.668-2.734a2.956 2.956 0 0 0-2.111-.8 3.1 3.1 0 0 0-2.157.809 3.485 3.485 0 0 0-1.1 2.111h6.286a3.033 3.033 0 0 0-.92-2.12Z"/><path d="M154.239 55.056v-5.617h1.655v14.079h-1.655v-1.395a4.256 4.256 0 0 1-3.515 1.636 4.713 4.713 0 0 1-3.608-1.506 5.272 5.272 0 0 1-1.414-3.72 5.148 5.148 0 0 1 1.432-3.683 4.639 4.639 0 0 1 3.552-1.525 4.368 4.368 0 0 1 3.552 1.729Zm.13 3.478a3.68 3.68 0 0 0-.967-2.6 3.505 3.505 0 0 0-5.059 0 3.677 3.677 0 0 0-.967 2.6 3.817 3.817 0 0 0 .967 2.641 3.547 3.547 0 0 0 5.059 0 3.815 3.815 0 0 0 .967-2.641Z"/></g></g></g></svg>