<svg id="Group_464" xmlns="http://www.w3.org/2000/svg" xmlns:xlink="http://www.w3.org/1999/xlink" width="1920" height="759" viewBox="0 0 1920 759">
  <defs>
    <clipPath id="clip-path">
      <rect id="Rectangle_3" width="1920" height="759" fill="#f8f2f5"/>
    </clipPath>
  </defs>
  <g id="Group_4" transform="translate(0 0)" clip-path="url(#clip-path)">
    <path id="Path_16" d="M1866.616,4.876c-35.086-1.984-70.1-4.5-105.34-4.8-18.8-.163-37.605.006-56.408-.038-28.942-.067-57.878-.028-86.789,1.143-34.646,1.405-69.324,2.5-103.953,4.063C1493.677,6.164,1473.3,7.77,1452.881,9c-22.144,1.339-44.246,3.16-66.324,5.12-25.047,2.226-50,4.87-74.959,7.421-14.964,1.531-29.924,3.6-44.881,4.9-28.573,2.488-56.806,6.221-85.214,9.276-14.694,1.581-29.394,3.476-44.076,5.1Q1099.7,44.976,1061.915,49q-16.841,1.809-33.748,3.323-38.3,3.442-76.631,6.747c-21.315,1.869-42.562,4.4-63.967,5.406-19.959.936-39.864,2.446-59.709,3.767C789,70.829,750.028,72.015,711.111,73.6c-28.354,1.153-56.893.226-85.348.226v.093q-39.256,0-78.512-.006c-26.4-.03-52.527-2.829-78.922-3.305-18.4-.331-36.793-2.154-55.071-3.88-18.525-1.75-37.13-3.055-55.647-4.924-24.23-2.444-48.48-4.834-72.538-7.909-16.594-2.119-33.273-3.922-49.805-6.376-17.7-2.625-35.453-5.108-53.086-7.941-15.214-2.444-30.357-5.09-45.506-7.717-17.072-2.96-34.2-5.805-51.145-9.062-12.8-2.46-25.21-5.878-38.069-8.167C31.372,11.764,15.777,7.9,0,4.408V759.027H1920V9.691c-17.691-1.994-35.429-3.8-53.384-4.815" transform="translate(0 0)" fill="#f8f2f5"/>
  </g>
</svg>
