<svg id="Group_723" data-name="Group 723" xmlns="http://www.w3.org/2000/svg" xmlns:xlink="http://www.w3.org/1999/xlink" width="268.5" height="268.5" viewBox="0 0 268.5 268.5">
  <defs>
    <clipPath id="clip-path">
      <rect id="Rectangle_623" data-name="Rectangle 623" width="268.5" height="268.5" fill="#ededed"/>
    </clipPath>
  </defs>
  <g id="Group_331" data-name="Group 331" transform="translate(0 0)" clip-path="url(#clip-path)">
    <path id="Path_724" data-name="Path 724" d="M266.431,141.485a13.743,13.743,0,0,0-.115-14.666c-7.249-10.868-27.7-40.414-56.109-68.53C182.09,29.881,152.545,9.429,141.677,2.18a13.744,13.744,0,0,0-14.666-.115c-7.563,5.365-36.539,24.041-68.72,56.221S7.435,119.443,2.07,127.006a13.744,13.744,0,0,0,.115,14.666c7.249,10.868,27.7,40.414,56.109,68.53,28.116,28.409,57.662,48.861,68.53,56.109a13.744,13.744,0,0,0,14.666.115c7.563-5.365,36.54-24.041,68.72-56.221s50.856-61.157,56.221-68.72" transform="translate(0 0.003)" fill="#ededed"/>
  </g>
</svg>
