<svg xmlns="http://www.w3.org/2000/svg" xmlns:xlink="http://www.w3.org/1999/xlink" width="1258.002" height="129.654" viewBox="0 0 1258.002 129.654">
  <defs>
    <clipPath id="clip-path">
      <rect id="Rectangle_845" data-name="Rectangle 845" width="1258.002" height="129.654" fill="#f5f5f5"/>
    </clipPath>
  </defs>
  <g id="Group_476" data-name="Group 476" transform="translate(0 0)">
    <g id="Group_475" data-name="Group 475" transform="translate(0 0)" clip-path="url(#clip-path)">
      <path id="Path_1133" data-name="Path 1133" d="M36.416,18.94v1.345a18.183,18.183,0,0,1-.122,2.321l-1.223.122c-4.154.366-4.032,7.942.368,18.82,4.032,10.386,8.431,20.9,12.587,31.4L67.332,17.718H72.1l25.05,52.424,9.777-30.3C112.057,24.073,122.932,0,147.5,0c5.619,0,11.485,2.566,11.485,8.675,0,5.5-3.908,10.754-8.553,9.411a29.71,29.71,0,0,0-8.31-1.223c-20.285,0-30.182,24.317-35.439,40.082L92.752,98.981H88.106L61.589,47.414,43.625,98.981H38.859l-24.2-57.433C10.021,30.671,4.889,23.095,1.223,22.728L0,22.606V18.94Z" transform="translate(0 0)" fill="#f5f5f5"/>
      <path id="Path_1134" data-name="Path 1134" d="M99.911,48.912V39.381c0-6.233-1.711-10.265-4.4-10.265-5.377,0-7.941,5.865-6.842,14.42a33.359,33.359,0,0,1-8.555,1.345,37.686,37.686,0,0,1-8.8-1.345C69.726,32.049,81.582,23.616,99.422,24.227c11.364.368,18.7,7.456,18.7,19.186v21.14c0,5.256.978,8.678,4.766,8.678,2.81,0,4.276-.978,5.131-2.567l1.833,2.321c-2.932,5.377-7.82,8.8-18.7,8.8-4.887,0-8.675-2.2-10.02-5.987-4.154,2.688-10.388,5.377-16.865,5.377A14.738,14.738,0,0,1,69.116,66.509c0-14.3,20.041-17.109,30.795-17.6M94.9,72.5a9.039,9.039,0,0,0,5.133-1.589l-.122-18.574c-6.722,0-13.563,3.176-13.563,11.364A8.406,8.406,0,0,0,94.9,72.5" transform="translate(48.08 16.832)" fill="#f5f5f5"/>
      <path id="Path_1135" data-name="Path 1135" d="M104.577,90.883V89.538a18.434,18.434,0,0,1,.12-2.321l1.1-.122c4.4-.488,7.21-7.942,7.21-18.82V41.392c0-15.276-1.223-18.208-7.21-21.508l-1.1-.61a7.267,7.267,0,0,1-.12-1.223l22.24-9.043h3.422v51.2l2.81-2.443c12.343-10.754,18.82-18.208,17.231-18.818-.61-.246-.49-.49-.49-2.445V35.159H169.83v3.666l-1.465.124c-4.034.365-12.465,5.253-22.608,12.829L159.933,70.72c7.454,9.531,14.786,16.009,19.186,16.375l1.465.122v3.666H144.9V89.538a18.18,18.18,0,0,1,.122-2.321l.61-.122c2.567-.488-.977-8.066-9.287-18.82-2.077-2.688-4.034-5.375-6.109-8.064v8.064c0,10.878,2.81,18.332,7.086,18.82l1.223.122a18.185,18.185,0,0,1,.122,2.321v1.345Z" transform="translate(72.748 6.267)" fill="#f5f5f5"/>
      <path id="Path_1136" data-name="Path 1136" d="M178.846,24.07c15.274,0,25.051,11.242,25.051,28.6l-36.66.61c1.587,10.876,7.576,19.43,22.362,18.33,3.178-.244,7.944-3.056,11.976-9.043l1.955,1.711c-6.233,12.1-18.7,16.741-27.251,16.741-16.863,0-27.741-10.02-27.741-25.662,0-19.062,11.732-31.283,30.306-31.283m-11.975,25.3h14.174c12.221-.488,9.043-20.285-3.178-20.285-6.842,0-11.242,8.187-11,20.285" transform="translate(103.331 16.744)" fill="#f5f5f5"/>
      <path id="Path_1137" data-name="Path 1137" d="M196.4,24.431h25.662V59.624c0,5.745,3.91,9.411,11.732,9.411a5.677,5.677,0,0,0,4.4-2.321V47.894c.122-11-2.566-19.186-7.088-19.675L230,28.1a18.18,18.18,0,0,1-.122-2.321V24.431H255.42V47.894c0,15.152,1.1,18.33,7.086,21.385l1.223.61a5.565,5.565,0,0,1,.122,1.223l-22.118,9.043h-3.544V70.134c-5.011,6.6-10.876,10.632-17.964,10.632-10.265,0-15.4-7.576-15.4-19.308V47.039c0-10.878-2.689-18.332-7.088-18.82l-1.223-.122a18.18,18.18,0,0,1-.122-2.321Z" transform="translate(136.621 16.995)" fill="#f5f5f5"/>
      <path id="Path_1138" data-name="Path 1138" d="M236.539,109.611a17.942,17.942,0,0,1,.124-2.321l1.1-.122c4.4-.49,7.088-7.944,7.088-18.82v-31.4c0-15.154-1.1-18.086-7.088-21.385l-1.1-.61a5.475,5.475,0,0,1-.124-1.223l22.118-9.043h3.424V30.3c2.566-3.3,9.775-6.231,18.33-6.231,13.808,0,24.683,13.2,23.951,32.017-.732,17.352-16.131,26.149-29.328,26.149-4.889,0-9.531-1.221-12.953-3.786v7.944c0,10.874,2.688,20.283,7.088,20.773l1.221.122a17.937,17.937,0,0,1,.124,2.321v1.345H236.539ZM262.08,35.069V62.808a14.257,14.257,0,0,0,.12,2.323v4.154c1.713,4.154,5.379,6.842,8.8,6.966,8.554.244,14.053-6.111,14.053-17.109,0-15.764-8.312-28.962-18.086-27.007a7.811,7.811,0,0,0-4.889,2.933" transform="translate(164.547 16.745)" fill="#f5f5f5"/>
      <path id="Path_1139" data-name="Path 1139" d="M280.461,91.763a8.168,8.168,0,0,1,7.454-4.643A12.718,12.718,0,0,1,295,89.564c8.555,5.865,15.522,9.287,21.875,9.287,8.431,0,15.519-5.989,23.339-20.163L323.108,47.039c-5.867-10.754-12.585-18.332-17.231-18.82l-1.221-.122V24.431h34.461v1.345c0,2.321.244,2.321-.977,2.443-2.933.612-1.1,7.942,4.887,18.82,2.566,4.643,5.255,9.531,7.7,14.3l6.477-14.3c4.889-10.878,6.109-18.208,2.932-18.82-1.221-.122-.977-.122-.977-2.443V24.431h20.651V28.1l-1.343.122c-4.644.366-11.122,8.066-16.621,18.82l-15.885,31.4c-9.043,20.529-23.585,34.215-40.938,34.215a40.106,40.106,0,0,1-18.452-4.887c-6.6-3.422-8.432-11.608-6.109-16.009" transform="translate(194.432 16.995)" fill="#f5f5f5"/>
      <path id="Path_1140" data-name="Path 1140" d="M335.922,52.543c0-17.353,11.975-28.473,30.917-28.473,18.7,0,30.672,11.12,30.672,28.473s-11.976,28.472-30.672,28.472c-18.942,0-30.917-11.12-30.917-28.472m30.917,24.439c7.332,0,12.1-9.531,12.1-24.439S374.171,28.1,366.839,28.1s-12.1,9.531-12.1,24.441,4.766,24.439,12.1,24.439" transform="translate(233.682 16.744)" fill="#f5f5f5"/>
      <path id="Path_1141" data-name="Path 1141" d="M373.544,24.431h25.662V59.624c0,5.745,3.91,9.411,11.732,9.411a5.677,5.677,0,0,0,4.4-2.321V47.894c.122-11-2.566-19.186-7.088-19.675l-1.1-.122a18.185,18.185,0,0,1-.122-2.321V24.431h25.541V47.894c0,15.152,1.1,18.33,7.086,21.385l1.223.61A5.563,5.563,0,0,1,441,71.112L418.88,80.155h-3.544V70.134c-5.011,6.6-10.876,10.632-17.964,10.632-10.265,0-15.4-7.576-15.4-19.308V47.039c0-10.878-2.689-18.332-7.088-18.82l-1.223-.122a18.185,18.185,0,0,1-.122-2.321Z" transform="translate(259.853 16.995)" fill="#f5f5f5"/>
      <path id="Path_1142" data-name="Path 1142" d="M413.688,78.81a18.435,18.435,0,0,1,.12-2.321l1.1-.122c4.643-.488,7.086-8.555,7.086-19.675,0-15.152-1.1-18.086-7.086-21.385l-1.1-.61a5.62,5.62,0,0,1-.12-1.223L435.8,24.431h3.423V42.273c2.321-5.621,7.208-16.009,14.542-17.352,6.964-1.223,10.142,2.688,11.242,9.165.733,5.131-3.422,9.287-6.111,8.309-3.056-1.1-5.865-3.544-9.289-3.544-2.932,0-6.228,1.833-10.384,7.944V57.547c0,10.878,2.686,18.332,7.086,18.82l1.223.122a18.185,18.185,0,0,1,.122,2.321v1.345H413.688Z" transform="translate(287.779 16.995)" fill="#f5f5f5"/>
      <path id="Path_1143" data-name="Path 1143" d="M459.309,109.611a17.933,17.933,0,0,1,.124-2.321l1.1-.122c4.4-.49,7.088-7.944,7.088-18.82v-31.4c0-15.154-1.1-18.086-7.088-21.385l-1.1-.61a5.472,5.472,0,0,1-.124-1.223l22.118-9.043h3.424V30.3c2.565-3.3,9.775-6.231,18.33-6.231,13.808,0,24.683,13.2,23.951,32.017C526.4,73.44,511,82.237,497.8,82.237c-4.889,0-9.531-1.221-12.953-3.786v7.944c0,10.874,2.688,20.283,7.088,20.773l1.221.122a17.942,17.942,0,0,1,.124,2.321v1.345H459.309ZM484.85,35.069V62.808a14.257,14.257,0,0,0,.12,2.323v4.154c1.713,4.154,5.379,6.842,8.8,6.966,8.555.244,14.053-6.111,14.053-17.109,0-15.764-8.312-28.962-18.086-27.007a7.811,7.811,0,0,0-4.889,2.933" transform="translate(319.515 16.745)" fill="#f5f5f5"/>
      <path id="Path_1144" data-name="Path 1144" d="M502.121,52.543c0-17.353,11.973-28.473,30.917-28.473,18.695,0,30.672,11.12,30.672,28.473s-11.978,28.472-30.672,28.472c-18.944,0-30.917-11.12-30.917-28.472m30.917,24.439c7.33,0,12.1-9.531,12.1-24.439S540.368,28.1,533.038,28.1s-12.1,9.531-12.1,24.441,4.765,24.439,12.1,24.439" transform="translate(349.297 16.744)" fill="#f5f5f5"/>
      <path id="Path_1145" data-name="Path 1145" d="M539.237,37.914V35.959c5.867-1.223,14.542-9.409,21.874-20.9h2.811V30.948h16.253v6.966H563.922s-.122,24.073-.122,34.7c0,5.377,1.343,6.722,6.109,6.722,2.2,0,6.721-1.345,10.51-6.844l1.223,1.589c-6.354,11.364-16.008,13.2-20.164,13.2-11.731,0-15.151-3.666-15.151-17.718V37.914Z" transform="translate(375.116 10.478)" fill="#f5f5f5"/>
      <path id="Path_1146" data-name="Path 1146" d="M595.272,24.07c15.274,0,25.052,11.242,25.052,28.6l-36.66.61c1.587,10.876,7.576,19.43,22.362,18.33,3.178-.244,7.944-3.056,11.976-9.043l1.955,1.711c-6.233,12.1-18.7,16.741-27.251,16.741-16.863,0-27.741-10.02-27.741-25.662,0-19.062,11.732-31.283,30.306-31.283M583.3,49.366h14.174c12.221-.488,9.043-20.285-3.178-20.285-6.842,0-11.242,8.187-11,20.285" transform="translate(393.014 16.744)" fill="#f5f5f5"/>
      <path id="Path_1147" data-name="Path 1147" d="M599.058,79.061a18.185,18.185,0,0,1,.122-2.321l1.223-.122c4.521-.488,7.088-8.555,7.088-19.675,0-15.152-1.1-18.33-7.088-21.385l-1.223-.61a5.546,5.546,0,0,1-.122-1.223l22.118-9.043H624.6v8.432c3.176-4.4,10.874-9.043,20.772-9.043,9.655,0,13.2,7.332,13.2,18.818V57.8c0,10.878,2.689,18.332,7.086,18.82l1.222.122A18.167,18.167,0,0,1,667,79.061v1.345H633.885V76.739l.734-.122c4.4-.734,6.721-7.942,6.721-18.82V44.724c0-6.111-3.055-13.077-8.066-13.077-2.445,0-5.377,1.833-8.675,6.477V57.8c0,10.878,2.686,18.332,7.086,18.82l.977.122v3.666h-33.6Z" transform="translate(416.73 16.745)" fill="#f5f5f5"/>
      <path id="Path_1148" data-name="Path 1148" d="M639.058,40.279c5.865-1.221,14.3-9.409,21.63-20.9h2.81V37.591c14.053-2.445,23.831-6.477,23.831-20.409,0-6.231,7.942-9.287,12.709-8.064,6.6,1.711,6.476,9.653,3.666,13.931-8.677,13.075-28.473,17.107-40.205,18.818v.366s-.12,24.073-.12,34.7c0,5.377,1.343,6.722,6.108,6.722,2.2,0,6.721-1.345,10.51-6.844l1.223,1.589c-6.354,11.364-16.007,13.2-20.165,13.2-11.73,0-14.908-3.666-14.908-17.718V42.234h-7.086Zm43.5,49.369a18.449,18.449,0,0,1,.12-2.321L683.9,87.2c4.644-.488,7.089-8.555,7.089-19.552,0-15.274-1.1-16.863-7.089-19.919l-1.223-.61a7.246,7.246,0,0,1-.12-1.223l22.362-9.043h3.422V68.384c0,10.878,2.688,18.332,7.088,18.82l1.221.122a17.937,17.937,0,0,1,.124,2.321v1.345H682.561Z" transform="translate(444.556 6.158)" fill="#f5f5f5"/>
      <path id="Path_1149" data-name="Path 1149" d="M717.059,48.912V39.381c0-6.233-1.711-10.265-4.4-10.265-5.377,0-7.941,5.865-6.842,14.42a33.358,33.358,0,0,1-8.554,1.345,37.684,37.684,0,0,1-8.8-1.345c-1.591-11.486,10.265-19.919,28.105-19.308,11.364.368,18.7,7.456,18.7,19.186v21.14c0,5.256.978,8.678,4.766,8.678,2.81,0,4.276-.978,5.131-2.567L747,72.985c-2.932,5.377-7.82,8.8-18.7,8.8-4.887,0-8.675-2.2-10.02-5.987-4.154,2.688-10.387,5.377-16.865,5.377a14.738,14.738,0,0,1-15.152-14.664c0-14.3,20.041-17.109,30.795-17.6M712.05,72.5a9.038,9.038,0,0,0,5.131-1.589l-.122-18.574c-6.721,0-13.563,3.176-13.563,11.364a8.406,8.406,0,0,0,8.555,8.8" transform="translate(477.394 16.832)" fill="#f5f5f5"/>
      <path id="Path_1150" data-name="Path 1150" d="M744.036,9.008h3.424V68.276c0,10.876,2.81,18.33,7.086,18.818l1.222.122a18.167,18.167,0,0,1,.122,2.321v1.345H721.8V89.537a18.185,18.185,0,0,1,.122-2.321l1.1-.122c4.4-.488,7.21-7.942,7.21-18.818V41.391c0-15.276-1.221-18.208-7.21-21.508l-1.1-.61a7.171,7.171,0,0,1-.122-1.223Z" transform="translate(502.112 6.267)" fill="#f5f5f5"/>
    </g>
  </g>
</svg>
