<svg xmlns="http://www.w3.org/2000/svg" width="226.724" height="43.272" viewBox="0 0 226.724 43.272">
  <g id="Group_646" data-name="Group 646" transform="translate(9753.052 -3685.991)">
    <path id="Path_1327" data-name="Path 1327" d="M22.366,2.162c16.06,0,26.347,8.3,26.347,21.238S39.422,44.637,24.821,44.637H0v-.73a9.893,9.893,0,0,1,.066-1.261l.663-.066c2.39-.265,3.849-4.314,3.849-10.22V14.44c0-5.907-1.46-9.955-3.849-10.221L.066,4.153A9.875,9.875,0,0,1,0,2.892v-.73ZM15,4.817V41.982h9.822c8.3,0,13.539-7.234,13.539-18.582S32.121,4.817,22.366,4.817Z" transform="translate(-9753.052 3683.829)" fill="#f5f5f5"/>
    <path id="Path_1328" data-name="Path 1328" d="M55.351,44.956a9.875,9.875,0,0,1,.066-1.261l.6-.066c2.521-.265,3.849-4.646,3.849-10.685,0-8.229-.6-9.822-3.849-11.615l-.6-.332a3.012,3.012,0,0,1-.066-.664l12.012-4.911h1.858v9.69c1.262-3.053,3.916-8.694,7.9-9.424,3.783-.664,5.509,1.46,6.107,4.978.4,2.787-1.859,5.044-3.319,4.512-1.659-.6-3.185-1.925-5.044-1.925-1.593,0-3.384,1-5.641,4.314v5.839c0,5.908,1.46,9.956,3.849,10.221l.664.066a9.877,9.877,0,0,1,.066,1.261v.73H55.351Z" transform="translate(-9757.43 3682.78)" fill="#f5f5f5"/>
    <path id="Path_1329" data-name="Path 1329" d="M103.666,15.062c8.3,0,13.6,6.106,13.6,15.53l-19.91.332c.863,5.907,4.116,10.553,12.146,9.955,1.725-.133,4.314-1.659,6.5-4.911l1.062.929a17.1,17.1,0,0,1-14.8,9.093c-9.158,0-15.065-5.443-15.065-13.938,0-10.353,6.371-16.99,16.459-16.99M97.162,28.8h7.7c6.637-.265,4.911-11.017-1.726-11.017-3.716,0-6.106,4.446-5.973,11.017" transform="translate(-9759.949 3682.809)" fill="#f5f5f5"/>
    <path id="Path_1330" data-name="Path 1330" d="M138.6,28.611V23.435c0-3.385-.929-5.575-2.39-5.575-2.92,0-4.314,3.185-3.716,7.831a18.123,18.123,0,0,1-4.646.73,20.474,20.474,0,0,1-4.779-.73c-.863-6.239,5.575-10.818,15.265-10.486,6.172.2,10.154,4.049,10.154,10.42V37.106c0,2.855.531,4.713,2.588,4.713a2.79,2.79,0,0,0,2.788-1.394l1,1.261c-1.592,2.92-4.247,4.779-10.154,4.779-2.655,0-4.712-1.194-5.443-3.252a17.638,17.638,0,0,1-9.158,2.92,8,8,0,0,1-8.229-7.964c0-7.765,10.884-9.292,16.725-9.557M135.877,41.42a4.913,4.913,0,0,0,2.788-.863L138.6,30.47c-3.65,0-7.367,1.725-7.367,6.172a4.566,4.566,0,0,0,4.646,4.779" transform="translate(-9762.69 3682.799)" fill="#f5f5f5"/>
    <path id="Path_1331" data-name="Path 1331" d="M157.333,44.927a9.874,9.874,0,0,1,.066-1.261l.6-.066c2.521-.265,3.916-4.646,3.916-10.685,0-8.229-.664-9.822-3.916-11.615l-.6-.332a3.012,3.012,0,0,1-.066-.664l12.012-4.911H171.2v4.58c1.726-2.389,5.907-4.911,11.282-4.911,3.85,0,5.908,2.124,6.7,5.774,2.323-2.456,7.7-5.774,12.61-5.774,5.244,0,7.167,3.982,7.167,10.22v8.1c0,5.908,1.461,9.956,3.85,10.221l.663.066v1.991H194.963V43.666l.8-.066c2.389-.2,3.849-4.314,3.849-10.221v-7.1c0-3.252-1.858-6.77-4.646-6.77-1.592,0-3.451,1.063-5.375,3.983a16.172,16.172,0,0,1,.066,1.791v8.1c0,5.908,1.46,10.022,3.849,10.221l.862.066v1.991H176.381V43.666l.332-.066c2.389-.465,3.584-4.314,3.584-10.221v-7.1c0-3.318-1.659-7.1-4.381-7.1-1.327,0-2.92,1-4.712,3.518V33.379c0,5.908,1.527,9.956,3.916,10.221l.664.066v1.991h-18.45Z" transform="translate(-9765.495 3682.809)" fill="#f5f5f5"/>
    <path id="Path_1332" data-name="Path 1332" d="M220.108,35.314c.2,0,.4.066.8.066,1.327,3.65,4.844,8.694,9.69,8.694,3.185,0,5.243-1.792,5.243-4.58,0-1.858-2.19-3.916-5.575-5.243-5.973-2.323-9.889-6.438-9.889-9.889,0-5.708,5.31-10.021,13.937-10.021,2.721,0,7.234,1,9.292,3.318l-.265,7.3h-1c-1.726-3.384-3.85-8.229-7.766-8.428s-6.371,2.19-6.437,4.512c-.066,2.257,3.584,3.783,9.225,6.039,4.181,1.659,6.77,5.31,6.77,8.894,0,6.3-5.509,10.287-14.2,10.287a15.706,15.706,0,0,1-9.491-2.987Z" transform="translate(-9770.46 3682.865)" fill="#f5f5f5"/>
  </g>
</svg>
