<svg xmlns="http://www.w3.org/2000/svg" width="240.149" height="62.33" viewBox="0 0 240.149 62.33">
  <g id="Group_641" data-name="Group 641" transform="translate(-240.779 -0.001)">
    <g id="Group_645" data-name="Group 645" transform="translate(0 0)">
      <path id="Path_785" data-name="Path 785" d="M267.98,47.162c-3.12-1.393-4.978-3.848-4.978-6.9a6.591,6.591,0,0,1,3.916-6.437,9.488,9.488,0,0,1-5.044-8.429c0-6.57,5.973-11.416,14.336-11.416a18.048,18.048,0,0,1,9.69,2.655c2.323-4.646,7.433-13.671,15.4-15.065,5.244-.929,8.164,1.394,8.3,3.982.265,3.053-2.522,6.372-6.239,5.244a14.33,14.33,0,0,0-4.181-.664c-5.642,0-9.158,3.916-11.946,7.5a9.974,9.974,0,0,1,3.849,7.765c0,6.5-6.637,10.685-14.866,10.685a20.619,20.619,0,0,1-6.3-.929,2.743,2.743,0,0,0-.531,1.792c0,1.393,1.527,2.323,3.849,2.456,0,0,6.238.065,7.1.133,7.3.53,12.942,4.38,13.274,9.49.6,9.159-9.358,13.672-19.38,13.407-5.509-.133-12.411-2.655-12.743-8.1-.265-4.314,2.455-6.5,6.5-7.167m6.969,12.875c7.167,0,11.481-2.323,10.684-6.969-.53-3.185-3.782-4.115-8.5-4.446-2.588-.2-4.247,0-6.3-.465-1.925.4-3.119,1.925-3.119,5.376,0,3.119,2.39,6.5,7.235,6.5m-4.314-34.644c0,5.11,2.522,8.5,5.575,8.5s6.172-3.385,6.172-8.5c0-5.176-3.119-9.158-6.172-9.158s-5.575,3.982-5.575,9.158" transform="translate(-20.679 -0.108)" fill="#f5f5f5"/>
      <path id="Path_786" data-name="Path 786" d="M314.981,15.062c8.3,0,13.6,6.106,13.6,15.53l-19.91.332c.863,5.907,4.116,10.553,12.146,9.955,1.725-.133,4.314-1.659,6.5-4.911l1.062.929a17.1,17.1,0,0,1-14.8,9.093c-9.158,0-15.065-5.443-15.065-13.938,0-10.353,6.371-16.99,16.459-16.99m-6.5,13.738h7.7c6.637-.265,4.911-11.017-1.726-11.017-3.716,0-6.106,4.446-5.973,11.017" transform="translate(-23.61 -1.192)" fill="#f5f5f5"/>
      <path id="Path_787" data-name="Path 787" d="M331.748,18.464V17.4c3.185-.664,7.9-5.11,11.88-11.349h1.527v8.628h8.827v3.783h-8.827s-.067,13.074-.067,18.848c0,2.92.73,3.65,3.319,3.65,1.194,0,3.65-.73,5.708-3.717l.663.863c-3.451,6.172-8.694,7.167-10.951,7.167-6.371,0-8.229-1.991-8.229-9.623V18.464Z" transform="translate(-26.238 -0.479)" fill="#f5f5f5"/>
      <path id="Path_788" data-name="Path 788" d="M371.388,31.459c0-10.753,6.238-17.588,15.994-17.588a8.566,8.566,0,0,1,5.044,1.726c-.133-6.571-.863-8.164-3.849-9.69l-.664-.332a3.01,3.01,0,0,1-.066-.663L399.859,0h1.858V26.946c0,8.229.664,9.822,3.916,11.615l.6.332a3.01,3.01,0,0,1,.066.664l-12.013,4.911h-1.857V39.954c-2.589,2.987-5.774,4.845-8.628,4.845-7.633,0-12.41-5.176-12.41-13.339m17.52,7.433a7.251,7.251,0,0,0,3.518-.8V19.579a6.583,6.583,0,0,0-5.509-3.053c-3.517,0-5.774,4.381-5.774,11.283,0,6.77,3.053,11.083,7.765,11.083" transform="translate(-29.373 0)" fill="#f5f5f5"/>
      <path id="Path_789" data-name="Path 789" d="M410.666,30.526c0-9.425,6.5-15.464,16.791-15.464,10.154,0,16.658,6.039,16.658,15.464s-6.5,15.463-16.658,15.463c-10.287,0-16.791-6.039-16.791-15.463M427.457,43.8c3.982,0,6.571-5.176,6.571-13.273s-2.589-13.274-6.571-13.274-6.57,5.176-6.57,13.274,2.588,13.273,6.57,13.273" transform="translate(-32.48 -1.192)" fill="#f5f5f5"/>
      <path id="Path_790" data-name="Path 790" d="M472.044,26.279c0-3.319-1.66-7.1-4.38-7.1-1.328,0-2.92,1-4.712,3.517V33.38c0,5.907,1.46,9.955,3.782,10.221l.6.065v1.991H449.081v-.729a9.9,9.9,0,0,1,.066-1.262l.6-.065c2.522-.266,3.916-4.646,3.916-10.685,0-8.23-.663-9.822-3.916-11.615l-.6-.332a3.006,3.006,0,0,1-.066-.663l12.012-4.911h1.858v4.579c1.725-2.389,5.907-4.911,11.282-4.911,5.243,0,7.168,3.983,7.168,10.221V37.362c0,5.641.133,7.3.133,7.964,0,2.124.2,8.363,2.853,9.226,3.385,1.128,5.575-2.257,7.168-3.983a3.612,3.612,0,0,1,2.721-1.128,3.956,3.956,0,0,1,4.048,3.12c.464,3.517-1.726,5.641-5.111,6.5a19.437,19.437,0,0,1-4.446.531,15.781,15.781,0,0,1-8.495-2.257c-1.792-1.194-8.23-4.512-8.23-14.6Z" transform="translate(-35.518 -1.192)" fill="#f5f5f5"/>
      <path id="Path_791" data-name="Path 791" d="M506.044,15.062c8.3,0,13.6,6.106,13.6,15.53l-19.91.332c.863,5.907,4.116,10.553,12.146,9.955,1.725-.133,4.313-1.659,6.5-4.911l1.062.929a17.1,17.1,0,0,1-14.8,9.093c-9.158,0-15.065-5.443-15.065-13.938,0-10.353,6.371-16.99,16.459-16.99M499.54,28.8h7.7c6.637-.265,4.911-11.017-1.726-11.017-3.716,0-6.106,4.446-5.973,11.017" transform="translate(-38.722 -1.192)" fill="#f5f5f5"/>
    </g>
  </g>
</svg>
