<svg xmlns="http://www.w3.org/2000/svg" width="319.653" height="54.376" viewBox="0 0 319.653 54.376">
  <g id="Group_801" data-name="Group 801" transform="translate(0)">
    <g id="Group_797" data-name="Group 797">
      <path id="Path_1458" data-name="Path 1458" d="M178.883,89.077c.174,0,.348.058.7.058,1.162,3.2,4.24,7.611,8.481,7.611,2.789,0,4.59-1.569,4.59-4.009,0-1.628-1.917-3.428-4.88-4.589-5.228-2.034-8.656-5.636-8.656-8.657,0-5,4.648-8.771,12.2-8.771,2.382,0,6.332.871,8.134,2.9l-.233,6.39h-.871c-1.511-2.962-3.37-7.2-6.8-7.378s-5.577,1.917-5.635,3.951c-.058,1.975,3.137,3.311,8.075,5.286,3.66,1.453,5.926,4.647,5.926,7.785,0,5.519-4.822,9.005-12.432,9.005a13.743,13.743,0,0,1-8.308-2.615Z" transform="translate(-178.883 -58.229)" fill="#f5f5f5"/>
      <path id="Path_1459" data-name="Path 1459" d="M206.414,94.438a8.664,8.664,0,0,1,.058-1.1l.523-.059c2.207-.232,3.428-4.065,3.428-9.294,0-7.262-.581-8.656-3.428-10.224l-.523-.291a3.4,3.4,0,0,1-.058-.58l10.574-4.3h1.626V84.33c0,5.17,1.337,8.713,3.37,8.945l.581.059a8.655,8.655,0,0,1,.058,1.1v.639H206.414Zm3.137-34.566a4.272,4.272,0,0,1,4.531-4.648c2.73,0,4.473,1.8,4.473,4.648s-1.743,4.648-4.473,4.648a4.272,4.272,0,0,1-4.531-4.648" transform="translate(-184.221 -55.224)" fill="#f5f5f5"/>
      <path id="Path_1460" data-name="Path 1460" d="M227.6,97.581a8.659,8.659,0,0,1,.058-1.1l.523-.058c2.207-.232,3.428-4.066,3.428-9.353,0-7.2-.581-8.6-3.428-10.166l-.523-.291a2.642,2.642,0,0,1-.058-.58l10.515-4.3h1.627v4.008c1.511-2.091,5.17-4.3,9.876-4.3,3.37,0,5.171,1.859,5.868,5.054,2.034-2.15,6.739-5.054,11.038-5.054,4.59,0,6.274,3.486,6.274,8.946v7.088c0,5.17,1.279,8.714,3.37,8.946l.58.058V98.22H260.543V96.477l.7-.058c2.091-.174,3.37-3.776,3.37-8.946V81.257c0-2.846-1.627-5.926-4.067-5.926-1.394,0-3.021.93-4.705,3.486a14.157,14.157,0,0,1,.058,1.568v7.088c0,5.17,1.278,8.772,3.37,8.946l.755.058V98.22H244.277V96.477l.29-.058c2.091-.406,3.137-3.776,3.137-8.946V81.257c0-2.9-1.453-6.216-3.835-6.216-1.162,0-2.556.871-4.125,3.079v9.354c0,5.17,1.337,8.714,3.428,8.946l.581.058V98.22H227.6Z" transform="translate(-188.33 -58.368)" fill="#f5f5f5"/>
      <path id="Path_1461" data-name="Path 1461" d="M290.09,112.1a8.664,8.664,0,0,1,.058-1.1l.523-.057c2.091-.234,3.37-3.777,3.37-8.947V87.066c0-7.2-.523-8.6-3.37-10.166l-.523-.29a2.647,2.647,0,0,1-.058-.581l10.515-4.3h1.627V74.4c1.22-1.568,4.648-2.962,8.715-2.962,6.564,0,11.734,6.274,11.386,15.22-.349,8.25-7.668,12.432-13.942,12.432a10.283,10.283,0,0,1-6.159-1.8v3.777c0,5.17,1.278,9.643,3.37,9.876l.58.057a8.548,8.548,0,0,1,.059,1.1v.639H290.09Zm12.142-35.437V89.855a6.683,6.683,0,0,0,.058,1.1v1.975a5.076,5.076,0,0,0,4.183,3.311c4.067.116,6.681-2.9,6.681-8.134,0-7.494-3.951-13.768-8.6-12.838a3.715,3.715,0,0,0-2.324,1.394" transform="translate(-200.446 -58.368)" fill="#f5f5f5"/>
      <path id="Path_1462" data-name="Path 1462" d="M342.682,56.377h1.628V84.553c0,5.17,1.336,8.714,3.369,8.946l.581.058a8.659,8.659,0,0,1,.058,1.1V95.3H332.109v-.639a8.659,8.659,0,0,1,.058-1.1l.522-.058c2.092-.232,3.427-3.776,3.427-8.946V71.772c0-7.261-.58-8.656-3.427-10.225l-.522-.29a3.409,3.409,0,0,1-.058-.581Z" transform="translate(-208.593 -55.448)" fill="#f5f5f5"/>
      <path id="Path_1463" data-name="Path 1463" d="M368.569,71.44c7.261,0,11.909,5.344,11.909,13.593l-17.428.291c.754,5.17,3.6,9.237,10.631,8.714,1.511-.116,3.777-1.453,5.693-4.3l.929.813a14.966,14.966,0,0,1-12.955,7.959c-8.017,0-13.188-4.763-13.188-12.2,0-9.063,5.577-14.872,14.408-14.872m-5.693,12.025h6.738c5.81-.233,4.3-9.644-1.511-9.644-3.253,0-5.345,3.893-5.228,9.644" transform="translate(-212.869 -58.368)" fill="#f5f5f5"/>
    </g>
    <g id="Group_796" data-name="Group 796" transform="translate(180.916 5.809)">
      <path id="Path_1464" data-name="Path 1464" d="M403.315,89.077c.175,0,.349.058.7.058,1.162,3.2,4.241,7.611,8.482,7.611,2.789,0,4.589-1.569,4.589-4.009,0-1.628-1.917-3.428-4.88-4.589-5.228-2.034-8.655-5.636-8.655-8.657,0-5,4.647-8.771,12.2-8.771,2.382,0,6.332.871,8.133,2.9l-.232,6.39h-.871c-1.51-2.962-3.37-7.2-6.8-7.378s-5.577,1.917-5.635,3.951c-.059,1.975,3.137,3.311,8.075,5.286,3.66,1.453,5.926,4.647,5.926,7.785,0,5.519-4.822,9.005-12.433,9.005a13.744,13.744,0,0,1-8.308-2.615Z" transform="translate(-403.315 -64.038)" fill="#f5f5f5"/>
      <path id="Path_1465" data-name="Path 1465" d="M429.766,73.295v-.929c2.789-.581,6.913-4.473,10.4-9.934H441.5v7.553h7.727v3.311H441.5s-.058,11.444-.058,16.5c0,2.556.638,3.2,2.9,3.2,1.046,0,3.2-.639,5-3.253l.581.755c-3.021,5.4-7.61,6.274-9.586,6.274-5.577,0-7.2-1.743-7.2-8.424V73.295Z" transform="translate(-408.444 -62.431)" fill="#f5f5f5"/>
      <path id="Path_1466" data-name="Path 1466" d="M469.9,71.44c7.261,0,11.909,5.344,11.909,13.593l-17.428.291c.755,5.17,3.6,9.237,10.631,8.714,1.511-.116,3.777-1.453,5.694-4.3l.929.813a14.966,14.966,0,0,1-12.955,7.959c-8.017,0-13.188-4.763-13.188-12.2,0-9.063,5.577-14.872,14.408-14.872m-5.693,12.025h6.738c5.81-.233,4.3-9.644-1.511-9.644-3.253,0-5.344,3.893-5.228,9.644" transform="translate(-413.432 -64.178)" fill="#f5f5f5"/>
      <path id="Path_1467" data-name="Path 1467" d="M490.234,112.1a8.54,8.54,0,0,1,.059-1.1l.522-.057c2.092-.234,3.37-3.777,3.37-8.947V87.066c0-7.2-.523-8.6-3.37-10.166l-.522-.29a2.61,2.61,0,0,1-.059-.581l10.515-4.3h1.627V74.4c1.22-1.568,4.647-2.962,8.714-2.962,6.564,0,11.734,6.274,11.386,15.22-.348,8.25-7.669,12.432-13.942,12.432a10.279,10.279,0,0,1-6.158-1.8v3.777c0,5.17,1.278,9.643,3.37,9.876l.58.057a8.531,8.531,0,0,1,.059,1.1v.639H490.234Zm12.142-35.437V89.855a6.676,6.676,0,0,0,.058,1.1v1.975a5.076,5.076,0,0,0,4.183,3.311c4.067.116,6.681-2.9,6.681-8.134,0-7.494-3.952-13.768-8.6-12.838a3.713,3.713,0,0,0-2.324,1.394" transform="translate(-420.168 -64.178)" fill="#f5f5f5"/>
      <path id="Path_1468" data-name="Path 1468" d="M532.973,89.077c.175,0,.349.058.7.058,1.162,3.2,4.241,7.611,8.482,7.611,2.788,0,4.589-1.569,4.589-4.009,0-1.628-1.917-3.428-4.88-4.589-5.228-2.034-8.655-5.636-8.655-8.657,0-5,4.647-8.771,12.2-8.771,2.382,0,6.332.871,8.133,2.9l-.232,6.39h-.871c-1.51-2.962-3.37-7.2-6.8-7.378s-5.577,1.917-5.635,3.951c-.059,1.975,3.137,3.311,8.075,5.286,3.66,1.453,5.926,4.647,5.926,7.785,0,5.519-4.822,9.005-12.433,9.005a13.745,13.745,0,0,1-8.308-2.615Z" transform="translate(-428.455 -64.038)" fill="#f5f5f5"/>
      <path id="Path_1469" data-name="Path 1469" d="M568.784,93.492c2.73,0,4.473,1.8,4.473,4.648s-1.743,4.647-4.473,4.647a4.649,4.649,0,0,1,0-9.3" transform="translate(-434.52 -68.454)" fill="#f5f5f5"/>
    </g>
  </g>
</svg>
