<svg xmlns="http://www.w3.org/2000/svg" width="21.747" height="21.747" viewBox="0 0 21.747 21.747"><g><path d="M10.872 1.959c2.9 0 3.247.011 4.394.063a6 6 0 0 1 2.019.374 3.6 3.6 0 0 1 2.064 2.064 6 6 0 0 1 .374 2.019c.052 1.147.063 1.491.063 4.394s-.011 3.247-.063 4.394a6 6 0 0 1-.374 2.019 3.6 3.6 0 0 1-2.064 2.064 6 6 0 0 1-2.019.374c-1.146.052-1.49.063-4.394.063s-3.247-.011-4.394-.063a6 6 0 0 1-2.019-.374 3.6 3.6 0 0 1-2.064-2.064 6 6 0 0 1-.374-2.019c-.052-1.147-.063-1.49-.063-4.394s.011-3.247.063-4.394a6 6 0 0 1 .374-2.019 3.6 3.6 0 0 1 2.064-2.064 6 6 0 0 1 2.019-.374c1.147-.052 1.491-.063 4.394-.063m0-1.959C7.919 0 7.549.012 6.389.065A8 8 0 0 0 3.75.57 5.56 5.56 0 0 0 .57 3.75a8 8 0 0 0-.505 2.639C.012 7.549 0 7.919 0 10.872s.013 3.323.065 4.483a8 8 0 0 0 .505 2.64 5.56 5.56 0 0 0 3.18 3.18 8 8 0 0 0 2.639.505c1.16.053 1.53.066 4.483.066s3.323-.013 4.483-.066a8 8 0 0 0 2.639-.505 5.56 5.56 0 0 0 3.18-3.18 8 8 0 0 0 .506-2.64c.053-1.16.065-1.53.065-4.483s-.013-3.323-.065-4.483a8 8 0 0 0-.506-2.639 5.56 5.56 0 0 0-3.18-3.18 8 8 0 0 0-2.639-.505C14.195.012 13.825 0 10.872 0"/><path d="M10.873 5.291a5.584 5.584 0 1 0 5.584 5.584 5.584 5.584 0 0 0-5.584-5.584m0 9.208a3.624 3.624 0 1 1 3.625-3.625 3.624 3.624 0 0 1-3.625 3.625"/><path d="M17.986 5.069a1.3 1.3 0 1 1-1.3-1.3 1.3 1.3 0 0 1 1.3 1.3"/></g></svg>