<svg xmlns="http://www.w3.org/2000/svg" width="30.888" height="21.794" viewBox="0 0 30.888 21.794"><path d="M13.586.011c3.4-.04 6.81.018 10.2.227 2.783.172 5.723.092 6.526 3.387a29 29 0 0 1 .539 5.6 47 47 0 0 1-.239 7.135c-.2 1.682-.444 3.24-1.946 4.249-1.255.843-3.393.84-4.88.932a137 137 0 0 1-16.669 0c-2.254-.139-4.892-.024-6.127-2.282-.745-1.363-.835-4.1-.91-5.669a48 48 0 0 1 .24-8.493c.222-1.671.546-3.152 2.111-4.055C3.659.334 5.707.326 7.116.242c2.152-.132 4.311-.2 6.47-.227m-1.292 6.349c.057 3.014 0 6.041 0 9.057 0 .011-.058.027.015.073l8.039-4.616-8.039-4.587c-.073.046-.015.061-.015.073"/></svg>