<svg xmlns="http://www.w3.org/2000/svg" width="289.722" height="56.83" viewBox="0 0 289.722 56.83">
  <g id="Group_678" data-name="Group 678" transform="translate(0)">
    <path id="Path_1345" data-name="Path 1345" d="M102.089,2.162h22.539C135.22,2.162,142,6.359,142,12.947c0,4.585-3.939,8.008-10.526,9.558,8.784,1.1,13.5,4.779,13.5,10.009,0,6.716-6.974,10.979-18.728,10.979H102.089v-.711a9.609,9.609,0,0,1,.065-1.227l.646-.065c2.325-.259,3.747-4.2,3.747-9.946V14.109c0-5.748-1.421-9.687-3.747-9.945l-.646-.065a9.626,9.626,0,0,1-.065-1.227Zm20.924,19.632c5.49,0,8.913-3.422,8.913-8.847,0-4.972-2.842-8.2-7.3-8.2h-7.943V21.794Zm-6.328,19.116h8.525c5.941,0,9.17-3.293,9.17-8.4s-4.262-8.331-12.011-8.331h-5.683Z" transform="translate(-102.089 -0.225)" fill="#f5f5f5"/>
    <path id="Path_1346" data-name="Path 1346" d="M168.2,15.062c8.072,0,13.239,5.941,13.239,15.112l-19.374.323c.839,5.748,4,10.268,11.818,9.687,1.679-.129,4.2-1.615,6.329-4.779l1.033.9a16.637,16.637,0,0,1-14.4,8.847c-8.912,0-14.66-5.3-14.66-13.562,0-10.074,6.2-16.532,16.016-16.532M161.868,28.43h7.491c6.458-.258,4.779-10.72-1.679-10.72-3.616,0-5.941,4.326-5.811,10.72" transform="translate(-107.293 -1.565)" fill="#f5f5f5"/>
    <path id="Path_1347" data-name="Path 1347" d="M187.063,30.611c0-10.463,6.07-17.114,15.563-17.114a8.33,8.33,0,0,1,4.907,1.679c-.128-6.394-.839-7.944-3.745-9.429l-.646-.323a2.926,2.926,0,0,1-.065-.645L214.768,0h1.807V26.219c0,8.008.646,9.558,3.81,11.3l.582.323a2.941,2.941,0,0,1,.065.646l-11.689,4.779h-1.809V38.876c-2.518,2.906-5.618,4.714-8.395,4.714-7.427,0-12.076-5.037-12.076-12.98m17.048,7.232a7.046,7.046,0,0,0,3.422-.775V19.05a6.4,6.4,0,0,0-5.36-2.971c-3.422,0-5.619,4.263-5.619,10.979,0,6.587,2.971,10.785,7.556,10.785" transform="translate(-110.918)" fill="#f5f5f5"/>
    <path id="Path_1348" data-name="Path 1348" d="M226.27,34.748c.194,0,.388.065.775.065,1.292,3.552,4.714,8.46,9.429,8.46,3.1,0,5.1-1.744,5.1-4.456,0-1.808-2.131-3.81-5.425-5.1-5.811-2.26-9.621-6.265-9.621-9.622,0-5.554,5.166-9.751,13.562-9.751,2.648,0,7.039.969,9.041,3.229l-.258,7.1H247.9c-1.678-3.293-3.746-8.008-7.556-8.2s-6.2,2.131-6.264,4.391c-.065,2.2,3.487,3.681,8.976,5.877,4.068,1.615,6.587,5.167,6.587,8.655,0,6.135-5.36,10.009-13.821,10.009a15.284,15.284,0,0,1-9.235-2.906Z" transform="translate(-114.991 -1.49)" fill="#f5f5f5"/>
    <path id="Path_1349" data-name="Path 1349" d="M268.505,30.611c0-10.463,6.07-17.114,15.563-17.114a8.33,8.33,0,0,1,4.907,1.679c-.128-6.394-.839-7.944-3.745-9.429l-.646-.323a2.926,2.926,0,0,1-.065-.645L296.21,0h1.807V26.219c0,8.008.646,9.558,3.81,11.3l.582.323a2.941,2.941,0,0,1,.065.646l-11.689,4.779h-1.809V38.876c-2.518,2.906-5.618,4.714-8.395,4.714-7.427,0-12.076-5.037-12.076-12.98m17.048,7.232a7.046,7.046,0,0,0,3.422-.775V19.05a6.4,6.4,0,0,0-5.36-2.971c-3.422,0-5.619,4.263-5.619,10.979,0,6.587,2.971,10.785,7.556,10.785" transform="translate(-119.38)" fill="#f5f5f5"/>
    <path id="Path_1350" data-name="Path 1350" d="M307.784,30.109c0-9.171,6.328-15.047,16.339-15.047,9.88,0,16.21,5.877,16.21,15.047S334,45.156,324.123,45.156c-10.01,0-16.339-5.877-16.339-15.046m16.339,12.916c3.875,0,6.394-5.037,6.394-12.916S328,17.193,324.123,17.193s-6.394,5.037-6.394,12.916,2.519,12.916,6.394,12.916" transform="translate(-123.46 -1.565)" fill="#f5f5f5"/>
    <path id="Path_1351" data-name="Path 1351" d="M368.542,25.976c0-3.23-1.614-6.91-4.262-6.91-1.291,0-2.842.969-4.585,3.422v10.4c0,5.748,1.421,9.687,3.681,9.946l.582.064v1.937H346.2v-.711a9.494,9.494,0,0,1,.065-1.227l.581-.064c2.454-.259,3.81-4.521,3.81-10.4,0-8.008-.646-9.558-3.81-11.3l-.581-.323a2.888,2.888,0,0,1-.065-.645l11.689-4.779H359.7V19.84c1.679-2.324,5.748-4.779,10.979-4.779,5.1,0,6.974,3.876,6.974,9.946V36.76c0,5.49.129,7.1.129,7.749,0,2.066.194,8.137,2.777,8.976,3.293,1.1,5.425-2.2,6.974-3.875a3.516,3.516,0,0,1,2.648-1.1,3.848,3.848,0,0,1,3.939,3.035c.453,3.423-1.679,5.49-4.972,6.329a18.915,18.915,0,0,1-4.327.517,15.368,15.368,0,0,1-8.266-2.2c-1.744-1.163-8.008-4.392-8.008-14.208Z" transform="translate(-127.451 -1.565)" fill="#f5f5f5"/>
    <path id="Path_1352" data-name="Path 1352" d="M392.267,12.134c-2.842,0-4.843-2.2-4.843-5.231,0-3.1,1.937-5.1,4.972-5.1,3.875,0,5.877,3.681,5.877,7.233,0,6.393-3.487,11.818-9.042,13.949l-.386-1.1c3.292-1.227,5.682-5.231,5.3-10.074a6.726,6.726,0,0,1-1.873.323" transform="translate(-131.735 -0.187)" fill="#f5f5f5"/>
    <path id="Path_1353" data-name="Path 1353" d="M400.4,18.13V17.1c3.1-.646,7.685-4.972,11.56-11.044h1.486v8.4h8.589V18.13h-8.589s-.065,12.722-.065,18.34c0,2.842.71,3.552,3.229,3.552,1.163,0,3.552-.711,5.554-3.617l.646.84c-3.358,6.006-8.46,6.974-10.656,6.974-6.2,0-8.007-1.937-8.007-9.363V18.13Z" transform="translate(-133.084 -0.629)" fill="#f5f5f5"/>
  </g>
</svg>
