<svg xmlns="http://www.w3.org/2000/svg" width="251.536" height="52.053" viewBox="0 0 251.536 52.053">
  <g id="Group_800" data-name="Group 800" transform="translate(0)">
    <g id="Group_795" data-name="Group 795">
      <path id="Path_1449" data-name="Path 1449" d="M454.2,33.278c.175,0,.349.058.7.058,1.162,3.2,4.241,7.61,8.482,7.61,2.789,0,4.589-1.569,4.589-4.009,0-1.627-1.917-3.428-4.88-4.589-5.228-2.033-8.655-5.635-8.655-8.656,0-5,4.647-8.772,12.2-8.772,2.382,0,6.332.871,8.133,2.9l-.232,6.39h-.871c-1.51-2.962-3.37-7.2-6.8-7.377s-5.577,1.917-5.635,3.95c-.059,1.976,3.137,3.311,8.075,5.286,3.66,1.453,5.926,4.648,5.926,7.785,0,5.519-4.822,9-12.433,9a13.749,13.749,0,0,1-8.308-2.614Z" transform="translate(-454.198 -3.651)" fill="#f5f5f5"/>
      <path id="Path_1450" data-name="Path 1450" d="M481.153,15.812c3.892,1.162,6.971-5.112,9.527-10.283h1.8v7.494C499.045,8.492,511.188.94,520.192.94A11.348,11.348,0,0,1,526,2.393c2.324,1.394,3.95,4.066,2.44,6.506a4.678,4.678,0,0,1-3.776,2.382,2.5,2.5,0,0,1-2.034-.929,9.685,9.685,0,0,0-7.9-3.37c-7.2,0-16.266,5.112-22.25,8.83v.581s-.058,11.444-.058,16.5c0,2.556.638,3.195,2.9,3.195,1.046,0,3.2-.638,5-3.253l.581.755c-3.021,5.4-7.61,6.274-9.586,6.274-5.577,0-7.261-1.743-7.2-8.424l.057-12.722a5.558,5.558,0,0,1-2.962-.581Z" transform="translate(-459.424 -0.94)" fill="#f5f5f5"/>
      <path id="Path_1451" data-name="Path 1451" d="M520.009,27.517V22.986c0-2.963-.813-4.88-2.092-4.88-2.556,0-3.775,2.788-3.253,6.855a15.859,15.859,0,0,1-4.067.639,17.915,17.915,0,0,1-4.182-.639c-.756-5.461,4.88-9.469,13.361-9.179,5.4.175,8.888,3.544,8.888,9.121v10.05c0,2.5.465,4.126,2.266,4.126a2.442,2.442,0,0,0,2.439-1.22l.871,1.1c-1.394,2.556-3.718,4.183-8.888,4.183-2.323,0-4.124-1.046-4.763-2.846a15.441,15.441,0,0,1-8.018,2.556,7.006,7.006,0,0,1-7.2-6.971c0-6.8,9.527-8.134,14.64-8.366m-2.381,11.212a4.3,4.3,0,0,0,2.439-.755l-.058-8.83c-3.2,0-6.448,1.51-6.448,5.4a4,4,0,0,0,4.067,4.183" transform="translate(-464.12 -3.815)" fill="#f5f5f5"/>
      <path id="Path_1452" data-name="Path 1452" d="M541.333,41.853a8.635,8.635,0,0,1,.058-1.1l.523-.058c2.207-.232,3.369-4.067,3.369-9.353,0-7.2-.522-8.6-3.369-10.167l-.523-.29a2.634,2.634,0,0,1-.058-.581L551.848,16h1.627v8.482c1.1-2.672,3.427-7.61,6.913-8.249,3.311-.581,4.821,1.278,5.345,4.357.348,2.439-1.627,4.415-2.905,3.95-1.453-.523-2.788-1.685-4.416-1.685-1.394,0-2.962.871-4.937,3.777v5.112c0,5.171,1.277,8.715,3.369,8.947l.581.058a8.635,8.635,0,0,1,.058,1.1v.639h-16.15Z" transform="translate(-471.093 -3.86)" fill="#f5f5f5"/>
      <path id="Path_1453" data-name="Path 1453" d="M571.315,17.5v-.929c2.789-.581,6.913-4.473,10.4-9.934h1.337v7.552h7.727V17.5H583.05s-.058,11.444-.058,16.5c0,2.556.638,3.2,2.9,3.2,1.046,0,3.2-.639,5-3.253l.581.755c-3.02,5.4-7.61,6.274-9.586,6.274-5.577,0-7.2-1.743-7.2-8.423V17.5Z" transform="translate(-476.906 -2.044)" fill="#f5f5f5"/>
    </g>
    <g id="Group_798" data-name="Group 798" transform="translate(120.112)">
      <path id="Path_1454" data-name="Path 1454" d="M14.559,71.8H30.941v.638a8.667,8.667,0,0,1-.058,1.1l-.523.057c-1.685.175-1.278,3.254.929,7.785L35.647,89.4l5.345-11.793c-1.86-2.614-3.137-3.892-4.706-4.066V71.8H52.726v.638a8.666,8.666,0,0,1-.058,1.1l-.581.057c-1.975.175-1.51,3.777,1.337,8.947,1.22,2.207,2.5,4.531,3.66,6.8l3.137-6.8c2.382-5.17,2.323-8.772.058-8.947l-.755-.057v-1.1a2.9,2.9,0,0,0-.058-.638H70.91v1.743l-.639.057c-2.207.175-5.286,3.835-7.9,8.947L54.121,98.871H52.785l-8.83-16.324a36.771,36.771,0,0,0-1.917-3.37L32.684,98.871H31.348L22.576,82.547c-2.73-5.112-5.693-8.772-7.494-8.947l-.522-.057Z" transform="translate(-14.559 -58.438)" fill="#f5f5f5"/>
      <path id="Path_1455" data-name="Path 1455" d="M79.64,94.438a8.659,8.659,0,0,1,.058-1.1l.523-.059c2.207-.232,3.428-4.065,3.428-9.294,0-7.262-.581-8.656-3.428-10.224l-.523-.291a3.393,3.393,0,0,1-.058-.58l10.574-4.3H91.84V84.33c0,5.17,1.337,8.713,3.37,8.945l.581.059a8.661,8.661,0,0,1,.058,1.1v.639H79.64Zm3.137-34.566a4.272,4.272,0,0,1,4.531-4.648c2.73,0,4.473,1.8,4.473,4.648s-1.743,4.648-4.473,4.648a4.272,4.272,0,0,1-4.531-4.648" transform="translate(-27.178 -55.224)" fill="#f5f5f5"/>
      <path id="Path_1456" data-name="Path 1456" d="M99.82,73.295v-.929c2.788-.581,6.913-4.473,10.4-9.934h1.337v7.553h7.727v3.311h-7.727s-.059,11.444-.059,16.5c0,2.556.639,3.2,2.905,3.2,1.046,0,3.2-.639,5-3.253l.58.755c-3.02,5.4-7.61,6.274-9.585,6.274-5.577,0-7.2-1.743-7.2-8.424V73.295Z" transform="translate(-31.091 -56.621)" fill="#f5f5f5"/>
      <path id="Path_1457" data-name="Path 1457" d="M144.137,78.336c0-2.788-1.453-5.867-3.776-5.867-1.162,0-2.556.813-4.125,2.905v9.178c0,5.171,1.278,8.713,3.37,8.946l.522.058h.116l-.057,1.744H124.153V93.557l.581-.058c2.091-.233,3.311-3.775,3.311-8.946V71.714c0-7.2-.523-8.713-3.37-10.166l-.58-.291a2.636,2.636,0,0,1-.058-.581l10.515-4.3h1.685V72.469a14.442,14.442,0,0,1,9.818-3.95c4.59,0,6.275,3.486,6.275,8.946V88.038c0,4.938.116,6.391.116,6.972,0,1.976.174,7.261,2.556,8.075,2.9.988,4.821-1.975,6.216-3.485a3.158,3.158,0,0,1,2.382-.989,3.463,3.463,0,0,1,3.544,2.731c.464,3.079-1.511,4.939-4.473,5.694a17.021,17.021,0,0,1-3.893.464,13.619,13.619,0,0,1-7.378-1.975c-1.626-1.046-7.261-3.952-7.261-12.782Z" transform="translate(-35.786 -55.448)" fill="#f5f5f5"/>
    </g>
  </g>
</svg>
