<svg id="Group_799" data-name="Group 799" xmlns="http://www.w3.org/2000/svg" width="353" height="40.261" viewBox="0 0 353 40.261">
  <g id="Group_793" data-name="Group 793" transform="translate(0 0)">
    <path id="Path_1438" data-name="Path 1438" d="M.813,27.419c.406.638.929,1.569,1.278,2.207,2.731,5.054,7.262,8.715,11.212,8.715,5,0,8.133-2.673,8.133-5.926,0-2.73-4.3-5.635-11.1-7.494C4.3,23.295.29,19.228.29,14.581c0-7.436,5.868-12.2,15.1-12.2,3.834,0,8.191,1.337,10.689,3.37l.523,9.294h-.871c-1.22-4.24-5.868-10.4-10.806-10.34C10.225,4.763,7.2,7.086,7.2,10.8c0,2.323,4.3,5,10.922,6.8,6.332,1.742,10.457,5.984,10.457,10.979,0,7.03-5.984,12.142-15.279,12.142-5.344,0-10.34-1.917-12.78-4.008L0,27.419Z" transform="translate(0 -0.461)" fill="#f5f5f5"/>
    <path id="Path_1439" data-name="Path 1439" d="M34.307,12.9H50.689v.639a8.644,8.644,0,0,1-.058,1.1l-.523.058c-1.685.174-1.278,3.253.929,7.785L55.395,30.5,60.74,18.708c-1.86-2.614-3.137-3.893-4.706-4.067V12.9H72.474v.639a8.644,8.644,0,0,1-.058,1.1l-.581.058c-1.975.174-1.51,3.776,1.337,8.947,1.22,2.207,2.091,4.124,3.253,6.39l2.9-5.519C80.9,20.741,89.612.235,101,0c2.73-.058,5.461,1.22,5.461,4.125,0,2.614-1.859,5.112-4.008,4.473a12.706,12.706,0,0,0-3.486-.522c-8.192,0-13.652,8.946-16.848,15.336,0,.058-.058.175-.058.233L80.9,25.911c-.349.639-.523,1.162-.755,1.627V27.48L73.869,39.97H72.533L63.7,23.646a36.771,36.771,0,0,0-1.917-3.37L52.432,39.97H51.1L42.324,23.646c-2.73-5.112-5.693-8.773-7.494-8.947l-.522-.058Z" transform="translate(-6.652 0)" fill="#f5f5f5"/>
    <path id="Path_1440" data-name="Path 1440" d="M114.588,15.641c7.261,0,11.909,5.344,11.909,13.594l-17.428.29c.755,5.17,3.6,9.237,10.632,8.714,1.51-.116,3.776-1.453,5.693-4.3l.929.813a14.966,14.966,0,0,1-12.955,7.959c-8.017,0-13.187-4.764-13.187-12.2,0-9.062,5.577-14.872,14.408-14.872m-5.694,12.025h6.739c5.81-.232,4.3-9.643-1.511-9.643-3.253,0-5.344,3.892-5.228,9.643" transform="translate(-19.424 -3.032)" fill="#f5f5f5"/>
    <path id="Path_1441" data-name="Path 1441" d="M149.687,15.641c7.261,0,11.909,5.344,11.909,13.594l-17.428.29c.755,5.17,3.6,9.237,10.632,8.714,1.51-.116,3.776-1.453,5.693-4.3l.929.813a14.966,14.966,0,0,1-12.955,7.959c-8.017,0-13.187-4.764-13.187-12.2,0-9.062,5.577-14.872,14.408-14.872m-5.694,12.025h6.739c5.81-.232,4.3-9.643-1.511-9.643-3.253,0-5.344,3.892-5.228,9.643" transform="translate(-26.23 -3.032)" fill="#f5f5f5"/>
    <path id="Path_1442" data-name="Path 1442" d="M168.5,17.5v-.929c2.788-.581,6.913-4.473,10.4-9.934h1.337v7.552h7.727V17.5H180.24s-.059,11.444-.059,16.5c0,2.556.639,3.2,2.905,3.2,1.046,0,3.2-.639,5-3.253l.58.755c-3.02,5.4-7.61,6.274-9.585,6.274-5.577,0-7.2-1.743-7.2-8.423V17.5Z" transform="translate(-32.672 -1.286)" fill="#f5f5f5"/>
  </g>
  <g id="Group_794" data-name="Group 794" transform="translate(167.787 0.467)">
    <path id="Path_1443" data-name="Path 1443" d="M208.145,28.116c0-9.412,5.461-15.4,14-15.4a7.5,7.5,0,0,1,4.415,1.511c-.116-5.752-.755-7.146-3.37-8.482l-.581-.291a2.633,2.633,0,0,1-.058-.58l10.515-4.3h1.627V24.165c0,7.2.581,8.6,3.428,10.167l.523.29a2.645,2.645,0,0,1,.058.581l-10.516,4.3H226.56V35.551c-2.266,2.614-5.054,4.241-7.552,4.241-6.681,0-10.863-4.531-10.863-11.676m15.336,6.506a6.347,6.347,0,0,0,3.079-.7V17.716a5.762,5.762,0,0,0-4.822-2.672c-3.079,0-5.054,3.835-5.054,9.876,0,5.926,2.672,9.7,6.8,9.7" transform="translate(-208.145 -0.579)" fill="#f5f5f5"/>
    <path id="Path_1444" data-name="Path 1444" d="M247.063,41.853a8.646,8.646,0,0,1,.058-1.1l.523-.058c2.207-.232,3.37-4.067,3.37-9.353,0-7.2-.523-8.6-3.37-10.167l-.523-.29a2.637,2.637,0,0,1-.058-.581L257.578,16H259.2v8.482c1.1-2.672,3.428-7.61,6.913-8.249,3.311-.581,4.822,1.278,5.345,4.357.348,2.439-1.628,4.415-2.905,3.95-1.453-.523-2.788-1.685-4.415-1.685-1.395,0-2.962.871-4.938,3.777v5.112c0,5.171,1.278,8.715,3.369,8.947l.581.058a8.643,8.643,0,0,1,.058,1.1v.639h-16.15Z" transform="translate(-215.691 -3.569)" fill="#f5f5f5"/>
    <path id="Path_1445" data-name="Path 1445" d="M293.327,15.641c7.261,0,11.909,5.344,11.909,13.594l-17.428.29c.755,5.17,3.6,9.237,10.632,8.714,1.511-.116,3.776-1.453,5.693-4.3l.93.813a14.969,14.969,0,0,1-12.956,7.959c-8.017,0-13.187-4.764-13.187-12.2,0-9.062,5.577-14.872,14.408-14.872m-5.694,12.025h6.739c5.81-.232,4.3-9.643-1.511-9.643-3.253,0-5.344,3.892-5.228,9.643" transform="translate(-221.868 -3.5)" fill="#f5f5f5"/>
    <path id="Path_1446" data-name="Path 1446" d="M328.225,27.517V22.986c0-2.963-.813-4.88-2.092-4.88-2.556,0-3.775,2.788-3.253,6.855a15.859,15.859,0,0,1-4.067.639,17.916,17.916,0,0,1-4.182-.639c-.756-5.461,4.88-9.469,13.361-9.179,5.4.175,8.888,3.544,8.888,9.121v10.05c0,2.5.465,4.126,2.266,4.126a2.442,2.442,0,0,0,2.439-1.22l.871,1.1c-1.394,2.556-3.718,4.183-8.888,4.183-2.323,0-4.124-1.046-4.763-2.846a15.442,15.442,0,0,1-8.018,2.556,7.006,7.006,0,0,1-7.2-6.971c0-6.8,9.527-8.134,14.64-8.366m-2.382,11.212a4.3,4.3,0,0,0,2.44-.755l-.058-8.83c-3.2,0-6.448,1.51-6.448,5.4a4,4,0,0,0,4.066,4.183" transform="translate(-228.589 -3.524)" fill="#f5f5f5"/>
    <path id="Path_1447" data-name="Path 1447" d="M349.046,41.783a8.757,8.757,0,0,1,.057-1.1l.524-.058c2.207-.232,3.428-4.067,3.428-9.353,0-7.2-.581-8.6-3.428-10.167l-.524-.29a2.67,2.67,0,0,1-.057-.581l10.515-4.3h1.627V19.94c1.511-2.091,5.17-4.3,9.876-4.3,3.37,0,5.171,1.859,5.868,5.054,2.033-2.15,6.739-5.054,11.037-5.054,4.59,0,6.275,3.486,6.275,8.946v7.087c0,5.171,1.278,8.715,3.37,8.947l.581.058v1.743H381.984V40.679l.7-.058c2.091-.174,3.369-3.776,3.369-8.947V25.459c0-2.847-1.626-5.926-4.067-5.926-1.394,0-3.02.93-4.705,3.486a13.967,13.967,0,0,1,.059,1.568v7.087c0,5.171,1.278,8.773,3.369,8.947l.755.058v1.743H365.719V40.679l.29-.058c2.092-.407,3.137-3.776,3.137-8.947V25.459c0-2.905-1.453-6.217-3.834-6.217-1.162,0-2.556.871-4.125,3.079v9.352c0,5.171,1.336,8.715,3.427,8.947l.581.058v1.743h-16.15Z" transform="translate(-235.465 -3.5)" fill="#f5f5f5"/>
    <path id="Path_1448" data-name="Path 1448" d="M411.819,33.278c.175,0,.349.058.7.058,1.162,3.2,4.241,7.61,8.482,7.61,2.789,0,4.589-1.569,4.589-4.009,0-1.627-1.917-3.428-4.88-4.589-5.228-2.033-8.655-5.635-8.655-8.656,0-5,4.647-8.772,12.2-8.772,2.382,0,6.332.871,8.133,2.9l-.232,6.39h-.871c-1.51-2.962-3.37-7.2-6.8-7.377s-5.577,1.917-5.635,3.95c-.059,1.976,3.137,3.311,8.075,5.286,3.66,1.453,5.926,4.648,5.926,7.785,0,5.519-4.822,9-12.433,9a13.75,13.75,0,0,1-8.308-2.614Z" transform="translate(-247.636 -3.36)" fill="#f5f5f5"/>
  </g>
</svg>
