<svg id="Group_734" data-name="Group 734" xmlns="http://www.w3.org/2000/svg" width="76.444" height="30.578" viewBox="0 0 76.444 30.578">
  <path id="Path_1368" data-name="Path 1368" d="M0,29.706c0-8.136,5.485-15.724,15.86-15.724,10.329,0,15.815,7.587,15.815,15.724S26.19,44.56,15.86,44.56C5.485,44.56,0,37.84,0,29.706m15.86,12.98c5.028,0,8.5-5.851,8.5-12.98s-3.474-13.9-8.5-13.9c-5.12,0-8.456,6.765-8.456,13.9s3.336,12.98,8.456,12.98" transform="translate(0 -13.982)" fill="#251163"/>
  <path id="Path_1369" data-name="Path 1369" d="M24.605,21.294h9.6V34.458c0,2.148,1.463,3.519,4.388,3.519a2.12,2.12,0,0,0,1.645-.868V30.07c.047-4.114-.959-7.177-2.651-7.359l-.411-.046a6.83,6.83,0,0,1-.046-.868v-.5h9.552V30.07c0,5.667.412,6.856,2.652,8l.456.229a2.09,2.09,0,0,1,.046.458l-8.273,3.382H40.236V38.388c-1.873,2.469-4.067,3.977-6.719,3.977-3.839,0-5.758-2.834-5.758-7.222V29.75c0-4.068-1.006-6.857-2.651-7.039l-.458-.046a6.83,6.83,0,0,1-.046-.868Z" transform="translate(7.384 -11.787)" fill="#251163"/>
  <path id="Path_1370" data-name="Path 1370" d="M44.007,41.634a6.829,6.829,0,0,1,.046-.868l.412-.045c1.736-.183,2.651-3.2,2.651-7.359,0-5.669-.412-6.765-2.651-8l-.412-.228a2.09,2.09,0,0,1-.046-.458l8.273-3.383H53.56v6.674c.868-2.1,2.7-5.987,5.438-6.49,2.605-.456,3.794,1.006,4.206,3.428.274,1.919-1.281,3.474-2.286,3.107-1.143-.411-2.195-1.325-3.474-1.325-1.1,0-2.331.685-3.885,2.971v4.023c0,4.068,1,6.856,2.651,7.039l.456.045a6.83,6.83,0,0,1,.046.868v.5H44.007Z" transform="translate(13.207 -11.787)" fill="#251163"/>
</svg>
