<svg id="Group_737" data-name="Group 737" xmlns="http://www.w3.org/2000/svg" width="127.771" height="34.42" viewBox="0 0 127.771 34.42">
  <path id="Path_1387" data-name="Path 1387" d="M509.092,17.231V15.859h13.941v.5a6.844,6.844,0,0,1-.045.868l-.5.046c-1.737.138-1.508,2.971.456,7.039l6.079,12.479,5.12-11.884c2.651-5.758,7.4-13.393,14.58-13.529,2.149-.046,4.3.959,4.3,3.245,0,2.057-1.463,4.023-3.154,3.519a10.606,10.606,0,0,0-2.833-.411c-7.862,0-12.021,10.375-14.125,14.808L527.376,45.8h-1.829L515.034,24.315c-2.011-4.068-4.159-6.9-5.531-7.039Z" transform="translate(-509.092 -11.379)" fill="#251163"/>
  <path id="Path_1388" data-name="Path 1388" d="M542.614,30.424V26.859c0-2.331-.64-3.839-1.645-3.839-2.011,0-2.971,2.193-2.56,5.393a12.464,12.464,0,0,1-3.2.5,14.084,14.084,0,0,1-3.291-.5c-.594-4.3,3.839-7.451,10.513-7.222,4.25.138,6.993,2.789,6.993,7.177v7.907c0,1.966.365,3.245,1.783,3.245a1.921,1.921,0,0,0,1.919-.959l.686.868c-1.1,2.01-2.925,3.291-6.993,3.291a3.694,3.694,0,0,1-3.748-2.24,12.138,12.138,0,0,1-6.308,2.011,5.513,5.513,0,0,1-5.667-5.485c0-5.347,7.5-6.4,11.518-6.581m-1.873,8.821a3.391,3.391,0,0,0,1.92-.594l-.047-6.948c-2.513,0-5.073,1.188-5.073,4.251a3.144,3.144,0,0,0,3.2,3.291" transform="translate(-502.488 -8.438)" fill="#251163"/>
  <path id="Path_1389" data-name="Path 1389" d="M556.566,13.771h1.279V35.939c0,4.068,1.052,6.854,2.651,7.039l.458.046a6.806,6.806,0,0,1,.046.867v.5H548.248v-.5a6.815,6.815,0,0,1,.046-.867l.411-.046c1.646-.185,2.7-2.971,2.7-7.039V25.883c0-5.713-.456-6.81-2.7-8.044l-.411-.229a2.684,2.684,0,0,1-.046-.456Z" transform="translate(-497.341 -10.661)" fill="#251163"/>
  <path id="Path_1390" data-name="Path 1390" d="M558.158,21.294h9.6V34.458c0,2.148,1.463,3.519,4.388,3.519a2.12,2.12,0,0,0,1.645-.868V30.07c.047-4.114-.96-7.177-2.651-7.359l-.411-.046a6.844,6.844,0,0,1-.045-.868v-.5h9.552V30.07c0,5.667.412,6.856,2.652,8l.456.229a2.089,2.089,0,0,1,.046.458l-8.273,3.382h-1.326V38.388c-1.874,2.469-4.067,3.977-6.719,3.977-3.839,0-5.758-2.834-5.758-7.222V29.75c0-4.068-1.006-6.857-2.651-7.039l-.458-.046a6.835,6.835,0,0,1-.045-.868Z" transform="translate(-494.366 -8.403)" fill="#251163"/>
  <path id="Path_1391" data-name="Path 1391" d="M589.07,21.119c5.714,0,9.37,4.2,9.37,10.695l-13.712.229c.594,4.068,2.834,7.268,8.365,6.856,1.188-.091,2.971-1.142,4.479-3.382l.732.64a11.773,11.773,0,0,1-10.193,6.26c-6.308,0-10.375-3.746-10.375-9.6,0-7.131,4.388-11.7,11.334-11.7m-4.479,9.461h5.3c4.571-.183,3.383-7.587-1.188-7.587-2.56,0-4.2,3.063-4.114,7.587" transform="translate(-488.491 -8.456)" fill="#251163"/>
  <path id="Path_1392" data-name="Path 1392" d="M594.641,35.21c.136,0,.274.046.549.046.914,2.514,3.336,5.988,6.673,5.988,2.193,0,3.611-1.235,3.611-3.154,0-1.281-1.508-2.7-3.839-3.61-4.114-1.6-6.81-4.435-6.81-6.811,0-3.93,3.656-6.9,9.6-6.9,1.875,0,4.982.685,6.4,2.284l-.182,5.029h-.686c-1.188-2.331-2.651-5.669-5.347-5.805s-4.388,1.508-4.433,3.107c-.046,1.555,2.468,2.605,6.354,4.16a6.94,6.94,0,0,1,4.662,6.125c0,4.341-3.794,7.084-9.782,7.084A10.819,10.819,0,0,1,594.87,40.7Z" transform="translate(-483.417 -8.561)" fill="#251163"/>
</svg>
