<svg id="Group_778" data-name="Group 778" xmlns="http://www.w3.org/2000/svg" width="128" height="44.225" viewBox="0 0 128 44.225">
  <path id="Path_1434" data-name="Path 1434" d="M185.874,4.813,197.711,0h1.821V16.389c1.105-1.691,4.618-2.8,9.5-2.8,7.285,0,11.966,6.048,11.966,15.479,0,9.041-6.373,14.829-16.389,14.829-3.837,0-6.439-2.407-9.3-2.407a4.965,4.965,0,0,0-3.966,2.081h-.976V17.235c0-8.13-.651-9.69-3.837-11.447l-.586-.325a3.817,3.817,0,0,1-.065-.651M204.6,41.234c3.773,0,6.179-3.772,6.179-9.626,0-8.39-3.447-13.788-8.845-13.788-1.366,0-2.277.39-2.407.976V31.868c0,5.723,1.951,9.366,5.073,9.366" transform="translate(-185.874 0)" fill="#f5f5f5"/>
  <path id="Path_1435" data-name="Path 1435" d="M243.659,15.062c8.129,0,13.333,5.983,13.333,15.219l-19.511.325c.845,5.788,4.032,10.341,11.9,9.755,1.691-.13,4.228-1.626,6.374-4.813l1.04.911a16.756,16.756,0,0,1-14.5,8.911c-8.975,0-14.764-5.333-14.764-13.659,0-10.145,6.244-16.649,16.129-16.649m-6.373,13.463h7.544c6.5-.26,4.813-10.8-1.691-10.8-3.641,0-5.983,4.357-5.852,10.8" transform="translate(-189.938 -1.469)" fill="#f5f5f5"/>
  <path id="Path_1436" data-name="Path 1436" d="M262.415,30.828c0-10.537,6.113-17.235,15.674-17.235a8.389,8.389,0,0,1,4.942,1.691c-.129-6.439-.845-8-3.771-9.5l-.651-.326a2.948,2.948,0,0,1-.065-.65L290.316,0h1.82V26.4c0,8.064.651,9.626,3.837,11.382l.586.325a2.962,2.962,0,0,1,.065.651l-11.772,4.813H283.03V39.152c-2.536,2.927-5.657,4.748-8.454,4.748-7.479,0-12.161-5.073-12.161-13.072m17.169,7.284a7.1,7.1,0,0,0,3.446-.781V19.185a6.448,6.448,0,0,0-5.4-2.992c-3.446,0-5.658,4.293-5.658,11.057,0,6.634,2.993,10.861,7.609,10.861" transform="translate(-193.341 0)" fill="#f5f5f5"/>
  <path id="Path_1437" data-name="Path 1437" d="M301.622,34.893c.2,0,.391.065.781.065,1.3,3.577,4.748,8.52,9.5,8.52,3.122,0,5.138-1.756,5.138-4.488,0-1.821-2.146-3.837-5.463-5.138-5.852-2.276-9.69-6.309-9.69-9.691,0-5.593,5.2-9.82,13.658-9.82,2.667,0,7.089.976,9.1,3.252l-.26,7.154h-.975c-1.69-3.317-3.772-8.064-7.609-8.259s-6.243,2.146-6.308,4.422c-.066,2.212,3.512,3.707,9.04,5.918,4.1,1.626,6.634,5.2,6.634,8.716,0,6.178-5.4,10.08-13.918,10.08a15.393,15.393,0,0,1-9.3-2.927Z" transform="translate(-197.166 -1.399)" fill="#f5f5f5"/>
</svg>
