<svg xmlns="http://www.w3.org/2000/svg" xmlns:xlink="http://www.w3.org/1999/xlink" width="563.817" height="84.561" viewBox="0 0 563.817 84.561">
  <defs>
    <clipPath id="clip-path">
      <rect id="Rectangle_846" data-name="Rectangle 846" width="563.817" height="84.561" fill="#f5f5f5"/>
    </clipPath>
  </defs>
  <g id="Group_478" data-name="Group 478" transform="translate(0 0)">
    <g id="Group_477" data-name="Group 477" transform="translate(0 0)" clip-path="url(#clip-path)">
      <path id="Path_1151" data-name="Path 1151" d="M0,42.1C0,17.548,19.094,1.8,49.1,1.8c13.141,0,25.294,3.472,31.12,8.8l.869,18.474H79.477c-.745-1.488-1.736-3.224-2.481-4.712A31.705,31.705,0,0,0,49.1,6.762c-16.986,0-27.775,13.762-27.775,35.337,0,21.451,10.789,35.213,27.775,35.213a86.663,86.663,0,0,0,14.01-1.239v-8.68c0-11.035-2.729-18.6-7.192-19.094l-1.239-.126a18.2,18.2,0,0,1-.126-2.355V44.454H89.272v1.364a18.448,18.448,0,0,1-.124,2.355l-1.24.126c-4.463.5-7.19,8.059-7.19,19.094v8.059C73.65,79.667,61.251,82.4,49.1,82.4,19.094,82.4,0,66.65,0,42.1" transform="translate(0 1.298)" fill="#f5f5f5"/>
      <path id="Path_1152" data-name="Path 1152" d="M53.117,79.892a18.448,18.448,0,0,1,.124-2.355l1.117-.124c4.711-.5,7.19-8.68,7.19-19.963,0-15.374-1.115-18.351-7.19-21.7l-1.117-.619a5.627,5.627,0,0,1-.124-1.24l22.442-9.175h3.474V42.7C82.874,29.429,95.522,2.522,117.468,2.522c5.7,0,10.042,4.093,10.042,10.292a7.647,7.647,0,0,1-9.917,7.315,32.081,32.081,0,0,0-9.175-1.488c-17.731,0-24.675,18.351-29.386,31.246v8.43c0,11.037,2.725,18.6,7.19,19.1l1.24.124a18.45,18.45,0,0,1,.124,2.355v1.364H53.117Z" transform="translate(38.27 1.817)" fill="#f5f5f5"/>
      <path id="Path_1153" data-name="Path 1153" d="M110.749,15.062c15.5,0,25.418,11.407,25.418,29.014l-37.2.619c1.61,11.035,7.687,19.715,22.69,18.6,3.224-.248,8.06-3.1,12.152-9.175l1.984,1.736c-6.324,12.276-18.97,16.988-27.65,16.988C91.036,72.842,80,62.674,80,46.8c0-19.342,11.9-31.741,30.75-31.741M98.6,40.728H112.98c12.4-.5,9.175-20.582-3.224-20.582-6.942,0-11.407,8.306-11.157,20.582" transform="translate(57.637 10.852)" fill="#f5f5f5"/>
      <path id="Path_1154" data-name="Path 1154" d="M145.911,40.266V30.6c0-6.324-1.736-10.416-4.465-10.416-5.454,0-8.057,5.951-6.94,14.631a33.847,33.847,0,0,1-8.68,1.364A38.238,38.238,0,0,1,116.9,34.81c-1.614-11.654,10.416-20.21,28.515-19.591,11.532.373,18.97,7.565,18.97,19.467V56.136c0,5.333.994,8.805,4.836,8.805,2.851,0,4.339-.993,5.206-2.6l1.862,2.355c-2.975,5.456-7.937,8.928-18.97,8.928-4.958,0-8.8-2.231-10.168-6.075C142.936,70.271,136.613,73,130.041,73a14.953,14.953,0,0,1-15.374-14.879c0-14.507,20.334-17.36,31.244-17.855M140.83,64.2a9.165,9.165,0,0,0,5.2-1.612l-.124-18.846c-6.82,0-13.762,3.222-13.762,11.531A8.531,8.531,0,0,0,140.83,64.2" transform="translate(82.615 10.942)" fill="#f5f5f5"/>
      <path id="Path_1155" data-name="Path 1155" d="M149.117,29.24V27.256c5.953-1.24,14.755-9.547,22.194-21.2h2.853V22.172h16.491V29.24H174.164s-.124,24.426-.124,35.213c0,5.456,1.363,6.82,6.2,6.82,2.233,0,6.82-1.364,10.664-6.944l1.24,1.612c-6.447,11.531-16.243,13.39-20.46,13.39-11.9,0-15.372-3.72-15.372-17.977V29.24Z" transform="translate(107.435 4.361)" fill="#f5f5f5"/>
      <path id="Path_1156" data-name="Path 1156" d="M185.874,9.175,208.44,0h3.472V31.246c2.108-3.224,8.8-5.332,18.1-5.332,13.888,0,22.813,11.531,22.813,29.51,0,17.236-12.15,28.271-31.246,28.271-7.315,0-12.276-4.589-17.731-4.589a9.465,9.465,0,0,0-7.561,3.967h-1.86V32.858c0-15.5-1.24-18.474-7.315-21.823L186,10.416a7.276,7.276,0,0,1-.124-1.24M221.582,78.61c7.193,0,11.78-7.192,11.78-18.351,0-16-6.572-26.285-16.862-26.285-2.6,0-4.341.743-4.589,1.86V60.755c0,10.911,3.72,17.855,9.671,17.855" transform="translate(133.918 0)" fill="#f5f5f5"/>
      <path id="Path_1157" data-name="Path 1157" d="M258.28,15.062c15.5,0,25.418,11.407,25.418,29.014l-37.2.619c1.61,11.035,7.687,19.715,22.69,18.6,3.224-.248,8.06-3.1,12.152-9.175l1.984,1.736C277,68.13,264.357,72.842,255.677,72.842c-17.11,0-28.147-10.168-28.147-26.039,0-19.342,11.9-31.741,30.75-31.741M246.13,40.728h14.381c12.4-.5,9.175-20.582-3.224-20.582-6.942,0-11.407,8.306-11.157,20.582" transform="translate(163.93 10.852)" fill="#f5f5f5"/>
      <path id="Path_1158" data-name="Path 1158" d="M262.415,58.771c0-20.088,11.654-32.858,29.881-32.858a15.994,15.994,0,0,1,9.421,3.224c-.246-12.276-1.61-15.252-7.19-18.1l-1.24-.621a5.617,5.617,0,0,1-.124-1.239L315.607,0h3.47V50.339c0,15.374,1.241,18.351,7.315,21.7l1.117.619a5.645,5.645,0,0,1,.124,1.24l-22.442,9.175h-3.474V74.641c-4.835,5.58-10.786,9.051-16.117,9.051-14.259,0-23.185-9.671-23.185-24.921m32.732,13.886a13.529,13.529,0,0,0,6.57-1.488V36.576a12.293,12.293,0,0,0-10.29-5.7c-6.57,0-10.787,8.184-10.787,21.079,0,12.647,5.705,20.706,14.507,20.706" transform="translate(189.064 0)" fill="#f5f5f5"/>
      <path id="Path_1159" data-name="Path 1159" d="M301.622,53.522c.373,0,.745.124,1.488.124,2.481,6.82,9.051,16.243,18.1,16.243,5.951,0,9.795-3.348,9.795-8.556,0-3.472-4.091-7.315-10.416-9.795-11.157-4.339-18.473-12.028-18.473-18.474,0-10.664,9.918-18.722,26.038-18.722,5.084,0,13.514,1.86,17.358,6.2l-.5,13.638h-1.86c-3.223-6.323-7.192-15.374-14.507-15.746s-11.9,4.091-12.026,8.43c-.126,4.217,6.694,7.068,17.234,11.283,7.811,3.1,12.647,9.92,12.647,16.616,0,11.778-10.292,19.218-26.535,19.218-6.82,0-13.638-2.231-17.731-5.579Z" transform="translate(217.311 10.333)" fill="#f5f5f5"/>
    </g>
  </g>
</svg>
