<svg id="Group_777" data-name="Group 777" xmlns="http://www.w3.org/2000/svg" width="157.139" height="42.729" viewBox="0 0 157.139 42.729">
  <path id="Path_1429" data-name="Path 1429" d="M0,22.939C0,10.061,10.015,1.8,25.755,1.8c6.893,0,13.268,1.821,16.323,4.618l.456,9.691h-.846c-.391-.781-.911-1.691-1.3-2.472A16.631,16.631,0,0,0,25.755,4.4c-8.91,0-14.569,7.219-14.569,18.535,0,11.252,5.659,18.47,14.569,18.47a45.457,45.457,0,0,0,7.349-.65V36.207c0-5.788-1.431-9.755-3.772-10.015l-.65-.066a9.546,9.546,0,0,1-.066-1.235v-.716h18.21v.716a9.676,9.676,0,0,1-.065,1.235l-.651.066c-2.341.26-3.771,4.227-3.771,10.015v4.227c-3.707,2.211-10.211,3.642-16.584,3.642C10.015,44.076,0,35.817,0,22.939" transform="translate(0 -1.802)" fill="#f5f5f5"/>
  <path id="Path_1430" data-name="Path 1430" d="M53.117,43.105a9.676,9.676,0,0,1,.065-1.235l.586-.065c2.471-.26,3.771-4.553,3.771-10.471,0-8.064-.585-9.626-3.771-11.382l-.586-.325a2.951,2.951,0,0,1-.065-.651l11.772-4.813h1.822v9.431C68.726,16.635,75.36,2.522,86.871,2.522a5.124,5.124,0,0,1,5.268,5.4,4.011,4.011,0,0,1-5.2,3.837,16.827,16.827,0,0,0-4.813-.781c-9.3,0-12.943,9.626-15.414,16.389v4.422c0,5.789,1.429,9.756,3.771,10.016l.651.065a9.679,9.679,0,0,1,.065,1.235v.716H53.117Z" transform="translate(-5.182 -1.872)" fill="#f5f5f5"/>
  <path id="Path_1431" data-name="Path 1431" d="M96.128,15.062c8.129,0,13.333,5.983,13.333,15.219l-19.511.325c.845,5.788,4.032,10.341,11.9,9.755,1.691-.13,4.228-1.626,6.374-4.813l1.041.911a16.756,16.756,0,0,1-14.5,8.911C85.788,45.37,80,40.036,80,31.711c0-10.145,6.244-16.649,16.129-16.649M89.755,28.525H97.3c6.5-.26,4.813-10.8-1.691-10.8-3.641,0-5.983,4.357-5.852,10.8" transform="translate(-7.804 -3.096)" fill="#f5f5f5"/>
  <path id="Path_1432" data-name="Path 1432" d="M131.055,28.342V23.269c0-3.317-.911-5.463-2.342-5.463-2.861,0-4.226,3.122-3.64,7.674a17.754,17.754,0,0,1-4.553.716,20.057,20.057,0,0,1-4.682-.716c-.846-6.113,5.463-10.6,14.957-10.276,6.049.2,9.95,3.968,9.95,10.211V36.666c0,2.8.522,4.619,2.537,4.619a2.734,2.734,0,0,0,2.731-1.366l.976,1.235c-1.56,2.862-4.163,4.683-9.95,4.683-2.6,0-4.618-1.17-5.333-3.187a17.284,17.284,0,0,1-8.975,2.862,7.844,7.844,0,0,1-8.064-7.8c0-7.609,10.666-9.106,16.388-9.366m-2.665,12.552a4.807,4.807,0,0,0,2.73-.846l-.065-9.885c-3.577,0-7.219,1.69-7.219,6.048a4.475,4.475,0,0,0,4.554,4.683" transform="translate(-11.186 -3.108)" fill="#f5f5f5"/>
  <path id="Path_1433" data-name="Path 1433" d="M149.117,18.215V17.175c3.122-.651,7.739-5.008,11.642-11.122h1.5v8.455h8.65v3.707h-8.65s-.065,12.812-.065,18.47c0,2.862.715,3.577,3.252,3.577,1.171,0,3.577-.716,5.593-3.642l.651.846c-3.381,6.048-8.52,7.024-10.732,7.024-6.243,0-8.063-1.951-8.063-9.43V18.215Z" transform="translate(-14.547 -2.217)" fill="#f5f5f5"/>
</svg>
