<svg id="Group_758" data-name="Group 758" xmlns="http://www.w3.org/2000/svg" width="246.411" height="57.949" viewBox="0 0 246.411 57.949">
  <path id="Path_1421" data-name="Path 1421" d="M459.309,68.059a9.218,9.218,0,0,1,.064-1.194l.565-.063c2.263-.252,3.645-4.085,3.645-9.678V40.975c0-7.793-.566-9.3-3.645-11l-.565-.314a2.813,2.813,0,0,1-.064-.629l11.374-4.65h1.761v2.891c1.319-1.7,5.027-3.2,9.426-3.2,7.1,0,12.693,6.786,12.316,16.464-.377,8.923-8.295,13.446-15.081,13.446a11.124,11.124,0,0,1-6.661-1.947V56.12c0,5.592,1.382,10.43,3.645,10.682l.628.063a9.231,9.231,0,0,1,.064,1.194v.691H459.309Zm13.134-38.332V43.991a7.334,7.334,0,0,0,.062,1.195v2.136a5.5,5.5,0,0,0,4.526,3.582c4.4.126,7.227-3.143,7.227-8.8,0-8.107-4.274-14.893-9.3-13.888a4.016,4.016,0,0,0-2.514,1.508" transform="translate(-459.309 -10.801)" fill="#f5f5f5"/>
  <path id="Path_1422" data-name="Path 1422" d="M502.121,38.712c0-8.924,6.157-14.642,15.9-14.642,9.613,0,15.773,5.718,15.773,14.642s-6.159,14.641-15.773,14.641c-9.742,0-15.9-5.718-15.9-14.641m15.9,12.568c3.769,0,6.221-4.9,6.221-12.568s-2.451-12.568-6.221-12.568-6.221,4.9-6.221,12.568,2.45,12.568,6.221,12.568" transform="translate(-464.791 -10.801)" fill="#f5f5f5"/>
  <path id="Path_1423" data-name="Path 1423" d="M539.237,26.813V25.808c3.017-.629,7.478-4.839,11.248-10.746h1.446v8.169h8.358v3.582h-8.358s-.063,12.379-.063,17.846c0,2.765.691,3.456,3.142,3.456,1.132,0,3.457-.691,5.4-3.519l.629.817c-3.267,5.844-8.232,6.786-10.369,6.786-6.032,0-7.791-1.885-7.791-9.111V26.813Z" transform="translate(-469.543 -9.648)" fill="#f5f5f5"/>
  <path id="Path_1424" data-name="Path 1424" d="M580.551,24.07c7.855,0,12.882,5.781,12.882,14.7l-18.852.314c.816,5.593,3.9,9.992,11.5,9.426,1.634-.126,4.085-1.571,6.159-4.65l1.005.88a16.189,16.189,0,0,1-14.013,8.609c-8.672,0-14.265-5.152-14.265-13.2,0-9.8,6.033-16.087,15.585-16.087m-6.158,13.008h7.289c6.284-.251,4.65-10.431-1.634-10.431-3.518,0-5.781,4.21-5.655,10.431" transform="translate(-472.837 -10.801)" fill="#f5f5f5"/>
  <path id="Path_1425" data-name="Path 1425" d="M599.058,52.349a9.356,9.356,0,0,1,.063-1.194l.629-.063c2.325-.251,3.645-4.4,3.645-10.117,0-7.792-.566-9.426-3.645-11l-.629-.314a2.853,2.853,0,0,1-.063-.629l11.374-4.65h1.76v4.336c1.633-2.262,5.592-4.65,10.681-4.65,4.965,0,6.787,3.77,6.787,9.677v7.666c0,5.594,1.383,9.427,3.644,9.678l.629.063A9.329,9.329,0,0,1,634,52.349v.691H616.967V51.155l.378-.063c2.262-.378,3.456-4.084,3.456-9.678V34.691c0-3.143-1.571-6.725-4.148-6.725-1.258,0-2.765.943-4.461,3.331V41.414c0,5.594,1.381,9.427,3.644,9.678l.5.063V53.04h-17.28Z" transform="translate(-477.202 -10.801)" fill="#f5f5f5"/>
  <path id="Path_1426" data-name="Path 1426" d="M639.058,25.013c3.016-.628,7.352-4.839,11.123-10.745h1.445v9.363c7.227-1.257,12.254-3.331,12.254-10.495,0-3.2,4.084-4.776,6.535-4.147,3.393.88,3.33,4.964,1.885,7.164-4.462,6.724-14.642,8.8-20.675,9.677v.188s-.062,12.379-.062,17.846c0,2.765.691,3.456,3.141,3.456,1.132,0,3.456-.691,5.4-3.519l.629.817c-3.267,5.844-8.231,6.786-10.369,6.786-6.032,0-7.666-1.885-7.666-9.111V26.018h-3.644ZM661.429,50.4a9.492,9.492,0,0,1,.062-1.194l.629-.063c2.388-.251,3.646-4.4,3.646-10.055,0-7.855-.566-8.672-3.646-10.243l-.629-.314a3.728,3.728,0,0,1-.062-.629l11.5-4.65h1.76V39.466c0,5.594,1.382,9.427,3.645,9.678l.628.063a9.24,9.24,0,0,1,.064,1.194v.691h-17.6Z" transform="translate(-482.324 -8.853)" fill="#f5f5f5"/>
  <path id="Path_1427" data-name="Path 1427" d="M702.1,36.906V32c0-3.205-.88-5.279-2.263-5.279-2.765,0-4.083,3.016-3.518,7.415a17.153,17.153,0,0,1-4.4.691,19.377,19.377,0,0,1-4.524-.691c-.818-5.907,5.279-10.243,14.453-9.929,5.844.189,9.614,3.834,9.614,9.866V44.949c0,2.7.5,4.463,2.451,4.463a2.642,2.642,0,0,0,2.639-1.32l.943,1.194c-1.508,2.765-4.021,4.525-9.614,4.525-2.513,0-4.461-1.131-5.152-3.079a16.7,16.7,0,0,1-8.672,2.765,7.579,7.579,0,0,1-7.792-7.541c0-7.352,10.306-8.8,15.836-9.049m-2.576,12.128a4.648,4.648,0,0,0,2.639-.817l-.063-9.551c-3.456,0-6.975,1.633-6.975,5.844a4.323,4.323,0,0,0,4.4,4.525" transform="translate(-488.368 -10.817)" fill="#f5f5f5"/>
  <path id="Path_1428" data-name="Path 1428" d="M733.233,9.008h1.761V39.486c0,5.593,1.445,9.426,3.644,9.677l.629.063a9.337,9.337,0,0,1,.063,1.194v.691H721.8v-.691a9.346,9.346,0,0,1,.063-1.194l.565-.063c2.263-.251,3.708-4.084,3.708-9.677V25.661c0-7.855-.628-9.363-3.708-11.06l-.565-.314a3.686,3.686,0,0,1-.063-.629Z" transform="translate(-492.918 -8.872)" fill="#f5f5f5"/>
</svg>
