<svg id="Group_756" data-name="Group 756" xmlns="http://www.w3.org/2000/svg" width="241.147" height="z.668" viewBox="0 0 241.147 65.668">
  <path id="Path_1411" data-name="Path 1411" d="M18.726,9.74v.691a9.35,9.35,0,0,1-.063,1.194l-.629.063c-2.136.188-2.074,4.084.189,9.678,2.074,5.341,4.335,10.745,6.473,16.15l9.928-28.4h2.451L49.957,36.07l5.028-15.584C57.624,12.379,63.216,0,75.848,0c2.89,0,5.906,1.319,5.906,4.461,0,2.828-2.01,5.53-4.4,4.839a15.278,15.278,0,0,0-4.273-.629c-10.431,0-15.521,12.5-18.224,20.611L47.7,50.9H45.307L31.671,24.382,22.434,50.9H19.983L7.541,21.366c-2.387-5.594-5.027-9.49-6.912-9.678L0,11.625V9.74Z" transform="translate(0)" fill="#f5f5f5"/>
  <path id="Path_1412" data-name="Path 1412" d="M84.952,36.906V32c0-3.205-.88-5.279-2.263-5.279-2.765,0-4.083,3.016-3.518,7.415a17.154,17.154,0,0,1-4.4.691,19.379,19.379,0,0,1-4.524-.691C69.43,28.234,75.527,23.9,84.7,24.212c5.844.189,9.614,3.834,9.614,9.866V44.949c0,2.7.5,4.463,2.451,4.463a2.642,2.642,0,0,0,2.639-1.32l.943,1.194c-1.508,2.765-4.021,4.525-9.614,4.525-2.513,0-4.461-1.131-5.152-3.079A16.7,16.7,0,0,1,76.908,53.5a7.579,7.579,0,0,1-7.792-7.541c0-7.352,10.306-8.8,15.836-9.049M82.375,49.034a4.648,4.648,0,0,0,2.639-.817l-.063-9.551c-3.456,0-6.975,1.633-6.975,5.844a4.323,4.323,0,0,0,4.4,4.525" transform="translate(-8.85 -3.098)" fill="#f5f5f5"/>
  <path id="Path_1413" data-name="Path 1413" d="M104.577,51.112V50.42a9.479,9.479,0,0,1,.062-1.194l.567-.063c2.261-.251,3.708-4.084,3.708-9.678V25.662c0-7.855-.629-9.363-3.708-11.06l-.567-.314a3.736,3.736,0,0,1-.062-.629l11.437-4.65h1.76v26.33l1.445-1.256c6.347-5.53,9.678-9.363,8.861-9.677-.314-.126-.252-.252-.252-1.257v-.691h10.306v1.885l-.753.064c-2.074.187-6.41,2.7-11.626,6.6l7.29,9.741c3.833,4.9,7.6,8.232,9.866,8.421l.753.063v1.885H125.314V50.42a9.347,9.347,0,0,1,.063-1.194l.314-.063c1.32-.251-.5-4.148-4.776-9.678-1.068-1.382-2.074-2.764-3.142-4.147v4.147c0,5.594,1.445,9.427,3.644,9.678l.629.063a9.352,9.352,0,0,1,.063,1.194v.691Z" transform="translate(-13.39 -1.153)" fill="#f5f5f5"/>
  <path id="Path_1414" data-name="Path 1414" d="M164.125,24.07c7.855,0,12.882,5.781,12.882,14.7l-18.852.314c.816,5.593,3.9,9.992,11.5,9.426,1.634-.126,4.085-1.571,6.159-4.65l1.005.88a16.189,16.189,0,0,1-14.013,8.609c-8.672,0-14.265-5.152-14.265-13.2,0-9.8,6.033-16.087,15.585-16.087m-6.158,13.008h7.289c6.284-.251,4.65-10.431-1.634-10.431-3.518,0-5.781,4.21-5.655,10.431" transform="translate(-19.019 -3.082)" fill="#f5f5f5"/>
  <path id="Path_1415" data-name="Path 1415" d="M196.4,24.431h13.2v18.1c0,2.954,2.011,4.839,6.033,4.839a2.919,2.919,0,0,0,2.262-1.194V36.5c.063-5.656-1.319-9.866-3.645-10.117l-.566-.063a9.349,9.349,0,0,1-.063-1.194v-.691h13.134V36.5c0,7.792.566,9.426,3.644,11l.629.314a2.862,2.862,0,0,1,.063.629l-11.374,4.65h-1.822V47.933c-2.577,3.394-5.593,5.467-9.238,5.467-5.279,0-7.917-3.9-7.917-9.929V36.057c0-5.594-1.383-9.427-3.645-9.678l-.629-.063a9.349,9.349,0,0,1-.063-1.194Z" transform="translate(-25.146 -3.128)" fill="#f5f5f5"/>
  <path id="Path_1416" data-name="Path 1416" d="M236.539,68.059a9.225,9.225,0,0,1,.064-1.194l.565-.063c2.263-.252,3.645-4.085,3.645-9.678V40.975c0-7.793-.566-9.3-3.645-11l-.565-.314a2.815,2.815,0,0,1-.064-.629l11.374-4.65h1.761v2.891c1.319-1.7,5.027-3.2,9.426-3.2,7.1,0,12.693,6.786,12.316,16.464-.377,8.923-8.295,13.446-15.081,13.446a11.124,11.124,0,0,1-6.661-1.947V56.12c0,5.592,1.382,10.43,3.645,10.682l.628.063a9.218,9.218,0,0,1,.064,1.194v.691H236.539Zm13.134-38.332V43.991a7.335,7.335,0,0,0,.062,1.195v2.136a5.5,5.5,0,0,0,4.525,3.582c4.4.126,7.227-3.143,7.227-8.8,0-8.107-4.274-14.893-9.3-13.888a4.016,4.016,0,0,0-2.514,1.508" transform="translate(-30.286 -3.082)" fill="#f5f5f5"/>
</svg>
