<svg id="Group_757" data-name="Group 757" xmlns="http://www.w3.org/2000/svg" width="143.443" height="45.685" viewBox="0 0 143.443 45.685">
  <path id="Path_1417" data-name="Path 1417" d="M279.994,59.056a4.2,4.2,0,0,1,3.833-2.387,6.54,6.54,0,0,1,3.644,1.256c4.4,3.016,7.982,4.776,11.249,4.776,4.335,0,7.98-3.08,12-10.368l-8.8-16.275c-3.017-5.53-6.472-9.427-8.861-9.678l-.628-.063V24.431h17.721v.691c0,1.194.126,1.194-.5,1.256-1.508.315-.566,4.084,2.513,9.678,1.319,2.387,2.7,4.9,3.959,7.352l3.331-7.352c2.514-5.594,3.142-9.363,1.508-9.678-.628-.063-.5-.063-.5-1.256v-.691h10.62v1.885l-.691.063c-2.388.188-5.719,4.148-8.547,9.678l-8.168,16.15C309.026,62.763,301.548,69.8,292.625,69.8a20.624,20.624,0,0,1-9.489-2.513c-3.394-1.76-4.336-5.969-3.142-8.232" transform="translate(-279.5 -24.116)" fill="#f5f5f5"/>
  <path id="Path_1418" data-name="Path 1418" d="M335.922,38.712c0-8.924,6.158-14.642,15.9-14.642,9.614,0,15.773,5.718,15.773,14.642s-6.159,14.641-15.773,14.641c-9.741,0-15.9-5.718-15.9-14.641m15.9,12.568c3.77,0,6.222-4.9,6.222-12.568s-2.451-12.568-6.222-12.568-6.221,4.9-6.221,12.568S348.05,51.28,351.82,51.28" transform="translate(-286.724 -24.07)" fill="#f5f5f5"/>
  <path id="Path_1419" data-name="Path 1419" d="M373.544,24.431h13.2v18.1c0,2.954,2.011,4.839,6.033,4.839a2.92,2.92,0,0,0,2.262-1.194V36.5c.063-5.656-1.319-9.866-3.645-10.117l-.566-.063a9.347,9.347,0,0,1-.063-1.194v-.691H403.9V36.5c0,7.792.565,9.426,3.644,11l.629.314a2.862,2.862,0,0,1,.063.629l-11.374,4.65h-1.822V47.933c-2.577,3.394-5.593,5.467-9.238,5.467-5.279,0-7.917-3.9-7.917-9.929V36.057c0-5.594-1.383-9.427-3.645-9.678l-.629-.063a9.356,9.356,0,0,1-.063-1.194Z" transform="translate(-291.542 -24.116)" fill="#f5f5f5"/>
  <path id="Path_1420" data-name="Path 1420" d="M413.688,52.395a9.483,9.483,0,0,1,.062-1.194l.566-.063c2.387-.251,3.644-4.4,3.644-10.117,0-7.792-.565-9.3-3.644-11l-.566-.314a2.891,2.891,0,0,1-.062-.629l11.373-4.65h1.76v9.175c1.194-2.891,3.707-8.232,7.478-8.923,3.581-.629,5.215,1.382,5.781,4.713.377,2.639-1.76,4.776-3.143,4.273-1.571-.566-3.016-1.822-4.777-1.822-1.508,0-3.2.943-5.34,4.085V41.46c0,5.594,1.381,9.427,3.644,9.678l.629.063a9.347,9.347,0,0,1,.063,1.194v.691H413.688Z" transform="translate(-296.682 -24.116)" fill="#f5f5f5"/>
</svg>
