<svg id="Group_483" data-name="Group 483" xmlns="http://www.w3.org/2000/svg" xmlns:xlink="http://www.w3.org/1999/xlink" width="888.546" height="199.473" viewBox="0 0 888.546 199.473">
  <defs>
    <clipPath id="clip-path">
      <rect id="Rectangle_851" data-name="Rectangle 851" width="888.546" height="199.473" fill="#f5f5f5"/>
    </clipPath>
  </defs>
  <g id="Group_482" data-name="Group 482" transform="translate(0 0)" clip-path="url(#clip-path)">
    <path id="Path_1171" data-name="Path 1171" d="M102.089,2.162h42.368c19.91,0,32.655,7.89,32.655,20.273,0,8.619-7.4,15.052-19.787,17.967,16.511,2.063,25.371,8.983,25.371,18.816,0,12.625-13.11,20.638-35.2,20.638h-45.4V78.519a18.061,18.061,0,0,1,.121-2.306l1.215-.121c4.371-.487,7.043-7.892,7.043-18.7V24.619c0-10.8-2.672-18.209-7.043-18.694L102.21,5.8a18.094,18.094,0,0,1-.121-2.306Zm39.332,36.9c10.319,0,16.754-6.433,16.754-16.631,0-9.347-5.341-15.416-13.718-15.416H129.526V39.065ZM129.526,75H145.55c11.168,0,17.237-6.19,17.237-15.782s-8.011-15.661-22.579-15.661H129.526Z" transform="translate(69.877 1.48)" fill="#f5f5f5"/>
    <path id="Path_1172" data-name="Path 1172" d="M182.287,15.062c15.174,0,24.886,11.168,24.886,28.407l-36.418.606c1.577,10.8,7.526,19.3,22.215,18.209,3.157-.243,7.892-3.035,11.9-8.983l1.942,1.7c-6.192,12.019-18.573,16.631-27.071,16.631-16.752,0-27.558-9.954-27.558-25.493,0-18.937,11.655-31.077,30.107-31.077m-11.9,25.129h14.081c12.14-.485,8.983-20.151-3.157-20.151-6.8,0-11.168,8.133-10.924,20.151" transform="translate(104.163 10.309)" fill="#f5f5f5"/>
    <path id="Path_1173" data-name="Path 1173" d="M187.063,57.541c0-19.668,11.411-32.17,29.256-32.17a15.659,15.659,0,0,1,9.224,3.157C225.3,16.509,223.966,13.6,218.5,10.8l-1.214-.608a5.5,5.5,0,0,1-.121-1.213L239.142,0h3.4V49.286c0,15.052,1.215,17.967,7.162,21.245l1.093.606a5.528,5.528,0,0,1,.121,1.215l-21.972,8.983h-3.4V73.079c-4.733,5.463-10.56,8.862-15.78,8.862-13.961,0-22.7-9.468-22.7-24.4m32.047,13.6a13.245,13.245,0,0,0,6.433-1.457V35.81a12.036,12.036,0,0,0-10.075-5.584c-6.433,0-10.562,8.013-10.562,20.638,0,12.383,5.586,20.273,14.2,20.273" transform="translate(128.039 0)" fill="#f5f5f5"/>
    <path id="Path_1174" data-name="Path 1174" d="M226.27,52.7c.366,0,.729.121,1.457.121,2.429,6.677,8.862,15.9,17.724,15.9,5.827,0,9.59-3.278,9.59-8.377,0-3.4-4.006-7.162-10.2-9.59-10.924-4.248-18.086-11.776-18.086-18.088,0-10.44,9.711-18.33,25.493-18.33,4.978,0,13.232,1.821,16.995,6.069l-.485,13.353h-1.821c-3.155-6.19-7.041-15.052-14.2-15.416S241.082,22.352,240.96,26.6c-.123,4.129,6.554,6.92,16.873,11.047,7.647,3.035,12.383,9.713,12.383,16.269,0,11.532-10.076,18.816-25.98,18.816-6.677,0-13.353-2.185-17.36-5.463Z" transform="translate(154.875 9.816)" fill="#f5f5f5"/>
    <path id="Path_1175" data-name="Path 1175" d="M268.505,57.541c0-19.668,11.411-32.17,29.256-32.17a15.659,15.659,0,0,1,9.224,3.157c-.241-12.019-1.577-14.933-7.039-17.724l-1.214-.608a5.5,5.5,0,0,1-.121-1.213L320.584,0h3.4V49.286c0,15.052,1.214,17.967,7.162,21.245l1.093.606a5.528,5.528,0,0,1,.121,1.215l-21.972,8.983h-3.4V73.079c-4.733,5.463-10.56,8.862-15.78,8.862-13.961,0-22.7-9.468-22.7-24.4m32.047,13.6a13.245,13.245,0,0,0,6.433-1.457V35.81a12.036,12.036,0,0,0-10.075-5.584c-6.433,0-10.562,8.013-10.562,20.638,0,12.383,5.586,20.273,14.2,20.273" transform="translate(183.784 0)" fill="#f5f5f5"/>
    <path id="Path_1176" data-name="Path 1176" d="M307.784,43.348c0-17.239,11.9-28.286,30.713-28.286,18.573,0,30.47,11.047,30.47,28.286s-11.9,28.284-30.47,28.284c-18.817,0-30.713-11.047-30.713-28.284M338.5,67.626c7.284,0,12.019-9.468,12.019-24.278s-4.735-24.28-12.019-24.28-12.019,9.468-12.019,24.28,4.735,24.278,12.019,24.278" transform="translate(210.669 10.309)" fill="#f5f5f5"/>
    <path id="Path_1177" data-name="Path 1177" d="M388.2,35.578c0-6.071-3.034-12.989-8.011-12.989-2.427,0-5.341,1.821-8.619,6.433V48.567c0,10.8,2.672,18.209,6.92,18.7l1.093.12v3.642H346.2V69.688a17.848,17.848,0,0,1,.123-2.306l1.092-.12c4.612-.487,7.162-8.5,7.162-19.545,0-15.054-1.214-17.967-7.162-21.245l-1.092-.608a5.429,5.429,0,0,1-.123-1.213l21.972-8.983h3.4v8.375c3.157-4.37,10.8-8.983,20.638-8.983,9.59,0,13.11,7.285,13.11,18.7V55.85c0,10.319.243,13.353.243,14.567,0,3.884.364,15.3,5.22,16.873,6.19,2.065,10.2-4.127,13.11-7.284a6.61,6.61,0,0,1,4.978-2.063c3.4,0,6.92,2.185,7.4,5.705.851,6.435-3.157,10.319-9.347,11.9a35.556,35.556,0,0,1-8.134.972c-5.582,0-11.289-1.336-15.538-4.127-3.278-2.186-15.054-8.256-15.054-26.707Z" transform="translate(236.962 10.309)" fill="#f5f5f5"/>
    <path id="Path_1178" data-name="Path 1178" d="M396.529,21.225c-5.341,0-9.1-4.127-9.1-9.832,0-5.828,3.642-9.591,9.347-9.591,7.284,0,11.047,6.92,11.047,13.6,0,12.017-6.554,22.215-17,26.22l-.726-2.063c6.189-2.306,10.681-9.832,9.954-18.937a12.642,12.642,0,0,1-3.521.606" transform="translate(265.18 1.233)" fill="#f5f5f5"/>
    <path id="Path_1179" data-name="Path 1179" d="M400.4,28.755V26.812c5.828-1.215,14.446-9.347,21.73-20.759h2.793V21.835h16.146v6.92H424.919s-.121,23.914-.121,34.476c0,5.341,1.334,6.677,6.069,6.677,2.186,0,6.677-1.336,10.44-6.8l1.214,1.578c-6.312,11.289-15.9,13.11-20.032,13.11-11.653,0-15.051-3.642-15.051-17.6V28.755Z" transform="translate(274.059 4.143)" fill="#f5f5f5"/>
    <path id="Path_1180" data-name="Path 1180" d="M0,124.689a18.313,18.313,0,0,1,.12-2.306l1.095-.121c4.612-.485,7.162-8.5,7.162-19.545,0-15.052-1.215-17.967-7.162-21.245L.12,80.866A5.583,5.583,0,0,1,0,79.652l21.972-8.983h3.4v8.377c3.157-4.37,10.8-8.983,20.636-8.983,7.041,0,10.806,3.884,12.261,10.562,4.248-4.492,14.082-10.562,23.064-10.562,9.591,0,13.112,7.284,13.112,18.694v14.81c0,10.806,2.67,18.211,7.041,18.7l1.215.121v3.642H68.829v-3.642l1.459-.121c4.37-.364,7.039-7.89,7.039-18.7V90.579c0-5.95-3.4-12.384-8.5-12.384-2.912,0-6.312,1.944-9.832,7.285a29.182,29.182,0,0,1,.123,3.276v14.81c0,10.806,2.67,18.332,7.039,18.7l1.578.121v3.642H34.84v-3.642l.606-.121c4.371-.851,6.556-7.89,6.556-18.7V90.579c0-6.071-3.035-12.991-8.011-12.991-2.429,0-5.341,1.821-8.619,6.435v19.543c0,10.806,2.791,18.211,7.161,18.7l1.215.121v3.642H0Z" transform="translate(0 47.955)" fill="#f5f5f5"/>
    <path id="Path_1181" data-name="Path 1181" d="M93,94.74V85.272c0-6.192-1.7-10.2-4.371-10.2-5.341,0-7.888,5.827-6.8,14.325a33.138,33.138,0,0,1-8.5,1.336A37.437,37.437,0,0,1,64.6,89.4c-1.58-11.411,10.2-19.787,27.92-19.181,11.289.366,18.573,7.407,18.573,19.06v21c0,5.222.972,8.621,4.735,8.621,2.791,0,4.248-.972,5.1-2.55l1.821,2.306c-2.912,5.341-7.769,8.741-18.573,8.741-4.855,0-8.618-2.185-9.954-5.948-4.127,2.67-10.319,5.341-16.754,5.341a14.641,14.641,0,0,1-15.052-14.567c0-14.2,19.909-17,30.592-17.481m-4.976,23.429a8.978,8.978,0,0,0,5.1-1.578L93,98.139c-6.677,0-13.474,3.155-13.474,11.289a8.351,8.351,0,0,0,8.5,8.741" transform="translate(42.72 48.041)" fill="#f5f5f5"/>
    <path id="Path_1182" data-name="Path 1182" d="M97.417,132.693l1.215-.121c4.37-.485,7.039-7.89,7.039-18.694V87.17c0-15.175-1.092-18.33-7.039-21.366L97.417,65.2a7.123,7.123,0,0,1-.121-1.215L119.39,55h3.521v50.864l2.672-2.427C137.6,92.511,144.155,85.47,142.7,84.743c-.485-.244-.364-.487-.364-2.429V80.978h19.909V84.62l-1.578.123c-4.006.364-12.019,5.218-21.972,12.746,4.006,8.86,28.286,52.2,39.454,52.806,11.774.606,4.491-11.534,13.232-11.289,8.618-.608,7.647,8.133,3.642,11.774-4.855,4.371-12.017,6.8-19.545,6.8-8.862,0-18.209-3.4-24.4-10.562-11.168-11.532-19.06-27.314-28.164-40.911v7.77c0,10.8,2.672,18.209,7.041,18.694l1.093.121a18.063,18.063,0,0,1,.121,2.306v1.336H97.3V135a18.063,18.063,0,0,1,.121-2.306" transform="translate(66.596 37.646)" fill="#f5f5f5"/>
    <path id="Path_1183" data-name="Path 1183" d="M166.538,70.062c15.174,0,24.886,11.168,24.886,28.407l-36.418.606c1.577,10.8,7.526,19.3,22.215,18.209,3.157-.243,7.892-3.035,11.9-8.983l1.942,1.7c-6.192,12.019-18.573,16.631-27.071,16.631-16.752,0-27.558-9.954-27.558-25.493,0-18.937,11.655-31.077,30.107-31.077m-11.9,25.129h14.08c12.14-.485,8.983-20.151-3.157-20.151-6.8,0-11.168,8.133-10.924,20.151" transform="translate(93.383 47.955)" fill="#f5f5f5"/>
    <path id="Path_1184" data-name="Path 1184" d="M183.782,83.755V81.812c5.828-1.215,14.446-9.347,21.73-20.759H208.3V76.835H224.45v6.92H208.3s-.121,23.914-.121,34.476c0,5.341,1.334,6.677,6.069,6.677,2.186,0,6.677-1.336,10.44-6.8l1.214,1.578c-6.313,11.289-15.9,13.11-20.032,13.11-11.653,0-15.051-3.642-15.051-17.6V83.755Z" transform="translate(125.793 41.789)" fill="#f5f5f5"/>
    <path id="Path_1185" data-name="Path 1185" d="M230.693,55h3.4V88.747c3.4-4.248,10.8-8.377,20.151-8.377,9.59,0,13.11,7.285,13.11,18.7v14.81c0,10.8,2.672,18.209,7.041,18.7l1.213.121a17.816,17.816,0,0,1,.123,2.306v1.336H208.963v-3.642l1.092-.121c4.371-.487,7.041-7.892,7.041-18.7V87.048c0-15.052-1.215-17.967-7.162-21.243l-1.092-.608a5.436,5.436,0,0,1-.123-1.215ZM242.225,88.02c-2.306,0-5.1,1.578-8.133,5.705v20.151c0,10.8,2.791,18.209,7.041,18.7l1.092.121h.366l.606-.121c4.37-.851,7.041-7.892,7.041-18.7V100.887c0-5.948-3.035-12.868-8.013-12.868" transform="translate(142.862 37.645)" fill="#f5f5f5"/>
    <path id="Path_1186" data-name="Path 1186" d="M280.482,70.062c15.174,0,24.886,11.168,24.886,28.407l-36.418.606c1.577,10.8,7.526,19.3,22.215,18.209,3.157-.243,7.892-3.035,11.9-8.983l1.942,1.7c-6.19,12.019-18.573,16.631-27.071,16.631-16.752,0-27.558-9.954-27.558-25.493,0-18.937,11.655-31.077,30.106-31.077M268.588,95.191h14.079c12.14-.485,8.983-20.151-3.157-20.151-6.8,0-11.168,8.133-10.922,20.151" transform="translate(171.375 47.955)" fill="#f5f5f5"/>
    <path id="Path_1187" data-name="Path 1187" d="M361.769,90.578c0-5.827-3.155-12.261-7.89-12.261-2.914,0-6.313,2.306-10.076,8.256v16.995c0,10.8,2.672,18.33,7.043,18.7l1.577.12v3.642h-32.9v-3.642l.606-.12c4.371-.851,6.556-7.892,6.556-18.7V90.578c0-6.071-3.035-12.989-8.013-12.989-2.426,0-5.341,1.821-8.618,6.433v19.545c0,10.8,2.791,18.33,7.039,18.7l1.336.12v3.642H284.683v-1.336a17.853,17.853,0,0,1,.123-2.306l1.091-.12c4.614-.487,7.162-8.5,7.162-19.545,0-15.054-1.215-17.967-7.162-21.245l-1.091-.608a5.431,5.431,0,0,1-.123-1.213l21.974-8.983h3.4v8.375c3.157-4.37,10.8-8.983,20.636-8.983,7.162,0,10.925,4.007,12.383,10.8,4.369-6.19,13.718-10.8,22.7-10.8,9.59,0,13.11,7.285,13.11,18.7V110.85c0,10.319.243,13.353.243,14.567,0,3.884.364,15.3,5.22,16.873,6.19,2.065,10.2-4.127,13.11-7.284a6.608,6.608,0,0,1,4.978-2.063c3.4,0,6.92,2.185,7.4,5.705.97,6.435-3.157,10.319-9.347,11.9a35.556,35.556,0,0,1-8.134.972c-5.582,0-11.168-1.215-15.538-4.127-3.278-2.186-15.054-8.256-15.054-26.707Z" transform="translate(194.857 47.955)" fill="#f5f5f5"/>
    <path id="Path_1188" data-name="Path 1188" d="M346.737,107.7c.366,0,.729.121,1.457.121,2.429,6.677,8.862,15.9,17.724,15.9,5.827,0,9.59-3.278,9.59-8.377,0-3.4-4.006-7.162-10.2-9.59-10.924-4.248-18.086-11.776-18.086-18.088,0-10.44,9.711-18.33,25.493-18.33,4.978,0,13.232,1.821,16.995,6.069l-.485,13.353h-1.821c-3.155-6.19-7.041-15.052-14.2-15.416s-11.653,4.006-11.774,8.254c-.123,4.129,6.554,6.92,16.873,11.047,7.648,3.035,12.383,9.713,12.383,16.269,0,11.532-10.076,18.816-25.98,18.816-6.677,0-13.353-2.185-17.36-5.463Z" transform="translate(237.331 47.462)" fill="#f5f5f5"/>
    <path id="Path_1189" data-name="Path 1189" d="M405.168,70.062c15.174,0,24.886,11.168,24.886,28.407l-36.418.606c1.577,10.8,7.526,19.3,22.215,18.209,3.157-.243,7.892-3.035,11.9-8.983l1.942,1.7c-6.192,12.019-18.573,16.631-27.071,16.631-16.752,0-27.558-9.954-27.558-25.493,0-18.937,11.655-31.077,30.106-31.077m-11.9,25.129h14.08c12.14-.485,8.983-20.151-3.157-20.151-6.8,0-11.168,8.133-10.924,20.151" transform="translate(256.719 47.955)" fill="#f5f5f5"/>
    <path id="Path_1190" data-name="Path 1190" d="M431.461,55h3.4v58.877c0,10.8,2.791,18.209,7.039,18.694l1.215.121a18.072,18.072,0,0,1,.121,2.306v1.336h-33.87V135a18.063,18.063,0,0,1,.121-2.306l1.092-.121c4.371-.485,7.162-7.89,7.162-18.694V87.17c0-15.175-1.213-18.088-7.162-21.366l-1.092-.606a7.123,7.123,0,0,1-.121-1.215Z" transform="translate(280.2 37.646)" fill="#f5f5f5"/>
    <path id="Path_1191" data-name="Path 1191" d="M425.081,81.374h36.54V82.71a18.054,18.054,0,0,1-.121,2.306l-1.214.121c-4.127.364-3.157,7.89,2.793,18.7,2.549,4.612,4.37,8.618,6.92,13.353l5.948-11.411c3.278-7.769,21.366-50.864,45.4-51.351,5.586-.121,11.412,2.55,11.412,8.619,0,5.463-3.886,10.683-8.5,9.347A25.727,25.727,0,0,0,517.1,71.3c-17.481,0-28.649,18.816-35.327,32.534L465.02,137.944h-3.276l-18.452-34.111c-1.215-2.55-4.979-7.77-6.315-9.955-3.883-5.463-8.618-8.5-11.9-8.862Z" transform="translate(290.955 37.249)" fill="#f5f5f5"/>
    <path id="Path_1192" data-name="Path 1192" d="M496.483,70.062c15.174,0,24.888,11.168,24.888,28.407l-36.42.606c1.577,10.8,7.526,19.3,22.215,18.209,3.157-.243,7.892-3.035,11.9-8.983l1.944,1.7c-6.192,12.019-18.573,16.631-27.073,16.631-16.752,0-27.556-9.954-27.556-25.493,0-18.937,11.653-31.077,30.1-31.077M484.589,95.191h14.079c12.14-.485,8.983-20.151-3.157-20.151-6.8,0-11.168,8.133-10.922,20.151" transform="translate(319.222 47.955)" fill="#f5f5f5"/>
    <path id="Path_1193" data-name="Path 1193" d="M501.4,107.7c.366,0,.729.121,1.457.121,2.429,6.677,8.862,15.9,17.724,15.9,5.828,0,9.59-3.278,9.59-8.377,0-3.4-4.006-7.162-10.2-9.59-10.924-4.248-18.086-11.776-18.086-18.088,0-10.44,9.711-18.33,25.493-18.33,4.978,0,13.231,1.821,16.995,6.069l-.485,13.353h-1.821c-3.155-6.19-7.041-15.052-14.2-15.416s-11.653,4.006-11.774,8.254c-.123,4.129,6.554,6.92,16.873,11.047,7.647,3.035,12.382,9.713,12.382,16.269,0,11.532-10.076,18.816-25.98,18.816-6.677,0-13.353-2.185-17.36-5.463Z" transform="translate(343.196 47.462)" fill="#f5f5f5"/>
  </g>
</svg>
