<svg xmlns="http://www.w3.org/2000/svg" xmlns:xlink="http://www.w3.org/1999/xlink" width="893.877" height="115.85" viewBox="0 0 893.877 115.85">
  <defs>
    <clipPath id="clip-path">
      <rect id="Rectangle_776" data-name="Rectangle 776" width="893.877" height="115.85" fill="#f5f5f5"/>
    </clipPath>
  </defs>
  <g id="Group_447" data-name="Group 447" transform="translate(0 0)">
    <g id="Group_446" data-name="Group 446" transform="translate(0 0)" clip-path="url(#clip-path)">
      <path id="Path_779" data-name="Path 779" d="M41.571,2.162c29.849,0,48.97,15.419,48.97,39.474S73.272,81.108,46.134,81.108H0V79.751a18.387,18.387,0,0,1,.123-2.343l1.232-.123c4.442-.493,7.155-8.017,7.155-19V24.983C8.51,14,5.8,6.48,1.356,5.986L.123,5.863A18.354,18.354,0,0,1,0,3.519V2.162ZM27.878,7.1V76.174H46.134c15.419,0,25.165-13.445,25.165-34.538S59.7,7.1,41.571,7.1Z" transform="translate(0 1.538)" fill="#f5f5f5"/>
      <path id="Path_780" data-name="Path 780" d="M55.351,70.315a18.354,18.354,0,0,1,.123-2.343l1.111-.123c4.687-.493,7.155-8.635,7.155-19.86,0-15.3-1.111-18.256-7.155-21.587l-1.111-.616a5.6,5.6,0,0,1-.123-1.234l22.327-9.128h3.454v18.01c2.345-5.674,7.278-16.16,14.679-17.515,7.031-1.234,10.239,2.713,11.35,9.251.739,5.179-3.456,9.375-6.169,8.387-3.084-1.111-5.921-3.577-9.375-3.577-2.961,0-6.29,1.85-10.486,8.019V48.851c0,10.98,2.713,18.5,7.155,19l1.234.123a18.355,18.355,0,0,1,.123,2.343v1.357H55.351Z" transform="translate(39.391 10.974)" fill="#f5f5f5"/>
      <path id="Path_781" data-name="Path 781" d="M117.8,15.062c15.419,0,25.286,11.348,25.286,28.865l-37.006.616c1.6,10.979,7.649,19.614,22.575,18.5,3.206-.246,8.017-3.084,12.088-9.128l1.974,1.727c-6.29,12.213-18.873,16.9-27.508,16.9-17.022,0-28-10.116-28-25.906,0-19.242,11.841-31.578,30.592-31.578M105.71,40.6h14.309c12.336-.493,9.128-20.476-3.208-20.476-6.907,0-11.348,8.264-11.1,20.476" transform="translate(62.061 10.718)" fill="#f5f5f5"/>
      <path id="Path_782" data-name="Path 782" d="M152.959,40.137V30.516c0-6.292-1.727-10.362-4.442-10.362-5.428,0-8.017,5.921-6.907,14.556a33.685,33.685,0,0,1-8.635,1.357,38.055,38.055,0,0,1-8.882-1.357c-1.6-11.6,10.362-20.107,28.372-19.491,11.472.37,18.873,7.526,18.873,19.367V55.926c0,5.306.988,8.76,4.81,8.76,2.838,0,4.319-.988,5.181-2.591l1.85,2.343c-2.959,5.428-7.894,8.882-18.873,8.882-4.935,0-8.758-2.22-10.116-6.044C150,69.988,143.708,72.7,137.169,72.7a14.877,14.877,0,0,1-15.3-14.8c0-14.433,20.23-17.271,31.085-17.764M147.9,63.945a9.132,9.132,0,0,0,5.181-1.6l-.123-18.749c-6.785,0-13.693,3.206-13.693,11.471a8.487,8.487,0,0,0,8.635,8.882" transform="translate(86.732 10.808)" fill="#f5f5f5"/>
      <path id="Path_783" data-name="Path 783" d="M157.333,70.571a18.351,18.351,0,0,1,.123-2.343l1.111-.123c4.687-.493,7.278-8.635,7.278-19.86,0-15.3-1.234-18.256-7.278-21.587l-1.111-.616a5.6,5.6,0,0,1-.123-1.234l22.327-9.128h3.454V24.19c3.208-4.44,10.979-9.128,20.969-9.128,7.156,0,10.98,3.947,12.459,10.732,4.318-4.565,14.309-10.732,23.438-10.732,9.746,0,13.322,7.4,13.322,19V49.107c0,10.98,2.715,18.5,7.156,19l1.232.123v3.7H227.274v-3.7l1.481-.123c4.44-.37,7.155-8.017,7.155-19v-13.2c0-6.044-3.454-12.582-8.635-12.582-2.959,0-6.414,1.975-9.991,7.4a30.065,30.065,0,0,1,.123,3.329V49.107c0,10.98,2.713,18.628,7.155,19l1.6.123v3.7H192.737v-3.7l.616-.123c4.44-.864,6.662-8.017,6.662-19v-13.2c0-6.167-3.084-13.2-8.142-13.2-2.466,0-5.428,1.85-8.758,6.539V49.107c0,10.98,2.838,18.5,7.278,19l1.234.123v3.7H157.333Z" transform="translate(111.966 10.718)" fill="#f5f5f5"/>
      <path id="Path_784" data-name="Path 784" d="M220.108,53.321c.37,0,.739.123,1.481.123,2.466,6.785,9,16.16,18.01,16.16,5.921,0,9.744-3.331,9.744-8.512,0-3.454-4.07-7.278-10.362-9.744-11.1-4.317-18.38-11.966-18.38-18.38,0-10.609,9.869-18.626,25.9-18.626,5.058,0,13.445,1.85,17.271,6.167l-.493,13.568h-1.85c-3.208-6.29-7.156-15.3-14.434-15.665s-11.841,4.07-11.964,8.387c-.123,4.2,6.662,7.031,17.146,11.225,7.771,3.084,12.582,9.869,12.582,16.531,0,11.718-10.239,19.119-26.4,19.119-6.785,0-13.57-2.22-17.64-5.551Z" transform="translate(156.64 10.206)" fill="#f5f5f5"/>
      <path id="Path_785" data-name="Path 785" d="M273.58,86.491c-5.8-2.59-9.253-7.153-9.253-12.829,0-6.167,2.838-9.744,7.278-11.964-5.921-3.454-9.375-8.882-9.375-15.667,0-12.211,11.1-21.218,26.645-21.218a33.546,33.546,0,0,1,18.01,4.935c4.317-8.635,13.815-25.409,28.617-28,9.746-1.727,15.174,2.591,15.42,7.4.493,5.674-4.688,11.843-11.6,9.746a26.634,26.634,0,0,0-7.771-1.234c-10.486,0-17.022,7.278-22.2,13.938,4.44,3.7,7.155,8.635,7.155,14.433,0,12.089-12.336,19.86-27.631,19.86a38.323,38.323,0,0,1-11.718-1.727,5.1,5.1,0,0,0-.988,3.331c0,2.59,2.838,4.317,7.155,4.565,0,0,11.595.122,13.2.246,13.568.986,24.054,8.141,24.672,17.639,1.109,17.024-17.394,25.411-36.02,24.918-10.239-.246-23.068-4.935-23.684-15.051C261,91.8,266.054,87.725,273.58,86.491m12.952,23.931c13.322,0,21.339-4.317,19.859-12.952-.986-5.921-7.03-7.648-15.79-8.264-4.81-.371-7.894,0-11.718-.864-3.577.741-5.8,3.577-5.8,9.993,0,5.8,4.442,12.088,13.447,12.088m-8.019-64.391c0,9.5,4.688,15.79,10.362,15.79s11.471-6.292,11.471-15.79c0-9.621-5.8-17.022-11.471-17.022s-10.362,7.4-10.362,17.022" transform="translate(186.067 0.967)" fill="#f5f5f5"/>
      <path id="Path_786" data-name="Path 786" d="M329.114,15.062c15.419,0,25.286,11.348,25.286,28.865l-37.006.616c1.6,10.979,7.649,19.614,22.575,18.5,3.206-.246,8.017-3.084,12.088-9.128l1.973,1.727c-6.29,12.213-18.873,16.9-27.508,16.9-17.022,0-28-10.116-28-25.906,0-19.242,11.841-31.578,30.592-31.578M317.025,40.6h14.309c12.336-.493,9.128-20.476-3.208-20.476-6.906,0-11.348,8.264-11.1,20.476" transform="translate(212.444 10.718)" fill="#f5f5f5"/>
      <path id="Path_787" data-name="Path 787" d="M331.748,29.121V27.147c5.921-1.234,14.679-9.5,22.08-21.094h2.838V22.089h16.406v7.031H356.666s-.125,24.3-.125,35.032c0,5.428,1.357,6.785,6.169,6.785,2.22,0,6.785-1.357,10.609-6.908l1.232,1.6c-6.414,11.471-16.16,13.322-20.353,13.322-11.841,0-15.3-3.7-15.3-17.885V29.121Z" transform="translate(236.089 4.307)" fill="#f5f5f5"/>
      <path id="Path_788" data-name="Path 788" d="M371.388,58.471c0-19.985,11.595-32.689,29.728-32.689a15.921,15.921,0,0,1,9.375,3.208c-.247-12.213-1.6-15.174-7.155-18.01l-1.234-.618a5.59,5.59,0,0,1-.123-1.232L424.305,0h3.454V50.082c0,15.3,1.234,18.256,7.278,21.587l1.111.616a5.6,5.6,0,0,1,.123,1.234l-22.329,9.128h-3.452V74.259c-4.811,5.551-10.732,9-16.036,9-14.186,0-23.066-9.621-23.066-24.793m32.564,13.815a13.476,13.476,0,0,0,6.539-1.481V36.389a12.235,12.235,0,0,0-10.239-5.674c-6.537,0-10.732,8.142-10.732,20.971,0,12.582,5.674,20.6,14.433,20.6" transform="translate(264.299 0)" fill="#f5f5f5"/>
      <path id="Path_789" data-name="Path 789" d="M410.666,43.8c0-17.517,12.089-28.742,31.209-28.742,18.873,0,30.962,11.225,30.962,28.742s-12.089,28.74-30.962,28.74c-19.119,0-31.209-11.225-31.209-28.74m31.209,24.67c7.4,0,12.213-9.621,12.213-24.67s-4.811-24.672-12.213-24.672S429.664,28.753,429.664,43.8s4.81,24.67,12.211,24.67" transform="translate(292.251 10.718)" fill="#f5f5f5"/>
      <path id="Path_790" data-name="Path 790" d="M491.761,35.91c0-6.169-3.084-13.2-8.141-13.2-2.468,0-5.428,1.85-8.759,6.537v19.86c0,10.979,2.713,18.5,7.03,19l1.111.122v3.7H449.081V70.573a18.4,18.4,0,0,1,.123-2.345l1.109-.122c4.688-.495,7.278-8.635,7.278-19.86,0-15.3-1.232-18.256-7.278-21.587l-1.109-.618a5.59,5.59,0,0,1-.123-1.232l22.327-9.128h3.454v8.51c3.206-4.44,10.979-9.128,20.969-9.128,9.744,0,13.323,7.4,13.323,19V56.51c0,10.486.246,13.568.246,14.8,0,3.947.37,15.544,5.3,17.147,6.292,2.1,10.362-4.2,13.323-7.4a6.714,6.714,0,0,1,5.058-2.1c3.452,0,7.03,2.222,7.524,5.8.863,6.537-3.208,10.484-9.5,12.088a36.127,36.127,0,0,1-8.264.988c-5.674,0-11.473-1.357-15.788-4.2-3.331-2.22-15.3-8.387-15.3-27.137Z" transform="translate(319.589 10.718)" fill="#f5f5f5"/>
      <path id="Path_791" data-name="Path 791" d="M520.177,15.062c15.419,0,25.286,11.348,25.286,28.865l-37.006.616c1.6,10.979,7.649,19.614,22.575,18.5,3.206-.246,8.017-3.084,12.088-9.128l1.974,1.727c-6.29,12.213-18.873,16.9-27.508,16.9-17.022,0-28-10.116-28-25.906,0-19.242,11.841-31.578,30.592-31.578M508.088,40.6H522.4c12.336-.493,9.128-20.476-3.208-20.476-6.906,0-11.348,8.264-11.1,20.476" transform="translate(348.414 10.718)" fill="#f5f5f5"/>
    </g>
  </g>
</svg>
