<svg id="Group_468" data-name="Group 468" xmlns="http://www.w3.org/2000/svg" xmlns:xlink="http://www.w3.org/1999/xlink" width="120" height="120.002" viewBox="0 0 120 120.002">
  <defs>
    <clipPath id="clip-path">
      <rect id="Rectangle_841" data-name="Rectangle 841" width="120" height="120.002" fill="none"/>
    </clipPath>
  </defs>
  <g id="Group_467" data-name="Group 467" transform="translate(0 0)" clip-path="url(#clip-path)">
    <path id="Path_1102" data-name="Path 1102" d="M60,120A60,60,0,1,0,0,60a60,60,0,0,0,60,60" transform="translate(0 0)" fill="#251163"/>
    <path id="Path_1103" data-name="Path 1103" d="M26.016,18.319A1.08,1.08,0,0,0,27.1,17.238V13.085a1.081,1.081,0,1,0-2.161,0v4.153a1.08,1.08,0,0,0,1.081,1.081" transform="translate(17.968 8.65)" fill="#e6adbd"/>
    <path id="Path_1104" data-name="Path 1104" d="M23.464,19.6a1.08,1.08,0,1,0,1.528-1.526l-4.3-4.3A1.08,1.08,0,1,0,19.164,15.3Z" transform="translate(13.582 9.697)" fill="#e6adbd"/>
    <path id="Path_1105" data-name="Path 1105" d="M18.476,21.7h4.153a1.08,1.08,0,1,0,0-2.159H18.476a1.08,1.08,0,1,0,0,2.159" transform="translate(12.534 14.084)" fill="#e6adbd"/>
    <path id="Path_1106" data-name="Path 1106" d="M70.4,62.223a2.4,2.4,0,0,0-3.07-.239c-2.782-3.161-3.142-6.208-3.488-9.42a33.232,33.232,0,0,0-.628-4.15c-1.869-7.928-3.207-10.274-4.9-13.243-.544-.953-1.106-1.937-1.736-3.2-.263-.53-.523-1.068-.783-1.6-2.109-4.353-4.291-8.858-7.746-7.619a3.2,3.2,0,0,0-1.834,1.841c-1,2.316-.454,6.32,1.462,10.711.141.323.274.63.4.921L35.633,23.771a5.627,5.627,0,0,0-3.426-1.666,4.228,4.228,0,0,0-3.438,1.179,4.134,4.134,0,0,0-1.144,2.276L26.8,24.74c-2.022-2.025-5.1-2.245-6.863-.487a4.8,4.8,0,0,0,.028,6.378,4.113,4.113,0,0,0-2.306,1.137,4.259,4.259,0,0,0-1.2,3.438,5.579,5.579,0,0,0,1.648,3.448L20.559,41.1a3.808,3.808,0,0,0-1.906,1c-1.65,1.647-1.468,4.515.409,6.4l11.17,11.172c6.5,6.493,10.822,8.458,14.64,10.193a28.359,28.359,0,0,1,8.84,5.618l-.064.064a2.424,2.424,0,0,0,0,3.429L57.4,82.725a2.428,2.428,0,0,0,3.429,0L74.151,69.4a2.424,2.424,0,0,0,0-3.429ZM45.765,67.9c-3.828-1.74-7.789-3.538-14.006-9.754L20.59,46.975a2.422,2.422,0,0,1-.413-3.34,1.844,1.844,0,0,1,1.492-.485,3.005,3.005,0,0,1,1.848.908L32.057,52.6a1.08,1.08,0,0,0,1.526-1.528l-7.86-7.858-.005-.009-6.077-6.075a3.431,3.431,0,0,1-1.024-2.1,2.016,2.016,0,0,1,2.3-2.292,3.416,3.416,0,0,1,2.1,1.029L36.954,47.7a1.08,1.08,0,1,0,1.528-1.528l-13.5-13.5L21.92,29.611c-1.18-1.184-1.383-2.9-.453-3.83s2.626-.7,3.808.485l3.916,3.916.007.007,0,0L41.832,42.823A1.08,1.08,0,0,0,43.36,41.3L30.72,28.656a3.393,3.393,0,0,1-1-2.1,2.172,2.172,0,0,1,.58-1.745,2.1,2.1,0,0,1,1.712-.556A3.461,3.461,0,0,1,34.1,25.3L50.639,41.834a1.08,1.08,0,0,0,1.748-1.21c-.785-1.731-1.435-3.223-2.731-6.191-1.982-4.541-2.027-7.682-1.461-8.992a1.113,1.113,0,0,1,.582-.662c1.623-.58,3.458,3.2,5.072,6.528.263.54.526,1.084.793,1.621.657,1.321,1.235,2.335,1.795,3.312,1.609,2.818,2.88,5.045,4.677,12.669a31.313,31.313,0,0,1,.583,3.885c.368,3.434.788,6.975,4.05,10.654L55.239,73.955A30.485,30.485,0,0,0,45.765,67.9m26.858-.026L59.3,81.2a.266.266,0,0,1-.375,0l-3.749-3.749a.258.258,0,0,1-.077-.186.262.262,0,0,1,.077-.188l.847-.847,0,0,0,0L68.5,63.75a.263.263,0,0,1,.188-.077.267.267,0,0,1,.186.076L72.623,67.5a.266.266,0,0,1,0,.375" transform="translate(11.852 15.914)" fill="#fff"/>
    <path id="Path_1107" data-name="Path 1107" d="M73.211,68.994l-2.655-4.589a2.422,2.422,0,0,0-3.109-.977c-1.817-3.675-1.416-6.676-.962-9.826a33.8,33.8,0,0,0,.42-4.176c.155-8.143-.563-10.75-1.469-14.045-.291-1.058-.592-2.151-.888-3.536-.124-.578-.243-1.165-.361-1.743-.967-4.744-1.958-9.642-5.618-9.3a3.193,3.193,0,0,0-2.233,1.327c-1.543,2-2.006,6.01-1.237,10.74.055.339.1.633.153.938L46.416,18.9a5.608,5.608,0,0,0-2.906-2.462,4.218,4.218,0,0,0-3.62.289,4.14,4.14,0,0,0-1.674,1.924l-.592-1c-1.456-2.464-4.384-3.438-6.526-2.173a4.26,4.26,0,0,0-2.013,3.035,5.468,5.468,0,0,0,.454,3.15,4.059,4.059,0,0,0-4.258,2.612,1.08,1.08,0,1,0,2.01.791,2.008,2.008,0,0,1,.836-1.01,2.131,2.131,0,0,1,1.815-.119,3.42,3.42,0,0,1,1.779,1.518L34.713,30.5a1.081,1.081,0,0,0,.931.53,1.062,1.062,0,0,0,.549-.151,1.078,1.078,0,0,0,.379-1.48l-2.99-5.046,0,0L31.686,21.16a3.423,3.423,0,0,1-.471-2.292,2.135,2.135,0,0,1,.981-1.531c1.118-.659,2.719-.026,3.57,1.414l4.095,6.912a1.08,1.08,0,0,0,1.858-1.1l-1.263-2.134,0-.005a3.4,3.4,0,0,1-.459-2.292,2.166,2.166,0,0,1,.994-1.545,2.1,2.1,0,0,1,1.8-.115A3.466,3.466,0,0,1,44.558,20L56.242,39.717c.083.468.17.951.268,1.5a2.351,2.351,0,0,1-.561,1.951,1.08,1.08,0,0,0,1.638,1.407,4.5,4.5,0,0,0,1.046-3.749c-.506-2.777-.733-4.169-1.4-8.3-.795-4.892-.058-7.944.814-9.071a1.1,1.1,0,0,1,.726-.5c1.731-.162,2.56,3.95,3.3,7.581.12.588.241,1.18.366,1.765.31,1.444.619,2.569.919,3.656.86,3.128,1.54,5.6,1.39,13.433a30.971,30.971,0,0,1-.4,3.907c-.487,3.383-.953,6.884,1.222,11.2l-.267.155a1.08,1.08,0,1,0,1.082,1.869l1.155-.668v0h0l.785-.454a.259.259,0,0,1,.2-.026.256.256,0,0,1,.16.122l2.657,4.589a.259.259,0,0,1,.026.2.268.268,0,0,1-.132.167l-.982.583a1.08,1.08,0,0,0,1.1,1.857l.97-.576a2.425,2.425,0,0,0,.884-3.314" transform="translate(18.162 10.753)" fill="#fff"/>
  </g>
</svg>
