<svg xmlns="http://www.w3.org/2000/svg" width="297.828" height="164.269" viewBox="0 0 297.828 164.269">
  <g id="Group_593" data-name="Group 593" transform="translate(-47.587 -3725.887)">
    <g id="Group_589" data-name="Group 589" transform="translate(-301.58 3830.488)">
      <path id="Path_675" data-name="Path 675" d="M377.441,32.754c0-10.8,6.268-17.667,16.067-17.667a8.6,8.6,0,0,1,5.068,1.734c-.134-6.6-.867-8.2-3.867-9.734l-.666-.334a2.981,2.981,0,0,1-.068-.666l12.067-4.934h1.868V28.22l.066,16.8a1.848,1.848,0,0,1,.067.6c.068,5.866,1.4,8.4,2.934,8.934,3.334,1.132,5.534-2.266,7.2-4a3.826,3.826,0,0,1,2.735-1.068,3.92,3.92,0,0,1,4.067,3.068c.533,3.533-1.8,5.667-5.134,6.533a18.4,18.4,0,0,1-5,.667c-8.933,0-16.667-6.4-16.267-18.468-2.6,3-5.8,4.867-8.667,4.867-7.666,0-12.467-5.2-12.467-13.4m9.8-3.667c0,6.8,3.067,11.133,7.8,11.133a7.279,7.279,0,0,0,3.533-.8v-18.6a6.609,6.609,0,0,0-5.533-3.066c-3.534,0-5.8,4.4-5.8,11.333" transform="translate(-28.274 -0.087)" fill="#f5f5f5"/>
      <path id="Path_676" data-name="Path 676" d="M433.9,16.215c8.333,0,13.667,6.133,13.667,15.6l-20,.333c.866,5.934,4.133,10.6,12.2,10,1.734-.133,4.334-1.667,6.534-4.933l1.067.933A17.177,17.177,0,0,1,432.5,47.283c-9.2,0-15.134-5.467-15.134-14,0-10.4,6.4-17.067,16.534-17.067m-6.533,13.8H435.1c6.667-.266,4.934-11.067-1.734-11.067-3.733,0-6.133,4.466-6,11.067" transform="translate(-31.265 -1.215)" fill="#f5f5f5"/>
      <path id="Path_677" data-name="Path 677" d="M463.809,1.153h1.868V33.488c0,5.934,1.533,10,3.866,10.267l.667.067a9.918,9.918,0,0,1,.067,1.266v.734h-18.6v-.734a9.918,9.918,0,0,1,.067-1.266l.6-.067c2.4-.266,3.933-4.333,3.933-10.267V18.82c0-8.334-.666-9.934-3.933-11.734l-.6-.333a3.911,3.911,0,0,1-.067-.667Z" transform="translate(-33.835 -0.087)" fill="#f5f5f5"/>
      <path id="Path_678" data-name="Path 678" d="M472.936,45A9.79,9.79,0,0,1,473,43.735l.6-.067C476.137,43.4,477.536,39,477.536,33c0-8.334-.667-9.934-3.933-11.734l-.6-.333a3.862,3.862,0,0,1-.068-.667l12.134-4.934h1.867V33.4c0,5.934,1.533,10,3.867,10.268l.667.067A9.913,9.913,0,0,1,491.538,45v.734h-18.6Zm3.6-39.668c0-3.266,2-5.333,5.2-5.333,3.133,0,5.133,2.067,5.133,5.333s-2,5.334-5.133,5.334c-3.2,0-5.2-2.068-5.2-5.334" transform="translate(-35.428 0)" fill="#f5f5f5"/>
      <path id="Path_679" data-name="Path 679" d="M488.649,15.376h20.067v.734a9.922,9.922,0,0,1-.067,1.266l-.667.067c-2.267.2-1.734,4.333,1.534,10.268,1.4,2.533,2.4,4.733,3.8,7.333l3.266-6.267c1.8-4.267,11.734-27.934,24.934-28.2,3.068-.067,6.268,1.4,6.268,4.734,0,3-2.134,5.867-4.667,5.133a14.13,14.13,0,0,0-3.934-.6c-9.6,0-15.734,10.333-19.4,17.867l-9.2,18.733h-1.8L498.65,27.711c-.667-1.4-2.735-4.267-3.468-5.467-2.132-3-4.733-4.667-6.533-4.867Z" transform="translate(-36.605 -0.043)" fill="#f5f5f5"/>
      <path id="Path_680" data-name="Path 680" d="M546.479,16.215c8.333,0,13.667,6.133,13.667,15.6l-20,.333c.866,5.934,4.133,10.6,12.2,10,1.734-.133,4.334-1.667,6.534-4.933l1.067.933a17.177,17.177,0,0,1-14.867,9.134c-9.2,0-15.134-5.467-15.134-14,0-10.4,6.4-17.067,16.534-17.067m-6.533,13.8h7.733c6.667-.266,4.934-11.067-1.734-11.067-3.733,0-6.133,4.466-6,11.067" transform="translate(-39.699 -1.215)" fill="#f5f5f5"/>
      <path id="Path_681" data-name="Path 681" d="M564.685,46.243a9.913,9.913,0,0,1,.067-1.266l.6-.067c2.533-.266,3.866-4.667,3.866-10.734,0-8.267-.6-9.867-3.866-11.667l-.6-.333a3.024,3.024,0,0,1-.067-.667l12.067-4.934h1.868v9.734c1.266-3.067,3.933-8.734,7.934-9.466,3.8-.667,5.533,1.466,6.133,5,.4,2.8-1.867,5.067-3.334,4.533-1.667-.6-3.2-1.933-5.068-1.933-1.6,0-3.4,1-5.665,4.334v5.866c0,5.934,1.465,10,3.866,10.268l.667.067a9.931,9.931,0,0,1,.067,1.266v.734H564.685Z" transform="translate(-42.301 -1.242)" fill="#f5f5f5"/>
      <path id="Path_682" data-name="Path 682" d="M613.074,16.215c8.333,0,13.667,6.133,13.667,15.6l-20,.333c.866,5.934,4.133,10.6,12.2,10,1.734-.133,4.334-1.667,6.534-4.933l1.067.933a17.177,17.177,0,0,1-14.867,9.134c-9.2,0-15.134-5.467-15.134-14,0-10.4,6.4-17.067,16.534-17.067m-6.533,13.8h7.733c6.667-.266,4.934-11.067-1.734-11.067-3.733,0-6.133,4.466-6,11.067" transform="translate(-44.687 -1.215)" fill="#f5f5f5"/>
      <path id="Path_683" data-name="Path 683" d="M643.346,15.535h1.868v6.934c2.6-7.268,10.6-20.734,26.134-19.734,3.133.2,4.933,1.933,4.933,5.267a4.078,4.078,0,0,1-5.4,3.933,22.344,22.344,0,0,0-7.735-1.533c-10.2,0-15.267,9.2-17.933,15.8v7.4c0,5.934,1.466,10,3.866,10.268l.667.066a9.922,9.922,0,0,1,.067,1.266v.734H631.279V45.2a9.931,9.931,0,0,1,.067-1.266l.6-.066c2.533-.267,3.867-4.667,3.867-10.735,0-8.267-.6-9.867-3.867-11.666l-.6-.334a3.02,3.02,0,0,1-.067-.666ZM653.68,35.6c.266,0,.466.067.867.067,1.333,3.667,4.866,8.734,9.667,8.734,3.266,0,5.333-1.8,5.333-4.6,0-1.867-2.2-3.933-5.667-5.267-6-2.333-9.867-6.267-9.867-9.734,0-5.734,5.334-10.067,14-10.067,2.667,0,7.268,1,9.268,3.333l-.266,7.334h-.933c-1.734-3.4-3.868-8.268-7.867-8.467-3.933-.2-6.4,2.2-6.467,4.534-.067,2.266,3.667,3.6,9.334,5.866,4.132,1.667,6.8,5.334,6.8,8.935,0,6.333-5.533,10.333-14.267,10.333a15.627,15.627,0,0,1-9.533-3Z" transform="translate(-47.29 -0.201)" fill="#f5f5f5"/>
      <path id="Path_684" data-name="Path 684" d="M693.416,38.268c3.133,0,5.133,2.067,5.133,5.333s-2,5.334-5.133,5.334c-3.2,0-5.2-2.067-5.2-5.334s2-5.333,5.2-5.333" transform="translate(-51.555 -2.867)" fill="#f5f5f5"/>
    </g>
    <g id="Group_591" data-name="Group 591" transform="translate(10920.104 -2300)">
      <path id="Path_1274" data-name="Path 1274" d="M196.468,36.562c.2,0,.4.067.8.067,1.334,3.667,4.867,8.734,9.734,8.734,3.2,0,5.267-1.8,5.267-4.6,0-1.867-2.2-3.933-5.6-5.267-6-2.333-9.933-6.467-9.933-9.934,0-5.734,5.333-10.067,14-10.067,2.734,0,7.267,1,9.333,3.333l-.266,7.333h-1c-1.733-3.4-3.867-8.267-7.8-8.466s-6.4,2.2-6.466,4.533c-.068,2.267,3.6,3.8,9.267,6.067,4.2,1.667,6.8,5.334,6.8,8.935,0,6.333-5.534,10.333-14.268,10.333a15.779,15.779,0,0,1-9.534-3Z" transform="translate(-10996.312 6076.327)" fill="#f5f5f5"/>
      <path id="Path_1275" data-name="Path 1275" d="M266.335,27.483c0-3.2-1.733-6.734-4.333-6.734-1.6,0-3.467,1.266-5.534,4.534v9.333c0,5.934,1.467,10.067,3.868,10.268l.866.066v2H243.135v-2l.333-.066c2.4-.467,3.6-4.334,3.6-10.268V27.483c0-3.334-1.667-7.133-4.4-7.133-1.333,0-2.934,1-4.734,3.533V34.616c0,5.934,1.533,10.067,3.866,10.268l.734.066v2H224v-.734a9.805,9.805,0,0,1,.068-1.266l.6-.066c2.534-.267,3.934-4.667,3.934-10.734,0-8.268-.667-9.867-3.934-11.667l-.6-.334a2.983,2.983,0,0,1-.068-.666l12.068-4.934h1.867v4.6c1.734-2.4,5.934-4.934,11.333-4.934,3.933,0,6,2.2,6.8,5.934,2.4-3.4,7.534-5.934,12.467-5.934,5.267,0,7.2,4,7.2,10.268V38.616c0,5.667.133,7.333.133,8,0,2.133.2,8.4,2.867,9.267,3.4,1.134,5.6-2.266,7.2-4a3.629,3.629,0,0,1,2.734-1.133,3.972,3.972,0,0,1,4.067,3.133c.533,3.534-1.734,5.667-5.133,6.534a19.526,19.526,0,0,1-4.467.534,15.45,15.45,0,0,1-8.533-2.266c-1.8-1.2-8.268-4.534-8.268-14.667Z" transform="translate(-10998.374 6076.273)" fill="#f5f5f5"/>
      <path id="Path_1276" data-name="Path 1276" d="M285.333,45a9.785,9.785,0,0,1,.068-1.266l.6-.067C288.534,43.4,289.934,39,289.934,33c0-8.334-.667-9.934-3.934-11.734l-.6-.333a3.86,3.86,0,0,1-.068-.667l12.134-4.934h1.867V33.4c0,5.934,1.533,10,3.867,10.268l.667.067A9.918,9.918,0,0,1,303.935,45v.734h-18.6Zm3.6-39.668c0-3.266,2-5.333,5.2-5.333,3.133,0,5.133,2.067,5.133,5.333s-2,5.334-5.133,5.334c-3.2,0-5.2-2.068-5.2-5.334" transform="translate(-11002.968 6077.487)" fill="#f5f5f5"/>
      <path id="Path_1277" data-name="Path 1277" d="M318.728,1.153H320.6V33.488c0,5.934,1.533,10,3.866,10.267l.667.067a9.922,9.922,0,0,1,.067,1.266v.734h-18.6v-.734a9.918,9.918,0,0,1,.067-1.266l.6-.067c2.4-.266,3.934-4.333,3.934-10.267V18.82c0-8.334-.666-9.934-3.934-11.734l-.6-.333a3.911,3.911,0,0,1-.067-.667Z" transform="translate(-11004.561 6077.401)" fill="#f5f5f5"/>
      <path id="Path_1278" data-name="Path 1278" d="M345.182,16.215c8.333,0,13.667,6.133,13.667,15.6l-20,.333c.866,5.934,4.133,10.6,12.2,10,1.734-.133,4.334-1.667,6.534-4.933l1.067.933a17.177,17.177,0,0,1-14.867,9.134c-9.2,0-15.134-5.467-15.134-14,0-10.4,6.4-17.067,16.534-17.067m-6.533,13.8h7.733c6.667-.266,4.934-11.067-1.734-11.067-3.733,0-6.133,4.466-6,11.067" transform="translate(-11006.213 6076.273)" fill="#f5f5f5"/>
    </g>
    <g id="Group_592" data-name="Group 592" transform="translate(11086 -2182)">
      <g id="Group_590" data-name="Group 590">
        <path id="Path_1279" data-name="Path 1279" d="M0,18.58c4.466,1.333,8-5.867,10.934-11.8H13v8.6c7.533-5.2,21.468-13.867,31.8-13.867A13.023,13.023,0,0,1,51.468,3.18c2.667,1.6,4.533,4.666,2.8,7.466a5.369,5.369,0,0,1-4.333,2.734A2.874,2.874,0,0,1,47.6,12.313c-2.333-2.8-5.466-3.867-9.067-3.867C30.268,8.447,19.867,14.313,13,18.58v.667s-.067,13.133-.067,18.934c0,2.933.733,3.666,3.333,3.666,1.2,0,3.667-.733,5.734-3.733l.667.867c-3.466,6.2-8.733,7.2-11,7.2-6.4,0-8.332-2-8.266-9.667l.066-14.6a6.379,6.379,0,0,1-3.4-.667Z" transform="translate(-10981.594 5906.374)" fill="#f5f5f5"/>
        <path id="Path_1280" data-name="Path 1280" d="M24.649,31.749c0-9.467,6.533-15.534,16.867-15.534,10.2,0,16.734,6.067,16.734,15.534S51.716,47.282,41.516,47.282c-10.334,0-16.867-6.067-16.867-15.533M41.516,45.082c4,0,6.6-5.2,6.6-13.333s-2.6-13.334-6.6-13.334-6.6,5.2-6.6,13.334,2.6,13.333,6.6,13.333" transform="translate(-10983.44 5905.273)" fill="#f5f5f5"/>
        <path id="Path_1281" data-name="Path 1281" d="M77.766,31.749c0-9.467,6.533-15.534,16.867-15.534,10.2,0,16.734,6.067,16.734,15.534s-6.534,15.533-16.734,15.533c-10.334,0-16.867-6.067-16.867-15.533M94.633,45.082c4,0,6.6-5.2,6.6-13.333s-2.6-13.334-6.6-13.334-6.6,5.2-6.6,13.334,2.6,13.333,6.6,13.333" transform="translate(-10987.419 5905.273)" fill="#f5f5f5"/>
        <path id="Path_1282" data-name="Path 1282" d="M115.388,16.575h14v19.2c0,3.134,2.133,5.134,6.4,5.134a3.1,3.1,0,0,0,2.4-1.266V29.375c.067-6-1.4-10.467-3.867-10.734l-.6-.067a9.918,9.918,0,0,1-.067-1.266v-.734h13.935v12.8c0,8.267.6,10,3.866,11.667l.667.333a3.035,3.035,0,0,1,.067.667l-12.067,4.933h-1.933V41.509c-2.734,3.6-5.934,5.8-9.8,5.8-5.6,0-8.4-4.133-8.4-10.534V28.909c0-5.934-1.467-10-3.867-10.268l-.667-.067a9.919,9.919,0,0,1-.067-1.266Z" transform="translate(-10990.237 5905.246)" fill="#f5f5f5"/>
        <path id="Path_1283" data-name="Path 1283" d="M155.531,45.276a9.92,9.92,0,0,1,.067-1.266l.6-.067c2.533-.266,3.866-4.667,3.866-10.734,0-8.267-.6-9.867-3.866-11.667l-.6-.333a3.026,3.026,0,0,1-.067-.667L167.6,15.609h1.868v9.667c2.066-7.133,8.866-21.6,20.667-21.6a5.252,5.252,0,0,1,5.4,5.534,4.112,4.112,0,0,1-5.332,3.933,17.25,17.25,0,0,0-4.934-.8c-9.534,0-13.268,9.867-15.8,16.8v4.533c0,5.934,1.465,10,3.866,10.268l.667.067a9.92,9.92,0,0,1,.067,1.266v.734H155.531Z" transform="translate(-10993.245 5906.212)" fill="#f5f5f5"/>
      </g>
    </g>
  </g>
</svg>
