<svg xmlns="http://www.w3.org/2000/svg" width="337.691" height="111.266" viewBox="0 0 337.691 111.266">
  <g id="Group_581" data-name="Group 581" transform="translate(-335.919 -1564.05)">
    <path id="Path_630" data-name="Path 630" d="M0,45.741v-.729a9.881,9.881,0,0,1,.066-1.259l.6-.066c2.386-.265,3.845-4.308,3.845-10.208v-17.9c0-5.9-1.459-9.943-3.845-10.208L.066,5.3A9.881,9.881,0,0,1,0,4.045V3.316H37.585c.2,3.712.4,7.424.531,11.136a4.5,4.5,0,0,1-.8-.066l-.662-1.259c-2.321-4.441-8.552-7.159-15.644-7.159H14.981v17.5c6.166-.331,11.137-1.658,12.927-3.911l.53-.662s.8-.067,1.59-.067V31.554c-.795,0-1.59-.065-1.59-.065l-.53-.8c-1.922-2.321-6.762-3.978-12.927-4.441v7.225c0,5.9,1.724,9.943,4.376,10.208l.729.066a9.881,9.881,0,0,1,.066,1.259v.729Z" transform="translate(369.991 1560.734)" fill="#f5f5f5"/>
    <path id="Path_631" data-name="Path 631" d="M42.811,46.074a10.019,10.019,0,0,1,.065-1.259l.6-.066c2.519-.265,3.844-4.64,3.844-10.673,0-8.219-.6-9.811-3.844-11.6l-.6-.332a3.055,3.055,0,0,1-.065-.662l12-4.905h1.858v9.677c1.259-3.049,3.91-8.683,7.888-9.412,3.777-.663,5.5,1.458,6.1,4.972.4,2.783-1.855,5.038-3.314,4.507-1.657-.6-3.183-1.921-5.039-1.921-1.59,0-3.379.994-5.633,4.307v5.834c0,5.9,1.457,9.943,3.844,10.208l.662.066a9.748,9.748,0,0,1,.067,1.259V46.8H42.811Z" transform="translate(366.558 1559.67)" fill="#f5f5f5"/>
    <path id="Path_632" data-name="Path 632" d="M74.667,31.661c0-9.412,6.5-15.445,16.771-15.445,10.142,0,16.638,6.032,16.638,15.445s-6.5,15.446-16.638,15.446c-10.275,0-16.771-6.033-16.771-15.446M91.438,44.919c3.977,0,6.563-5.17,6.563-13.258S95.415,18.4,91.438,18.4s-6.563,5.17-6.563,13.257,2.586,13.258,6.563,13.258" transform="translate(364.004 1559.699)" fill="#f5f5f5"/>
    <path id="Path_633" data-name="Path 633" d="M154.958,27.418c0-3.182-1.723-6.694-4.308-6.694-1.591,0-3.447,1.259-5.5,4.507v9.281c0,5.9,1.459,10.009,3.846,10.208l.861.066v1.989H131.89V44.786l.331-.066c2.387-.464,3.58-4.308,3.58-10.208V27.418c0-3.315-1.657-7.093-4.376-7.093-1.325,0-2.917.994-4.706,3.513V34.512c0,5.9,1.524,10.009,3.844,10.208l.729.066v1.989H112.865v-.729a9.75,9.75,0,0,1,.067-1.259l.6-.066c2.519-.266,3.911-4.64,3.911-10.673,0-8.219-.663-9.811-3.911-11.6l-.6-.332a2.976,2.976,0,0,1-.067-.662l12-4.905h1.856v4.573c1.724-2.386,5.9-4.905,11.269-4.905,3.911,0,5.966,2.187,6.762,5.9,2.386-3.38,7.491-5.9,12.4-5.9,5.236,0,7.159,3.977,7.159,10.208V38.488c0,5.635.132,7.292.132,7.955,0,2.121.2,8.352,2.85,9.214,3.38,1.127,5.569-2.254,7.159-3.977a3.606,3.606,0,0,1,2.718-1.128,3.95,3.95,0,0,1,4.044,3.116c.53,3.513-1.724,5.635-5.1,6.5a19.415,19.415,0,0,1-4.442.53,15.362,15.362,0,0,1-8.484-2.254c-1.79-1.193-8.22-4.508-8.22-14.584Z" transform="translate(360.941 1559.699)" fill="#f5f5f5"/>
    <path id="Path_634" data-name="Path 634" d="M189.118,31.661c0-9.412,6.5-15.445,16.771-15.445,10.142,0,16.638,6.032,16.638,15.445s-6.5,15.446-16.638,15.446c-10.275,0-16.771-6.033-16.771-15.446m16.771,13.258c3.977,0,6.563-5.17,6.563-13.258S209.866,18.4,205.889,18.4s-6.563,5.17-6.563,13.257,2.586,13.258,6.563,13.258" transform="translate(354.826 1559.699)" fill="#f5f5f5"/>
    <path id="Path_635" data-name="Path 635" d="M226.739,16.576h13.92V35.667c0,3.116,2.121,5.1,6.364,5.1a3.077,3.077,0,0,0,2.386-1.259V29.3c.066-5.966-1.392-10.408-3.845-10.674l-.6-.065a9.885,9.885,0,0,1-.066-1.26v-.728h13.855V29.3c0,8.219.6,9.942,3.844,11.6l.663.332a3.006,3.006,0,0,1,.066.662l-12,4.905H249.41V41.368c-2.718,3.58-5.9,5.767-9.744,5.767-5.569,0-8.352-4.11-8.352-10.474V28.839c0-5.9-1.459-9.943-3.845-10.209l-.663-.065a9.892,9.892,0,0,1-.066-1.26Z" transform="translate(351.81 1559.67)" fill="#f5f5f5"/>
    <path id="Path_636" data-name="Path 636" d="M266.883,46.074a9.886,9.886,0,0,1,.066-1.259l.6-.066c2.518-.265,3.844-4.64,3.844-10.673,0-8.219-.6-9.811-3.844-11.6l-.6-.332a3.016,3.016,0,0,1-.066-.662l12-4.905h1.857v9.677c1.259-3.049,3.91-8.683,7.888-9.412,3.778-.663,5.5,1.458,6.1,4.972.4,2.783-1.856,5.038-3.315,4.507-1.657-.6-3.182-1.921-5.039-1.921-1.59,0-3.379.994-5.633,4.307v5.834c0,5.9,1.457,9.943,3.844,10.208l.663.066a9.882,9.882,0,0,1,.066,1.259V46.8H266.883Z" transform="translate(348.591 1559.67)" fill="#f5f5f5"/>
    <path id="Path_637" data-name="Path 637" d="M309.767,6.059l12.064-4.905h1.856v16.7c1.126-1.724,4.706-2.85,9.677-2.85,7.426,0,12.2,6.165,12.2,15.776,0,9.215-6.495,15.114-16.7,15.114-3.911,0-6.563-2.453-9.48-2.453a5.06,5.06,0,0,0-4.044,2.122h-.993V18.72c0-8.286-.664-9.876-3.912-11.666l-.6-.332a3.874,3.874,0,0,1-.066-.662M328.858,43.18c3.846,0,6.3-3.845,6.3-9.811,0-8.551-3.514-14.053-9.014-14.053-1.393,0-2.322.4-2.453.994V33.635c0,5.833,1.989,9.545,5.17,9.545" transform="translate(26.152 1611.907)" fill="#f5f5f5"/>
    <path id="Path_638" data-name="Path 638" d="M350.63,44.745a9.744,9.744,0,0,1,.067-1.259l.6-.067c2.519-.265,3.911-4.639,3.911-10.605,0-8.287-.663-9.877-3.911-11.666l-.6-.332a3.82,3.82,0,0,1-.067-.662L362.7,15.248h1.856V33.212c0,5.9,1.524,9.942,3.845,10.207l.663.067a9.886,9.886,0,0,1,.066,1.259v.729h-18.5ZM354.21,5.3c0-3.248,1.989-5.3,5.171-5.3,3.115,0,5.1,2.056,5.1,5.3s-1.989,5.3-5.1,5.3c-3.183,0-5.171-2.056-5.171-5.3" transform="translate(22.875 1612)" fill="#f5f5f5"/>
    <path id="Path_639" data-name="Path 639" d="M378.1,48.261c-3.115-1.393-4.971-3.845-4.971-6.894a6.583,6.583,0,0,1,3.911-6.43A9.473,9.473,0,0,1,372,26.518c0-6.563,5.967-11.4,14.319-11.4A18.019,18.019,0,0,1,396,17.768c2.321-4.64,7.425-13.656,15.379-15.047,5.237-.929,8.153,1.392,8.287,3.976.265,3.05-2.519,6.364-6.232,5.237a14.344,14.344,0,0,0-4.176-.663c-5.635,0-9.148,3.911-11.932,7.49a9.963,9.963,0,0,1,3.845,7.757c0,6.5-6.629,10.673-14.849,10.673a20.636,20.636,0,0,1-6.3-.928,2.743,2.743,0,0,0-.53,1.789c0,1.393,1.524,2.321,3.845,2.453,0,0,6.231.066,7.093.132,7.291.531,12.926,4.375,13.258,9.479.6,9.148-9.347,13.656-19.356,13.391-5.5-.132-12.4-2.652-12.727-8.087-.265-4.309,2.453-6.5,6.5-7.159m6.961,12.86c7.159,0,11.467-2.32,10.672-6.96-.53-3.182-3.778-4.11-8.485-4.441-2.585-.2-4.242,0-6.3-.465-1.923.4-3.116,1.922-3.116,5.37,0,3.114,2.387,6.5,7.226,6.5m-4.309-34.6c0,5.1,2.518,8.485,5.568,8.485s6.165-3.381,6.165-8.485c0-5.17-3.115-9.148-6.165-9.148s-5.568,3.977-5.568,9.148" transform="translate(21.195 1611.798)" fill="#f5f5f5"/>
    <path id="Path_640" data-name="Path 640" d="M420.9,19.6V18.543c3.183-.663,7.888-5.1,11.866-11.336h1.525v8.619h8.816V19.6h-8.816s-.066,13.059-.066,18.826c0,2.917.729,3.646,3.314,3.646,1.194,0,3.646-.729,5.7-3.711l.663.861c-3.447,6.165-8.684,7.159-10.938,7.159-6.363,0-8.219-1.989-8.219-9.612V19.6Z" transform="translate(17.241 1611.422)" fill="#f5f5f5"/>
    <path id="Path_641" data-name="Path 641" d="M457.836,1.153h1.856V19.582c1.855-2.321,5.9-4.574,11-4.574,5.236,0,7.159,3.976,7.159,10.208V33.3c0,5.9,1.459,9.942,3.845,10.207l.662.067a9.727,9.727,0,0,1,.067,1.259v.729H445.97V43.578l.6-.067c2.387-.265,3.845-4.307,3.845-10.207V18.653c0-8.219-.663-9.81-3.911-11.6l-.6-.332a2.969,2.969,0,0,1-.067-.663Zm6.3,18.031c-1.259,0-2.783.862-4.441,3.115v11c0,5.9,1.524,9.942,3.845,10.207l.6.067h.2l.331-.067c2.386-.464,3.845-4.307,3.845-10.207V26.211c0-3.249-1.658-7.026-4.376-7.026" transform="translate(15.241 1611.907)" fill="#f5f5f5"/>
    <path id="Path_642" data-name="Path 642" d="M486.7,44.745a9.744,9.744,0,0,1,.067-1.259l.6-.067c2.519-.265,3.911-4.639,3.911-10.605,0-8.287-.663-9.877-3.911-11.666l-.6-.332a3.82,3.82,0,0,1-.067-.662l12.065-4.905h1.856V33.212c0,5.9,1.524,9.942,3.845,10.207l.663.067a9.877,9.877,0,0,1,.066,1.259v.729H486.7ZM490.283,5.3c0-3.248,1.989-5.3,5.171-5.3,3.115,0,5.1,2.056,5.1,5.3s-1.989,5.3-5.1,5.3c-3.183,0-5.171-2.056-5.171-5.3" transform="translate(11.964 1612)" fill="#f5f5f5"/>
    <path id="Path_643" data-name="Path 643" d="M531.115,27.418c0-3.315-1.657-7.093-4.375-7.093-1.325,0-2.917.994-4.707,3.513V34.512c0,5.9,1.459,9.942,3.779,10.208l.6.066v1.989H508.18v-.729a9.736,9.736,0,0,1,.067-1.259l.6-.066c2.518-.266,3.911-4.64,3.911-10.673,0-8.219-.663-9.811-3.911-11.6l-.6-.332a2.972,2.972,0,0,1-.067-.662l12-4.905h1.856v4.573c1.724-2.386,5.9-4.905,11.27-4.905,5.237,0,7.159,3.977,7.159,10.208V38.488c0,5.635.133,7.292.133,7.955,0,2.121.2,8.352,2.85,9.214,3.38,1.127,5.568-2.254,7.159-3.977a3.607,3.607,0,0,1,2.718-1.128,3.95,3.95,0,0,1,4.044,3.116c.464,3.513-1.724,5.635-5.1,6.5a19.417,19.417,0,0,1-4.442.53,15.767,15.767,0,0,1-8.484-2.254c-1.79-1.193-8.22-4.508-8.22-14.584Z" transform="translate(10.242 1610.699)" fill="#f5f5f5"/>
    <path id="Path_644" data-name="Path 644" d="M547.82,45.567v-.729a10.018,10.018,0,0,1,.065-1.259l.6-.066c2.385-.265,3.911-4.308,3.911-10.208V18.721c0-8.286-.663-9.877-3.911-11.667l-.6-.331a3.942,3.942,0,0,1-.065-.663l12.064-4.905h1.856V28.929l1.524-1.325c6.7-5.833,10.209-9.878,9.347-10.209-.331-.132-.266-.265-.266-1.325V15.34h10.871v1.989l-.795.065c-2.188.2-6.762,2.851-12.264,6.96l7.69,10.275c4.044,5.17,8.021,8.684,10.408,8.883l.795.066v1.989H569.695v-.729a9.873,9.873,0,0,1,.066-1.259l.331-.066c1.392-.265-.53-4.375-5.038-10.208-1.127-1.459-2.188-2.917-3.314-4.376V33.3c0,5.9,1.524,9.943,3.844,10.208l.663.066a9.882,9.882,0,0,1,.066,1.259v.729Z" transform="translate(7.063 1611.907)" fill="#f5f5f5"/>
    <path id="Path_645" data-name="Path 645" d="M608.224,16.216c8.286,0,13.589,6.1,13.589,15.511l-19.886.332c.861,5.9,4.11,10.54,12.13,9.943,1.724-.132,4.309-1.657,6.5-4.905l1.06.928a17.077,17.077,0,0,1-14.782,9.081c-9.148,0-15.048-5.435-15.048-13.92,0-10.341,6.364-16.97,16.44-16.97m-6.5,13.722h7.689c6.629-.266,4.905-11-1.724-11-3.711,0-6.1,4.442-5.965,11" transform="translate(3.538 1610.699)" fill="#f5f5f5"/>
    <path id="Path_646" data-name="Path 646" d="M638.52,15.463h1.857v6.894c2.585-7.226,10.539-20.616,25.985-19.621,3.115.2,4.905,1.922,4.905,5.236a4.055,4.055,0,0,1-5.369,3.911,22.219,22.219,0,0,0-7.69-1.525c-10.142,0-15.18,9.148-17.831,15.71v7.359c0,5.9,1.458,9.942,3.844,10.208l.663.066a9.9,9.9,0,0,1,.066,1.259v.729H626.522V44.96a9.882,9.882,0,0,1,.066-1.259l.6-.066c2.518-.266,3.845-4.64,3.845-10.673,0-8.22-.6-9.811-3.845-11.6l-.6-.332a3.015,3.015,0,0,1-.066-.662ZM648.8,35.415c.265,0,.464.066.862.066,1.325,3.646,4.838,8.685,9.612,8.685,3.248,0,5.3-1.791,5.3-4.574,0-1.857-2.188-3.911-5.635-5.236-5.966-2.321-9.811-6.232-9.811-9.679,0-5.7,5.3-10.009,13.92-10.009,2.652,0,7.226.994,9.215,3.315L672,25.274h-.928c-1.724-3.381-3.846-8.22-7.822-8.42-3.911-.2-6.364,2.188-6.431,4.509-.066,2.254,3.646,3.579,9.281,5.833,4.109,1.657,6.761,5.3,6.761,8.883,0,6.3-5.5,10.275-14.185,10.275a15.532,15.532,0,0,1-9.478-2.984Z" transform="translate(0.753 1611.784)" fill="#f5f5f5"/>
  </g>
</svg>
