<svg xmlns="http://www.w3.org/2000/svg" width="1180.017" height="120" viewBox="0 0 1180.017 120">
  <g id="Group_320" data-name="Group 320" transform="translate(-369.991 -1561)">
    <path id="Path_630" data-name="Path 630" d="M0,83.721V82.339a18.727,18.727,0,0,1,.126-2.387l1.131-.126c4.522-.5,7.287-8.165,7.287-19.347V26.557c0-11.181-2.765-18.845-7.287-19.347L.126,7.085A18.727,18.727,0,0,1,0,4.7V3.316H71.234c.378,7.036.755,14.07,1.006,21.106a8.519,8.519,0,0,1-1.508-.126L69.476,21.91c-4.4-8.417-16.207-13.568-29.65-13.568H28.393V41.508c11.685-.628,21.108-3.141,24.5-7.412l1-1.255s1.508-.127,3.014-.127V56.835c-1.506,0-3.014-.124-3.014-.124l-1-1.508c-3.643-4.4-12.815-7.54-24.5-8.417V60.48c0,11.181,3.267,18.845,8.293,19.347l1.382.126a18.727,18.727,0,0,1,.126,2.387v1.382Z" transform="translate(369.991 1563.464)" fill="#f5f5f5"/>
    <path id="Path_631" data-name="Path 631" d="M42.811,72.482a18.987,18.987,0,0,1,.124-2.387l1.131-.126c4.775-.5,7.285-8.793,7.285-20.227,0-15.578-1.128-18.594-7.285-21.984l-1.131-.629a5.79,5.79,0,0,1-.124-1.255l22.738-9.3H69.07V34.918c2.387-5.779,7.411-16.457,14.95-17.839,7.158-1.257,10.425,2.763,11.556,9.422.753,5.275-3.516,9.548-6.281,8.542-3.141-1.13-6.032-3.642-9.55-3.642-3.014,0-6.4,1.884-10.676,8.164V50.623c0,11.181,2.761,18.845,7.285,19.347l1.255.126a18.474,18.474,0,0,1,.127,2.387v1.382H42.811Z" transform="translate(401.812 1573.321)" fill="#f5f5f5"/>
    <path id="Path_632" data-name="Path 632" d="M74.667,45.487c0-17.839,12.311-29.271,31.785-29.271,19.221,0,31.534,11.432,31.534,29.271S125.673,74.76,106.452,74.76c-19.474,0-31.785-11.434-31.785-29.273m31.785,25.128c7.538,0,12.438-9.8,12.438-25.128s-4.9-25.126-12.438-25.126-12.438,9.8-12.438,25.126,4.9,25.128,12.438,25.128" transform="translate(425.489 1573.052)" fill="#f5f5f5"/>
    <path id="Path_633" data-name="Path 633" d="M192.642,37.447c0-6.03-3.265-12.688-8.166-12.688-3.016,0-6.534,2.387-10.428,8.542v17.59c0,11.181,2.765,18.97,7.289,19.347l1.632.126v3.769H148.923V70.364l.628-.126c4.524-.879,6.785-8.165,6.785-19.347V37.447c0-6.283-3.141-13.442-8.293-13.442-2.51,0-5.528,1.884-8.919,6.658V50.891c0,11.181,2.889,18.97,7.285,19.347l1.382.126v3.769H112.865V72.75a18.477,18.477,0,0,1,.127-2.387l1.13-.126c4.775-.5,7.412-8.793,7.412-20.227,0-15.578-1.257-18.594-7.412-21.984l-1.13-.629a5.64,5.64,0,0,1-.127-1.255l22.741-9.3h3.518v8.668c3.267-4.522,11.181-9.3,21.357-9.3,7.412,0,11.307,4.146,12.815,11.181,4.522-6.407,14.2-11.181,23.494-11.181,9.924,0,13.568,7.538,13.568,19.347V58.428c0,10.679.251,13.821.251,15.078,0,4.02.377,15.829,5.4,17.462,6.407,2.136,10.554-4.271,13.568-7.538a6.834,6.834,0,0,1,5.151-2.137c3.518,0,7.161,2.263,7.663,5.906,1,6.658-3.267,10.679-9.673,12.313a36.8,36.8,0,0,1-8.418,1c-5.777,0-11.558-1.257-16.08-4.271-3.392-2.261-15.58-8.544-15.58-27.64Z" transform="translate(453.881 1573.052)" fill="#f5f5f5"/>
    <path id="Path_634" data-name="Path 634" d="M189.118,45.487c0-17.839,12.311-29.271,31.785-29.271,19.221,0,31.534,11.432,31.534,29.271S240.124,74.76,220.9,74.76c-19.474,0-31.785-11.434-31.785-29.273M220.9,70.615c7.538,0,12.438-9.8,12.438-25.128s-4.9-25.126-12.438-25.126-12.438,9.8-12.438,25.126,4.9,25.128,12.438,25.128" transform="translate(510.558 1573.052)" fill="#f5f5f5"/>
    <path id="Path_635" data-name="Path 635" d="M226.739,16.576h26.383V52.758c0,5.906,4.02,9.673,12.062,9.673a5.831,5.831,0,0,0,4.522-2.387V40.7c.126-11.307-2.638-19.725-7.287-20.229l-1.131-.124a18.732,18.732,0,0,1-.126-2.388V16.576h26.259V40.7c0,15.576,1.13,18.843,7.285,21.984l1.257.629a5.7,5.7,0,0,1,.125,1.255l-22.739,9.3h-3.643v-10.3c-5.151,6.785-11.181,10.93-18.468,10.93-10.554,0-15.829-7.789-15.829-19.851V39.817c0-11.181-2.765-18.845-7.287-19.349l-1.257-.124a18.746,18.746,0,0,1-.125-2.388Z" transform="translate(538.521 1573.32)" fill="#f5f5f5"/>
    <path id="Path_636" data-name="Path 636" d="M266.883,72.482a18.736,18.736,0,0,1,.125-2.387l1.131-.126c4.773-.5,7.285-8.793,7.285-20.227,0-15.578-1.13-18.594-7.285-21.984l-1.131-.629a5.716,5.716,0,0,1-.125-1.255l22.739-9.3h3.52V34.918c2.386-5.779,7.411-16.457,14.95-17.839,7.16-1.257,10.427,2.763,11.558,9.422.753,5.275-3.518,9.548-6.283,8.542-3.141-1.13-6.03-3.642-9.55-3.642-3.014,0-6.4,1.884-10.676,8.164V50.623c0,11.181,2.761,18.845,7.285,19.347l1.257.126a18.731,18.731,0,0,1,.125,2.387v1.382H266.883Z" transform="translate(568.358 1573.321)" fill="#f5f5f5"/>
    <path id="Path_637" data-name="Path 637" d="M309.767,10.451l22.865-9.3h3.518v31.66c2.134-3.267,8.919-5.4,18.341-5.4,14.073,0,23.116,11.683,23.116,29.9,0,17.464-12.309,28.645-31.658,28.645-7.412,0-12.438-4.649-17.966-4.649a9.59,9.59,0,0,0-7.663,4.022h-1.883V34.445c0-15.7-1.259-18.718-7.414-22.11l-1.13-.629a7.34,7.34,0,0,1-.125-1.255M345.949,80.8c7.289,0,11.934-7.287,11.934-18.594,0-16.205-6.659-26.634-17.084-26.634-2.641,0-4.4.753-4.649,1.884V62.714c0,11.056,3.769,18.09,9.8,18.09" transform="translate(600.233 1561.857)" fill="#f5f5f5"/>
    <path id="Path_638" data-name="Path 638" d="M350.63,84.8a18.474,18.474,0,0,1,.127-2.387l1.13-.127c4.775-.5,7.412-8.791,7.412-20.1,0-15.705-1.257-18.719-7.412-22.11l-1.13-.629a7.242,7.242,0,0,1-.127-1.255L373.5,28.9h3.518V62.944c0,11.181,2.889,18.843,7.287,19.345l1.257.127a18.731,18.731,0,0,1,.125,2.387v1.382H350.63Zm6.785-74.752C357.415,3.9,361.184,0,367.216,0c5.9,0,9.673,3.9,9.673,10.052S373.12,20.1,367.216,20.1c-6.032,0-9.8-3.9-9.8-10.052" transform="translate(630.605 1561)" fill="#f5f5f5"/>
    <path id="Path_639" data-name="Path 639" d="M383.929,89.217c-5.9-2.639-9.421-7.287-9.421-13.066,0-6.283,2.889-9.926,7.412-12.187-6.032-3.516-9.55-9.044-9.55-15.954,0-12.438,11.309-21.61,27.138-21.61a34.15,34.15,0,0,1,18.341,5.026c4.4-8.795,14.072-25.881,29.148-28.518,9.924-1.761,15.452,2.638,15.705,7.536.5,5.781-4.775,12.062-11.811,9.926a27.185,27.185,0,0,0-7.914-1.257c-10.679,0-17.337,7.412-22.614,14.2,4.522,3.769,7.287,8.795,7.287,14.7,0,12.311-12.564,20.227-28.142,20.227a39.112,39.112,0,0,1-11.936-1.759,5.2,5.2,0,0,0-1,3.391c0,2.639,2.889,4.4,7.287,4.649,0,0,11.809.126,13.442.251,13.819,1.006,24.5,8.291,25.127,17.964,1.13,17.339-17.715,25.882-36.685,25.379-10.428-.251-23.494-5.026-24.122-15.327-.5-8.167,4.649-12.313,12.311-13.568m13.193,24.373c13.568,0,21.733-4.4,20.225-13.191-1-6.03-7.16-7.789-16.082-8.417-4.9-.378-8.04,0-11.933-.88-3.645.753-5.906,3.643-5.906,10.177,0,5.9,4.524,12.311,13.7,12.311m-8.167-65.58c0,9.673,4.773,16.082,10.554,16.082s11.683-6.408,11.683-16.082c0-9.8-5.9-17.337-11.683-17.337s-10.554,7.538-10.554,17.337" transform="translate(646.181 1562.867)" fill="#f5f5f5"/>
    <path id="Path_640" data-name="Path 640" d="M420.9,30.7v-2.01c6.032-1.257,14.95-9.673,22.488-21.484h2.89V23.541h16.709V30.7H446.28s-.126,24.749-.126,35.68c0,5.528,1.381,6.91,6.281,6.91,2.263,0,6.91-1.382,10.8-7.034l1.257,1.632c-6.534,11.683-16.458,13.568-20.731,13.568-12.06,0-15.576-3.769-15.576-18.217V30.7Z" transform="translate(682.836 1566.356)" fill="#f5f5f5"/>
    <path id="Path_641" data-name="Path 641" d="M468.578,1.153H472.1V36.081c3.516-4.4,11.181-8.669,20.855-8.669,9.924,0,13.568,7.536,13.568,19.347V62.087c0,11.181,2.765,18.843,7.287,19.345l1.255.127a18.432,18.432,0,0,1,.127,2.387v1.382h-69.1V81.56l1.13-.127c4.524-.5,7.287-8.164,7.287-19.345V34.321c0-15.578-1.257-18.592-7.412-21.984l-1.13-.629a5.625,5.625,0,0,1-.127-1.257Zm11.934,34.173c-2.387,0-5.275,1.633-8.417,5.9V62.087c0,11.181,2.889,18.843,7.287,19.345l1.13.127h.378l.628-.127c4.522-.879,7.287-8.164,7.287-19.345V48.643c0-6.157-3.141-13.317-8.293-13.317" transform="translate(701.37 1561.857)" fill="#f5f5f5"/>
    <path id="Path_642" data-name="Path 642" d="M486.7,84.8a18.466,18.466,0,0,1,.127-2.387l1.13-.127c4.775-.5,7.412-8.791,7.412-20.1,0-15.705-1.257-18.719-7.412-22.11l-1.13-.629A7.238,7.238,0,0,1,486.7,38.2l22.866-9.3h3.518V62.944c0,11.181,2.889,18.843,7.287,19.345l1.257.127a18.731,18.731,0,0,1,.125,2.387v1.382H486.7Zm6.785-74.752C493.488,3.9,497.257,0,503.289,0c5.9,0,9.673,3.9,9.673,10.052S509.193,20.1,503.289,20.1c-6.032,0-9.8-3.9-9.8-10.052" transform="translate(731.745 1561)" fill="#f5f5f5"/>
    <path id="Path_643" data-name="Path 643" d="M551.648,37.447c0-6.283-3.14-13.442-8.291-13.442-2.512,0-5.528,1.884-8.92,6.658V50.891c0,11.181,2.765,18.843,7.161,19.347l1.131.126v3.769H508.18V72.75a18.466,18.466,0,0,1,.127-2.387l1.13-.126c4.773-.5,7.412-8.793,7.412-20.227,0-15.578-1.257-18.594-7.412-21.984l-1.13-.629a5.636,5.636,0,0,1-.127-1.255l22.739-9.3h3.518v8.668c3.267-4.522,11.181-9.3,21.359-9.3,9.924,0,13.568,7.538,13.568,19.347V58.428c0,10.679.251,13.821.251,15.078,0,4.02.376,15.829,5.4,17.462,6.406,2.136,10.554-4.271,13.568-7.538a6.836,6.836,0,0,1,5.151-2.137c3.518,0,7.161,2.263,7.663,5.906.88,6.658-3.267,10.679-9.673,12.313a36.8,36.8,0,0,1-8.418,1c-5.777,0-11.683-1.381-16.08-4.271-3.392-2.261-15.58-8.544-15.58-27.64Z" transform="translate(747.708 1573.052)" fill="#f5f5f5"/>
    <path id="Path_644" data-name="Path 644" d="M547.82,85.328V83.946a19,19,0,0,1,.124-2.387l1.133-.126c4.52-.5,7.412-8.166,7.412-19.347V34.447c0-15.7-1.257-18.719-7.412-22.112l-1.133-.628a7.474,7.474,0,0,1-.124-1.257l22.865-9.3H574.2v52.64l2.889-2.512c12.689-11.056,19.349-18.721,17.715-19.349-.628-.249-.5-.5-.5-2.512V28.041h20.6v3.769l-1.506.124c-4.147.378-12.815,5.4-23.243,13.191L604.731,64.6c7.663,9.8,15.2,16.458,19.725,16.835l1.506.126v3.769H589.278V83.946a18.7,18.7,0,0,1,.126-2.387l.628-.126c2.639-.5-1-8.291-9.548-19.347-2.136-2.765-4.147-5.528-6.281-8.293v8.293c0,11.181,2.889,18.845,7.285,19.347l1.257.126a18.741,18.741,0,0,1,.125,2.387v1.382Z" transform="translate(777.172 1561.857)" fill="#f5f5f5"/>
    <path id="Path_645" data-name="Path 645" d="M622.942,16.216c15.7,0,25.755,11.558,25.755,29.4l-37.69.629C612.639,57.424,618.8,66.218,634,65.087c3.267-.251,8.167-3.141,12.313-9.3l2.01,1.759C641.912,69.987,629.1,74.76,620.3,74.76c-17.337,0-28.52-10.3-28.52-26.383,0-19.6,12.062-32.162,31.157-32.162M610.63,42.222H625.2c12.564-.5,9.3-20.857-3.267-20.857-7.034,0-11.558,8.418-11.305,20.857" transform="translate(809.849 1573.052)" fill="#f5f5f5"/>
    <path id="Path_646" data-name="Path 646" d="M649.261,26.9h3.52V39.97c4.9-13.7,19.974-39.072,49.248-37.188,5.9.375,9.3,3.643,9.3,9.924a7.686,7.686,0,0,1-10.176,7.412,42.111,42.111,0,0,0-14.576-2.89c-19.221,0-28.769,17.337-33.793,29.775V60.95c0,11.181,2.763,18.843,7.285,19.347l1.257.126a18.731,18.731,0,0,1,.125,2.387v1.382H626.522V82.809a18.731,18.731,0,0,1,.125-2.387l1.131-.126c4.773-.5,7.287-8.793,7.287-20.227,0-15.58-1.131-18.594-7.287-21.984l-1.131-.629a5.715,5.715,0,0,1-.125-1.255Zm19.474,37.813c.5,0,.879.126,1.634.126,2.512,6.91,9.17,16.46,18.217,16.46,6.156,0,10.05-3.394,10.05-8.669,0-3.52-4.147-7.412-10.679-9.924-11.307-4.4-18.594-11.811-18.594-18.344,0-10.8,10.052-18.97,26.383-18.97,5.026,0,13.7,1.884,17.464,6.283l-.5,13.821h-1.759c-3.267-6.408-7.289-15.58-14.825-15.958-7.412-.377-12.062,4.147-12.187,8.546-.125,4.271,6.91,6.783,17.59,11.054,7.787,3.141,12.813,10.05,12.813,16.835,0,11.934-10.427,19.474-26.885,19.474-7.036,0-13.819-2.261-17.964-5.655Z" transform="translate(835.669 1562.994)" fill="#f5f5f5"/>
  </g>
</svg>
