<svg xmlns="http://www.w3.org/2000/svg" width="271.18" height="162.585" viewBox="0 0 271.18 162.585">
  <g id="Group_586" data-name="Group 586" transform="translate(-60.999 -1179.416)">
    <g id="Group_583" data-name="Group 583" transform="translate(-124.811 1179.081)">
      <path id="Path_1240" data-name="Path 1240" d="M223.167,25.309c0-3.214-1.675-6.763-4.354-6.763-1.339,0-2.945.937-4.753,3.347V32.473c0,5.959,1.473,10.043,3.883,10.312l.6.066h.135l-.067,2.009H200.135V42.851l.669-.066c2.41-.268,3.816-4.353,3.816-10.312v-14.8c0-8.3-.6-10.043-3.883-11.717l-.669-.334a3,3,0,0,1-.068-.67L212.118,0h1.942V18.547a16.641,16.641,0,0,1,11.315-4.553c5.29,0,7.231,4.018,7.231,10.312V36.49c0,5.691.136,7.365.136,8.034,0,2.277.2,8.369,2.945,9.306,3.347,1.139,5.557-2.276,7.163-4.017a3.648,3.648,0,0,1,2.746-1.138,3.99,3.99,0,0,1,4.084,3.147c.535,3.549-1.741,5.691-5.156,6.562a19.6,19.6,0,0,1-4.485.536,15.7,15.7,0,0,1-8.5-2.276c-1.876-1.206-8.369-4.553-8.369-14.73Z" transform="translate(-14.189 52)" fill="#f5f5f5"/>
      <path id="Path_1241" data-name="Path 1241" d="M257.232,28.73V23.508c0-3.415-.937-5.624-2.411-5.624-2.946,0-4.351,3.214-3.749,7.9a18.278,18.278,0,0,1-4.687.737,20.648,20.648,0,0,1-4.82-.737c-.871-6.293,5.624-10.914,15.4-10.579,6.227.2,10.244,4.085,10.244,10.512V37.3c0,2.88.536,4.755,2.612,4.755a2.815,2.815,0,0,0,2.811-1.407l1,1.272c-1.606,2.946-4.285,4.821-10.244,4.821-2.677,0-4.753-1.2-5.49-3.28a17.8,17.8,0,0,1-9.24,2.946,8.075,8.075,0,0,1-8.3-8.034c0-7.834,10.98-9.374,16.872-9.642m-2.745,12.922a4.953,4.953,0,0,0,2.812-.871L257.232,30.6c-3.683,0-7.431,1.74-7.431,6.226a4.606,4.606,0,0,0,4.686,4.821" transform="translate(-17.054 50.922)" fill="#f5f5f5"/>
      <path id="Path_1242" data-name="Path 1242" d="M275.676,45.191a9.966,9.966,0,0,1,.067-1.272l.67-.067c2.477-.268,3.883-4.687,3.883-10.78,0-8.3-.6-10.043-3.883-11.717l-.67-.334a3.04,3.04,0,0,1-.067-.67L287.795,15.4h1.876v4.62c1.74-2.41,5.958-4.955,11.381-4.955,5.29,0,7.232,4.017,7.232,10.311v8.168c0,5.96,1.474,10.044,3.883,10.312l.67.067a9.966,9.966,0,0,1,.067,1.272v.737H294.758V43.919l.4-.067c2.41-.4,3.683-4.352,3.683-10.312V26.378c0-3.348-1.674-7.165-4.419-7.165-1.34,0-2.946,1-4.753,3.549V33.541c0,5.96,1.472,10.044,3.882,10.312l.535.067v2.009H275.676Z" transform="translate(-19.559 50.931)" fill="#f5f5f5"/>
      <path id="Path_1243" data-name="Path 1243" d="M317.19,31.736c0-10.848,6.293-17.743,16.136-17.743a8.637,8.637,0,0,1,5.087,1.741c-.133-6.629-.87-8.236-3.883-9.775l-.67-.335a3.034,3.034,0,0,1-.067-.669L345.913,0h1.874V27.183c0,8.3.67,9.909,3.95,11.717l.6.334a3.049,3.049,0,0,1,.067.67l-12.118,4.955h-1.876V40.306c-2.611,3.013-5.824,4.888-8.7,4.888-7.7,0-12.52-5.222-12.52-13.457m17.675,7.5a7.305,7.305,0,0,0,3.548-.8V19.751a6.638,6.638,0,0,0-5.557-3.08c-3.548,0-5.825,4.419-5.825,11.383,0,6.829,3.081,11.181,7.834,11.181" transform="translate(-22.504 52)" fill="#f5f5f5"/>
      <path id="Path_1244" data-name="Path 1244" d="M356.4,35.5c.2,0,.4.067.8.067,1.339,3.683,4.887,8.771,9.775,8.771,3.213,0,5.289-1.808,5.289-4.62,0-1.875-2.209-3.95-5.625-5.289-6.024-2.343-9.975-6.495-9.975-9.976,0-5.758,5.357-10.11,14.06-10.11,2.746,0,7.3,1,9.374,3.347l-.268,7.365h-1.005c-1.739-3.414-3.883-8.3-7.833-8.5s-6.427,2.209-6.495,4.552c-.068,2.277,3.616,3.817,9.306,6.093,4.218,1.674,6.83,5.357,6.83,8.973,0,6.36-5.558,10.377-14.329,10.377a15.845,15.845,0,0,1-9.575-3.013Z" transform="translate(-25.286 50.982)" fill="#f5f5f5"/>
      <rect id="Rectangle_959" data-name="Rectangle 959" width="19.082" height="7.566" transform="translate(359.835 73.625)" fill="#f5f5f5"/>
      <path id="Path_1245" data-name="Path 1245" d="M413.838,30.663c0-9.508,6.561-15.6,16.939-15.6,10.244,0,16.806,6.093,16.806,15.6s-6.562,15.6-16.806,15.6c-10.378,0-16.939-6.093-16.939-15.6m16.939,13.39c4.017,0,6.629-5.222,6.629-13.39s-2.612-13.391-6.629-13.391-6.629,5.222-6.629,13.391,2.612,13.39,6.629,13.39" transform="translate(-29.361 50.931)" fill="#f5f5f5"/>
      <path id="Path_1246" data-name="Path 1246" d="M451.82,45.191a9.962,9.962,0,0,1,.067-1.272l.67-.067c2.477-.268,3.883-4.687,3.883-10.78,0-8.3-.6-10.043-3.883-11.717l-.67-.334a3.038,3.038,0,0,1-.067-.67L463.938,15.4h1.876v4.62c1.74-2.41,5.958-4.955,11.381-4.955,5.29,0,7.232,4.017,7.232,10.311v8.168c0,5.96,1.473,10.044,3.883,10.312l.67.067a9.957,9.957,0,0,1,.067,1.272v.737H470.9V43.919l.4-.067c2.41-.4,3.683-4.352,3.683-10.312V26.378c0-3.348-1.674-7.165-4.42-7.165-1.34,0-2.946,1-4.753,3.549V33.541c0,5.96,1.472,10.044,3.883,10.312l.535.067v2.009H451.82Z" transform="translate(-32.057 50.931)" fill="#f5f5f5"/>
    </g>
    <g id="Group_584" data-name="Group 584" transform="translate(133 -42)">
      <path id="Path_1247" data-name="Path 1247" d="M0,17.5C4.485,18.84,8.034,11.609,10.98,5.65h2.075v8.637C20.621,9.064,34.615.361,44.994.361a13.078,13.078,0,0,1,6.695,1.674c2.678,1.606,4.552,4.686,2.812,7.5a5.392,5.392,0,0,1-4.352,2.745,2.887,2.887,0,0,1-2.344-1.071C45.462,8.4,42.315,7.324,38.7,7.324c-8.3,0-18.747,5.892-25.644,10.177v.67s-.067,13.19-.067,19.015c0,2.946.736,3.682,3.347,3.682,1.206,0,3.683-.736,5.758-3.749l.67.871c-3.481,6.226-8.77,7.231-11.048,7.231-6.427,0-8.368-2.009-8.3-9.709l.066-14.662a6.406,6.406,0,0,1-3.414-.67Z" transform="translate(-22 1221.055)" fill="#f5f5f5"/>
      <path id="Path_1248" data-name="Path 1248" d="M24.649,30.663c0-9.508,6.561-15.6,16.939-15.6,10.244,0,16.806,6.093,16.806,15.6s-6.562,15.6-16.806,15.6c-10.378,0-16.939-6.093-16.939-15.6m16.939,13.39c4.017,0,6.629-5.222,6.629-13.39s-2.612-13.391-6.629-13.391S34.96,22.493,34.96,30.663s2.612,13.39,6.629,13.39" transform="translate(-23.749 1220.012)" fill="#f5f5f5"/>
      <path id="Path_1249" data-name="Path 1249" d="M77.766,30.663c0-9.508,6.561-15.6,16.939-15.6,10.244,0,16.806,6.093,16.806,15.6s-6.562,15.6-16.806,15.6c-10.378,0-16.939-6.093-16.939-15.6m16.939,13.39c4.017,0,6.629-5.222,6.629-13.39s-2.612-13.391-6.629-13.391-6.629,5.222-6.629,13.391,2.612,13.39,6.629,13.39" transform="translate(-27.518 1220.012)" fill="#f5f5f5"/>
      <path id="Path_1250" data-name="Path 1250" d="M115.388,15.422h14.06V34.7c0,3.148,2.142,5.156,6.428,5.156a3.111,3.111,0,0,0,2.41-1.272V28.277c.067-6.026-1.406-10.512-3.883-10.78l-.6-.067a9.962,9.962,0,0,1-.067-1.272v-.737h13.994V28.277c0,8.3.6,10.043,3.883,11.717l.67.334a3.047,3.047,0,0,1,.067.67l-12.119,4.955h-1.942V40.463c-2.745,3.616-5.959,5.825-9.842,5.825-5.624,0-8.436-4.151-8.436-10.579v-7.9c0-5.96-1.473-10.044-3.883-10.312l-.67-.067a9.963,9.963,0,0,1-.067-1.272Z" transform="translate(-30.187 1219.986)" fill="#f5f5f5"/>
      <path id="Path_1251" data-name="Path 1251" d="M155.531,45.217a9.962,9.962,0,0,1,.067-1.272l.6-.067c2.544-.268,3.882-4.687,3.882-10.78,0-8.3-.6-9.909-3.882-11.717l-.6-.334a3.038,3.038,0,0,1-.067-.67l12.119-4.955h1.876V25.2c1.272-3.08,3.949-8.771,7.968-9.507,3.816-.67,5.557,1.473,6.16,5.022.4,2.811-1.875,5.088-3.348,4.552-1.674-.6-3.214-1.942-5.089-1.942-1.606,0-3.413,1-5.69,4.353v5.891c0,5.96,1.472,10.044,3.882,10.312l.67.067a9.962,9.962,0,0,1,.067,1.272v.737H155.531Z" transform="translate(-33.035 1219.986)" fill="#f5f5f5"/>
    </g>
    <g id="Group_585" data-name="Group 585" transform="translate(0.096 -63)">
      <path id="Path_1252" data-name="Path 1252" d="M549.4,26.378c0-3.214-1.741-6.763-4.353-6.763-1.606,0-3.481,1.272-5.557,4.553v9.373c0,5.959,1.473,10.11,3.884,10.312l.87.066v2.009H526.1V43.919l.335-.066c2.411-.469,3.616-4.353,3.616-10.312V26.378c0-3.348-1.674-7.164-4.418-7.164-1.34,0-2.947,1-4.755,3.548v10.78c0,5.959,1.539,10.11,3.882,10.312l.737.066v2.009H506.883v-.737a9.847,9.847,0,0,1,.068-1.272l.6-.066c2.545-.268,3.95-4.687,3.95-10.78,0-8.3-.67-9.909-3.95-11.717l-.6-.335a3,3,0,0,1-.068-.669L519,15.4h1.875v4.619c1.741-2.41,5.959-4.955,11.382-4.955,3.95,0,6.026,2.21,6.829,5.959,2.41-3.414,7.566-5.959,12.521-5.959,5.289,0,7.231,4.018,7.231,10.312V37.559c0,5.691.134,7.365.134,8.034,0,2.142.2,8.437,2.879,9.306,3.414,1.139,5.625-2.276,7.231-4.017a3.644,3.644,0,0,1,2.745-1.138,3.989,3.989,0,0,1,4.084,3.147c.535,3.549-1.741,5.691-5.155,6.562a19.61,19.61,0,0,1-4.486.536,15.516,15.516,0,0,1-8.57-2.276c-1.808-1.206-8.3-4.553-8.3-14.73Z" transform="translate(-423.978 1345.012)" fill="#f5f5f5"/>
      <path id="Path_1253" data-name="Path 1253" d="M585.448,28.73V23.508c0-3.415-.937-5.624-2.411-5.624-2.946,0-4.351,3.214-3.749,7.9a18.277,18.277,0,0,1-4.687.737,20.647,20.647,0,0,1-4.82-.737c-.872-6.293,5.624-10.914,15.4-10.579,6.227.2,10.244,4.085,10.244,10.512V37.3c0,2.88.536,4.755,2.612,4.755a2.814,2.814,0,0,0,2.811-1.407l1,1.272c-1.606,2.946-4.285,4.821-10.244,4.821-2.677,0-4.753-1.2-5.49-3.28a17.8,17.8,0,0,1-9.24,2.946,8.075,8.075,0,0,1-8.3-8.034c0-7.834,10.98-9.374,16.872-9.642M582.7,41.652a4.952,4.952,0,0,0,2.811-.871L585.448,30.6c-3.683,0-7.431,1.74-7.431,6.226a4.606,4.606,0,0,0,4.687,4.821" transform="translate(-428.354 1345.003)" fill="#f5f5f5"/>
      <path id="Path_1254" data-name="Path 1254" d="M604.036,44.859v-.737a10.107,10.107,0,0,1,.066-1.272l.6-.067c2.409-.268,3.95-4.352,3.95-10.312V17.743c0-8.37-.67-9.976-3.95-11.784l-.6-.334a3.984,3.984,0,0,1-.066-.67L616.221,0H618.1V28.054l1.54-1.339c6.762-5.892,10.311-9.976,9.441-10.311-.334-.135-.268-.268-.268-1.34v-.737h10.98v2.009l-.8.068c-2.21.2-6.829,2.878-12.387,7.029l7.767,10.378c4.084,5.222,8.1,8.771,10.512,8.972l.8.067v2.009h-19.55v-.737a9.962,9.962,0,0,1,.067-1.272l.334-.067c1.407-.268-.535-4.419-5.088-10.312-1.138-1.473-2.21-2.945-3.347-4.419v4.419c0,5.96,1.54,10.044,3.883,10.312l.67.067a9.971,9.971,0,0,1,.067,1.272v.737Z" transform="translate(-430.871 1346.08)" fill="#f5f5f5"/>
      <path id="Path_1255" data-name="Path 1255" d="M664.6,15.062c8.369,0,13.726,6.16,13.726,15.668l-20.086.334c.87,5.959,4.151,10.646,12.252,10.043,1.741-.134,4.353-1.674,6.562-4.955l1.071.937A17.25,17.25,0,0,1,663.2,46.263c-9.239,0-15.2-5.491-15.2-14.061,0-10.444,6.428-17.14,16.6-17.14m-6.561,13.86h7.766c6.7-.268,4.955-11.114-1.741-11.114-3.749,0-6.16,4.485-6.025,11.114" transform="translate(-433.99 1345.012)" fill="#f5f5f5"/>
      <path id="Path_1256" data-name="Path 1256" d="M694.856,14.437h1.876V21.4c2.611-7.3,10.645-20.823,26.246-19.818,3.147.2,4.955,1.942,4.955,5.289a4.1,4.1,0,0,1-5.423,3.95,22.439,22.439,0,0,0-7.768-1.539c-10.244,0-15.332,9.239-18.009,15.867v7.432c0,5.959,1.473,10.043,3.882,10.312l.67.066a9.989,9.989,0,0,1,.067,1.272v.737H682.738v-.737a9.98,9.98,0,0,1,.067-1.272l.6-.066c2.544-.268,3.883-4.687,3.883-10.781,0-8.3-.6-9.909-3.883-11.716l-.6-.335a3.034,3.034,0,0,1-.067-.669ZM705.235,34.59c.268,0,.468.067.87.067,1.339,3.683,4.887,8.771,9.709,8.771,3.28,0,5.356-1.808,5.356-4.62,0-1.875-2.21-3.95-5.691-5.289-6.026-2.343-9.909-6.293-9.909-9.775,0-5.758,5.357-10.11,14.06-10.11,2.678,0,7.3,1,9.307,3.347l-.268,7.366h-.937c-1.741-3.415-3.884-8.3-7.9-8.5-3.95-.2-6.428,2.209-6.495,4.553-.067,2.276,3.683,3.615,9.374,5.891,4.15,1.674,6.828,5.357,6.828,8.973,0,6.36-5.557,10.377-14.328,10.377a15.694,15.694,0,0,1-9.574-3.013Z" transform="translate(-436.455 1345.972)" fill="#f5f5f5"/>
      <path id="Path_1257" data-name="Path 1257" d="M743.265,47.564c-2.411,0-3.95-2.411-3.95-5.089,0-3.214,2.009-5.288,5.155-5.288,4.017,0,6.093,3.816,6.093,7.5,0,6.561-3.682,12.252-9.441,14.462v-1.2c3.148-1.2,5.156-4.955,5.156-9.642a8.26,8.26,0,0,0-.2-1.807,4.949,4.949,0,0,1-2.811,1.071" transform="translate(-440.469 1343.442)" fill="#f5f5f5"/>
    </g>
  </g>
</svg>
