<svg xmlns="http://www.w3.org/2000/svg" xmlns:xlink="http://www.w3.org/1999/xlink" width="1202.801" height="111.051" viewBox="0 0 1202.801 111.051">
  <defs>
    <clipPath id="clip-path">
      <rect id="Rectangle_610" data-name="Rectangle 610" width="1202.801" height="111.051" fill="#f5f5f5"/>
    </clipPath>
  </defs>
  <g id="Group_324" data-name="Group 324" transform="translate(0 0)">
    <g id="Group_323" data-name="Group 323" transform="translate(0 0)" clip-path="url(#clip-path)">
      <path id="Path_665" data-name="Path 665" d="M0,33.242C8.3,35.72,14.873,22.335,20.326,11.3h3.842V27.293c14-9.669,39.91-25.78,59.121-25.78a24.21,24.21,0,0,1,12.393,3.1c4.958,2.974,8.427,8.675,5.206,13.88-1.859,3.1-5.082,5.082-8.056,5.082a5.344,5.344,0,0,1-4.339-1.983C84.156,16.386,78.332,14.4,71.638,14.4c-15.368,0-34.7,10.907-47.47,18.839v1.24s-.124,24.416-.124,35.2c0,5.453,1.362,6.816,6.2,6.816,2.232,0,6.817-1.362,10.659-6.939l1.24,1.611C35.7,82.694,25.905,84.553,21.688,84.553c-11.9,0-15.49-3.718-15.366-17.972L6.444,39.44A11.858,11.858,0,0,1,.124,38.2Z" transform="translate(0 1.089)" fill="#f5f5f5"/>
      <path id="Path_666" data-name="Path 666" d="M24.649,45.094c0-17.6,12.145-28.879,31.357-28.879,18.962,0,31.109,11.278,31.109,28.879S74.969,73.971,56.006,73.971c-19.212,0-31.357-11.278-31.357-28.877M56.006,69.881c7.436,0,12.271-9.667,12.271-24.787S63.442,20.3,56.006,20.3,43.735,29.972,43.735,45.094,48.57,69.881,56.006,69.881" transform="translate(17.742 11.671)" fill="#f5f5f5"/>
      <path id="Path_667" data-name="Path 667" d="M77.766,45.094c0-17.6,12.145-28.879,31.357-28.879,18.962,0,31.109,11.278,31.109,28.879s-12.147,28.877-31.109,28.877c-19.212,0-31.357-11.278-31.357-28.877m31.357,24.787c7.436,0,12.271-9.667,12.271-24.787S116.559,20.3,109.123,20.3,96.852,29.972,96.852,45.094s4.834,24.787,12.271,24.787" transform="translate(55.976 11.671)" fill="#f5f5f5"/>
      <path id="Path_668" data-name="Path 668" d="M115.388,16.575h26.027V52.269c0,5.827,3.966,9.545,11.9,9.545a5.758,5.758,0,0,0,4.461-2.354V40.372c.124-11.155-2.6-19.459-7.189-19.955l-1.116-.124a18.444,18.444,0,0,1-.124-2.354V16.575h25.905v23.8c0,15.368,1.114,18.591,7.187,21.69l1.24.619a5.643,5.643,0,0,1,.124,1.24L161.37,73.093h-3.594V62.929c-5.082,6.693-11.031,10.783-18.22,10.783-10.412,0-15.616-7.684-15.616-19.583V39.505c0-11.032-2.728-18.593-7.189-19.088l-1.24-.124a18.442,18.442,0,0,1-.124-2.354Z" transform="translate(83.056 11.93)" fill="#f5f5f5"/>
      <path id="Path_669" data-name="Path 669" d="M155.531,81.014a18.444,18.444,0,0,1,.124-2.354l1.116-.124c4.709-.5,7.187-8.676,7.187-19.955,0-15.368-1.114-18.343-7.187-21.69l-1.116-.619a5.625,5.625,0,0,1-.124-1.24l22.433-9.172h3.472V43.832c3.84-13.261,16.483-40.157,38.42-40.157,5.7,0,10.038,4.091,10.038,10.288a7.644,7.644,0,0,1-9.913,7.313,32.068,32.068,0,0,0-9.172-1.488c-17.724,0-24.665,18.343-29.374,31.233v8.427c0,11.032,2.724,18.593,7.187,19.088l1.24.124a18.444,18.444,0,0,1,.124,2.354v1.364H155.531Z" transform="translate(111.951 2.645)" fill="#f5f5f5"/>
      <path id="Path_670" data-name="Path 670" d="M196.468,54.66c.373,0,.745.124,1.488.124,2.48,6.817,9.048,16.237,18.1,16.237,5.951,0,9.791-3.347,9.791-8.553,0-3.471-4.09-7.313-10.412-9.791-11.153-4.337-18.465-12.023-18.465-18.467,0-10.659,9.915-18.715,26.027-18.715,5.082,0,13.509,1.859,17.351,6.2l-.5,13.633h-1.859c-3.221-6.32-7.189-15.368-14.5-15.74s-11.9,4.09-12.021,8.427c-.126,4.215,6.692,7.065,17.227,11.278,7.808,3.1,12.642,9.916,12.642,16.61,0,11.774-10.288,19.21-26.524,19.21-6.817,0-13.633-2.231-17.724-5.577Z" transform="translate(141.417 11.153)" fill="#f5f5f5"/>
      <path id="Path_671" data-name="Path 671" d="M302.7,37.162c0-5.949-3.221-12.518-8.056-12.518-2.975,0-6.446,2.354-10.288,8.429V50.423c0,11.031,2.728,18.715,7.191,19.088l1.61.122v3.718H259.572V69.634l.619-.122c4.463-.868,6.693-8.057,6.693-19.088V37.162c0-6.2-3.1-13.261-8.179-13.261-2.478,0-5.455,1.859-8.8,6.568V50.423c0,11.031,2.85,18.715,7.187,19.088l1.364.122v3.718H224V71.988a18.225,18.225,0,0,1,.126-2.354l1.114-.122c4.711-.5,7.313-8.676,7.313-19.955,0-15.37-1.24-18.343-7.313-21.69l-1.114-.621A5.544,5.544,0,0,1,224,26.008l22.435-9.172h3.471v8.551c3.223-4.461,11.031-9.172,21.069-9.172,7.313,0,11.155,4.091,12.642,11.031,4.461-6.32,14.006-11.031,23.178-11.031,9.791,0,13.385,7.438,13.385,19.088V57.86c0,10.535.248,13.633.248,14.873,0,3.966.371,15.617,5.33,17.227,6.32,2.108,10.412-4.214,13.385-7.436a6.747,6.747,0,0,1,5.082-2.107c3.471,0,7.065,2.231,7.56,5.825.991,6.57-3.223,10.535-9.543,12.147a36.3,36.3,0,0,1-8.3.992c-5.7,0-11.4-1.24-15.863-4.214-3.347-2.232-15.37-8.429-15.37-27.267Z" transform="translate(161.234 11.671)" fill="#f5f5f5"/>
      <path id="Path_672" data-name="Path 672" d="M285.333,83.659a18.192,18.192,0,0,1,.126-2.354l1.114-.124c4.711-.5,7.313-8.676,7.313-19.831,0-15.494-1.24-18.467-7.313-21.814l-1.114-.619a7.176,7.176,0,0,1-.126-1.24l22.559-9.172h3.471V62.093c0,11.031,2.85,18.591,7.189,19.088l1.24.124a18.439,18.439,0,0,1,.124,2.354v1.364H285.333Zm6.693-73.745C292.026,3.842,295.745,0,301.7,0c5.825,0,9.543,3.842,9.543,9.915s-3.718,9.916-9.543,9.916c-5.95,0-9.669-3.844-9.669-9.916" transform="translate(205.382 -0.001)" fill="#f5f5f5"/>
      <path id="Path_673" data-name="Path 673" d="M329.151,1.153h3.472V61.265c0,11.031,2.85,18.591,7.187,19.086l1.24.124a18.439,18.439,0,0,1,.124,2.354v1.364h-34.58V82.83a18.439,18.439,0,0,1,.124-2.354l1.114-.124c4.463-.5,7.313-8.056,7.313-19.086V34c0-15.494-1.238-18.467-7.313-21.814l-1.114-.619a7.271,7.271,0,0,1-.124-1.24Z" transform="translate(220.685 0.829)" fill="#f5f5f5"/>
      <path id="Path_674" data-name="Path 674" d="M359.386,16.215c15.492,0,25.408,11.4,25.408,29l-37.182.619c1.61,11.031,7.684,19.707,22.681,18.591,3.223-.248,8.057-3.1,12.147-9.172l1.983,1.735C378.1,69.262,365.46,73.973,356.784,73.973c-17.1,0-28.136-10.164-28.136-26.029,0-19.334,11.9-31.729,30.738-31.729M347.241,41.871h14.376c12.395-.5,9.172-20.574-3.223-20.574-6.939,0-11.4,8.3-11.153,20.574" transform="translate(236.559 11.671)" fill="#f5f5f5"/>
      <path id="Path_675" data-name="Path 675" d="M377.441,59.9c0-20.079,11.652-32.845,29.869-32.845a15.994,15.994,0,0,1,9.421,3.223c-.249-12.271-1.611-15.246-7.189-18.1l-1.238-.621a5.544,5.544,0,0,1-.126-1.238l22.433-9.172h3.472v50.32l.122,31.233a3.435,3.435,0,0,1,.124,1.116c.126,10.905,2.6,15.617,5.453,16.608,6.2,2.105,10.288-4.214,13.385-7.436a7.113,7.113,0,0,1,5.084-1.985c3.469,0,7.063,2.108,7.56,5.7.991,6.568-3.347,10.535-9.545,12.145a34.211,34.211,0,0,1-9.3,1.24c-16.606,0-30.986-11.9-30.241-34.332-4.834,5.577-10.783,9.048-16.113,9.048-14.252,0-23.178-9.667-23.178-24.911m18.22-6.817c0,12.642,5.7,20.7,14.5,20.7a13.533,13.533,0,0,0,6.568-1.488V37.714a12.287,12.287,0,0,0-10.286-5.7c-6.57,0-10.785,8.179-10.785,21.069" transform="translate(271.68 0.829)" fill="#f5f5f5"/>
      <path id="Path_676" data-name="Path 676" d="M448.107,16.215c15.492,0,25.408,11.4,25.408,29l-37.182.619c1.61,11.031,7.684,19.707,22.681,18.591,3.223-.248,8.057-3.1,12.147-9.172l1.983,1.735c-6.322,12.271-18.962,16.981-27.639,16.981-17.1,0-28.136-10.164-28.136-26.029,0-19.334,11.9-31.729,30.738-31.729M435.962,41.871h14.376c12.395-.5,9.172-20.574-3.223-20.574-6.939,0-11.4,8.3-11.153,20.574" transform="translate(300.42 11.671)" fill="#f5f5f5"/>
      <path id="Path_677" data-name="Path 677" d="M474.233,1.153h3.472V61.265c0,11.031,2.85,18.591,7.187,19.086l1.24.124a18.439,18.439,0,0,1,.124,2.354v1.364h-34.58V82.83a18.439,18.439,0,0,1,.124-2.354l1.114-.124c4.463-.5,7.313-8.056,7.313-19.086V34c0-15.494-1.238-18.467-7.313-21.814l-1.114-.619a7.271,7.271,0,0,1-.124-1.24Z" transform="translate(325.114 0.829)" fill="#f5f5f5"/>
      <path id="Path_678" data-name="Path 678" d="M472.936,83.659a18.2,18.2,0,0,1,.125-2.354l1.114-.124c4.711-.5,7.313-8.676,7.313-19.831,0-15.494-1.24-18.467-7.313-21.814l-1.114-.619a7.18,7.18,0,0,1-.125-1.24l22.559-9.172h3.471V62.093c0,11.031,2.85,18.591,7.189,19.088l1.24.124a18.439,18.439,0,0,1,.124,2.354v1.364H472.936Zm6.693-73.745C479.629,3.842,483.348,0,489.3,0c5.825,0,9.543,3.842,9.543,9.915s-3.718,9.916-9.543,9.916c-5.951,0-9.669-3.844-9.669-9.916" transform="translate(340.417 -0.001)" fill="#f5f5f5"/>
      <path id="Path_679" data-name="Path 679" d="M488.649,28.093h37.306v1.364a18.448,18.448,0,0,1-.124,2.354l-1.24.124c-4.214.371-3.223,8.056,2.851,19.088,2.6,4.709,4.461,8.8,7.065,13.633l6.073-11.65c3.347-7.932,21.814-51.931,46.354-52.428,5.7-.124,11.652,2.6,11.652,8.8,0,5.577-3.968,10.907-8.676,9.543a26.268,26.268,0,0,0-7.313-1.114c-17.848,0-29.25,19.21-36.068,33.216l-17.1,34.826H526.08L507.242,51.023c-1.24-2.6-5.084-7.933-6.447-10.164-3.964-5.577-8.8-8.676-12.145-9.048Z" transform="translate(351.727 0.412)" fill="#f5f5f5"/>
      <path id="Path_680" data-name="Path 680" d="M560.683,16.215c15.492,0,25.408,11.4,25.408,29l-37.182.619c1.61,11.031,7.684,19.707,22.681,18.591,3.223-.248,8.057-3.1,12.147-9.172l1.983,1.735c-6.322,12.271-18.963,16.981-27.639,16.981-17.1,0-28.136-10.164-28.136-26.029,0-19.334,11.9-31.729,30.738-31.729M548.538,41.871h14.376c12.395-.5,9.172-20.574-3.223-20.574-6.939,0-11.4,8.3-11.153,20.574" transform="translate(381.452 11.671)" fill="#f5f5f5"/>
      <path id="Path_681" data-name="Path 681" d="M564.685,71.729a18.43,18.43,0,0,1,.124-2.354l1.116-.124c4.709-.5,7.187-8.676,7.187-19.955,0-15.368-1.114-18.343-7.187-21.69l-1.116-.619a5.621,5.621,0,0,1-.124-1.24l22.433-9.172h3.472v18.1c2.354-5.7,7.311-16.237,14.749-17.6,7.063-1.24,10.286,2.726,11.4,9.3.743,5.2-3.471,9.419-6.2,8.427-3.1-1.116-5.949-3.594-9.421-3.594-2.974,0-6.319,1.859-10.532,8.057V50.163c0,11.032,2.724,18.593,7.187,19.088l1.24.124a18.457,18.457,0,0,1,.124,2.354v1.364H564.685Z" transform="translate(406.458 11.93)" fill="#f5f5f5"/>
      <path id="Path_682" data-name="Path 682" d="M627.278,16.215c15.492,0,25.408,11.4,25.408,29l-37.182.619c1.61,11.031,7.684,19.707,22.681,18.591,3.223-.248,8.057-3.1,12.147-9.172l1.983,1.735c-6.322,12.271-18.962,16.981-27.639,16.981-17.1,0-28.136-10.164-28.136-26.029,0-19.334,11.9-31.729,30.738-31.729M615.133,41.871h14.376c12.395-.5,9.172-20.574-3.223-20.574-6.939,0-11.4,8.3-11.153,20.574" transform="translate(429.387 11.671)" fill="#f5f5f5"/>
      <path id="Path_683" data-name="Path 683" d="M653.712,26.577h3.472v12.89C662.017,25.956,676.89.921,705.769,2.78c5.825.371,9.172,3.594,9.172,9.791A7.581,7.581,0,0,1,704.9,19.883a41.539,41.539,0,0,0-14.379-2.85c-18.963,0-28.382,17.1-33.338,29.372V60.164c0,11.031,2.726,18.591,7.187,19.088l1.24.122a18.464,18.464,0,0,1,.124,2.354v1.364H631.279V81.729a18.482,18.482,0,0,1,.124-2.354l1.116-.122c4.709-.5,7.189-8.676,7.189-19.957,0-15.368-1.116-18.343-7.189-21.688l-1.116-.621a5.619,5.619,0,0,1-.124-1.238Zm19.212,37.306c.5,0,.867.124,1.611.124,2.478,6.817,9.046,16.237,17.972,16.237,6.073,0,9.915-3.347,9.915-8.553,0-3.471-4.091-7.313-10.535-9.791-11.155-4.337-18.343-11.65-18.343-18.1,0-10.659,9.916-18.715,26.027-18.715,4.958,0,13.511,1.859,17.229,6.2l-.5,13.635h-1.735c-3.223-6.322-7.19-15.37-14.625-15.741-7.313-.371-11.9,4.09-12.023,8.429-.124,4.214,6.817,6.692,17.353,10.905,7.682,3.1,12.64,9.916,12.64,16.61,0,11.774-10.286,19.21-26.523,19.21-6.941,0-13.633-2.231-17.722-5.577Z" transform="translate(454.392 1.93)" fill="#f5f5f5"/>
      <path id="Path_684" data-name="Path 684" d="M697.883,38.268c5.825,0,9.543,3.842,9.543,9.915s-3.718,9.916-9.543,9.916c-5.949,0-9.667-3.842-9.667-9.916s3.718-9.915,9.667-9.915" transform="translate(495.375 27.545)" fill="#f5f5f5"/>
    </g>
  </g>
</svg>
