<svg xmlns="http://www.w3.org/2000/svg" xmlns:xlink="http://www.w3.org/1999/xlink" width="1037.417" height="119.006" viewBox="0 0 1037.417 119.006">
  <defs>
    <clipPath id="clip-path">
      <rect id="Rectangle_780" data-name="Rectangle 780" width="1037.417" height="119.006" fill="#f5f5f5"/>
    </clipPath>
  </defs>
  <g id="Group_452" data-name="Group 452" transform="translate(0 0)">
    <g id="Group_451" data-name="Group 451" transform="translate(0 0)" clip-path="url(#clip-path)">
      <path id="Path_794" data-name="Path 794" d="M0,83.42V82.033a18.791,18.791,0,0,1,.126-2.395l1.135-.126C5.8,79.008,8.7,71.319,8.7,60.1V26.061C8.7,14.842,5.8,7.153,1.261,6.649L.126,6.523A18.791,18.791,0,0,1,0,4.128V2.741H37.188V4.128a18.537,18.537,0,0,1-.128,2.395L35.8,6.649c-4.537.5-7.312,8.193-7.312,19.413V40.937H60.257V26.061c0-11.219-2.773-18.909-7.31-19.413l-1.261-.126a18.791,18.791,0,0,1-.126-2.395V2.741H88.62V4.128A19.052,19.052,0,0,1,88.5,6.523l-1.261.126c-4.539.5-7.313,8.193-7.313,19.413V60.1c0,11.219,2.774,18.909,7.313,19.413l1.261.126a19.052,19.052,0,0,1,.124,2.395V83.42H51.56V82.033a18.791,18.791,0,0,1,.126-2.395l1.261-.126c4.537-.5,7.31-8.193,7.31-19.413V46.106H28.489V60.1c0,11.219,2.774,18.909,7.312,19.413l1.259.126a18.537,18.537,0,0,1,.128,2.395V83.42Z" transform="translate(0 2.054)" fill="#f5f5f5"/>
      <path id="Path_795" data-name="Path 795" d="M84.019,41.263V31.43c0-6.43-1.765-10.59-4.539-10.59-5.547,0-8.192,6.051-7.058,14.875A34.336,34.336,0,0,1,63.6,37.1a38.783,38.783,0,0,1-9.075-1.387C52.882,23.867,65.112,15.168,83.516,15.8c11.723.38,19.287,7.691,19.287,19.792V57.4c0,5.421,1.009,8.952,4.917,8.952,2.9,0,4.412-1.011,5.293-2.648L114.9,66.1c-3.024,5.547-8.067,9.078-19.287,9.078-5.041,0-8.949-2.27-10.336-6.178-4.286,2.773-10.716,5.547-17.4,5.547A15.2,15.2,0,0,1,52.252,59.416c0-14.749,20.674-17.65,31.767-18.153m-5.167,24.33a9.323,9.323,0,0,0,5.293-1.639l-.126-19.161c-6.934,0-13.992,3.276-13.992,11.725a8.672,8.672,0,0,0,8.825,9.075" transform="translate(39.148 11.812)" fill="#f5f5f5"/>
      <path id="Path_796" data-name="Path 796" d="M88.215,103.882a18.536,18.536,0,0,1,.128-2.395l1.133-.124c4.539-.507,7.312-8.2,7.312-19.414v-32.4c0-15.631-1.135-18.657-7.312-22.059l-1.133-.63a5.665,5.665,0,0,1-.128-1.261l22.817-9.329h3.532v5.8c2.647-3.4,10.084-6.427,18.909-6.427,14.244,0,25.463,13.614,24.708,33.027-.756,17.9-16.64,26.976-30.254,26.976-5.043,0-9.832-1.259-13.362-3.908v8.2c0,11.219,2.773,20.924,7.312,21.431l1.259.124a18.538,18.538,0,0,1,.128,2.395v1.387H88.215Zm26.348-76.9V55.6a14.7,14.7,0,0,0,.124,2.4v4.286c1.767,4.287,5.548,7.06,9.078,7.186,8.825.252,14.5-6.3,14.5-17.649,0-16.261-8.575-29.876-18.657-27.858a8.057,8.057,0,0,0-5.043,3.024" transform="translate(66.091 11.719)" fill="#f5f5f5"/>
      <path id="Path_797" data-name="Path 797" d="M130.667,103.882a18.54,18.54,0,0,1,.128-2.395l1.132-.124c4.539-.507,7.313-8.2,7.313-19.414v-32.4c0-15.631-1.135-18.657-7.313-22.059l-1.132-.63a5.667,5.667,0,0,1-.128-1.261l22.815-9.329h3.533v5.8c2.645-3.4,10.084-6.427,18.909-6.427,14.242,0,25.461,13.614,24.708,33.027-.757,17.9-16.64,26.976-30.256,26.976-5.041,0-9.832-1.259-13.36-3.908v8.2c0,11.219,2.771,20.924,7.312,21.431l1.259.124a18.79,18.79,0,0,1,.126,2.395v1.387H130.667Zm26.348-76.9V55.6a14.7,14.7,0,0,0,.124,2.4v4.286c1.767,4.287,5.549,7.06,9.077,7.186,8.826.252,14.5-6.3,14.5-17.649,0-16.261-8.576-29.876-18.657-27.858a8.052,8.052,0,0,0-5.043,3.024" transform="translate(97.897 11.719)" fill="#f5f5f5"/>
      <path id="Path_798" data-name="Path 798" d="M204.741,15.641c15.757,0,25.843,11.6,25.843,29.5l-37.818.631c1.637,11.219,7.816,20.044,23.069,18.909,3.278-.252,8.2-3.152,12.355-9.329l2.017,1.765c-6.43,12.481-19.287,17.27-28.112,17.27-17.4,0-28.617-10.336-28.617-26.473,0-19.666,12.1-32.271,31.264-32.271M192.388,41.736h14.622c12.607-.506,9.329-20.928-3.278-20.928-7.058,0-11.6,8.447-11.344,20.928" transform="translate(129.97 11.719)" fill="#f5f5f5"/>
      <path id="Path_799" data-name="Path 799" d="M251.617,36.945c0-6.3-3.15-13.488-8.319-13.488-2.521,0-5.547,1.891-8.951,6.68v20.3c0,11.219,2.774,18.907,7.186,19.413l1.135.126v3.782H208V72.368a18.54,18.54,0,0,1,.128-2.395l1.133-.126c4.789-.506,7.438-8.823,7.438-20.3,0-15.631-1.261-18.657-7.438-22.059l-1.133-.631A5.659,5.659,0,0,1,208,25.6l22.817-9.329h3.53v8.7c3.278-4.537,11.219-9.329,21.431-9.329,9.958,0,13.614,7.564,13.614,19.413V58c0,10.716.252,13.868.252,15.129,0,4.034.378,15.883,5.421,17.522,6.428,2.143,10.59-4.286,13.614-7.564a6.86,6.86,0,0,1,5.169-2.145c3.53,0,7.186,2.27,7.69,5.926.883,6.68-3.278,10.716-9.706,12.355a36.923,36.923,0,0,1-8.447,1.008c-5.8,0-11.723-1.385-16.135-4.286-3.4-2.269-15.633-8.573-15.633-27.734Z" transform="translate(155.835 11.719)" fill="#f5f5f5"/>
      <path id="Path_800" data-name="Path 800" d="M248.433,54.754c.38,0,.757.126,1.513.126,2.522,6.934,9.2,16.516,18.405,16.516,6.052,0,9.958-3.406,9.958-8.7,0-3.532-4.16-7.438-10.59-9.958-11.344-4.413-18.781-12.23-18.781-18.785,0-10.842,10.084-19.033,26.472-19.033,5.169,0,13.74,1.891,17.648,6.3l-.5,13.866h-1.891c-3.276-6.428-7.312-15.633-14.749-16.01s-12.1,4.16-12.227,8.573c-.128,4.286,6.806,7.186,17.522,11.471,7.941,3.152,12.858,10.084,12.858,16.892,0,11.975-10.464,19.54-26.978,19.54-6.934,0-13.866-2.269-18.027-5.674Z" transform="translate(186.128 11.18)" fill="#f5f5f5"/>
      <path id="Path_801" data-name="Path 801" d="M322.146,15.641c15.757,0,25.843,11.6,25.843,29.5l-37.818.631c1.637,11.219,7.816,20.044,23.069,18.909,3.278-.252,8.2-3.152,12.355-9.329l2.017,1.765c-6.43,12.481-19.287,17.27-28.111,17.27-17.4,0-28.617-10.336-28.617-26.473,0-19.666,12.1-32.271,31.264-32.271M309.793,41.736h14.622c12.607-.506,9.329-20.928-3.278-20.928-7.058,0-11.6,8.447-11.344,20.928" transform="translate(217.931 11.719)" fill="#f5f5f5"/>
      <path id="Path_802" data-name="Path 802" d="M319.641,27.989h37.944v1.385a18.8,18.8,0,0,1-.126,2.4L356.2,31.9c-4.286.38-3.278,8.2,2.9,19.414,2.647,4.789,4.537,8.951,7.186,13.868l6.176-11.851C375.864,45.259,394.647.508,419.607,0c5.8-.126,11.851,2.647,11.851,8.949,0,5.673-4.035,11.093-8.825,9.708a26.657,26.657,0,0,0-7.438-1.135c-18.153,0-29.751,19.539-36.684,33.784l-17.4,35.423h-3.4L338.552,51.31c-1.261-2.648-5.171-8.067-6.558-10.336-4.032-5.673-8.949-8.825-12.353-9.2Z" transform="translate(239.478 0)" fill="#f5f5f5"/>
      <path id="Path_803" data-name="Path 803" d="M392.2,15.641c15.757,0,25.843,11.6,25.843,29.5l-37.818.631c1.637,11.219,7.815,20.044,23.069,18.909,3.278-.252,8.2-3.152,12.355-9.329l2.017,1.765c-6.43,12.481-19.287,17.27-28.112,17.27-17.4,0-28.617-10.336-28.617-26.473,0-19.666,12.1-32.271,31.264-32.271M379.847,41.736h14.622c12.607-.506,9.329-20.928-3.278-20.928-7.058,0-11.6,8.447-11.344,20.928" transform="translate(270.416 11.719)" fill="#f5f5f5"/>
      <path id="Path_804" data-name="Path 804" d="M395.676,72.1A18.8,18.8,0,0,1,395.8,69.7l1.135-.126c4.789-.5,7.31-8.823,7.31-20.3,0-15.631-1.134-18.657-7.31-22.059L395.8,26.59a5.734,5.734,0,0,1-.126-1.259L418.493,16h3.532v18.4c2.395-5.8,7.436-16.513,15-17.9,7.184-1.261,10.462,2.772,11.6,9.454.756,5.293-3.53,9.58-6.3,8.571-3.152-1.133-6.051-3.654-9.582-3.654-3.024,0-6.427,1.891-10.712,8.192v11.1c0,11.219,2.771,18.909,7.31,19.413l1.261.126a18.79,18.79,0,0,1,.126,2.395v1.387H395.676Z" transform="translate(296.444 11.99)" fill="#f5f5f5"/>
      <path id="Path_805" data-name="Path 805" d="M458.738,16v1.385c0,2.4.254,2.4-1.008,2.521-3.026.631-1.135,8.2,5.043,19.414,2.645,4.789,5.293,9.832,7.941,14.749l6.68-14.749c5.043-11.219,6.3-18.783,2.9-19.414-1.135-.25-.883-.124-.883-2.521V16h21.179v3.782l-1.261.124c-4.789.506-11.473,8.321-17.146,19.414L464.161,74.745C457.351,87.729,452.688,105,433.9,105c-6.3,0-10.336-2.9-10.336-7.564s3.528-7.69,9.075-7.69c3.656,0,12.1,3.278,12.1,3.278,6.051-.126,12.481-15.127,15-21.053L442.226,39.321c-5.926-11.093-12.984-19.035-17.777-19.414l-1.385-.124V16Z" transform="translate(316.962 11.989)" fill="#f5f5f5"/>
      <path id="Path_806" data-name="Path 806" d="M478.631,60.332c0-20.422,11.849-33.406,30.38-33.406A16.284,16.284,0,0,1,518.59,30.2c-.25-12.481-1.637-15.5-7.31-18.4l-1.261-.631a5.712,5.712,0,0,1-.126-1.259L532.711.579h3.528v51.18c0,15.631,1.261,18.657,7.438,22.061l1.135.63a5.722,5.722,0,0,1,.126,1.261L522.121,85.04H518.59V76.467c-4.915,5.673-10.966,9.2-16.387,9.2-14.5,0-23.572-9.832-23.572-25.337M511.91,74.45a13.776,13.776,0,0,0,6.68-1.511V37.765a12.5,12.5,0,0,0-10.462-5.8c-6.68,0-10.967,8.319-10.967,21.43,0,12.857,5.8,21.052,14.749,21.052" transform="translate(358.594 0.434)" fill="#f5f5f5"/>
      <path id="Path_807" data-name="Path 807" d="M549.245,41.263V31.43c0-6.43-1.765-10.59-4.539-10.59-5.547,0-8.192,6.051-7.058,14.875a34.335,34.335,0,0,1-8.825,1.387,38.783,38.783,0,0,1-9.075-1.387c-1.641-11.849,10.59-20.548,28.993-19.918,11.723.38,19.287,7.691,19.287,19.792V57.4c0,5.421,1.009,8.952,4.917,8.952,2.9,0,4.412-1.011,5.293-2.648l1.891,2.395c-3.024,5.547-8.067,9.078-19.287,9.078-5.041,0-8.949-2.27-10.336-6.178-4.286,2.773-10.716,5.547-17.4,5.547a15.2,15.2,0,0,1-15.631-15.127c0-14.749,20.674-17.65,31.767-18.153m-5.169,24.33a9.325,9.325,0,0,0,5.295-1.639l-.126-19.161c-6.934,0-13.992,3.276-13.992,11.725a8.671,8.671,0,0,0,8.823,9.075" transform="translate(387.699 11.812)" fill="#f5f5f5"/>
      <path id="Path_808" data-name="Path 808" d="M534.913,85.46a8.428,8.428,0,0,1,7.69-4.791,13.133,13.133,0,0,1,7.31,2.521c8.825,6.052,16.012,9.582,22.567,9.582,8.7,0,16.009-6.178,24.076-20.8L578.907,39.321c-6.052-11.093-12.983-18.909-17.775-19.414l-1.259-.124V16h35.549v1.385c0,2.4.252,2.4-1.008,2.521-3.026.631-1.135,8.2,5.041,19.414,2.647,4.789,5.421,9.832,7.941,14.749l6.682-14.749c5.043-11.219,6.3-18.783,3.024-19.414-1.259-.124-1.008-.124-1.008-2.521V16h21.3v3.782l-1.385.124c-4.791.38-11.473,8.321-17.146,19.414l-16.387,32.4c-9.329,21.178-24.33,35.3-42.231,35.3a41.349,41.349,0,0,1-19.035-5.043c-6.808-3.528-8.7-11.975-6.3-16.513" transform="translate(400.018 11.989)" fill="#f5f5f5"/>
    </g>
  </g>
</svg>
