<svg xmlns="http://www.w3.org/2000/svg" width="134.563" height="110" viewBox="0 0 134.563 110"><defs><clipPath id="a"><path fill="#fff" d="M0 0h134.563v110H0z" data-name="Rectangle 839"/></clipPath></defs><g fill="#fff" clip-path="url(#a)" data-name="Group 460"><path d="M31.529 46.605c.049-.046.1-.109.2-.2-.02.024.029.231-.2.2" data-name="Path 914"/><path d="M31.725 46.408c.035-.031.1-.108.2-.2-.056.055-.188.186-.2.2" data-name="Path 915"/><path d="M31.922 46.212c.057-.056.1-.108.2-.2-.08.265-.171.174-.2.2" data-name="Path 916"/><path d="M22.877 56.436h-.2c.011-.009.013-.071.2-.2-.012.063.009.132 0 .2" data-name="Path 917"/><path d="M37.428 57.416c-.065.009-.134-.012-.2 0 .035-.113 0-.222.2-.2Z" data-name="Path 918"/><path d="M117.259 56.04c.042.032.164-.033.2 0l-.1.2c-.126 0-.088-.186-.1-.2" data-name="Path 919"/><path d="M114.507 47.196c-.224.036-.184-.184-.2-.2.246-.009.186.188.2.2" data-name="Path 920"/><path d="M30.939 47.391h-.2c.069-.073.135-.133.2-.2Z" data-name="Path 921"/><path d="M37.231 57.416c-.02.064.023.147 0 .2a.55.55 0 0 0-.2.2 1.4 1.4 0 0 0-.2.2c-.091.084-.186.188-.2.2-.042.032-.164-.033-.2 0 .037-.046-.056-.218 0-.295a1 1 0 0 1 .787-.492" data-name="Path 922"/><path d="M55.911 44.045a5.3 5.3 0 0 1-.885.983h-.1c-.09-.307.159-.37.2-.59.262-.053.353-.337.492-.393.1-.041.236.031.295 0" data-name="Path 923"/><path d="M34.085 44.049c-.064.009-.134-.012-.2 0 .042-.052-.048-.079.2-.2-.006.065 0 .131 0 .2" data-name="Path 924"/><path d="m114.704 47.391-.2-.2a.8.8 0 0 1 .2.2" data-name="Path 925"/><path d="m33.888 56.24-1.376 1.082c.552-.436.634-1.091 1.376-1.278-.009.064.012.134 0 .2" data-name="Path 926"/><path d="M42.54 57.416a3 3 0 0 0 0 .393c-.129.008-.267-.017-.393 0a.58.58 0 0 1 .393-.393" data-name="Path 927"/><path d="M114.899 47.589c-.015-.013-.233.027-.2-.2.008.011.071-.055.2.2" data-name="Path 928"/><path d="M56.501 43.455c-.211.272-.249.409-.59.59.06-.111-.059-.386.295-.59.087-.05.234.033.295 0" data-name="Path 929"/><path d="M117.26 56.04a.9.9 0 0 1-.2-.2c.225-.035.185.188.2.2" data-name="Path 930"/><path d="M116.276 49.355c-.319-.034-.661.023-.983 0-.036-.277.054-.632 0-.885-.016-.072-.346-.474-.393-.59-.042-.1.03-.234 0-.295a11 11 0 0 1 1.18 1.081c-.114.331.164.481.2.688" data-name="Path 931"/><path d="M112.737 47.978a1.85 1.85 0 0 1 1.081.983l.295-.2.2.59c-.212.182-1.106-.633-.983-.983-.128-.011-.28.023-.393 0-.073-.174-.2-.261-.2-.393" data-name="Path 932"/><path d="M56.5 43.459c.012-.007-.069-.081.2-.2-.132.24-.188.186-.2.2" data-name="Path 933"/><path d="m43.523 56.237-.2-.393h.2Z" data-name="Path 934"/><path d="M29.366 48.962v-.394l.2.1v.2Z" data-name="Path 935"/><path d="M56.697 43.258a1.8 1.8 0 0 1 .2-.393v.295c-.05.134-.151.078-.2.1" data-name="Path 936"/><path d="M34.867 43.258a2 2 0 0 0-.2.2 9 9 0 0 1-.2.2 1.5 1.5 0 0 0-.2.2c-.042.029-.141-.027-.2 0 .011-.128-.019-.27 0-.393a4 4 0 0 1 .787-.59 3 3 0 0 1 0 .393" data-name="Path 937"/><path d="M56.894 42.869c.136-.2.191-.184.2-.2-.01.01.026.232-.2.2" data-name="Path 938"/><path d="M42.54 57.416a2 2 0 0 1 .2-.393c.247.007.186-.188.2-.2a1.3 1.3 0 0 0 .2-.2c.146-.133.263-.272.393-.393.188-.176.522-.333.688-.59l-.295.688a13 13 0 0 1-1.081 1.081c-.1.041-.228-.029-.295 0" data-name="Path 939"/><path d="M116.276 49.354c.539.057.514.3.885.59.038.031.153-.033.2 0 .458.345.693 1.106 1.18 1.376a16.3 16.3 0 0 1 2.458 2.655c.052.092-.036.254 0 .295l.786.492-.59-.295.393.787h-.492l-1.77-2.163c-.24-.083-.4.064-.3.295a9 9 0 0 0 .885.885 6.1 6.1 0 0 1 1.868 2.261c.12.419 1.775 1.324 2.065 1.868l-.492-1.671.786.59.983 1.376-.59.1.2.688c.265.432.947.566 1.18.983a1.88 1.88 0 0 0 1.18.885l.787 1.475c-.2.1-.535-.175-.688-.295a9.3 9.3 0 0 1-2.065-2.065c-.391-.562-.859-.742-.983-1.278h-.393c-.92-1.578-2.578-2.865-3.539-4.228-.26-.368-1.511-1.357-1.573-1.573l.2-.59-.786-1.278-.295.393c.208.273.611.519.786.786.2.31.083.527-.2.393-.261-.125-.258-.427-.393-.59a20 20 0 0 1-1.475-1.475c-.052-.093.037-.258 0-.295s-.579.012-.59-.393c.068.033.27-.018.393 0-.032-.317.047-.682 0-.983m.983 1.376h-.393l.3.393h.1Z" data-name="Path 940"/><path d="M34.871 42.869c.006-.065 0-.131 0-.2l.2.1c0 .13-.147.077-.2.1" data-name="Path 941"/><path d="M57.09 42.669c.025-.053-.024-.14 0-.2l.393-.1c-.064.161-.342.246-.393.295" data-name="Path 942"/><path d="M34.281 55.846c-.225-.035-.186.188-.2.2-.042.032-.164-.033-.2 0v-.4Z" data-name="Path 943"/><path d="M115.883 50.341h-.2c.023-.054-.036-.159.1-.2.126 0 .088.192.1.2" data-name="Path 944"/><path d="M27.793 62.921c-.137.086-.11.06-.2.2l-.393-.1.59-.492Z" data-name="Path 945"/><path d="m115.49 50.537.2-.2c-.036.084.017.226-.2.2" data-name="Path 946"/><path d="M111.754 50.734h-.2l.2-.2c.015.066-.023.15 0 .2" data-name="Path 947"/><path d="m35.461 42.669-.2-.1c-.079-.322.184-.278.2-.295a3 3 0 0 0 0 .393" data-name="Path 948"/><path d="M41.95 58.202c.011-.128-.023-.279 0-.393a2 2 0 0 1 .2 0 1.4 1.4 0 0 1-.2.393" data-name="Path 949"/><path d="M35.461 42.279a.8.8 0 0 1 .2-.2c-.061.271-.192.184-.2.2" data-name="Path 950"/><path d="M37.231 50.931h-.2c.01-.011-.028-.2.1-.2Z" data-name="Path 951"/><path d="M111.951 50.931c-.065-.049-.081.041-.2-.2Z" data-name="Path 952"/><path d="m41.36 58.399-.2-.2c.066-.015.149.023.2 0a.6.6 0 0 1 0 .2" data-name="Path 953"/><path d="M99.563 63.118h.2l-.1.2Z" data-name="Path 954"/><path d="M39 55.65a.46.46 0 0 0-.295.2l-.1-.1c.08-.165.3-.225.393-.295-.021.06.022.143 0 .2" data-name="Path 955"/><path d="M41.753 58.4c.013 0-.031-.232.2-.2a.56.56 0 0 1-.2.2" data-name="Path 956"/><path d="M37.035 51.127h-.2c.04-.036.141-.14.2-.2Z" data-name="Path 957"/><path d="M41.754 58.399c-.2.176-.338.454-.688.59l-.1-.1a1.3 1.3 0 0 0 .393-.492 3 3 0 0 0 .393 0" data-name="Path 958"/><path d="M39 55.453c.011-.008-.07-.089.2-.2-.138.208-.192.183-.2.2" data-name="Path 959"/><path d="M33.495 61.549h-.2c.077-.082.171-.167.2-.2Z" data-name="Path 960"/><path d="M20.124 59.579a2 2 0 0 0-.2.2.53.53 0 0 0-.2.2.45.45 0 0 0-.2.2.46.46 0 0 0-.2.2c-.055.038-.118-.063-.2.2a2 2 0 0 1-.393.2c.015-.127-.007-.264 0-.393.226.035.178-.174.2-.2a.5.5 0 0 0 .2-.2.45.45 0 0 0 .2-.2.45.45 0 0 0 .2-.2c.055-.038.118.063.2-.2.072-.052.37-.225.393-.2a3 3 0 0 1 0 .393" data-name="Path 961"/><path d="m28.186 68.234-.2.2c-.009-.024-.3.017-.2-.393Z" data-name="Path 962"/><path d="M98.186 37.753a1 1 0 0 1 .2 0l-.1.2c-.12-.036-.085-.111-.1-.2" data-name="Path 963"/><path d="M40.57 60.169c-.247-.007-.186.188-.2.2a7 7 0 0 1-.688.393c-.242.161-.314.5-.688.393l.1.393-.2-.2a2.8 2.8 0 0 1-.688.59c.064-.2.122-.621.2-.787.776-.212 1.134-.949 1.77-1.475.229-.19.45-.322.688-.492l-.295.688c-.007.1.006.2 0 .295" data-name="Path 964"/><path d="m13.438 66.461-.2.2-.393-.1a2.4 2.4 0 0 1 .59-.492c-.025.115.025.277 0 .393" data-name="Path 965"/><path d="M13.438 66.071c.058-.264.168-.172.2-.2 0 .25-.162.171-.2.2" data-name="Path 966"/><path d="M30.742 35.987c-.056.028-.17-.032-.2 0-.033-.226.158-.17.2-.2-.014.058.008.13 0 .2" data-name="Path 967"/><path d="m15.995 52.11.2-.2c-.08.264-.165.17-.2.2" data-name="Path 968"/><path d="M30.939 35.787c-.033.033-.151-.031-.2 0 .061-.269.188-.186.2-.2Z" data-name="Path 969"/><path d="m101.529 35.2.2-.2Z" data-name="Path 970"/><path d="M31.529 35.2h-.2c.011-.009-.02-.063.2-.2-.027.058.031.166 0 .2" data-name="Path 971"/><path d="M31.726 35.004c-.033.032-.148-.03-.2 0 .117-.249.154-.161.2-.2-.03.049.032.164 0 .2" data-name="Path 972"/><path d="M47.849 52.108c-.082.082.08.186-.492.59-.323.228-.909.813-.885 1.18l-.393-.1a14 14 0 0 0 1.18-1.278c.124-.123.283-.29.393-.393.035-.033.164.033.2 0" data-name="Path 973"/><path d="M123.551 65.478c.136.232.189.185.2.2a4.3 4.3 0 0 0 .983 1.278c.16.135.468.133.59.393.105.225-.071.4-.295.295a24 24 0 0 1-1.868-1.868c-.042-.1.031-.237 0-.295.123.019.28-.025.393 0" data-name="Path 974"/><path d="M31.725 34.807c.13-.21.171-.171.2-.2a2 2 0 0 1-.2.2" data-name="Path 975"/><path d="M117.456 52.897c-.008-.011-.061.022-.2-.2.267.056.185.188.2.2" data-name="Path 976"/><path d="M15.011 53.09c.035-.111 0-.223.2-.2-.065.065-.137.135-.2.2" data-name="Path 977"/><path d="M32.119 34.61c-.033.033-.155-.032-.2 0 .01-.011-.028-.2.1-.2Z" data-name="Path 978"/><path d="M18.157 61.349c.015-.062-.016-.135 0-.2.058-.014.13.009.2 0 .033.226-.153.169-.2.2" data-name="Path 979"/><path d="M117.651 53.094h-.2c-.033-.033.031-.152 0-.2a1 1 0 0 1 .2.2" data-name="Path 980"/><path d="M14.419 53.877c-.081-.486.358-.546.59-.787-.179.57-.158.415-.59.787" data-name="Path 981"/><path d="m32.709 34.02-.2-.1c0-.126.186-.088.2-.1Z" data-name="Path 982"/><path d="M32.905 33.824h-.2c.05-.048.189-.185.2-.2Z" data-name="Path 983"/><path d="M67.119 32.05a3 3 0 0 0 0 .393h-.2v-.393c.027-.033.155.031.2 0" data-name="Path 984"/><path d="M117.849 53.29c-.027-.032-.141.028-.2 0-.006-.065 0-.131 0-.2.1.087.179.182.2.2" data-name="Path 985"/><path d="M123.159 65.478a2.5 2.5 0 0 1-1.377-1.18c.382-.063 1.173.8 1.377 1.18" data-name="Path 986"/><path d="M67.119 32.051c.011-.008-.028-.231.2-.2.035.228-.192.184-.2.2" data-name="Path 987"/><path d="M117.852 53.287a8 8 0 0 1 1.573 1.475 14.3 14.3 0 0 0 2.851 3.048c.349.223.634.968.885 1.278.355.438.908.768 1.18 1.278l-.688-.393c-.549-.355-.849-1.279-1.377-1.573a30 30 0 0 1-3.244-3.638c-.217-.252-1.145-1.009-1.18-1.081s.017-.27 0-.393" data-name="Path 988"/><path d="M20.714 64.298c-.181.375-.3.867-.787.786-.107-.086.539-.54.59-.786.064-.009.133.009.2 0" data-name="Path 989"/><path d="M90.518 54.863h-.2l.1-.2c.125 0 .089.19.1.2" data-name="Path 990"/><path d="M18.747 61.152c-.129.008-.268-.017-.393 0v-.2c.053-.037.119.064.2-.2.062-.019.142.021.2 0-.015.127.007.264 0 .393" data-name="Path 991"/><path d="M114.31 53.88c-.2.026-.162-.082-.2-.2Z" data-name="Path 992"/><path d="M40.377 60.366h.2c-.03.077.05.219 0 .295-.113.171-.357.318-.492.492Z" data-name="Path 993"/><path d="M117.653 53.876c0-.065.005-.132 0-.2.061-.015.133.011.2 0Z" data-name="Path 994"/><path d="M40.573 60.369v-.2l.2.1c0 .127-.193.088-.2.1" data-name="Path 995"/><path d="m93.86 27.728.2-.2Z" data-name="Path 996"/><path d="M24.45 54.27c.012-.063-.009-.132 0-.2.065 0 .132.006.2 0Z" data-name="Path 997"/><path d="M37.035 63.904h-.2v-.2c.032-.032.146.029.2 0Z" data-name="Path 998"/><path d="m92.681 26.548.2-.2Z" data-name="Path 999"/><path d="M37.231 63.712h-.2c.009-.005-.028-.2.1-.2Z" data-name="Path 1000"/><path d="M32.905 33.624a51 51 0 0 1 4.228-4.724l.2.2.59-.983.295.1-.2-.2a91 91 0 0 1 6.587-6.784 11.3 11.3 0 0 0 1.671-1.868c.583-1.047 2.868-2.335 3.539-3.539.327-.586.928-.589 1.376-1.18a37 37 0 0 1 3.048-3.441c.544-.3 1-1.229 1.77-1.77A33.6 33.6 0 0 0 60.237 5.8c.331-.594 1.581-1.591 2.163-2.36.518-.684 1.378-.673 1.77-1.376A6.3 6.3 0 0 1 65.251.787c.344-.217.8.068 1.18-.393l.2.2.586-.594.787.393.393-.193c.328.583.778.283 1.18.393a21 21 0 0 1 1.868 1.475 13.4 13.4 0 0 0 3.442 3.438c.5.329.522.727.983.983.748.417 2.8 3.41 3.736 3.933a9.84 9.84 0 0 1 3.048 3.539h.393c1.138 1.556 2.754 2.754 3.933 4.424.451.639.711.5.983.983.506.908 2.269 2.082 2.753 2.949.634 1.138 4.911 4.805 6.292 6.292 4.06 4.371 7.762 8.554 12.191 12.683a16.3 16.3 0 0 0 2.851 3.736c.821.235 1.52 1.2 2.261 1.966l-.59.492.786.1c-.106.322.166.389.2.492.054.183.055.67-.295.492a17 17 0 0 1-1.278-1.278c-.052-.093.037-.258 0-.295h-.393c-.47-1.4-2.822-2.744-3.539-4.031-.462-.829-1.83-1.724-2.556-2.753a10.7 10.7 0 0 0-1.278-1.475c-.092-.037-.21.023-.295 0v-.295c-.308-.343-.684-.634-.983-.983-.7-.813-1.861-1.78-2.36-2.458-.534-.726-1.583-1.065-1.77-1.966h-.393c-.039-.646-.517-.6-.787-1.081-.368-.66-1.523-1.019-1.573-1.671l-.295.2-.295-.295.2-.2c-.634-.128-1.051-1.41-1.278-1.475a3.2 3.2 0 0 1-1.475-.983c-.23-.224-1.068-1.027-1.18-1.18-.344-.468-1.04-1.478-1.868-1.573l-.295-.393c-.056.319.465.859.688.983.412.229.67.732 1.278 1.18a13 13 0 0 1 1.18 1.18.78.78 0 0 1 .2.59h.393v.393l.393-.2.295.59.2-.2.295.295v.492c.7-.139.594.219.787.492.214.3.681.459.59.885l.393-.2.2.787c.981.378 1.612 1.692 2.458 2.163.652.364.62 1.255 1.475 1.376l.2.787h.59a1.55 1.55 0 0 0 1.18 1.18c-.108.789.951 1.4 1.573 1.573l-.2.295c.392.309.675.92 1.18.885v.59c.723.032 1.195 1.064 1.573 1.475.536.584 1.413 1.165 1.573 1.868l.393-.2c.173 1.147 1.525 1.774 2.163 2.655.053.074-.033.224 0 .295l-.492-.2-.1.1.2.492h.393V46.6c.035.077 1.074.606 1.18 1.081l-.2.295a2.7 2.7 0 0 1-.688-.59l-.1.1.688.885c.087.035.2-.019.295 0 .029.068-.04.2 0 .295.1.258.883.771 1.081 1.081l.2-.2.2.2.492-.2c.034.04-.044.189 0 .295.148.357.419.489.59.688a6.8 6.8 0 0 0 1.278 1.376c.265.15.33.527.492.787-.114-.024-.265.011-.393 0v.1c.206.353.464.232.59.295.012.006-.059.069.2.2.011.129-.012.265 0 .393-.074.018-.158-.028-.2.1 0 .125.19.089.2.1a20 20 0 0 0 1.77 1.868l-.2.2.393.59-.2.393a7.8 7.8 0 0 0 1.671 1.475c.1.045.264-.037.393 0 .285.082.561 1.255.983 1.376a4.1 4.1 0 0 1 1.671 1.475 12.5 12.5 0 0 1 1.376 1.475c-.664.022-.811-1.059-1.376-.295l.295.492-1.475-1.475.393-.393c-.151-1.023-1.066-1.063-1.671-1.671l-.492.2.295 1.18c-.275-.093-.237-.537-.393-.59-.183-.063-.338-.041-.492-.295l.2-.787c-.71-.663-1.348-1.411-2.065-2.065a11 11 0 0 1-1.278-.983.64.64 0 0 0-.295-.59l-.1.393c-.095-.126-.311-.154-.2-.59l-.295.2-.787-1.18-.2.2-1.376-1.77-.2.2.1-.295c-.337-.213-1.242-1.41-1.475-1.475-.309-.085-.314.086-.688-.2l.2-.393h-.393l-.295-.59h-.492l-.2-.688-.983-.787-.2.393c.191.177.214.366.393.59.5.625 1.379.962 1.18 1.868l.393-.59c-.083.442.4.6.59.885l-.393.295h.688c.293.53 1.485 1.022 1.671 1.475.038.092-.025.213 0 .295-.467.026-.088.794.2.2l.787.688-.2.2.295-.1c.14.1.262.32.393.393.465.259.258.378.59.59.436.278.552.482.983.787.5.354.969 1.076 1.475 1.475h-.393a3.64 3.64 0 0 0 1.278 1.671c.093.052.258-.037.295 0v.393c.037.037.2-.052.295 0 .727.405 2.1 2.617 2.556 2.753.136.04.351-.039.492 0-.011-.129 0-.264 0-.393l.59.59c-.28.085-.36-.134-.59-.2.066.809.546.377.983.885h-.59l2.753 2.949-.393-.295-.983-.492.885 1.475-1.18-.983c-.423-.111-.245-.287-.885-.59-.013-.006.074-.136-.2-.2-.5-.856-.942-1.239-1.376-1.966h-.59c.023-.545-.363-.671-.787-.787-.01-.195.006-.395 0-.59-.583-.023-1.011-.656-1.475-.983-.041-.029-.147.032-.2 0-.29-.185-.251-.429-.295-.492a7 7 0 0 0-.885-.885c-.034-.02-.425-.192-.492-.1.324.51 1.8 1.547 1.966 1.966.036.091-.023.21 0 .295l-.59.1.393.688h.492c.2-.188-.242-.356-.295-.492-.036-.092.023-.21 0-.295.608.223.778.623 1.376.787.007.13 0 .263 0 .393h.393a6.5 6.5 0 0 0 .59 1.18c-.434.071-.209 1.3.393.787.036.043-.052.2 0 .295a.694.694 0 0 0 .787.295c.178.641.786 1.049 1.18 1.671.19.3.793.4.983.787.221.448-.6.192-.688.492-.508-.043-1.08.061-1.573 0-.072-.009-.121-.183-.2-.2-.242-.042-.558.049-.787 0s-.6-.456-.787-.59c-.373-.264-1.207-1.276-1.573-1.376-.308-.085-.847.075-1.18 0-.486-.109-2.027-1.9-2.753-2.36-.466-.3-.526-1.185-1.475-1.376a3.27 3.27 0 0 0-1.77-1.77v-.393l-.59-.2.1.59.2-.2c.671.53.891 1.534 1.868 1.573l-.2.393c.128.011.279-.023.393 0a11 11 0 0 0 1.081 1.573 5.9 5.9 0 0 1 2.261 2.065.94.94 0 0 0 .983.492l-.2.983-.688-.787a1.145 1.145 0 0 1-1.278-.492c-.052-.093.037-.258 0-.295s-.2.052-.295 0c-.213-.118-1.16-1.078-1.475-.787l.787 1.278-1.18.1c-.087.577.326.944.59 1.376l-.983-.2-.1.393c-.095-.22-.347-.166-.393-.2-.264-.177-.815-.935-.983-.983-.323-.093-.74.048-.688-.59l-.393.1v.492l-.983-.2 1.376 1.278c-.374.275-.134.4 0 .688l-1.278-.59c-.688.6-1.973.643-2.065-.393-.435-.108-.584.411-.885.59-.043.026-.137-.028-.2 0-.187.088-.3.313-.688.2v-.393l-1.868-.787-.885.2.492-.393.885-.2c-.4.034-.348-.243-.787-.1a.97.97 0 0 0-.492.295l-1.573-.59-.885-1.18 1.18.787-.393-1.18.393-.2h-.59c.12-.507-.33-.475-.492-.59-.309-.218-.719-.855-.983-.983-.489-.237-.062.4-.2.393l-.2-.59c-.048-.141-.255-.167-.295-.2-.009-.006.027-.2-.1-.2l-.1.2-.787-.1.393.59c.562.387 1.054.685.983 1.475l-.688.393c-.4-.276-.73-.191-1.081-.688-1.328-1.882-3.772-3.6-5.112-5.7a.55.55 0 0 0-.59-.295V58.4h-.368c-1.14-1.9-3.16-3.17-4.326-5.014-.184-.291-.715-.383-.983-.787a2.4 2.4 0 0 0-.2-.492h.393v.393a3.6 3.6 0 0 1 1.573.885l-.393.2.688.295.295-.2c-.1.465.3.927.688 1.18.076.05.218-.03.295 0 .01 0-.029.2.1.2l.1-.2c.144.106.45.417.59.295-.455-.211-.348-.984-.688-1.081-.128-.037-.288.043-.393 0-.634-.261-1.276-1.518-2.261-1.573v-.393h-.393l-.2-.787a3 3 0 0 1-1.573-1.081c-.09-.161-.369-.32-.492-.492l-.492.2c.122-.711-.666-1.055-1.081-1.573l-.1.1v-.295l-.492.2a.694.694 0 0 1-.295-.787l-.393.1.2-.2c-.309-.271-.571-.625-.885-.885a25.7 25.7 0 0 1-3.638-3.933h-.393c-.328-1.133-2.032-1.817-2.36-2.949h-.391c-1.178-1.892-3.433-3.375-4.523-5.309h-.393v-.393h-.393a4.05 4.05 0 0 0-2.163-2.163l-.1-.393c-.358.209-.249.519-.295.59-.1.153-.584.2-.393.787-.8-.3-1.051 1.063-1.475 1.18-.167.046-.423-.046-.59 0a9 9 0 0 0-.885.885c-.038.085-.048.325.1.295l.688-.492c-.9.7-1.764 2.026-2.654 2.655-.8.564-1.127 1.678-1.966 2.36l-.2-.2v.393c-1.072.978-1.887 1.194-2.458 2.556l-1.081.2-.492.983h-.393c-.026.254.041.546 0 .787a10 10 0 0 1-1.18.2v.492c-.108.078-.193.237-.295.295-.569.323-1.007 1.258-1.573 1.573a11 11 0 0 0-1.081 1.081c-.067.234.075.482-.295.688l-.295-.2v.787l-.393-.393c.058.324-.254.607-.492.787-.426.321-.347.15-.688.688-.186.295-.715.351-.787.59-.03.1-.07.492.1.492.2-.144.4-.484.59-.59.093-.052.258.037.295 0 .081-.082.7-1.573 1.081-1.573l.2.2.983-1.18-.295.885c-.687.239-.923 1.25-1.278 1.475-.318.2-1.689 1.2-1.868 1.376l-.1-.2c-.126 0-.089.192-.1.2-.068.033-.27-.018-.393 0v.38l-.295-.2c-.207.294-.731.609-.885.885a2.17 2.17 0 0 1-1.081.885l-1.475 1.77-.1-.2c-.125 0-.089.188-.1.2a.18.18 0 0 0-.2.1c-.035.058.025.294-.2.393l.2.295c-.226-.034-.177.171-.2.2s-.064-.038-.2.2l-.393-.2c.134.381-.313.487-.393.688-.035.087.019.2 0 .295-.235.072-.333.271-.59.393-.018-.074.028-.158-.1-.2-.124 0-.09.189-.1.2-.024.022-.5-.021-.59.295l-.1.688c-.135 0 .292-.63-.2-.393a3.3 3.3 0 0 0-.492.492 11 11 0 0 0-1.376 1.868c-.085.023-.2-.036-.295 0-.211.084-.585.889-.492.983h.295c.058-.139.222-.155.295-.2-.026.079.038.2 0 .295-.125.312-1.068.711-1.376 1.18-.05.076.03.218 0 .295 0 .01-.163-.033-.2.1 0 .125.19.09.2.1.021.026-.008.126 0 .2-.146.035-.353-.041-.492 0a44 44 0 0 0-4.424 4.424 5 5 0 0 0 0 .492c-.4.046-.9-.067-1.278 0-.077.014-.176.3-.492.2v-.393l-.295.2c-.228-.425-1.729-.058-1.868-.2a3 3 0 0 0 0-.393c.226.034.175-.168.2-.2.137-.179.406-.158 0-.492.007-.1.509-.423.59-.59.237-.489-.4-.062-.393-.2l.59-.2c.186-.264.649-.539.787-.787.325-.583 1.16-.495 1.18-1.475h.393V64.1h.393c.037-.037-.052-.2 0-.295.214-.385 1.085-1.121 1.376-1.573l-.393-.2c.115-.219.477-.371.59-.492l.1.2c.125 0 .089-.187.1-.2s.2.027.2-.1l-.2-.1a11.5 11.5 0 0 1 1.278-1.573v.59c.305-.529 1.11-.544 1.081-1.18l-.787.59c.012-.094-.034-.21 0-.295.132-.329 1.136-.979 1.376-1.278l.1.2c.126 0 .088-.186.1-.2.058-.059.139-.143.2-.2a.7.7 0 0 0 .2-.2c.008-.011.074.061.2-.2a.65.65 0 0 0 .2-.2c.01-.01.2.027.2-.1l-.2-.1.393-.787.295.393a9.5 9.5 0 0 0 .885-.885c.039-.1-.029-.227 0-.295.078-.026.2.038.295 0 .136-.055.329-.385.492-.492l-.1-.1c-.135.268-.372.148-.492.2.3-.445.789-.706.787-1.18h.393c.1-1.1 1.634-1.666 1.966-2.458.216-.516.6-.262.59-.885h.393l.2-.787h-.688c-.127.173-.393.327-.492.492-.2.342-.119.7-.2.983-.037.135-.932 1.009-1.18.885v.59l-.492-.2c-.132.354-.658.363-.688.393s.052.2 0 .295c-.07.125-1.191 1.426-1.278 1.475a9 9 0 0 0-.787.59c-.272.192-.525.626-.787.787-.034.02-.425.192-.492.1.251-.295.661-.477.59-.885h.393l.59-1.081c-.124-.08-.556.1-.59.2a2 2 0 0 1-.688.885c-.221.2-.326.47-.688.393l1.77-2.065-.885.295a210 210 0 0 0-3.048 3.638c-.293.357-.835.613-.787 1.081h-.393a19 19 0 0 1-5.304 5.531c-.006.578-.82.87-.787 1.573-.5-.048.11-.513 0-.885-.024-.082-.2-.133-.2-.2l.983-.983c.037-.128-.044-.289 0-.393.016-.037.132-.193.2-.295l.2-.2a3.3 3.3 0 0 0 1.18-1.081 47 47 0 0 1 3.144-3.536c.435-.477.951-.892 1.376-1.376.271-.309.3-.229.393-.688.222.036.186-.186.2-.2s.233.026.2-.2c.3-.025.449-.455.59-.59a2 2 0 0 0 .2-.2.8.8 0 0 0 .2-.2.18.18 0 0 0 .2-.1c.035-.059-.025-.294.2-.393l-.1-.1c-.131.268-.387.149-.492.2-.091-.282.2-.478-.393-.393.067.557-.69.662-.59 1.18l-.295-.2c-.235.146.276.3 0 .393a13.2 13.2 0 0 0-2.673 2.967h-.393v.393c-.972.3-1.554 2.085-2.556 2.36v.393h-.393l-.393.295c.242-.275.553-.507.787-.787.478-.573 1.084-1.407 1.573-1.966 1.6-1.835 3.586-3.325 4.719-5.6l.295.2a2.2 2.2 0 0 0 .688-.885 3.9 3.9 0 0 1 1.376-1.671l.1.2c.126 0 .088-.186.1-.2.055-.057.157-.161.2-.2a8.6 8.6 0 0 1 1.081-.983c.413-.23.5-.811.885-1.081l-.2-.393.59.1v-.295l.1.1 1.18-1.18-.1-.59.393.393c-.068-.392.361-.455 0-.688l.295-.295.295.393.1-.59-.1-.1.393.1v-.59l.393.1-.2-.2.295-.295.2.2.295-.295v-.492a2.13 2.13 0 0 0 1.376-.885h-.59l.787-.295v-.393h.393c.023-1.016 1.394-1.435 1.573-2.36h.393v-.393l.393.2.2-.688-.393-.1c.146.564-.328.279-.59.688-.276.432.006.411-.492.688a9.2 9.2 0 0 0-1.671 1.671c-.274.491-1.038.569-1.376 1.376a6 6 0 0 1-1.278 1.278c-.464.258-1.429 1.95-2.163 2.36-.533.3-.252.482-.787.787-.349.2-.818 1.262-1.376 1.573-.815.454-1.616 2.136-1.966 2.36a32.4 32.4 0 0 0-5.8 6c-.811 1.075-2.43 2.438-3.343 3.539-.454.548-1.923 1.93-2.163 2.36-.052.093.037.258 0 .295h-.393l.393-.59h-.59v-.393l-.787.2c-.049-.559-.042-1.079.492-1.376a12 12 0 0 0 1.671-1.671 5 5 0 0 0 0-.492c.374.076.526-.256.787-.492l.688-1.278-3.146 3.343h-.295c.123.67-.574 1-.983 1.475-.387.454-.613 1.165-1.376 1.278.082-.17.018-.5.393-.688l-.59.1c-.021.191.036.417 0 .59-.524.077-.52.4-.983.393v.59c-.718-.163-.86.261-1.376.59-.076-.447.392-.6.59-.885.065-.094.1-.458.393-.59l.1-.688-2.073 2.242v.295c-.57-.242-.831.515-1.081.59-.184.055-.423-.1-.59.2l-.1-.393-.983.393.492-.393c.194-.1-.143-.378-.2-.393-.613-.176-1.225.939-1.475.393.187.023.168-.063.2-.2l1.573-1.671-1.376 1.081h-.885l-1.573 1.18-.1-.59-.59.2v.393h-.2v-.393a.5.5 0 0 1-.59-.59l-2.065.2-.295-.295-.2-1.18.2-.492.295.2.694-.505h-.983l.295-.492.2.2.492-.59-.983.2-.2.787c-.77.077-.233-.331-.2-.492.039-.178-.045-.426 0-.59.021-.076.824-.957.983-1.18.454-.638.39-.346.885-.688.763-.528 1.277-1.405 2.163-1.966.368-.233.31-.9.885-.787-.124-.5.2-.608.393-.983a.8.8 0 0 0-.885.393l-.492-.393 1.081-.983c.338.021.347-.363.59 0l-.1-.295a13 13 0 0 1 1.966-2.261c.014.083-.023.167.1.2h.2l.885-1.18h-.393a11 11 0 0 1 .787-.787v.387l.393-.295-.2-.295c.191-.631 1.259-1.23 1.77-1.573v-.393c.864-.058 1.011-1.52 1.966-1.573v-.491l.787-.59-.393.1v-.393h.393c-.066-.6.852-.778.787-1.376h.393a11.3 11.3 0 0 1 1.573-2.065c.773-1 1.747-1.89 2.753-2.949l.59-.2-.393-.2 4.129-4.228v.393h.2c.007-.129-.015-.266 0-.393.247-.123.179-.18.2-.2s.2.027.2-.1l-.2-.1a1.6 1.6 0 0 1 .393-.393l.1.2c.126 0 .088-.186.1-.2.057-.059.183-.192.2-.2a3 3 0 0 1 .393 0c.018-.123-.033-.325 0-.393.018-.038.443-.427.59-.59.035-.039.14-.142.2-.2.01-.01.2.027.2-.1Zm12.093-11.8-.492.492.1.1.492-.492Zm-3.834 3.539-.295.787c.208-.176.379-.424.59-.59.43-.337.766-.691 1.18-.983a6.7 6.7 0 0 0 .885-.885c.031-.038-.033-.154 0-.2.164-.211.415-.382.59-.59-.184-.149-.474.266-.59.393-.2.219-.468.33-.393.688-.353-.072-.474.189-.688.393-.42.4-1.1.814-1.278.983m51.714 2.949c-.037-.037-.2.052-.295 0a8.4 8.4 0 0 1-.885-.885c-.136-.129-.394-.544-.59-.393l2.655 2.655-.885-1.081c-.052-.093.037-.258 0-.295m-54.27.2-.393.393h-.393c.119.616-.477.95-.885 1.376-.129.135-.544.394-.393.59.294-.251.477-.662.885-.59.061-.7 1-1 1.18-1.77m55.548 1.376-.1.1.295.295.1-.1Zm1.081.787-.492-.2-.1.1.59.295Zm.492.59a.1.1 0 0 0 0 .2.1.1 0 0 0 0-.2m1.278 1.376-.59-.59a.5.5 0 0 0 .59.59m1.081 1.18a.1.1 0 0 0 0 .2.1.1 0 0 0 0-.2m.295 3.933h.59c-.006-.741-.967-.933-1.376-1.475-.124-.164-.324-.652-.492-.885l-.69-.39.59.393c-.244.567.52.836.59 1.081.111.388 0 .291.295.688.207.276.227.169.295.59h-.393l.295.59c.171.1.218-.067.295-.1.427-.171.392.147.787.1-.06-.289-.544-.528-.787-.59M99.268 35a.1.1 0 0 0 0 .2.1.1 0 0 0 0-.2m-36.573.787a.1.1 0 0 0 0 .2.1.1 0 0 0 0-.2m-.59.59-.295.295.1.1.295-.295Zm39.129.59-.1.1.295.295.1-.1Zm-1.081 1.966-.786-.688.2.59Zm4.129 1.77c.037.037.2-.052.295 0 .358.2.8.912 1.18 1.18.094-.066-.078-.458-.1-.492a5 5 0 0 0-.688-.688.72.72 0 0 1-.492-.295c-.124-.194-.146-.628-.393-.787-.266-.17-.54-.012-.787-.393l-.885-1.081c-.123.257.347.5.492.688.033.042-.031.158 0 .2.337.417 1.166 1 1.376 1.376.052.093-.037.258 0 .295m-55.646-2.36c-.246-.127-.687.315-.59.393.246.127.687-.315.59-.393m-9.93.59a.1.1 0 0 0 0 .2.1.1 0 0 0 0-.2m8.062 0a.1.1 0 0 0 0 .2.1.1 0 0 0 0-.2m53.582.2c-.087.527.4.516.688.787l.1-.1Zm-62.332.787c.078.1.52-.344.393-.59-.078-.1-.52.344-.393.59m63.708.787-.393-.393v.383Zm-54.762-.2a.1.1 0 0 0 0 .2.1.1 0 0 0 0-.2m53.778 0h-.393v.2h.393Zm-63.61.2-.292.29.1.1.295-.295Zm-10.815.2a.1.1 0 0 0 0 .2.1.1 0 0 0 0-.2m9.34 1.18c.025-.111-.012-.265 0-.393h-.1c-.375.219-.633.958-.688.983-.071.032-.222-.053-.295 0a.99.99 0 0 0-.492.787 6.8 6.8 0 0 0-.983.885l.1.1a.8.8 0 0 1 .688-.393 4.4 4.4 0 0 1-.688.787l-.2-.2c-1.063.5-1.322 1.569-2.163 2.163a7 7 0 0 0-1.475 1.77c-.006.009-.164-.035-.2.1l.2.295-.2.393c.515.129.5-.386.59-.492.286-.347.683-.641.983-.983l-.787.492c-.093-.5.512-.692.787-.983l.1.2c.125 0 .089-.187.1-.2s.2.027.2-.1l-.2-.1c.205-.212.373-.385.59-.59l.1.2 1.081-1.081-.1-.1c-.1.194-.376.291-.492.393.025-.082-.038-.2 0-.295.091-.222.714-.62.885-.885v.59c.485-.3.485-1.058 1.081-.983a3 3 0 0 1 0-.393 2 2 0 0 0 .2-.2c.01-.012.117-.111.2-.2.041-.045.124-.121.2-.2s.13-.127.2-.2c.2-.2.389-.368.59-.59a8 8 0 0 0 .983-1.081l-.1-.1a3.5 3.5 0 0 1-.688.59m20.548-.2a.1.1 0 0 0 0 .2.1.1 0 0 0 0-.2m47.29.2c-.3.082-.357-.135-.59-.2v.393h.59Zm5.309 3.146c.076-.362-.2-.467-.393-.688-.245-.276-.544-.509-.787-.787-.033-.037.032-.16 0-.2a12 12 0 0 0-1.573-1.475l1.18 1.475c-.081.465.154.216.295.295.5.278.8 1.082 1.278 1.376m-83.671-2.549a.1.1 0 0 0 0 .2.1.1 0 0 0 0-.2m83.863 1.376-.492-.59-.1.1a.42.42 0 0 1 .2.492Zm-54.958 0-.295.295.1.1.295-.295Zm51.615 0h-.393v.2h.393Zm5.112 1.966-.393-.688-1.18-1.278c.11.846.937 1.464 1.573 1.966m-87.009-1.77a.1.1 0 0 0 0 .2.1.1 0 0 0 0-.2m-.688 1.18c.395-.1.441-.417.393-.787-.395.1-.441.417-.393.787m83.765.393c.039-.033-.459-.945-.59-.787l.2.787Zm-84.351-.196h-.2v.782h.2Zm21.236.2-.59.492-.295.492c.125-.16.979-.891.885-.983m65.97.2a.1.1 0 0 0 0 .2.1.1 0 0 0 0-.2m-.688 1.77c0-.569-.726-.92-1.081-1.376l-.688.1.492.492.885.492-.2.2 1.081.688-.2-.59ZM42.245 46.6a.1.1 0 0 0 0 .2.1.1 0 0 0 0-.2m-20.351.2a1.5 1.5 0 0 0-.787.295c-.358.233-.326 1.212-.983 1.081l-1.081 1.77.688-.492c.245-.982 1.345-1.125 1.376-2.065h.393v-.295Zm29.4 0a.1.1 0 0 0 0 .2.1.1 0 0 0 0-.2m60.464 1.573c-.082-.678-.895-1.067-1.278-1.573l.295.688Zm-65.675-.983-.59-.1-.59 1.081.59-.1v-.391l.2.1v-.393Zm5.014-.2-.688.688.1.1.688-.688Zm-9.733.393a.5.5 0 0 0-.59.59h.393Zm.59 0h-.2v.393h.2Zm70.1.983-.1.1.492.492.1-.1Zm-72.655 1.18c.452-.148.539-.594.787-.885l-.787.393Zm5.014-.59-.295.295.1.1.295-.295Zm-15.632.393c-.182-.2-1.294.8-1.18 1.18l.688-.787-.295.688c.144.174.4-.186.492-.295.235-.28.384-.332.295-.787m15.042.2a.1.1 0 0 0 0 .2.1.1 0 0 0 0-.2m-25.07.787v-.393l-.393.295v.1Zm97.529 1.376a3.7 3.7 0 0 0-.787-.885c-.135-.129-.394-.544-.59-.393.558.347.641 1.266 1.376 1.278m-82.594-1.18c-.345-.071-.441.268-.787.2l.295.393Zm80.618.59c.127-.246-.315-.687-.393-.59-.127.246.315.687.393.59m-89.86 2.753c-.068.033-.27-.018-.393 0v.295l-.983.885c.058.459.3.156.492 0 .406-.334.476-.786.885-.983-.036.192.056.344-.2.492l.1.1.688-.787c-.13.005-.265-.011-.393 0 .33-.342.779-1.238 1.081-1.376.454-.209.137.484.492.393l-.2-.688 1.278-1.475-.885.688c.021.314-.307.48-.492.688-.29.327-1.369 1.718-1.475 1.77m3.244-3.146a.1.1 0 0 0 0 .2.1.1 0 0 0 0-.2m10.323.2c-.179-.171-.663.328-.787.492-.029.039.033.149 0 .2-.157.228-.49.309-.393.688.577-.284.829-.88 1.18-1.376m3.834 0a.1.1 0 0 0 0 .2.1.1 0 0 0 0-.2m6 .2h-.2v.393h.2Zm66.756 0a.1.1 0 0 0 0 .2.1.1 0 0 0 0-.2m-87.3.2-.885.885.1.1.885-.885Zm5.6 0h-.393v.393Zm5.014.393-.295.295.1.1.295-.295Zm-1.278.787c-.346-.061-.646.267-.787.59.346.061.646-.267.787-.59m76.391.2a.1.1 0 0 0 0 .2.1.1 0 0 0 0-.2m-81.7.2c-.452.148-.54.594-.787.885l.1.1c.269-.327.751-.543.688-.983m5.407 0-.295.295.1.1.295-.295Zm-11.011.2-.492.492.1.1.492-.492Zm90.843.2a.1.1 0 0 0 0 .2.1.1 0 0 0 0-.2m-80.225.2-.295.295.1.1.295-.295Zm-.983.2a.1.1 0 0 0 0 .2.1.1 0 0 0 0-.2m82.29.983-.295-.59-.1.1.2.492Zm-89.074.59.2-.787c-.4.074-.34.489-.59.688Zm.393.2a.71.71 0 0 0 .59-.295c.121-.153.4-.484.295-.688-.424.332-.741 1-1.278.983v.393h-.385c.059.48-.514.716-.787 1.081l-.295.688c.433-.547 1.311-.882 1.671-1.475a6 6 0 0 0 .2-.688m-5.211-.2a.1.1 0 0 0 0 .2.1.1 0 0 0 0-.2m68.329.59c-.06-.27-.6-.746-.787-.59v.2h.393v.393Zm20.45-.59h-.2v.393h.2Zm-89.664.787a1.2 1.2 0 0 1 .2-.59c-.515-.129-.5.386-.59.492-.229.277-.65.453-.59.885a5.5 5.5 0 0 0 .787-.59l.1.2c.125 0 .089-.19.1-.2.287-.213.673-.371.59-.787h-.2c.088.379-.147.421-.393.59m70.394.787c.064-.063-.665-.93-.983-.787-.069.369.3.059.393.295.122.327.147.558.59.492m-71.672 0a.1.1 0 0 0 0 .2.1.1 0 0 0 0-.2m-1.475 2.556c.083-.067.316-.13.393-.295l-.2-.59 1.18-1.278-.393.393c-.523.021-1.185.836-1.376 1.278-.039.09.025.213 0 .295a.5.5 0 0 0-.2.2.45.45 0 0 0-.2.2.45.45 0 0 0-.2.2.53.53 0 0 0-.2.2 1 1 0 0 0-.2.2c-.007.009-.146-.038-.2.1-.035.1.024.214 0 .295l-.2.2c-.05.035-.128-.065-.2.2-.23.058-.308.284-.59.2v.2a.79.79 0 0 0 .59-.2c-.042.177.061.346-.2.492l.1.1a4.6 4.6 0 0 0 .688-.787c.233-.272.232-.056.393-.59a.5.5 0 0 0 .2-.2.46.46 0 0 0 .2-.2.45.45 0 0 0 .2-.2.53.53 0 0 0 .2-.2c.106-.093.186-.188.2-.2m97.627-2.163-.1.1.295.295.1-.1Zm-96.734.932-.295.295.1.1.295-.295Zm74.031.983v-.295l-.59-.688c-.31.593 1.294 1.669 1.376 1.573l-.295-.59Zm26.25-.2a.1.1 0 0 0 0 .2.1.1 0 0 0 0-.2m-104.214.2a.1.1 0 0 0 0 .2.1.1 0 0 0 0-.2m.1.393c-.257-.053-.715.031-.787.295-.251.926-.835 1.219-1.573 1.77v.492l-.393.393.59-.295 1.374-1.377v-.492c.331.147.973-.611.787-.787m100.282.59c-.074-.4-.489-.34-.688-.59l-.1.1c.261.236.412.567.786.492m-79.34-.393a.1.1 0 0 0 0 .2.1.1 0 0 0 0-.2m-27.823.59a.5.5 0 0 0-.59.59Zm3.736.59-.393-.393v.393Zm20.351-.393-.295.295.1.1.295-.295Zm76.883.2a.1.1 0 0 0 0 .2.1.1 0 0 0 0-.2m7.57.393-1.18-.393.688.787ZM8.72 62.725l.787-1.573-.787.492v.492h-.393v.295Zm89.664-.393c.127-.246-.315-.687-.393-.59-.127.246.315.687.393.59m-76.883.393c.323-.14.651-.44.59-.787-.323.14-.651.44-.59.787m-4.031-.393a.1.1 0 0 0 0 .2.1.1 0 0 0 0-.2m-8.258.2a.1.1 0 0 0 0 .2.1.1 0 0 0 0-.2m7.964.59-.295-.59-.1.1.2.492Zm-8.947-.393a.1.1 0 0 0 0 .2.1.1 0 0 0 0-.2M35.461 64.3c.037-.037.2.052.295 0 .374-.209.531-.683.688-.885.144-.186.614-.431.492-.688l-.59.2a11 11 0 0 0-.885.885c-.035.121.035.272 0 .393-.026.091-.856.94-.983 1.18l.983-.787c.052-.093-.037-.258 0-.295m-23.4-.787c.078.1.52-.344.393-.59-.078-.1-.52.344-.393.59m1.475-.393a.1.1 0 0 0 0 .2.1.1 0 0 0 0-.2m2.556.2a.1.1 0 0 0 0 .2.1.1 0 0 0 0-.2m.59 0c-.258.266-.531.519-.787.787-.129.135-.544.394-.393.59l.885-.7Zm-3.343.2a.1.1 0 0 0 0 .2.1.1 0 0 0 0-.2m88.385.59c.1-.078-.344-.52-.59-.393-.1.078.344.52.59.393m12.978.2c-.141-.323-.44-.651-.787-.59.14.323.44.651.787.59m6.194-.59-.1.1.295.295.1-.1Zm-108.442.2h-.2v.59h.2Zm-1.081.2-.688.688.1.1.688-.688Zm-.688.983h-.393v.393Zm103.526.393a.1.1 0 0 0 0 .2.1.1 0 0 0 0-.2" data-name="Path 1001"/><path d="m35.264 54.86-.2.2c-.011.011-.233-.026-.2.2l-.2-.1c-.062-.394.047-.531.393-.688.056.174.254.329.2.393" data-name="Path 1002"/><path d="M37.231 63.708h.295l-.786.983-.295-.1c.358-.171.449.021.393-.492.264-.063.183-.183.2-.2Z" data-name="Path 1003"/><path d="M130.236 95.169c-.09.16-.244.329-.2.492.336.216.295.738.393.983a33.6 33.6 0 0 1 1.573 4.719 7 7 0 0 0 .393 1.376c.2.423.7 1.466.786 1.77.059.215-.059.572 0 .787.047.169.538.317.393.688h.393l-.2.492.786 1.966-.492.492-.59-.2-.393.393c-.064 0-.115-.173-.2-.2a11 11 0 0 0-1.18.2c-.167.046-.287.537-.787.393-.2-.056-.106-.242-.59 0-.129-.082-.3-.367-.393-.393-.2-.056-.956-.071-1.081-.2-.037-.037.052-.2 0-.295-.206-.37-.925-.584-.983-.787-.309-1.078-.883-2.143-1.18-3.343a40.4 40.4 0 0 0-2.36-6.882c-.045-.1.037-.264 0-.393-.136-.473-1.308-.249-1.77-.295v11.11c-.331.24-.165.686-.2 1.081-.357-.15-.631.188-.688.2a16 16 0 0 1-2.753 0c-.6-.1-.585.126-.983.2-.49.087-1.152-.062-1.671 0 .029-.284-.044-.615 0-.885.079-.488.3-.573.2-1.18-.268-1.614.521-3.661.2-5.112a9 9 0 0 1-.2-1.376c.732-2.41-.329-5.859 0-7.865l-.393-.885.59-.295v-7.177l-.393 1.376v-1.671l.393-.1-.393-.393h.393l-.393-.393h.59v-.983l-.59.393.59-.59-.59-.295a.76.76 0 0 0 .2-.787c-.019-.078-.186-.124-.2-.2-.117-.8.084-1.821 0-2.654l1.278-.59.393.2a6 6 0 0 1 2.556-.2c.489.033 1.674.36 2.163.393 2.208.148 4.086-.314 6.1.59.156.07.5-.084.688.295l-.2.295a3 3 0 0 1 .393 0c.013 0 .145.142.2.2s.134.33.295.393l.3-.2h.295c.136.05.089.19.1.2l-.2.1c0 .126.186.088.2.1a.64.64 0 0 0 .2.2l.393.393a.64.64 0 0 0 .2.2c.01.011-.028.2.1.2l.1-.2c.175.166.506.176.393.59h.393c.018.123-.033.326 0 .393l-.393-.1c.222.1.161.335.2.393a.18.18 0 0 0 .2.1c.047.061-.041.079.2.2.028.07-.039.2 0 .295.055.139.192.088.2.1a3 3 0 0 1 0 .393h.2v-.393c0 .01.162-.036.2.1a.51.51 0 0 1-.2.59l.393-.1.2 1.18h-.2l-.2-.59.2 1.376.2-.786h.2l-.2 1.77.2-.786h.2c-.042.27.063.652 0 .885-.045.165-.6.39-.393.885l.393-.1v.295h-.393c-.032.349.046.744 0 1.081-.015.1-.172 1.029-.2 1.081-.037.078-.109.2-.2.393a5 5 0 0 0-.2.786c-.009.019-.277-.032-.2.295.033.134.192.088.2.1a.426.426 0 0 1-.2.59v-.393h-.2c-.018.123.033.318 0 .393a.175.175 0 0 0-.2.1c-.041.088.026.284-.2.393l.393-.1c-.1.168.019.377-.393.688l-.59.2c-.01.135.628-.293.393.2-.088.183-.38.274-.393.295l-.1-.2c-.126 0-.088.186-.1.2l-.2.2-.2.2c-.011.01-.2-.027-.2.1l.2.1c-.135.1-.454.693-.688.786-.092.037-.211-.023-.295 0a1.5 1.5 0 0 1 .393-.492l-.1-.1-.885.688.1.1c.144-.261.327-.152.491-.2m-13.567-16.517h-.2v.393h.2Zm12.388.393h-.393v.2h.393Zm-.983.393h-.59v.2h.59Zm-11.208.983-.295-.59-.1.1.2.492Zm12.191-.59h-.393v.2h.393Zm-2.261.2a.1.1 0 0 0 0 .2.1.1 0 0 0 0-.2m2.458.2 1.377.688-.688-.688Zm-1.475 0a.1.1 0 0 0 0 .2.1.1 0 0 0 0-.2m.393.2a.1.1 0 0 0 0 .2.1.1 0 0 0 0-.2m1.081.393a.18.18 0 0 0-.1-.2 2.4 2.4 0 0 1-.492-.2v.59c.123.018.325-.033.393 0 .01 0-.028.2.1.2l.1-.2.393.1c-.084-.165-.3-.222-.393-.295m-12.388.2h-.2v.59h.2Zm15.042.393a.1.1 0 0 0 0 .2.1.1 0 0 0 0-.2m-1.376.393a.1.1 0 0 0 0 .2.1.1 0 0 0 0-.2m.393 0a.1.1 0 0 0 0 .2.1.1 0 0 0 0-.2m.59.2-.1.1.295.295.1-.1Zm-.393.59a.1.1 0 0 0 0 .2.1.1 0 0 0 0-.2m1.475 1.573-.2-.885-.393-.492.2.885Zm-10.028-.393v7.637c.344.154.624-.187.688-.2.414-.061.917.161 1.18-.2l.59.2.59-.393.2.393c.167-.3.405-.142.59-.2.136-.04.405-.487.59-.59.093-.052.258.037.295 0s-.052-.2 0-.295c.129-.232.476-.494.59-.787l-.2-.688.393.393c-.054-.46.077-1.04 0-1.475-.013-.072-.172-.116-.2-.2-.109-.353.32-.656.2-1.081l-.393.1.2-.688h-.393c.123-.648-.618-.947-.59-1.573a5 5 0 0 1-.492 0c-.1-.033-.519-.378-.59-.393a8.7 8.7 0 0 0-1.966-.2c-.074.011-.124.187-.2.2-.339.045-.732-.03-1.081 0m10.421.983h-.2v.393h.2Zm-.787 2.36.2-1.966-.393.492c.067.72-.255 1.525.393 1.966v.2c-.356.411-.714 1.194 0 1.475l.2-3.343Zm.983-1.18h-.2v.393h.2Zm0 1.376h-.2v.393h.2Zm0 .983h-.2v.59h.2Zm-.2.983h-.2v.393h.2Zm-.787.2h-.2v.393h.2Zm-.295.786a.1.1 0 0 0 0 .2.1.1 0 0 0 0-.2m.492.393h-.2v.393h.2Zm-.295.59a.1.1 0 0 0 0 .2.1.1 0 0 0 0-.2m-1.278.787c-.029.059-.648.827-.787.983s-.377.35-.59.59c-.046.052-.431.157-.393.393a.447.447 0 0 0 .59-.2c.108-.051.415.031.59 0v-.2h-.393v-.2l.393-.2.393.2.2-.688-.2-.295c.41.1.369-.188.393-.2a3 3 0 0 1 .393 0l-.59-.59c-.018.123.033.326 0 .393m.983-.393-.295.786-.59.983.885-.885Zm-1.081 1.966-.885.688.1.1a3.4 3.4 0 0 0 .885-.688Zm-1.18.787a.1.1 0 0 0 0 .2.1.1 0 0 0 0-.2m1.081 9.438-1.377-4.621-.786-2.36-.393-.492.59 2.261a17 17 0 0 1 1.376 4.344Zm-5.6-7.079a.1.1 0 0 0 0 .2.1.1 0 0 0 0-.2m1.475 4.129-.787-2.654-.59-1.081.393 1.475.393.59.2.983Zm.393-2.163-.393-.688.1-.295-.295.295.393.688Zm1.18.393h-.393c.062.233.279.293.2.59h.2Zm-.59.393.295.59.1-.1-.2-.492Zm.983.59h-.393v.393h.393Zm-.688.2a.1.1 0 0 0 0 .2.1.1 0 0 0 0-.2m.885.393-.393.1c.519.493-.128 1.007 0 1.573l.492.885v-.59l-.295-.688.393.1Zm-1.081.2a.1.1 0 0 0 0 .2.1.1 0 0 0 0-.2m1.475 7.275c.142-.472-.284-.784-.393-1.081a8.7 8.7 0 0 0-.786-2.36l-.983-2.949-.393-.492.786 2.261c.086 1.239.894 2.292.983 3.539Zm-1.278-5.309a.1.1 0 0 0 0 .2.1.1 0 0 0 0-.2m3.343.2a.1.1 0 0 0 0 .2.1.1 0 0 0 0-.2m-1.966.2a.1.1 0 0 0 0 .2.1.1 0 0 0 0-.2m3.736 4.522a.1.1 0 0 0 0 .2.1.1 0 0 0 0-.2" data-name="Path 1004"/><path d="M131.81 81.015h-.2v-.2c.008.012.151.154.2.2" data-name="Path 1005"/><path d="M133.383 91.04c.024-.257-.015-.528 0-.786l.2-.393.2-.786.2.688c-.316.219-.264 1.2-.59 1.278" data-name="Path 1006"/><path d="m131.024 92.223-.2-.2Z" data-name="Path 1007"/><path d="M132.793 92.416v-.393h.2c-.03.067.043.2 0 .295a.175.175 0 0 1-.2.1" data-name="Path 1008"/><path d="m130.237 93.206-.2-.2Z" data-name="Path 1009"/><path d="m129.648 93.796-.2-.2Z" data-name="Path 1010"/><path d="M133.187 82.978h-.2v-.393c.058.114.106.188.2.393" data-name="Path 1011"/><path d="M132.989 82.585c-.027-.032-.141.028-.2 0-.108-.269-.192-.184-.2-.2a3 3 0 0 1 0-.393 4.4 4.4 0 0 1 .393.59" data-name="Path 1012"/><path d="M131.22 94.383c.033-.033-.032-.155 0-.2.008-.011.138-.138.2-.2s.185-.188.2-.2c.042-.032.164.033.2 0-.035.052.051.205 0 .295a.65.65 0 0 1-.59.295" data-name="Path 1013"/><path d="M129.254 81.015h-.2l.2-.2Z" data-name="Path 1014"/><path d="M131.616 80.815c-.033-.033-.151.031-.2 0l-.393-.393c-.031-.046.032-.164 0-.2.06.042.384-.062.59.295.051.089-.035.243 0 .295" data-name="Path 1015"/><path d="M131.024 80.229h-.2v-.2c.193.133.185.189.2.2" data-name="Path 1016"/><path d="M133.186 91.433v-.393c.063-.011.135.015.2 0-.009.1.01.2 0 .295Z" data-name="Path 1017"/><path d="M130.434 79.835c-.228.035-.184-.192-.2-.2.027.021.231-.029.2.2" data-name="Path 1018"/><path d="M130.237 79.635a3 3 0 0 0-.393 0v-.2c.077.03.215-.049.295 0a.18.18 0 0 1 .1.2" data-name="Path 1019"/><path d="M129.844 79.442h-.2l.1-.2c.127 0 .088.193.1.2" data-name="Path 1020"/><path d="M4.983 94.776h.2l.885.983c-.238-.173-.46-.3-.688-.492a4 4 0 0 1-.393-.492" data-name="Path 1021"/><path d="M14.815 80.032v-.2c.011.01.2-.027.2.1Z" data-name="Path 1022"/><path d="M15.798 106.97v-.2h.2c-.092.105-.156.153-.2.2" data-name="Path 1023"/><path d="M13.635 79.049v-.2c.009.009.2-.027.2.1Z" data-name="Path 1024"/><path d="M14.422 79.442h-.2l.1-.2c.126 0 .088.186.1.2" data-name="Path 1025"/><path d="M13.242 78.656h-.2l.1-.2c.127 0 .088.193.1.2" data-name="Path 1026"/><path d="M14.618 79.639h-.2v-.2c.06.062.133.133.2.2" data-name="Path 1027"/><path d="M4.983 94.775c-.047-.034-.459.025-.59-.295l.2-.2-.295.1c-.879-.394-1.229-1.538-2.065-1.77C2.055 91.782.87 90.727.66 89.956c-.046-.169.05-.432 0-.59s-.356-.649-.393-.786a16 16 0 0 1-.2-4.326c.011-.073.181-.12.2-.2.162-.81.341-1.515.59-2.36.037-.124.47-.407.59-.59.053-.081.144-.509.2-.59A9.5 9.5 0 0 1 3.9 78.652a11 11 0 0 1 1.573-.786c.168-.046.423.046.59 0s.854-.374.983-.393c1.551-.227 3.117.435 4.621.393.037.037-.052.2 0 .295a.512.512 0 0 0 .885.1 1.6 1.6 0 0 0 .492.393c.009.007-.027.2.1.2l.1-.2c.077.03.216-.049.295 0a.18.18 0 0 1 .1.2l-.2.1c0 .125.188.089.2.1.22.223.386.23.59.393.011.009.121.124.2.2s.131.132.2.2c.01.01-.026.233.2.2a7.6 7.6 0 0 0 .787 1.081c.118.172 0 .22.393.492l-.787-1.475.983.983c.228.744.843 1.672.983 2.36.048.232-.043.546 0 .786.014.076.188.125.2.2.087.7-.062 1.538 0 2.261l-.393-.688a3.98 3.98 0 0 0-.2-2.753c-.188-.666-.144-1.229-.787-1.671.231.911.664 2.21.787 3.048.134.919-.1 2.095 0 3.048l-.492-.2-.1.393-.393-.2-.295.786c-.465.1-.3-.4-.295-.688a2.2 2.2 0 0 1 .2-.786c.053-.605-.037-1.257 0-1.868l-.2.786-.393-.1.2.2-.2.2.295.295-.1.786-.393-.983v1.77l-.393-.983-.2.983-.2-.983c-.384-.039-.131.449-.2.688a.57.57 0 0 1-.59.295c-.029-.284.045-.616 0-.885-.021-.129-.379-.141 0-.393v-.885l-.295.393-.295-.393-.2.393-.2-.983-.393.59v-.983h-.393v-.59h-.393v-.393l-1.671-.983c-.306.042-.706-.061-.983 0-.072.016-.113.163-.2.2a2.48 2.48 0 0 0-1.278.885c-.028.042.031.145 0 .2-.075.127-.379.526-.393.59a13 13 0 0 0 0 2.163c.016.072.163.113.2.2a7.8 7.8 0 0 0 2.261 2.851c1.232.929 2.6 1.866 3.933 2.753.491.325 1.307 1.315 1.77 1.573.093.052.258-.037.295 0a8.6 8.6 0 0 1 .59 1.18h.399c.037.037-.052.2 0 .295a6 6 0 0 1 .787 1.77c.034.115.757.875.787.983.046.167-.046.422 0 .59.024.087.377.516.393.59.066.306-.045.747 0 1.081l-.393-.786c.059.524-.083 1.173 0 1.671.02.12.26.129 0 .59l.393.59-.2.885-.393-.393.2 1.081-.492.885-.295-.393.1.787c-.369.206-.228.453-.295.688-.043.151-.373.272-.393.295l.1-.59c-.328.173-.23.423-.295.59 0 .01-.2-.029-.2.1l.2.1a7.07 7.07 0 0 1-3.834 2.556c-.2.065-.846.373-.983.393a25.5 25.5 0 0 1-4.129 0 19 19 0 0 1-.787-.2c-.916-.25-2.058-1.176-3.048-1.376v-.393a3 3 0 0 1-1.081-.59 6.3 6.3 0 0 1-1.081-1.278c-.2-.34-.118-.713-.2-.983a11 11 0 0 1-.393-2.163c-.009-.073-.19-.126-.2-.2a16 16 0 0 1 0-2.753c.013-.076.305-.177.2-.492.4-.064.457.361.688 0l.59.2c.127.033.081.126.1.2-.194-.013-.4.008-.59 0 .442.762.051 1.834.2 2.655.1.539.609 1.506.787 2.163l.59.492-.59-.885.2-.295h-.406c-.032-.281.049-.622 0-.885-.013-.073-.381-.716-.393-.786-.112-.628.08-1.5 0-2.163.031-.127.126-.081.2-.1.029.585-.02 1.184 0 1.77.344.046.191-.448.2-.688a7 7 0 0 1 0-1.081c0-.01.2.028.2-.1l-.2-.1.393-.2v-.393l.492.2.59-.2c.243.388.3-.08.59 0 .3.418.581.444 1.081.393v-.393l.688.393.393-.2.295.295c.032.383-.046.809 0 1.18.009.073.19.125.2.2.049.482-.093 1.153 0 1.573.016.072.163.113.2.2.052.132.143.508.2.59a9 9 0 0 0 .885.885c.164.045.414-.041.59 0 .073.017.205.314.59.2.081-.025.124-.183.2-.2.239-.044.578.057.787 0 .1-.027.258-.318.393-.393.093-.052.258.037.295 0s-.044-.189 0-.295a8 8 0 0 1 .59-.787c.045-.164-.041-.414 0-.59.018-.077.183-.122.2-.2a3.2 3.2 0 0 0 0-.786c-.014-.074-.18-.12-.2-.2-.039-.178.045-.425 0-.59-.02-.075-.167-.115-.2-.2A4.26 4.26 0 0 0 10 98.708c-.594-.448-1.716-.972-1.868-1.77l-.295.2a4.1 4.1 0 0 1-1.081-.885c-.035-.121.035-.272 0-.393-.075-.262-1.176-1.152-1.573-1.082l-.1-.2Zm7.472-10.421h-.2v.393h.2Zm.2.983h-.2v.393h.2Zm-5.6 10.618-.1.1.688.688.1-.1Zm-4.621 6.1c.128-.55-.308-.973-.2-1.475.018-.079.54-.638 0-.688a3.15 3.15 0 0 0-.2 1.278c.014.075.182.121.2.2.048.25-.176.727.2.688m.393 1.376-.2-1.18h-.2l.2 1.18Zm-.787-.983h-.2v.393h.2Z" data-name="Path 1028"/><path d="M1.838 100.085c-.064.011-.135-.015-.2 0a1.3 1.3 0 0 0 0-.2h.2Z" data-name="Path 1029"/><path d="M14.815 79.835h-.2v-.2z" data-name="Path 1030"/><path d="M48.734 83.568c-.077-.015-.137-.24-.295-.2-.1.125.089 1.667 0 2.065-.338 1.51.165 2.96-.2 4.719-.041.2.026.469 0 .688 1.137.051 2.306-.07 3.441 0 .069 0 .126.192.2.2.626.047 1.377-.087 1.966 0 .057.008.331.347.688.2.078.079-.063 1.515 0 1.868.1.545.368.413.2 1.18-.1.431.068 1.1 0 1.573a2.8 2.8 0 0 1-.688.492h-5.8v7.275h.393l-.2.393c.349-.031.743.046 1.081 0 1.764-.236 3.983.11 5.7-.2.9-.161 1.384.177 2.163 0 .289-.065.994-.029 1.081.295a11.4 11.4 0 0 1 0 1.966 1 1 0 0 0-.2.787 2.2 2.2 0 0 1 0 .983c-.071.414 0 .85-.393 1.18l.393.492c-4.123.144-8.376-.194-12.486 0-.068 0-.128.193-.2.2a11.4 11.4 0 0 1-2.949-.2c-.2-.04-.468.026-.688 0l.2-13.371-.393-.2.393-.1c-.08-.667.112-1.535 0-2.163a.565.565 0 0 1-.2-.59c.444-1.46-.22-3.329 0-5.112a14.1 14.1 0 0 0 0-4.523c-.015-.076-.186-.124-.2-.2-.177-1.208.25-2.565 0-3.343l.59-1.573-.2-.295c3.925.144 7.985-.194 11.9 0 .069 0 .127.193.2.2a14 14 0 0 1 2.753.2c.248.058.772-.1.885.295a.56.56 0 0 1-.2.59c0 .065.184.121.2.2.189 1.139-.224 2.555.1 3.638.2.1-.175.393-.2.393Zm-2.654 0h-.2v.393h.2Zm.393 3.343V85.24l-.2-.688-.1.786-.295-.1c.359.268.358.371.393.787.022.259-.17.907.2.885m.59-1.376h-.2v1.18h.2Zm-.688 1.573a.1.1 0 0 0 0 .2.1.1 0 0 0 0-.2m.688.2h-.2v.983h.2Zm-.59 1.376.2-.492-.2-.688h-.2v1.18Zm.59 1.77c-.008-.358.012-.721 0-1.082-.008-.227.129-.541-.2-.491.008.358-.012.722 0 1.081.008.227-.129.541.2.492m-.59 0v-.688l-.2-.688Zm0 .2h-.2v.59h.2Zm.688 3.146a.1.1 0 0 0 0 .2.1.1 0 0 0 0-.2m-.492 2.36-.59.492c.213 1.707-.288 4.089 0 5.7.064.362.119.718.2.983.1.34-.264.82.393.688Zm.2 0v7.755l.393.295c.04-.475-.057-1.011 0-1.475a1.5 1.5 0 0 0 .2-.983c-.213-.952.007-2.043-.2-2.949a2.4 2.4 0 0 1 .2-1.573v-.393Zm.983 6.292h-.2v1.376h.2Zm-1.376 2.949h-.2v.393h.2Z" data-name="Path 1031"/><path d="m103.986 83.568-.295.295c.065 1.224-.089 2.524 0 3.736a14 14 0 0 0 .393 1.966c.037.131-.021.333 0 .492l-.393-.1c.295.162.141.4.2.59.1.356.919.348 1.278.295a18.5 18.5 0 0 1 5.506 0c.271.043.6-.028.885 0-.026.22.041.487 0 .688a8.3 8.3 0 0 0-.2 2.163l-.2.2.2.295h-.59c.824.865.2 1.343-.787 1.376l.2.393c-.22.025-.486-.04-.688 0-1.569.311-3.349.08-4.916.393-.2.04-.468-.026-.688 0 .15 1.289-.2 3 0 4.228a10.4 10.4 0 0 1 0 2.163c-.13.579.07.737 0 .983-.036.125-.342.325-.2.688.414-.032.872.046 1.278 0 .072-.008.126-.191.2-.2a54 54 0 0 1 6.882.2l.295.59.983.2-.2.59.983.295-.983.492.492.393h.688l-.2 1.966c-.159.02-.358-.036-.492 0-.313.084-1.113.366-1.376.393-3.5.362-8.312-.547-11.6 0-.075.013-.131.2-.2.2s-.121-.184-.2-.2c-.787-.131-1.771-.023-2.36-.2-.1-.03-.169-.3-.492-.2-.03-.349.044-.742 0-1.082-.01-.073-.19-.126-.2-.2a19 19 0 0 1 0-3.146c.008-.057.347-.332.2-.688.4.025.42-.3.786 0l-.393-1.18h.393c.07-.07-.054-1.172 0-1.475.13-.728.08-1.676.2-2.36a1 1 0 0 0-.2-.786c-.141-.96.226-6.165 0-6.39h-.393l.1-1.573-.1-.492.393.1-.393-.393c-.04-.414.439-.581 0-.885l.393-.1-.1-.393h-.295c-.079-.48.313-.779.2-1.278a14.3 14.3 0 0 1-.2-2.36c0-.039.347-.333.2-.688h-.787l-.2-.688c.409-.854.118-2.119.2-3.146.005-.07.19-.125.2-.2.046-.476-.032-.994 0-1.475.333-.046.779.068 1.081 0 .079-.018.134-.268.393-.2a32.5 32.5 0 0 0 5.9.393c2 .051 4-.037 6 0v.393l2.753-.2-.393.295.59.983-.393.393.59.492-.295.2c.352.311-.086.794-.1.885a5 5 0 0 1-.2 1.18c-.039.123-.013.688-.295.688Zm-.2-5.309a.1.1 0 0 0 0 .2.1.1 0 0 0 0-.2m.59 0a.1.1 0 0 0 0 .2.1.1 0 0 0 0-.2m-5.506 5.506a.1.1 0 0 0 0 .2.1.1 0 0 0 0-.2m.1 3.933c-.006-.424.009-.852 0-1.278-.005-.239.147-.734-.2-.688l-.1.787c.428.418-.576 1.3.295 1.18m.393-.983h-.2v.393h.2Zm0 .787h-.2v.393h.2Zm-.393.59c-.791-.1-.2.437-.2.492 0 .1-.07-.017 0 .393a.76.76 0 0 1-.2.787l.2.393-.2.2.393.492Zm.393.2h-.2v.59h.2Zm0 1.376h-.2v.983h.2Zm-1.18.983h-.2v.393h.2Zm1.18 13.764v-8.062l-.393 1.18c-.126-.643.345-1.817-.393-2.163.108.937-.148 2.155 0 3.048a20 20 0 0 1-.2 4.916c-.042.2.026.469 0 .688l.393.2-.393.2Zm13.862 2.556a.1.1 0 0 0 0 .2.1.1 0 0 0 0-.2" data-name="Path 1032"/><path d="m77.543 78.259-2.163-.393c.752.092 1.746-.127 2.458 0a18.8 18.8 0 0 0 4.523 0c2.387-.164 5.1.629 7.472 0a4.7 4.7 0 0 0 .786.393c.263.049.6-.032.885 0l-.2-.393 1.573-.2-1.18.59h1.868l.688.688-.787.393.688.885.2-.2.295.688-.2.295h.59c.154.344-.187.624-.2.688-.045.305.06.7 0 .983a2.9 2.9 0 0 1-.492.688c-.039.025-.134-.029-.2 0-.085.039-.127.181-.2.2-.688.154-1.946-.067-2.753 0a7 7 0 0 1-1.77 0c-.577-.048-1.188.034-1.77 0l-.295.295v5.31c-.235 1.9-.28 4.195-.393 6.292-.076 1.4.055 2.826 0 4.228l.393-.786v2.36l-.393-1.18v4.719c.381-.309.186-1.37.2-1.868 0-.24-.147-.734.2-.688v3.539l-.393-.393c.029.284-.044.615 0 .885.012.075.189.125.2.2.052.469-.037 1 0 1.475h.2l.2-.786-.2 1.081-.2.2.393.59c-.152.1-.381.461-.492.492a15 15 0 0 1-2.36 0c-.075-.012-.131-.2-.2-.2l-.295.2v-.393l-.393-.2-.2.59c-.284-.03-.616.045-.885 0-.075-.012-.131-.2-.2-.2-.041 0-.194.3-.492.2l-.295-.59-.295.2v-10.52a18 18 0 0 1-.2-2.753c.25-1.115.031-2.721.2-4.129.032-.27.137-.289.2-.492l-.393-.1.2-.393-.2-.492h.393v-5.309l-.393.983v-2.362c-1.18.077-2.473-.106-3.638 0-.292.027-1.271.359-1.573.393-.406.046-.864-.032-1.278 0v-5.7Zm15.927.59-.59-.1.1.492.492-.2Zm-.492.59a.1.1 0 0 0 0 .2.1.1 0 0 0 0-.2m-7.472 4.719-.295.295.1.1.295-.295Zm-2.261 8.16v-7.374h-.2v9.438h.59v.393h.2v-8.062c-.372-.039-.149.438-.2.688-.014.076-.188.125-.2.2-.126 1.008.346 2.281.2 2.949a13 13 0 0 1-.2 1.376c-.058.2.345.527.2.885Zm2.36-5.407-.1-1.77c-.57.34-.09.655-.1.688-.019.078-.184.123-.2.2-.063.365-.034.774.393.885m.295-.786a.1.1 0 0 0 0 .2.1.1 0 0 0 0-.2m.1.393h-.2v.393h.2Zm-.393 4.326v-3.441l-.393-.295c.073.642-.1 1.453 0 2.065a2.4 2.4 0 0 1 0 1.18c-.13.363-.006.6.393.492m.393-3.343h-.2v1.376h.2Zm.393 0h-.2v.393h.2Zm-.492 2.36a.1.1 0 0 0 0 .2.1.1 0 0 0 0-.2m-.393 1.376a.1.1 0 0 0 0 .2.1.1 0 0 0 0-.2m.1.983h-.2v1.18h.2Zm-2.458 2.556-.1.1.295.295.1-.1Zm.688.2h-.2v.393h.2Zm1.77.393c-.535-.077-.384.087-.393.492-.011.491.008.986 0 1.475Zm-1.376 1.573h-.2v.393h.2Z" data-name="Path 1033"/><path d="M25.63 67.248a2.7 2.7 0 0 1 .688-.787c.59-.5 1.253-.886 1.868-1.475.135-.13.394-.544.59-.393l-.59 1.18c-.654.659-.812 1.26-1.77 1.573-.439.144-.391-.132-.787-.1" data-name="Path 1034"/><path d="M26.613 78.652h.197V87.5h-.197z" data-name="Rectangle 814"/><path d="M97.793 92.613h.197v5.112h-.197z" data-name="Rectangle 815"/><path d="M29.563 64.298c-.315.073-.233-.559-.2-.688a8.6 8.6 0 0 1 1.379-1.278c.086.375-.217.461-.393.688-.276.357-.736.774-.786 1.278" data-name="Path 1035"/><path d="M122.372 55.646c-.1.286.549 1 .393 1.18a2.6 2.6 0 0 1-.983-1.082Z" data-name="Path 1036"/><path d="m34.282 58.206-.2-.1c0-.126.186-.088.2-.1Z" data-name="Path 1037"/><path d="M34.281 58.203c.226.034.175-.169.2-.2.008-.011.231.028.2-.2l.787-.492-1.376 1.77-.787.59Z" data-name="Path 1038"/><path d="M34.674 57.809h-.2l.885-1.18Z" data-name="Path 1039"/><path d="M34.478 58.009h-.2c.05-.049.189-.185.2-.2Z" data-name="Path 1040"/><path d="M22.68 63.512c.134.134-1.1.977-.983 1.278l-.983.885.393-.688Z" data-name="Path 1041"/><path d="M26.809 107.361c-.344.045-.191-.448-.2-.688-.009-.36.006-.723 0-1.081.344-.045.191.448.2.688.008.36-.006.723 0 1.082" data-name="Path 1042"/><path d="m14.225 67.05-.295.393h-.885v-.2c.4-.041.693-.3 1.18-.2" data-name="Path 1043"/><path d="M23.268 66.658c-.092-.458.485-.525.393-.983h.2a.855.855 0 0 1-.59.983" data-name="Path 1044"/><path d="M20.714 98.512h.197v1.376h-.197z" data-name="Rectangle 816"/><path d="M31.529 58.596c-.14.323-.44.651-.787.59.14-.323.44-.651.787-.59" data-name="Path 1045"/><path d="M20.714 100.085h.197v1.18h-.197z" data-name="Rectangle 817"/><path d="M81.276 87.501h.197v.983h-.197z" data-name="Rectangle 818"/><path d="M133.973 87.894h.197v.983h-.197z" data-name="Rectangle 819"/><path d="m28.772 61.546-.59.59a.5.5 0 0 1 .59-.59" data-name="Path 1046"/><path d="m27.199 62.332-.59.59a.5.5 0 0 1 .59-.59" data-name="Path 1047"/><path d="M20.714 104.411h.197v.787h-.197z" data-name="Rectangle 820"/><path d="M32.315 60.562c-.127-.246.315-.687.393-.59.127.246-.315.687-.393.59" data-name="Path 1048"/><path d="M32.217 109.719c-.076-.013-.177-.305-.492-.2.034-.614-.048-1.255 0-1.868a63.5 63.5 0 0 0 .2-9.045 18 18 0 0 0 0-2.163c-.077-.28-.6-.36-.885-.295a11.5 11.5 0 0 1-3.539.2c-.122-.027-.262-.454-.59 0l-.295-.2c-.047.447.156.995-.2 1.278v10.913h.2v-.59l.2.492c-.568.614-.464 1.053-1.475.885-.595-.1-1.243.151-1.77 0-.2-.056-.4.064-.787 0a1.63 1.63 0 0 0-.983.2c-.268.057-.584-.132-.787.2l-.295-.492v-2.262c.344-.046.191.447.2.688.009.36-.006.723 0 1.082l.393-.688v-.393a7.9 7.9 0 0 1-.2-2.949c0-.069.193-.128.2-.2.127-2.687-.094-5.465 0-8.16-.225-.269-.378-.025-.393.295s.007.656 0 .983c-.006.24.147.734-.2.688-.09-.529.127-1.408 0-1.868-.034-.125-.481-.417-.59-.59.473-.939-.05-2.28.393-3.244h-.393v-1.573l.59-.295V77.472l.2.393.885-.393.59.393.2-.2.2.2.59-.2a9.1 9.1 0 0 0 2.36.393c.075.013.131.2.2.2.041 0 .193-.3.492-.2v12.584c.937.14 2.388-.192 3.244 0 .37.083.613.114.983.2.608.136 1.07-.3 1.671-.2v-3.933h-.393v1.376h-.2v-3.834h.2c.02.588-.029 1.182 0 1.77.019.384-.028.312.393.295v-7.664h-.2v4.92c-.343.046-.192-.448-.2-.688a11 11 0 0 0 0-1.573 6.7 6.7 0 0 1 0-1.966 1.14 1.14 0 0 0-.2-.885c.11-.094 2.018.073 2.458 0 .736-.122 2 .157 2.949 0 .075-.012.129-.194.2-.2.033 0 .2.3.492.2v12.584l.983.2c-.14.323-.44.651-.787.59l.2.393h-.393c.03.283-.044.616 0 .885.067.406 0 .289 0 .393v16.222Zm.688-27.725c.036-.338.164-.506.2-.885.022-.259-.015-.526 0-.786l-.393-.688c.008.555-.011 1.115 0 1.671 0 .239-.147.734.2.688m-10.323.59a.1.1 0 0 0 0 .2.1.1 0 0 0 0-.2m10.52 0h-.2v.393h.2Zm0 .787h-.393a1.01 1.01 0 0 1 .2.787h.2Zm-10.421.983h-.2v6.1h.2Zm-1.376 2.949h-.2v.59h.2Zm0 .787c-.656.192-.075.514-.2.885-.027.082-.184.125-.2.2l.1 1.475c.39-.257.276-.507.295-.885.028-.554-.02-1.118 0-1.671m1.77.393h-.2v.393h.2Zm-.393 8.848-.2-.983-.295.59-.1.983.2-.787Zm-.492.983a.1.1 0 0 0 0 .2.1.1 0 0 0 0-.2m.1.393h-.2v.393h.2Zm-.1.983a.1.1 0 0 0 0 .2.1.1 0 0 0 0-.2m0 .393a.1.1 0 0 0 0 .2.1.1 0 0 0 0-.2m0 1.573a.1.1 0 0 0 0 .2.1.1 0 0 0 0-.2m0 2.556a.1.1 0 0 0 0 .2.1.1 0 0 0 0-.2" data-name="Path 1049"/><path d="M26.613 88.287h.197v.59h-.197z" data-name="Rectangle 821"/><path d="m39.394 61.742-.393.393v-.393Z" data-name="Path 1050"/><path d="m44.703 55.45.885-1.18-.295.688Z" data-name="Path 1051"/><path d="M53.355 46.994c-.47-.016-.822.543-1.18.885-.136.129-.394.544-.59.393l1.671-1.671Z" data-name="Path 1052"/><path d="m24.941 64.101-.2.787-.59.59Z" data-name="Path 1053"/><path d="M85.405 77.669h.59v.197h-.59z" data-name="Rectangle 822"/><path d="M12.259 86.517h.197v.59h-.197z" data-name="Rectangle 823"/><path d="M30.152 65.282h-.393v-.1l.393-.295Z" data-name="Path 1054"/><path d="m25.629 68.821-.492.2-.1-.1.59-.492Z" data-name="Path 1055"/><path d="M11.865 86.911h.197v.59h-.197z" data-name="Rectangle 824"/><path d="m54.338 45.618-.688.787-.1-.1c.221-.225.467-.35.393-.688Z" data-name="Path 1056"/><path d="M26.613 104.411h.197v.393h-.197z" data-name="Rectangle 825"/><path d="M12.652 87.697h.197v.393h-.197z" data-name="Rectangle 826"/><path d="M81.276 86.714h.197v.393h-.197z" data-name="Rectangle 827"/><path d="M112.737 78.062h.393v.197h-.393z" data-name="Rectangle 828"/><path d="M33.691 59.972h.393v.197h-.393z" data-name="Rectangle 829"/><path d="M35.756 56.04a.1.1 0 0 1 0 .2.1.1 0 0 1 0-.2" data-name="Path 1057"/><path d="M120.11 56.826a.1.1 0 0 1 0 .2.1.1 0 0 1 0-.2" data-name="Path 1058"/><path d="m31.528 58.301.688-.688.098.098-.688.688z" data-name="Rectangle 830"/><path d="M121.093 57.613a.1.1 0 0 1 0 .2.1.1 0 0 1 0-.2" data-name="Path 1059"/><path d="M119.324 58.006a.1.1 0 0 1 0 .2.1.1 0 0 1 0-.2" data-name="Path 1060"/><path d="M33.79 58.399a.1.1 0 0 1 0 .2.1.1 0 0 1 0-.2" data-name="Path 1061"/><path d="m83.439 48.863.098-.098.295.295-.098.098z" data-name="Rectangle 831"/><path d="M41.065 59.579a.1.1 0 0 1 0 .2.1.1 0 0 1 0-.2" data-name="Path 1062"/><path d="m29.562 60.464.491-.491.099.098-.492.491z" data-name="Rectangle 832"/><path d="M29.464 60.759a.1.1 0 0 1 0 .2.1.1 0 0 1 0-.2" data-name="Path 1063"/><path d="M40.279 61.349a.1.1 0 0 1 0 .2.1.1 0 0 1 0-.2" data-name="Path 1064"/><path d="M125.419 61.742a.1.1 0 0 1 0 .2.1.1 0 0 1 0-.2" data-name="Path 1065"/><path d="m125.714 62.234.098-.098.492.491-.099.098z" data-name="Rectangle 833"/><path d="M32.413 62.332a.1.1 0 0 1 0 .2.1.1 0 0 1 0-.2" data-name="Path 1066"/><path d="M29.071 64.102a.1.1 0 0 1 0 .2.1.1 0 0 1 0-.2" data-name="Path 1067"/><path d="M100.447 64.102a.1.1 0 0 1 0 .2.1.1 0 0 1 0-.2" data-name="Path 1068"/><path d="M23.368 64.298a.1.1 0 0 1 0 .2.1.1 0 0 1 0-.2" data-name="Path 1069"/><path d="M22.778 65.085a.1.1 0 0 1 0 .2.1.1 0 0 1 0-.2" data-name="Path 1070"/><path d="M26.121 65.281a.1.1 0 0 1 0 .2.1.1 0 0 1 0-.2" data-name="Path 1071"/><path d="m22.09 65.773.295-.295.098.098-.295.295z" data-name="Rectangle 834"/><path d="M22.778 65.478a.1.1 0 0 1 0 .2.1.1 0 0 1 0-.2" data-name="Path 1072"/><path d="m25.433 65.97.295-.295.098.098-.295.295z" data-name="Rectangle 835"/><path d="M29.071 66.068a.1.1 0 0 1 0 .2.1.1 0 0 1 0-.2" data-name="Path 1073"/><path d="m34.478 66.559.295-.295.098.098-.295.295z" data-name="Rectangle 836"/><path d="M28.088 67.051a.1.1 0 0 1 0 .2.1.1 0 0 1 0-.2" data-name="Path 1074"/><path d="M116.374 67.051a.1.1 0 0 1 0 .2.1.1 0 0 1 0-.2" data-name="Path 1075"/><path d="m33.298 67.739.295-.295.098.098-.295.295z" data-name="Rectangle 837"/><path d="M34.38 67.444a.1.1 0 0 1 0 .2.1.1 0 0 1 0-.2" data-name="Path 1076"/><path d="m118.439 67.936.295-.295.098.098-.295.295z" data-name="Rectangle 838"/><path d="M33.79 68.034a.1.1 0 0 1 0 .2.1.1 0 0 1 0-.2" data-name="Path 1077"/><path d="M33.397 68.427a.1.1 0 0 1 0 .2.1.1 0 0 1 0-.2" data-name="Path 1078"/><path d="M12.16 78.062a.1.1 0 0 1 0 .2.1.1 0 0 1 0-.2" data-name="Path 1079"/><path d="M38.706 55.057a.1.1 0 0 1 0 .2.1.1 0 0 1 0-.2" data-name="Path 1080"/><path d="M30.447 59.579a.1.1 0 0 1 0 .2.1.1 0 0 1 0-.2" data-name="Path 1081"/><path d="M58.172 41.292a.1.1 0 0 1 0 .2.1.1 0 0 1 0-.2" data-name="Path 1082"/><path d="M116.374 86.714a.1.1 0 0 1 0 .2.1.1 0 0 1 0-.2" data-name="Path 1083"/><path d="M86.683 51.714a.1.1 0 0 1 0 .2.1.1 0 0 1 0-.2" data-name="Path 1084"/><path d="M87.47 93.793a.1.1 0 0 1 0 .2.1.1 0 0 1 0-.2" data-name="Path 1085"/><path d="M32.217 34.017a.1.1 0 0 1 0 .2.1.1 0 0 1 0-.2" data-name="Path 1086"/><path d="M97.891 99.888a.1.1 0 0 1 0 .2.1.1 0 0 1 0-.2" data-name="Path 1087"/><path d="M97.891 100.282a.1.1 0 0 1 0 .2.1.1 0 0 1 0-.2" data-name="Path 1088"/><path d="M20.812 101.658a.1.1 0 0 1 0 .2.1.1 0 0 1 0-.2" data-name="Path 1089"/><path d="M26.711 103.231a.1.1 0 0 1 0 .2.1.1 0 0 1 0-.2" data-name="Path 1090"/><path d="m67.119 78.259.2.688c-.271 3.033.365 6.681 0 9.635-.116.936-.123 1.665-.2 2.753-.024.345.127.742-.2.983l.2.688v-.787h.2v1.966l-.393-.393c.033.48-.047 1 0 1.475a9.6 9.6 0 0 1 0 3.736l.393.983c-.021.076-.171.117-.2.2a1.1 1.1 0 0 0 0 .787c.144.864-.1 2.04 0 2.949l.295.295c1.552-.071 3.177.1 4.719 0a6.5 6.5 0 0 1 2.36 0c.587.107.819-.14 1.573 0 .263.049.6-.032.885 0l.2.688-.2.688-.59.2.59.1v.295h.492l.295.295-.2.59.2.2-.786.1.1.393h.295l-.2.393.393.1-.2.2.393.492c-.285.028-.613-.043-.885 0-.324.051-.776.129-1.18.2-2.689.447-7.535-.362-10.028.2-.858.192-1.61-.319-2.753-.2-.072.008-.126.19-.2.2-.544.048-1.124-.034-1.671 0 .15-.355-.2-.65-.2-.688 0-.065.184-.121.2-.2.16-.966-.5-2.05 0-3.146l-.393-.59a8 8 0 0 0 .393-3.933 38.3 38.3 0 0 1-.2-7.472c.124-.554.15-2.009.2-2.753.233-3.713-.418-8.092.2-11.6.014-.077.3-.176.2-.492a.85.85 0 0 1 .59.1c.308.19.054.548.393.492l.2-.787c.063-.077.9.941.786 0 .038-.032.184.039.295 0 .166-.059.136-.365.393 0a5.04 5.04 0 0 1 2.36-.2c.057.008.332.347.688.2m-2.556 8.652.295 1.376v-.59Zm-.59.59h-.2v.59h.2Zm0 .983h-.2v.983h.2Zm.688 0 .1.492-.1.295.295-.492Zm-1.18.393a.1.1 0 0 0 0 .2.1.1 0 0 0 0-.2m.1.393h-.2v.59h.2Zm1.081.59-.1.1.295.295.1-.1Zm-1.081.2h-.2v.59h.2Zm.393 0h-.2v3.343h.2Zm.787.393h-.2v.59h.2Zm0 4.916v-3.244c0-.065.181-.119.2-.2.041-.2-.026-.469 0-.688l-.393.295v3.815Zm-1.18-3.539h-.2v.393h.2Zm1.573 2.36h-.2v.393h.2Zm-.2 3.146c.592-.194.541-1.243.1-1.573Zm-.2-1.18h-.2v.393h.2Zm0 .59h-.2v.786h.2Zm-.787 7.275v-6.292c-.343-.046-.192.448-.2.688a36 36 0 0 1 0 3.736c-.023.156-.5.649 0 .983l-.2.393Zm1.18-1.278c.241-1.452-.178-3.491 0-5.014l-.393 1.966c-.006-.424.009-.852 0-1.278-.005-.24.147-.734-.2-.688v4.621c.214.251.149.5.2.786.045.267-.186.9.2.885l.2-.885c-.38-.252-.022-.264 0-.393m-1.573-3.834h-.2v.393h.2Zm-.1.983a.1.1 0 0 0 0 .2.1.1 0 0 0 0-.2" data-name="Path 1091"/><path d="M40.475 46.995a.1.1 0 0 1 0 .2.1.1 0 0 1 0-.2" data-name="Path 1092"/><path d="M42.835 50.337a.1.1 0 0 1 0 .2.1.1 0 0 1 0-.2" data-name="Path 1093"/><path d="M42.442 50.927a.1.1 0 0 1 0 .2.1.1 0 0 1 0-.2" data-name="Path 1094"/><path d="M99.17 102.641c-.326.049-.189-.265-.2-.492-.013-.36.008-.723 0-1.081.325-.049.189.265.2.491.012.36-.009.723 0 1.081" data-name="Path 1095"/><path d="M83.636 93.203v.983h-.393l.2-.295-.2-.688Z" data-name="Path 1096"/></g></svg>