<svg id="Group_470" data-name="Group 470" xmlns="http://www.w3.org/2000/svg" xmlns:xlink="http://www.w3.org/1999/xlink" width="120" height="120.002" viewBox="0 0 120 120.002">
  <defs>
    <clipPath id="clip-path">
      <rect id="Rectangle_842" data-name="Rectangle 842" width="120" height="120.002" fill="none"/>
    </clipPath>
  </defs>
  <g id="Group_469" data-name="Group 469" transform="translate(0 0)" clip-path="url(#clip-path)">
    <path id="Path_1108" data-name="Path 1108" d="M60,120A60,60,0,1,0,0,60a60,60,0,0,0,60,60" transform="translate(0 0)" fill="#251163"/>
    <path id="Path_1109" data-name="Path 1109" d="M19.405,22.576v24.36c0,11.17,4.785,21.2,14.222,29.818a60.637,60.637,0,0,0,13.945,9.5,60.637,60.637,0,0,0,13.945-9.5C70.956,68.139,75.74,58.106,75.74,46.936V22.576c-12.947-.129-19.823-2.6-28.168-7.359-8.343,4.754-15.22,7.23-28.168,7.359M47.573,88.528a1.079,1.079,0,0,1-.432-.089A60.528,60.528,0,0,1,32.222,78.4c-9.8-8.923-14.976-19.8-14.976-31.459V21.5a1.08,1.08,0,0,1,1.079-1.081c13.448,0,20.219-2.486,28.71-7.383a1.079,1.079,0,0,1,1.079,0c8.489,4.9,15.26,7.383,28.708,7.383A1.08,1.08,0,0,1,77.9,21.5V46.936C77.9,58.6,72.723,69.472,62.924,78.4A60.528,60.528,0,0,1,48,88.438a1.073,1.073,0,0,1-.432.089" transform="translate(12.427 9.29)" fill="#fff"/>
    <path id="Path_1110" data-name="Path 1110" d="M22.511,25.089V44.1c0,6.168,2.209,21.66,22.565,32.968C65.432,65.761,67.641,50.268,67.641,44.1V25.089a55.693,55.693,0,0,1-22.565-6.345,55.685,55.685,0,0,1-22.565,6.345M45.076,79a.889.889,0,0,1-.43-.11A55.935,55.935,0,0,1,30.362,67.75c-6.4-7.089-9.651-15.045-9.651-23.649V24.25a.9.9,0,0,1,.841-.9,54.39,54.39,0,0,0,23.106-6.421.9.9,0,0,1,.838,0,54.375,54.375,0,0,0,23.1,6.421.9.9,0,0,1,.841.9V44.1c0,8.6-3.247,16.561-9.651,23.649A55.893,55.893,0,0,1,45.508,78.885a.9.9,0,0,1-.432.11" transform="translate(14.924 12.127)" fill="#e9b4c5"/>
    <path id="Path_1111" data-name="Path 1111" d="M40.684,53.445a13.831,13.831,0,1,1,6.891-25.81,1.08,1.08,0,1,1-1.081,1.87A11.678,11.678,0,1,0,51.934,36.6a1.08,1.08,0,1,1,2.085-.559A13.817,13.817,0,0,1,40.684,53.445" transform="translate(19.34 18.583)" fill="#fff"/>
    <path id="Path_1112" data-name="Path 1112" d="M37.083,41.858a1.078,1.078,0,0,1-.764-.317l-4.2-4.2a1.08,1.08,0,1,1,1.528-1.526l3.436,3.438L48.921,27.408a1.08,1.08,0,0,1,1.528,1.528l-12.6,12.6a1.078,1.078,0,0,1-.764.317" transform="translate(22.917 19.522)" fill="#e6adbd"/>
  </g>
</svg>
