<?xml version="1.0" encoding="UTF-8"?>
<!DOCTYPE svg PUBLIC "-//W3C//DTD SVG 1.1//EN" "http://www.w3.org/Graphics/SVG/1.1/DTD/svg11.dtd">
<svg xmlns="http://www.w3.org/2000/svg" xmlns:xlink="http://www.w3.org/1999/xlink">
<symbol id="chevron-circle-left" viewBox="0 0 34 34">
  <g fill="none" stroke-width="2">
    <circle cx="17" cy="17" r="17"/>
    <circle cx="17" cy="17" r="16"/>
    <path d="m20.063 23.98-6.972-6.973 6.972-6.972"/>
  </g>
</symbol>
<symbol id="chevron-circle-right" viewBox="0 0 35 34">
  <g fill="none" stroke-width="2">
    <ellipse cx="17.5" cy="17" rx="17.5" ry="17"/>
    <ellipse cx="17.5" cy="17" rx="16.5" ry="16"/>
    <path d="m14.169 23.98 6.972-6.972-6.972-6.972"/>
  </g>
</symbol>
<symbol id="chevron-down" viewBox="0 0 14.874 14.874">
  <path fill="none" d="m1.059 7.436 6.377 6.377 6.377-6.376"/>
</symbol>
<symbol id="chevron-left" viewBox="0 0 16.773 16.773">
  <path fill="none" d="M8.386 15.36 1.414 8.386l6.972-6.972" data-name="Path 254"/>
</symbol>
<symbol id="chevron-right" viewBox="0 0 16.773 16.773">
  <path fill="none" d="m8.387 15.359 6.972-6.972-6.972-6.972" data-name="Path 254"/>
</symbol>
<symbol id="facebook" viewBox="0 0 21.57 21.57">
  <path d="M21.57 20.38a1.19 1.19 0 0 1-1.19 1.19h-5.5v-8.353h2.8l.42-3.256h-3.217V7.883c0-.942.261-1.585 1.613-1.585h1.724V3.386a23 23 0 0 0-2.512-.128 3.922 3.922 0 0 0-4.187 4.3v2.4H8.71v3.256h2.811v8.353H1.19A1.19 1.19 0 0 1 0 20.38V1.19A1.19 1.19 0 0 1 1.19 0h19.19a1.19 1.19 0 0 1 1.19 1.19Z"/>
</symbol>
<symbol id="instagram" viewBox="0 0 21.747 21.747">
  <path d="M10.872 1.959c2.9 0 3.247.011 4.394.063a6 6 0 0 1 2.019.374 3.6 3.6 0 0 1 2.064 2.064 6 6 0 0 1 .374 2.019c.052 1.147.063 1.491.063 4.394s-.011 3.247-.063 4.394a6 6 0 0 1-.374 2.019 3.6 3.6 0 0 1-2.064 2.064 6 6 0 0 1-2.019.374c-1.146.052-1.49.063-4.394.063s-3.247-.011-4.394-.063a6 6 0 0 1-2.019-.374 3.6 3.6 0 0 1-2.064-2.064 6 6 0 0 1-.374-2.019c-.052-1.147-.063-1.49-.063-4.394s.011-3.247.063-4.394a6 6 0 0 1 .374-2.019 3.6 3.6 0 0 1 2.064-2.064 6 6 0 0 1 2.019-.374c1.147-.052 1.491-.063 4.394-.063m0-1.959C7.919 0 7.549.012 6.389.065A8 8 0 0 0 3.75.57 5.56 5.56 0 0 0 .57 3.75a8 8 0 0 0-.505 2.639C.012 7.549 0 7.919 0 10.872s.013 3.323.065 4.483a8 8 0 0 0 .505 2.64 5.56 5.56 0 0 0 3.18 3.18 8 8 0 0 0 2.639.505c1.16.053 1.53.066 4.483.066s3.323-.013 4.483-.066a8 8 0 0 0 2.639-.505 5.56 5.56 0 0 0 3.18-3.18 8 8 0 0 0 .506-2.64c.053-1.16.065-1.53.065-4.483s-.013-3.323-.065-4.483a8 8 0 0 0-.506-2.639 5.56 5.56 0 0 0-3.18-3.18 8 8 0 0 0-2.639-.505C14.195.012 13.825 0 10.872 0"/>
  <path d="M10.873 5.291a5.584 5.584 0 1 0 5.584 5.584 5.584 5.584 0 0 0-5.584-5.584m0 9.208a3.624 3.624 0 1 1 3.625-3.625 3.624 3.624 0 0 1-3.625 3.625M17.986 5.069a1.3 1.3 0 1 1-1.3-1.3 1.3 1.3 0 0 1 1.3 1.3"/>
</symbol>
<symbol id="linkedin" viewBox="0 0 21.593 21.482">
  <path d="M7.67 7.138h4.262v2c.221-.291.382-.521.562-.736a4.38 4.38 0 0 1 2.919-1.583 7.6 7.6 0 0 1 2.492.117 4.09 4.09 0 0 1 3.252 3.037 11.5 11.5 0 0 1 .395 3.266c0 2.692.027 5.385.042 8.077 0 .045-.006.091-.01.154h-4.443v-.317c0-2.358.014-4.716-.009-7.074a6.1 6.1 0 0 0-.306-2.1 1.79 1.79 0 0 0-1.614-1.254 3.3 3.3 0 0 0-1.595.156 2.16 2.16 0 0 0-1.306 1.625 7.7 7.7 0 0 0-.18 1.567c-.019 2.348-.008 4.7-.008 7.045v.352H7.671ZM.379 7.139h4.432v14.343H.379zM2.572.011a2.515 2.515 0 0 1 2.584 2.755 2.583 2.583 0 0 1-5.153-.352 2.53 2.53 0 0 1 2.569-2.4"/>
</symbol>
<symbol id="pinterest" viewBox="0 0 21.53 21.57">
  <path d="M7.618 21.118a.3.3 0 0 1 .021-.145c.117-.341.551-.931.734-1.313a23.6 23.6 0 0 0 1.2-3.921l.358.427a4.13 4.13 0 0 0 4.75.04c2.439-1.467 3.487-5.087 2.712-7.74-1.786-6.108-11.59-5.895-13.272.227-.509 1.853-.2 4.355 1.356 5.642.184.152.785.617.941.273a11 11 0 0 0 .322-1.37 7 7 0 0 0-.462-.8C4.263 8.222 9.234 4.26 13.157 6.511c2.665 1.529 2.654 6.117.487 7.99-1.3 1.122-3.727.917-3.432-1.146.176-1.23 1.892-4.484.073-5.115-2.185-.757-3 2.707-2.165 4.17-.376 2.281-1.467 4.8-1.407 7.115a8 8 0 0 1 .073 1.26 10.2 10.2 0 0 1-2.807-1.621 10.733 10.733 0 1 1 3.641 1.953"/>
</symbol>
<symbol id="search" viewBox="0 0 20 20">
  <path d="m18.444 20-7-7a6.6 6.6 0 0 1-1.917 1.056 6.8 6.8 0 0 1-2.306.389 6.97 6.97 0 0 1-5.125-2.1 6.97 6.97 0 0 1-2.1-5.125 6.97 6.97 0 0 1 2.1-5.125 6.97 6.97 0 0 1 5.125-2.1 6.97 6.97 0 0 1 5.125 2.1 6.97 6.97 0 0 1 2.1 5.125 6.8 6.8 0 0 1-.389 2.306A6.6 6.6 0 0 1 13 11.445l7 7ZM7.222 12.222a4.82 4.82 0 0 0 3.542-1.458 4.82 4.82 0 0 0 1.458-3.542 4.82 4.82 0 0 0-1.458-3.542 4.82 4.82 0 0 0-3.542-1.458A4.82 4.82 0 0 0 3.68 3.68a4.82 4.82 0 0 0-1.458 3.542 4.82 4.82 0 0 0 1.458 3.542 4.82 4.82 0 0 0 3.542 1.458"/>
</symbol>
<symbol id="twitter" viewBox="0 0 20.999 21.57">
  <path d="m9.915 12.044-.812-1.171-6.6-9.517h2.759l5.362 7.728.815 1.174 6.915 9.955H15.58ZM18.356 0l-6.738 7.918L6.177 0H0l8.152 11.991L0 21.57h1.775l7.178-8.4 5.711 8.4h6.335L12.43 9.1 20.206 0Z"/>
</symbol>
<symbol id="youtube" viewBox="0 0 30.888 21.794">
  <path d="M13.586.011c3.4-.04 6.81.018 10.2.227 2.783.172 5.723.092 6.526 3.387a29 29 0 0 1 .539 5.6 47 47 0 0 1-.239 7.135c-.2 1.682-.444 3.24-1.946 4.249-1.255.843-3.393.84-4.88.932a137 137 0 0 1-16.669 0c-2.254-.139-4.892-.024-6.127-2.282-.745-1.363-.835-4.1-.91-5.669a48 48 0 0 1 .24-8.493c.222-1.671.546-3.152 2.111-4.055C3.659.334 5.707.326 7.116.242c2.152-.132 4.311-.2 6.47-.227m-1.292 6.349c.057 3.014 0 6.041 0 9.057 0 .011-.058.027.015.073l8.039-4.616-8.039-4.587c-.073.046-.015.061-.015.073"/>
</symbol>
</svg>