<svg id="Group_472" data-name="Group 472" xmlns="http://www.w3.org/2000/svg" xmlns:xlink="http://www.w3.org/1999/xlink" width="120" height="120.002" viewBox="0 0 120 120.002">
  <defs>
    <clipPath id="clip-path">
      <rect id="Rectangle_843" data-name="Rectangle 843" width="120" height="120.002" fill="none"/>
    </clipPath>
  </defs>
  <g id="Group_471" data-name="Group 471" transform="translate(0 0)" clip-path="url(#clip-path)">
    <path id="Path_1113" data-name="Path 1113" d="M60,120A60,60,0,1,0,0,60a60,60,0,0,0,60,60" transform="translate(0 0)" fill="#251163"/>
    <path id="Path_1114" data-name="Path 1114" d="M62.1,72.44c-.05,0-.081,0-.089,0l-16.779,0c-5.559,0-8.8-1.839-10.556-3.408a2.707,2.707,0,0,1-2.614,2.015H21.383a2.707,2.707,0,0,1-2.7-2.7V41.993a2.707,2.707,0,0,1,2.7-2.7h10.68a2.7,2.7,0,0,1,2.462,1.592c1.022-1.232,2.125-2.421,3.267-3.656,3.93-4.243,7.994-8.63,9.162-15.494.5-2.92,1.623-4.888,3.341-5.852a5.3,5.3,0,0,1,4.276-.31,5.763,5.763,0,0,1,3.152,3.322c2.1,5.423-2.084,14.869-3.458,17.975l-.15.337c-.327.745-.246,1-.244,1.007a1.45,1.45,0,0,0,.509.043l11.282-.009c7.6,0,8.741,3.8,8.741,6.07a5.982,5.982,0,0,1-2.669,4.855c1.308,2.06,1.674,3.9,1.087,5.49a5.408,5.408,0,0,1-2.944,2.9,5.979,5.979,0,0,1,.4,5.041A5.555,5.555,0,0,1,67.15,65.4c.1,2.445-.439,4.312-1.624,5.556A4.876,4.876,0,0,1,62.1,72.44M34.936,66.085c.535.848,3.1,4.2,10.3,4.2H62.066a2.76,2.76,0,0,0,1.92-.841c.84-.905,1.168-2.533.951-4.706l-.095-.965.951-.2a3.9,3.9,0,0,0,2.515-1.844c.451-1.039.146-2.455-.9-4.2l-.771-1.285,1.464-.323c.017,0,2.149-.508,2.7-2.01.5-1.373-.525-3.159-1.473-4.413l-.816-1.086,1.239-.551c.1-.045,2.495-1.163,2.495-3.541,0-2.6-2.216-3.913-6.585-3.913H54.519a2.752,2.752,0,0,1-2.386-.917c-.578-.769-.575-1.829.009-3.15l.151-.342c3.448-7.786,4.6-13.278,3.417-16.323a3.6,3.6,0,0,0-1.974-2.111,3.1,3.1,0,0,0-2.407.213c-1.094.626-1.874,2.123-2.247,4.322-1.278,7.495-5.564,12.123-9.707,16.6a60.479,60.479,0,0,0-4.439,5.162ZM21.383,41.446a.547.547,0,0,0-.547.547V68.344a.546.546,0,0,0,.547.545h10.68a.544.544,0,0,0,.544-.545V41.993a.546.546,0,0,0-.544-.547Z" transform="translate(13.459 10.992)" fill="#fff"/>
  </g>
</svg>
