<svg xmlns="http://www.w3.org/2000/svg" xmlns:xlink="http://www.w3.org/1999/xlink" width="1360.578" height="117.205" viewBox="0 0 1360.578 117.205">
  <defs>
    <clipPath id="clip-path">
      <rect id="Rectangle_624" data-name="Rectangle 624" width="1360.578" height="117.205" fill="#251163"/>
    </clipPath>
  </defs>
  <g id="Group_337" data-name="Group 337" transform="translate(0 0)">
    <g id="Group_336" data-name="Group 336" transform="translate(0 0)" clip-path="url(#clip-path)">
      <path id="Path_725" data-name="Path 725" d="M0,41.074C0,27.055,9.451,13.982,27.327,13.982c17.8,0,27.249,13.073,27.249,27.092S45.125,66.667,27.327,66.667C9.451,66.667,0,55.09,0,41.074M27.327,63.439c8.663,0,14.648-10.081,14.648-22.365S35.99,17.132,27.327,17.132c-8.822,0-14.57,11.655-14.57,23.942s5.748,22.365,14.57,22.365" transform="translate(0 17.34)" fill="#251163"/>
      <path id="Path_726" data-name="Path 726" d="M24.605,21.294H41.144V43.975c0,3.7,2.52,6.064,7.56,6.064a3.652,3.652,0,0,0,2.834-1.5V36.415c.081-7.088-1.653-12.365-4.568-12.679l-.708-.078a11.769,11.769,0,0,1-.078-1.5v-.867H62.642V36.415c0,9.765.71,11.812,4.57,13.781L68,50.59a3.6,3.6,0,0,1,.078.789L53.823,57.205H51.538V50.747C48.31,55,44.531,57.6,39.961,57.6c-6.615,0-9.921-4.883-9.921-12.444V35.864c0-7.009-1.734-11.814-4.568-12.128l-.789-.078a11.769,11.769,0,0,1-.078-1.5Z" transform="translate(30.513 26.408)" fill="#251163"/>
      <path id="Path_727" data-name="Path 727" d="M44.007,56.341a11.767,11.767,0,0,1,.078-1.5l.71-.078c2.991-.316,4.568-5.513,4.568-12.679,0-9.767-.71-11.655-4.568-13.783l-.71-.392a3.6,3.6,0,0,1-.078-.789l14.254-5.829h2.207v11.5c1.5-3.622,4.646-10.316,9.37-11.183,4.489-.786,6.537,1.734,7.247,5.907.473,3.306-2.207,5.986-3.938,5.354-1.969-.708-3.781-2.283-5.986-2.283-1.891,0-4.017,1.181-6.693,5.119v6.931c0,7.009,1.732,11.812,4.568,12.128l.786.078a11.77,11.77,0,0,1,.078,1.5v.867H44.007Z" transform="translate(54.574 26.408)" fill="#251163"/>
      <path id="Path_728" data-name="Path 728" d="M71.581,55.18c.874,1.371,2,3.369,2.746,4.742,5.865,10.858,15.6,18.721,24.086,18.721,10.732,0,17.471-5.741,17.471-12.731,0-5.865-9.236-12.106-23.835-16.1C79.07,46.32,70.459,37.583,70.459,27.6c0-15.972,12.6-26.207,32.446-26.207,8.237,0,17.6,2.872,22.964,7.238L126.991,28.6h-1.873c-2.621-9.111-12.6-22.338-23.21-22.213-10.11.123-16.6,5.116-16.6,13.1,0,4.991,9.234,10.732,23.463,14.6,13.6,3.743,22.462,12.854,22.462,23.586,0,15.1-12.854,26.084-32.82,26.084-11.481,0-22.213-4.12-27.455-8.613L69.834,55.18Z" transform="translate(86.603 1.727)" fill="#251163"/>
      <path id="Path_729" data-name="Path 729" d="M97.293,28.015v-2c5.988-1.248,14.852-9.61,22.338-21.339h2.87V20.9h16.6v7.112H122.5s-.123,24.588-.123,35.443c0,5.491,1.373,6.864,6.236,6.864,2.249,0,6.866-1.373,10.732-6.987l1.252,1.62c-6.49,11.608-16.351,13.479-20.593,13.479-11.982,0-15.477-3.743-15.477-18.1V28.015Z" transform="translate(120.655 5.804)" fill="#251163"/>
      <path id="Path_730" data-name="Path 730" d="M116.618,67.455a18.463,18.463,0,0,1,.125-2.37l1.122-.123c4.742-.5,7.24-8.739,7.24-20.094,0-15.475-1.125-18.47-7.24-21.839l-1.122-.623a5.669,5.669,0,0,1-.125-1.25l22.587-9.234h3.5V30.141c2.37-5.741,7.361-16.348,14.85-17.719,7.112-1.25,10.358,2.744,11.481,9.357.748,5.242-3.495,9.487-6.239,8.488-3.121-1.125-5.992-3.62-9.485-3.62-3,0-6.364,1.873-10.607,8.111V45.741c0,11.109,2.744,18.718,7.238,19.22l1.248.123a18.8,18.8,0,0,1,.123,2.37v1.373H116.618Z" transform="translate(144.62 14.785)" fill="#251163"/>
      <path id="Path_731" data-name="Path 731" d="M140.957,40.72c0-17.719,12.229-29.077,31.572-29.077,19.095,0,31.324,11.357,31.324,29.077S191.624,69.8,172.529,69.8c-19.343,0-31.572-11.355-31.572-29.079m31.572,24.962c7.489,0,12.357-9.736,12.357-24.962s-4.868-24.957-12.357-24.957S160.175,25.5,160.175,40.72s4.868,24.962,12.354,24.962" transform="translate(174.804 14.439)" fill="#251163"/>
      <path id="Path_732" data-name="Path 732" d="M170.031,67.8a18.467,18.467,0,0,1,.125-2.37l1.248-.123c4.617-.5,7.238-8.739,7.238-20.094,0-15.475-1.122-18.718-7.238-21.839l-1.248-.623a5.671,5.671,0,0,1-.125-1.25l22.587-9.234h3.5v8.611c3.244-4.494,11.106-9.236,21.214-9.236,9.859,0,13.479,7.486,13.479,19.22V46.087c0,11.109,2.744,18.718,7.238,19.22l1.248.123a18.467,18.467,0,0,1,.125,2.37v1.373H205.6V65.431l.75-.123c4.491-.75,6.864-8.111,6.864-19.22V32.734c0-6.239-3.12-13.353-8.237-13.353-2.5,0-5.491,1.873-8.86,6.615V46.087c0,11.109,2.744,18.718,7.238,19.22l1,.123v3.743H170.031Z" transform="translate(210.859 14.439)" fill="#251163"/>
      <path id="Path_733" data-name="Path 733" d="M213.417,87.177c-5.867-2.619-9.359-7.238-9.359-12.979,0-6.239,2.87-9.859,7.361-12.106-5.988-3.492-9.485-8.985-9.485-15.849,0-12.354,11.232-21.465,26.958-21.465A33.931,33.931,0,0,1,247.11,29.77c4.368-8.734,13.978-25.705,28.954-28.326,9.859-1.747,15.349,2.621,15.6,7.486.5,5.741-4.742,11.98-11.732,9.859a26.968,26.968,0,0,0-7.861-1.248c-10.609,0-17.222,7.363-22.464,14.1,4.491,3.743,7.238,8.736,7.238,14.6,0,12.231-12.48,20.094-27.954,20.094a38.774,38.774,0,0,1-11.857-1.75,5.179,5.179,0,0,0-1,3.371c0,2.621,2.87,4.368,7.238,4.617,0,0,11.731.125,13.353.249,13.727,1,24.334,8.239,24.959,17.847,1.122,17.222-17.6,25.71-36.442,25.21-10.356-.249-23.335-4.993-23.96-15.226-.5-8.111,4.619-12.231,12.231-13.479m13.1,24.211c13.479,0,21.59-4.368,20.094-13.1-1-5.988-7.115-7.737-15.974-8.36-4.868-.374-7.986,0-11.857-.874-3.618.748-5.865,3.62-5.865,10.107,0,5.867,4.494,12.231,13.6,12.231m-8.111-65.145c0,9.61,4.742,15.974,10.484,15.974S240.5,55.854,240.5,46.244c0-9.733-5.867-17.22-11.606-17.22s-10.484,7.486-10.484,17.22" transform="translate(249.453 1.303)" fill="#251163"/>
      <path id="Path_734" data-name="Path 734" d="M260.465,11.643c15.6,0,25.584,11.483,25.584,29.2l-37.439.625c1.622,11.107,7.737,19.843,22.838,18.721,3.246-.251,8.111-3.123,12.229-9.236l2,1.747c-6.364,12.354-19.095,17.1-27.829,17.1-17.222,0-28.329-10.235-28.329-26.209,0-19.467,11.98-31.946,30.947-31.946M248.236,37.476h14.476c12.48-.5,9.236-20.717-3.244-20.717-6.989,0-11.481,8.36-11.232,20.717" transform="translate(284.63 14.439)" fill="#251163"/>
      <path id="Path_735" data-name="Path 735" d="M256.085,67.455a18.459,18.459,0,0,1,.126-2.37l1.122-.123c4.742-.5,7.24-8.739,7.24-20.094,0-15.475-1.124-18.47-7.24-21.839l-1.122-.623a5.668,5.668,0,0,1-.126-1.25l22.587-9.234h3.5V30.141c2.37-5.741,7.361-16.348,14.85-17.719,7.112-1.25,10.358,2.744,11.481,9.357.748,5.242-3.495,9.487-6.239,8.488-3.12-1.125-5.99-3.62-9.485-3.62-2.995,0-6.364,1.873-10.607,8.111V45.741c0,11.109,2.744,18.718,7.238,19.22l1.248.123a18.8,18.8,0,0,1,.123,2.37v1.373H256.085Z" transform="translate(317.576 14.785)" fill="#251163"/>
      <path id="Path_736" data-name="Path 736" d="M289.886,4.166l.374-2.5h79l.376,2.5c.871,6.113,1.745,14.1,2.621,20.217a11.009,11.009,0,0,1-1.624-.125l-1.5-2.619c-5.865-9.236-17.222-15.1-29.576-14.977V58.451c0,11.109,2.746,18.721,7.238,19.22l1.248.125a18.459,18.459,0,0,1,.126,2.37V81.54H311.351V80.167a18.463,18.463,0,0,1,.125-2.37l1.248-.125c4.492-.5,7.238-8.111,7.238-19.22V6.662c-12.354-.123-23.712,5.741-29.576,14.977l-1.5,2.619a11,11,0,0,1-1.622.125c.874-6.116,2-14.1,2.621-20.217" transform="translate(356.243 2.073)" fill="#251163"/>
      <path id="Path_737" data-name="Path 737" d="M317.428,40.72C317.428,23,329.657,11.643,349,11.643c19.095,0,31.324,11.357,31.324,29.077S368.1,69.8,349,69.8c-19.343,0-31.572-11.355-31.572-29.079M349,65.681c7.489,0,12.357-9.736,12.357-24.962S356.489,15.763,349,15.763,336.646,25.5,336.646,40.72,341.514,65.681,349,65.681" transform="translate(393.649 14.439)" fill="#251163"/>
      <path id="Path_738" data-name="Path 738" d="M358.7,87.177c-5.867-2.619-9.359-7.238-9.359-12.979,0-6.239,2.87-9.859,7.361-12.106-5.988-3.492-9.485-8.985-9.485-15.849,0-12.354,11.232-21.465,26.958-21.465a33.931,33.931,0,0,1,18.219,4.991c4.368-8.734,13.978-25.705,28.954-28.326C431.2-.3,436.692,4.064,436.943,8.93c.5,5.741-4.742,11.98-11.732,9.859a26.967,26.967,0,0,0-7.861-1.248c-10.609,0-17.222,7.363-22.464,14.1,4.491,3.743,7.238,8.736,7.238,14.6,0,12.231-12.48,20.094-27.954,20.094a38.773,38.773,0,0,1-11.857-1.75,5.179,5.179,0,0,0-1,3.371c0,2.621,2.87,4.368,7.238,4.617,0,0,11.732.125,13.353.249,13.727,1,24.335,8.239,24.959,17.847,1.122,17.222-17.6,25.71-36.442,25.21-10.356-.249-23.335-4.993-23.96-15.226-.5-8.111,4.619-12.231,12.231-13.479m13.1,24.211c13.479,0,21.59-4.368,20.094-13.1-1-5.988-7.115-7.737-15.974-8.36-4.868-.374-7.986,0-11.857-.874-3.618.748-5.865,3.62-5.865,10.107,0,5.867,4.494,12.231,13.6,12.231m-8.112-65.145c0,9.61,4.742,15.974,10.484,15.974s11.606-6.364,11.606-15.974c0-9.733-5.867-17.22-11.606-17.22s-10.484,7.486-10.484,17.22" transform="translate(429.616 1.303)" fill="#251163"/>
      <path id="Path_739" data-name="Path 739" d="M405.744,11.643c15.6,0,25.584,11.483,25.584,29.2l-37.439.625c1.622,11.107,7.737,19.843,22.838,18.721,3.246-.251,8.111-3.123,12.229-9.236l2,1.747c-6.364,12.354-19.095,17.1-27.829,17.1C385.9,69.8,374.8,59.564,374.8,43.589c0-19.467,11.98-31.946,30.947-31.946M393.516,37.476h14.476c12.48-.5,9.236-20.717-3.244-20.717-6.989,0-11.481,8.36-11.232,20.717" transform="translate(464.793 14.439)" fill="#251163"/>
      <path id="Path_740" data-name="Path 740" d="M400.194,28.015v-2c5.99-1.248,14.85-9.61,22.339-21.339h2.87V20.9H442v7.112H425.4s-.123,24.588-.123,35.443c0,5.491,1.373,6.864,6.239,6.864,2.247,0,6.864-1.373,10.732-6.987l1.25,1.62c-6.49,11.608-16.348,13.479-20.593,13.479-11.98,0-15.475-3.743-15.475-18.1V28.015Z" transform="translate(496.289 5.804)" fill="#251163"/>
      <path id="Path_741" data-name="Path 741" d="M461.807,47.172c0-5.99-3.121-12.6-8.111-12.6-2.5,0-5.491,1.745-8.86,6.239V60.526c0,11.109,2.744,18.718,7.238,19.22l1.122.125h.251l-.125,3.743H418.878V79.872l1.248-.125c4.491-.5,7.112-8.111,7.112-19.22V32.945c0-15.475-1.122-18.718-7.238-21.839l-1.248-.623a5.77,5.77,0,0,1-.123-1.25L441.216,0h3.62V34.57a31.019,31.019,0,0,1,21.089-8.488c9.861,0,13.479,7.489,13.479,19.22V68.015c0,10.607.251,13.727.251,14.975,0,4.243.374,15.6,5.49,17.345,6.239,2.124,10.358-4.241,13.353-7.486a6.792,6.792,0,0,1,5.116-2.121c3.495,0,7.112,2.247,7.612,5.867,1,6.613-3.244,10.607-9.61,12.229a36.446,36.446,0,0,1-8.36,1c-5.739,0-11.481-1.373-15.849-4.245-3.495-2.247-15.6-8.486-15.6-27.455Z" transform="translate(519.15 0)" fill="#251163"/>
      <path id="Path_742" data-name="Path 742" d="M480.823,11.643c15.6,0,25.584,11.483,25.584,29.2l-37.439.625c1.622,11.107,7.737,19.843,22.838,18.721,3.246-.251,8.111-3.123,12.229-9.236l2,1.747c-6.364,12.354-19.095,17.1-27.829,17.1-17.222,0-28.329-10.235-28.329-26.209,0-19.467,11.98-31.946,30.947-31.946M468.594,37.476H483.07c12.48-.5,9.236-20.717-3.244-20.717-6.989,0-11.481,8.36-11.232,20.717" transform="translate(557.9 14.439)" fill="#251163"/>
      <path id="Path_743" data-name="Path 743" d="M476.443,67.455a18.472,18.472,0,0,1,.125-2.37l1.122-.123c4.742-.5,7.24-8.739,7.24-20.094,0-15.475-1.125-18.47-7.24-21.839l-1.122-.623a5.672,5.672,0,0,1-.125-1.25l22.587-9.234h3.5V30.141c2.37-5.741,7.361-16.348,14.85-17.719,7.112-1.25,10.358,2.744,11.481,9.357.748,5.242-3.495,9.487-6.239,8.488-3.121-1.125-5.992-3.62-9.485-3.62-2.995,0-6.364,1.873-10.607,8.111V45.741c0,11.109,2.744,18.718,7.238,19.22l1.248.123a18.806,18.806,0,0,1,.123,2.37v1.373H476.443Z" transform="translate(590.847 14.785)" fill="#251163"/>
      <path id="Path_744" data-name="Path 744" d="M509.092,21.462V19.1h24.021v.867a11.773,11.773,0,0,1-.078,1.5l-.867.078c-2.993.237-2.6,5.119.786,12.128l10.475,21.5,8.822-20.477c4.567-9.921,12.757-23.075,25.121-23.311,3.7-.078,7.4,1.653,7.4,5.591,0,3.544-2.52,6.931-5.435,6.064a18.274,18.274,0,0,0-4.881-.708c-13.546,0-20.712,17.876-24.337,25.515l-9.527,22.84h-3.152L519.329,33.668c-3.465-7.009-7.166-11.891-9.529-12.128Z" transform="translate(631.336 14.112)" fill="#251163"/>
      <path id="Path_745" data-name="Path 745" d="M550.941,37.108V30.966c0-4.017-1.1-6.615-2.834-6.615-3.465,0-5.119,3.779-4.411,9.292a21.476,21.476,0,0,1-5.513.867,24.266,24.266,0,0,1-5.67-.867c-1.024-7.4,6.615-12.838,18.114-12.444,7.323.237,12.049,4.805,12.049,12.365V47.189c0,3.387.63,5.591,3.071,5.591,1.81,0,2.755-.629,3.306-1.653l1.183,1.5c-1.891,3.463-5.04,5.67-12.05,5.67-3.149,0-5.591-1.418-6.458-3.86A20.914,20.914,0,0,1,540.861,57.9a9.5,9.5,0,0,1-9.765-9.451c0-9.214,12.917-11.026,19.845-11.339m-3.228,15.2a5.844,5.844,0,0,0,3.309-1.024l-.081-11.971c-4.33,0-8.741,2.047-8.741,7.325a5.417,5.417,0,0,0,5.513,5.67" transform="translate(658.623 26.265)" fill="#251163"/>
      <path id="Path_746" data-name="Path 746" d="M562.58,13.771h2.2v38.2c0,7.009,1.812,11.81,4.568,12.128l.788.078a11.736,11.736,0,0,1,.078,1.494v.869H548.248v-.869a11.745,11.745,0,0,1,.078-1.494l.708-.078c2.836-.318,4.646-5.119,4.646-12.128V34.64c0-9.843-.786-11.734-4.646-13.86l-.708-.394a4.625,4.625,0,0,1-.078-.786Z" transform="translate(679.894 17.078)" fill="#251163"/>
      <path id="Path_747" data-name="Path 747" d="M558.158,21.294H574.7V43.975c0,3.7,2.52,6.064,7.56,6.064a3.653,3.653,0,0,0,2.834-1.5V36.415c.08-7.088-1.653-12.365-4.568-12.679l-.708-.078a11.755,11.755,0,0,1-.078-1.5v-.867H596.2V36.415c0,9.765.71,11.812,4.57,13.781l.786.394a3.593,3.593,0,0,1,.079.789l-14.254,5.827h-2.285V50.747C581.863,55,578.084,57.6,573.514,57.6c-6.615,0-9.922-4.883-9.922-12.444V35.864c0-7.009-1.734-11.814-4.568-12.128l-.789-.078a11.782,11.782,0,0,1-.078-1.5Z" transform="translate(692.183 26.408)" fill="#251163"/>
      <path id="Path_748" data-name="Path 748" d="M597.265,21.119c9.845,0,16.145,7.245,16.145,18.427l-23.627.394c1.024,7.009,4.884,12.522,14.413,11.812,2.047-.157,5.119-1.967,7.717-5.827l1.261,1.1a20.284,20.284,0,0,1-17.563,10.786c-10.869,0-17.876-6.454-17.876-16.534,0-12.287,7.56-20.161,19.529-20.161m-7.717,16.3h9.135c7.876-.316,5.829-13.073-2.047-13.073-4.411,0-7.244,5.278-7.088,13.073" transform="translate(716.462 26.191)" fill="#251163"/>
      <path id="Path_749" data-name="Path 749" d="M594.641,45.653c.235,0,.473.078.945.078,1.575,4.332,5.748,10.318,11.5,10.318,3.779,0,6.221-2.128,6.221-5.435,0-2.207-2.6-4.646-6.615-6.221-7.088-2.758-11.734-7.641-11.734-11.736,0-6.772,6.3-11.891,16.537-11.891,3.23,0,8.584,1.181,11.026,3.936l-.314,8.665h-1.183c-2.048-4.017-4.568-9.767-9.214-10s-7.56,2.6-7.639,5.354c-.079,2.679,4.252,4.489,10.947,7.168,4.96,1.969,8.033,6.3,8.033,10.553,0,7.48-6.537,12.206-16.855,12.206-4.33,0-8.663-1.418-11.261-3.544Z" transform="translate(737.427 25.754)" fill="#251163"/>
    </g>
  </g>
</svg>
