<svg xmlns="http://www.w3.org/2000/svg" xmlns:xlink="http://www.w3.org/1999/xlink" width="1920" height="181.354" viewBox="0 0 1920 181.354">
  <defs>
    <clipPath id="clip-path">
      <rect id="Rectangle_3" data-name="Rectangle 3" width="1920" height="181.353" fill="#fff"/>
    </clipPath>
  </defs>
  <g id="Group_5" data-name="Group 5" transform="translate(0 0)">
    <g id="Group_4" data-name="Group 4" transform="translate(0 0)" clip-path="url(#clip-path)">
      <path id="Path_16" data-name="Path 16" d="M1866.616,5.694c-35.086-2.317-70.1-5.251-105.34-5.609-18.8-.191-37.605.007-56.408-.045-28.942-.078-57.878-.033-86.789,1.335-34.646,1.641-69.324,2.918-103.953,4.745-20.448,1.078-40.827,2.953-61.245,4.394-22.144,1.564-44.246,3.69-66.324,5.979-25.047,2.6-50,5.687-74.959,8.665-14.964,1.787-29.924,4.2-44.881,5.72-28.573,2.906-56.806,7.264-85.214,10.832-14.694,1.846-29.394,4.06-44.076,5.95q-37.727,4.86-75.512,9.563-16.841,2.112-33.748,3.881-38.3,4.02-76.631,7.879c-21.315,2.183-42.562,5.143-63.967,6.313-19.959,1.093-39.864,2.856-59.709,4.4-38.863,3.016-77.832,4.4-116.749,6.25-28.354,1.347-56.893.264-85.348.264v.108q-39.256,0-78.512-.007c-26.4-.035-52.527-3.3-78.922-3.859-18.4-.386-36.793-2.515-55.071-4.531-18.525-2.044-37.13-3.567-55.647-5.75-24.23-2.854-48.48-5.644-72.538-9.235-16.594-2.475-33.273-4.58-49.805-7.446-17.7-3.066-35.453-5.965-53.086-9.273-15.214-2.854-30.357-5.943-45.506-9.012-17.072-3.457-34.2-6.779-51.145-10.582-12.8-2.873-25.21-6.864-38.069-9.537C31.372,13.738,15.777,9.231,0,5.148V181.354H1920V11.317c-17.691-2.329-35.429-4.439-53.384-5.623" transform="translate(0 0)" fill="#fff"/>
    </g>
  </g>
</svg>
